# Blender 4.2.1 LTS
# www.blender.org
o Cube
v 0.500000 0.500000 -1.000000
v 0.500000 1.000000 -0.500000
v 1.000000 0.500000 -0.500000
v 0.500000 0.749672 -0.933202
v 0.749672 0.500000 -0.933202
v 0.739106 0.739106 -0.868316
v 0.749672 0.933202 -0.500000
v 0.500000 0.933202 -0.749672
v 0.739106 0.868316 -0.739106
v 0.933202 0.500000 -0.749672
v 0.933202 0.749672 -0.500000
v 0.868316 0.739106 -0.739106
v 0.500000 -1.000000 -0.500000
v 0.500000 -0.500000 -1.000000
v 1.000000 -0.500000 -0.500000
v 0.500000 -0.933202 -0.749672
v 0.749672 -0.933202 -0.500000
v 0.739106 -0.868316 -0.739106
v 0.749672 -0.500000 -0.933202
v 0.500000 -0.749672 -0.933202
v 0.739106 -0.739106 -0.868316
v 0.933202 -0.749672 -0.500000
v 0.933202 -0.500000 -0.749672
v 0.868316 -0.739106 -0.739106
v 1.000000 0.500000 0.500000
v 0.500000 1.000000 0.500000
v 0.500000 0.500000 1.000000
v 0.933202 0.749672 0.500000
v 0.933202 0.500000 0.749672
v 0.868316 0.739106 0.739106
v 0.500000 0.933202 0.749672
v 0.749672 0.933202 0.500000
v 0.739106 0.868316 0.739106
v 0.749672 0.500000 0.933202
v 0.500000 0.749672 0.933202
v 0.739106 0.739106 0.868316
v 1.000000 -0.500000 0.500000
v 0.500000 -0.500000 1.000000
v 0.500000 -1.000000 0.500000
v 0.933202 -0.500000 0.749672
v 0.933202 -0.749672 0.500000
v 0.868316 -0.739106 0.739106
v 0.500000 -0.749672 0.933202
v 0.749672 -0.500000 0.933202
v 0.739106 -0.739106 0.868316
v 0.749672 -0.933202 0.500000
v 0.500000 -0.933202 0.749672
v 0.739106 -0.868316 0.739106
v -0.500000 0.500000 -1.000000
v -1.000000 0.500000 -0.500000
v -0.500000 1.000000 -0.500000
v -0.749672 0.500000 -0.933202
v -0.500000 0.749672 -0.933202
v -0.739106 0.739106 -0.868316
v -0.933202 0.749672 -0.500000
v -0.933202 0.500000 -0.749672
v -0.868316 0.739106 -0.739106
v -0.500000 0.933202 -0.749672
v -0.749672 0.933202 -0.500000
v -0.739106 0.868316 -0.739106
v -1.000000 -0.500000 -0.500000
v -0.500000 -0.500000 -1.000000
v -0.500000 -1.000000 -0.500000
v -0.933202 -0.500000 -0.749672
v -0.933202 -0.749672 -0.500000
v -0.868316 -0.739106 -0.739106
v -0.500000 -0.749672 -0.933202
v -0.749672 -0.500000 -0.933202
v -0.739106 -0.739106 -0.868316
v -0.749672 -0.933202 -0.500000
v -0.500000 -0.933202 -0.749672
v -0.739106 -0.868316 -0.739106
v -1.000000 0.500000 0.500000
v -0.500000 0.500000 1.000000
v -0.500000 1.000000 0.500000
v -0.933202 0.500000 0.749672
v -0.933202 0.749672 0.500000
v -0.868316 0.739106 0.739106
v -0.500000 0.749672 0.933202
v -0.749672 0.500000 0.933202
v -0.739106 0.739106 0.868316
v -0.749672 0.933202 0.500000
v -0.500000 0.933202 0.749672
v -0.739106 0.868316 0.739106
v -0.500000 -1.000000 0.500000
v -0.500000 -0.500000 1.000000
v -1.000000 -0.500000 0.500000
v -0.500000 -0.933202 0.749672
v -0.749672 -0.933202 0.500000
v -0.739106 -0.868316 0.739106
v -0.749672 -0.500000 0.933202
v -0.500000 -0.749672 0.933202
v -0.739106 -0.739106 0.868316
v -0.933202 -0.749672 0.500000
v -0.933202 -0.500000 0.749672
v -0.868316 -0.739106 0.739106
vn 0.2566 0.2566 -0.9318
vn 0.2178 0.6901 -0.6901
vn 0.2566 0.9318 -0.2566
vn 0.6901 0.6901 -0.2178
vn 0.9318 0.2566 -0.2566
vn 0.6901 0.2178 -0.6901
vn 0.5774 0.5774 -0.5774
vn 0.2566 -0.9318 -0.2566
vn 0.2178 -0.6901 -0.6901
vn 0.2566 -0.2566 -0.9318
vn 0.6901 -0.2178 -0.6901
vn 0.9318 -0.2566 -0.2566
vn 0.6901 -0.6901 -0.2178
vn 0.5774 -0.5774 -0.5774
vn 0.9318 0.2566 0.2566
vn 0.6901 0.6901 0.2178
vn 0.2566 0.9318 0.2566
vn 0.2178 0.6901 0.6901
vn 0.2566 0.2566 0.9318
vn 0.6901 0.2178 0.6901
vn 0.5774 0.5774 0.5774
vn 0.9318 -0.2566 0.2566
vn 0.6901 -0.2178 0.6901
vn 0.2566 -0.2566 0.9318
vn 0.2178 -0.6901 0.6901
vn 0.2566 -0.9318 0.2566
vn 0.6901 -0.6901 0.2178
vn 0.5774 -0.5774 0.5774
vn -0.2566 0.2566 -0.9318
vn -0.6901 0.2178 -0.6901
vn -0.9318 0.2566 -0.2566
vn -0.6901 0.6901 -0.2178
vn -0.2566 0.9318 -0.2566
vn -0.2178 0.6901 -0.6901
vn -0.5774 0.5774 -0.5774
vn -0.9318 -0.2566 -0.2566
vn -0.6901 -0.2178 -0.6901
vn -0.2566 -0.2566 -0.9318
vn -0.2178 -0.6901 -0.6901
vn -0.2566 -0.9318 -0.2566
vn -0.6901 -0.6901 -0.2178
vn -0.5774 -0.5774 -0.5774
vn -0.9318 0.2566 0.2566
vn -0.6901 0.2178 0.6901
vn -0.2566 0.2566 0.9318
vn -0.2178 0.6901 0.6901
vn -0.2566 0.9318 0.2566
vn -0.6901 0.6901 0.2178
vn -0.5774 0.5774 0.5774
vn -0.2566 -0.9318 0.2566
vn -0.2178 -0.6901 0.6901
vn -0.2566 -0.2566 0.9318
vn -0.6901 -0.2178 0.6901
vn -0.9318 -0.2566 0.2566
vn -0.6901 -0.6901 0.2178
vn -0.5774 -0.5774 0.5774
vn -1.0000 -0.0000 -0.0000
vn -0.0000 -0.0000 1.0000
vn -0.0000 1.0000 -0.0000
vn 1.0000 -0.0000 -0.0000
vn 0.7071 -0.7071 -0.0000
vn 0.9660 -0.2585 -0.0000
vn -0.0000 0.2585 -0.9660
vn 0.2585 -0.9660 -0.0000
vn -0.9660 -0.2585 -0.0000
vn -0.0000 -0.2585 -0.9660
vn -0.7071 0.7071 -0.0000
vn -0.9660 0.2585 -0.0000
vn 0.2585 -0.0000 -0.9660
vn -0.2585 -0.0000 0.9660
vn -0.7071 -0.0000 0.7071
vn -0.0000 -0.2585 0.9660
vn -0.2585 0.9660 -0.0000
vn 0.7071 -0.0000 0.7071
vn -0.0000 -0.7071 0.7071
vn -0.9660 -0.0000 0.2585
vn -0.7071 -0.0000 -0.7071
vn 0.7071 0.7071 -0.0000
vn 0.9660 0.2585 -0.0000
vn -0.0000 -0.0000 -1.0000
vn -0.0000 0.7071 0.7071
vn -0.9660 -0.0000 -0.2585
vn -0.0000 0.2585 0.9660
vn -0.0000 -0.9660 0.2585
vn 0.9660 -0.0000 0.2585
vn -0.2585 -0.0000 -0.9660
vn 0.2585 -0.0000 0.9660
vn 0.9660 -0.0000 -0.2585
vn 0.7071 -0.0000 -0.7071
vn -0.0000 0.9660 -0.2585
vn -0.0000 -0.9660 -0.2585
vn -0.0000 -0.7071 -0.7071
vn -0.0000 0.7071 -0.7071
vn -0.2585 -0.9660 -0.0000
vn -0.7071 -0.7071 -0.0000
vn -0.0000 0.9660 0.2585
vn 0.2585 0.9660 -0.0000
vn -0.0000 -1.0000 -0.0000
vt 0.593709 0.437500
vt 0.562500 0.468709
vt 0.562500 0.437500
vt 0.625000 0.437500
vt 0.592388 0.467388
vt 0.656291 0.562500
vt 0.687500 0.500000
vt 0.687500 0.562500
vt 0.593709 0.562500
vt 0.657612 0.500000
vt 0.562500 0.531291
vt 0.562500 0.562500
vt 0.592388 0.532612
vt 0.625000 0.467388
vt 0.592388 0.483540
vt 0.312500 0.531291
vt 0.343709 0.562500
vt 0.312500 0.562500
vt 0.342388 0.500000
vt 0.342388 0.532612
vt 0.437500 0.468709
vt 0.375000 0.437500
vt 0.437500 0.437500
vt 0.437500 0.531291
vt 0.375000 0.467388
vt 0.406291 0.562500
vt 0.437500 0.562500
vt 0.407612 0.532612
vt 0.358540 0.532612
vt 0.593709 0.687500
vt 0.562500 0.718709
vt 0.562500 0.687500
vt 0.656291 0.687500
vt 0.592388 0.717388
vt 0.687500 0.750000
vt 0.687500 0.687500
vt 0.625000 0.812500
vt 0.592388 0.782612
vt 0.625000 0.782612
vt 0.562500 0.781291
vt 0.593709 0.812500
vt 0.562500 0.812500
vt 0.592388 0.766461
vt 0.437500 0.718709
vt 0.406291 0.687500
vt 0.437500 0.687500
vt 0.375000 0.782612
vt 0.407612 0.717388
vt 0.375000 0.812500
vt 0.437500 0.781291
vt 0.437500 0.812500
vt 0.312500 0.718709
vt 0.342388 0.750000
vt 0.312500 0.750000
vt 0.343709 0.687500
vt 0.312500 0.687500
vt 0.342388 0.717388
vt 0.358539 0.717388
vt 0.562500 0.281291
vt 0.593709 0.312500
vt 0.562500 0.312500
vt 0.562500 0.218709
vt 0.592388 0.282612
vt 0.593709 0.187500
vt 0.562500 0.187500
vt 0.625000 0.187500
vt 0.592388 0.217388
vt 0.812500 0.500000
vt 0.875000 0.562500
vt 0.812500 0.562500
vt 0.625000 0.312500
vt 0.625000 0.250000
vt 0.592388 0.233540
vt 0.625000 0.217388
vt 0.437500 0.218709
vt 0.375000 0.187500
vt 0.437500 0.187500
vt 0.375000 0.282612
vt 0.375000 0.217388
vt 0.375000 0.312500
vt 0.437500 0.281291
vt 0.437500 0.312500
vt 0.187500 0.531291
vt 0.157612 0.500000
vt 0.187500 0.500000
vt 0.156291 0.562500
vt 0.187500 0.562500
vt 0.125000 0.562500
vt 0.157612 0.532612
vt 0.125000 0.532612
vt 0.562500 0.031291
vt 0.593709 0.062500
vt 0.562500 0.062500
vt 0.592388 0.000000
vt 0.592388 0.032612
vt 0.593709 0.937500
vt 0.562500 1.000000
vt 0.562500 0.937500
vt 0.625000 0.937500
vt 0.592388 1.000000
vt 0.875000 0.687500
vt 0.812500 0.750000
vt 0.812500 0.687500
vt 0.625000 0.032612
vt 0.625000 0.062500
vt 0.187500 0.718709
vt 0.156291 0.687500
vt 0.187500 0.687500
vt 0.157612 0.750000
vt 0.157612 0.717388
vt 0.437500 1.000000
vt 0.375000 0.937500
vt 0.437500 0.937500
vt 0.437500 0.031291
vt 0.375000 0.000000
vt 0.437500 0.000000
vt 0.375000 0.062500
vt 0.437500 0.062500
vt 0.125000 0.717388
vt 0.125000 0.687500
vt 0.312500 0.500000
vt 0.657612 0.750000
vt 0.875000 0.532612
vt 0.562500 0.000000
vt 0.625000 1.000000
vt 0.875000 0.717388
vt 0.187500 0.750000
vt 0.375000 0.967388
vt 0.375000 0.032612
s 0
f 4/1/1 5/2/1 1/3/1
f 8/4/2 6/5/2 4/1/2
f 7/6/3 8/7/3 2/8/3
f 11/9/4 9/10/4 7/6/4
f 10/11/5 11/9/5 3/12/5
f 10/11/6 6/5/6 12/13/6
f 6/5/7 9/14/7 12/15/7
f 16/16/8 17/17/8 13/18/8
f 16/16/9 21/19/9 18/20/9
f 19/21/10 20/22/10 14/23/10
f 23/24/11 21/25/11 19/21/11
f 22/26/12 23/24/12 15/27/12
f 17/17/13 24/28/13 22/26/13
f 18/20/14 21/19/14 24/29/14
f 28/30/15 29/31/15 25/32/15
f 32/33/16 30/34/16 28/30/16
f 31/35/17 32/33/17 26/36/17
f 31/37/18 36/38/18 33/39/18
f 34/40/19 35/41/19 27/42/19
f 29/31/20 36/38/20 34/40/20
f 30/43/21 33/39/21 36/38/21
f 40/44/22 41/45/22 37/46/22
f 40/44/23 45/47/23 42/48/23
f 43/49/24 44/50/24 38/51/24
f 47/52/25 45/53/25 43/54/25
f 46/55/26 47/52/26 39/56/26
f 41/45/27 48/57/27 46/55/27
f 42/58/28 45/53/28 48/57/28
f 52/59/29 53/60/29 49/61/29
f 56/62/30 54/63/30 52/59/30
f 55/64/31 56/62/31 50/65/31
f 59/66/32 57/67/32 55/64/32
f 58/68/33 59/69/33 51/70/33
f 58/71/34 54/63/34 60/72/34
f 54/73/35 57/67/35 60/74/35
f 64/75/36 65/76/36 61/77/36
f 64/75/37 69/78/37 66/79/37
f 67/80/38 68/81/38 62/82/38
f 71/83/39 69/84/39 67/85/39
f 70/86/40 71/83/40 63/87/40
f 65/88/41 72/89/41 70/86/41
f 66/90/42 69/84/42 72/89/42
f 76/91/43 77/92/43 73/93/43
f 76/91/44 81/94/44 78/95/44
f 79/96/45 80/97/45 74/98/45
f 83/99/46 81/100/46 79/96/46
f 82/101/47 83/102/47 75/103/47
f 77/92/48 84/104/48 82/105/48
f 78/95/49 81/94/49 84/104/49
f 88/106/50 89/107/50 85/108/50
f 88/106/51 93/109/51 90/110/51
f 91/111/52 92/112/52 86/113/52
f 95/114/53 93/115/53 91/116/53
f 94/117/54 95/114/54 87/118/54
f 89/107/55 96/119/55 94/120/55
f 90/110/56 93/109/56 96/119/56
f 61/77/57 87/118/57 73/93/57 50/65/57
f 86/113/58 38/51/58 27/42/58 74/98/58
f 26/36/59 2/8/59 51/70/59 75/103/59
f 37/46/60 15/27/60 3/12/60 25/32/60
f 41/45/61 46/55/61 17/17/61 22/26/61
f 4/1/1 6/5/1 5/2/1
f 8/4/2 9/14/2 6/5/2
f 7/6/3 9/10/3 8/7/3
f 11/9/4 12/13/4 9/10/4
f 10/11/5 12/13/5 11/9/5
f 10/11/6 5/2/6 6/5/6
f 16/16/8 18/20/8 17/17/8
f 16/16/9 20/121/9 21/19/9
f 19/21/10 21/25/10 20/22/10
f 23/24/11 24/28/11 21/25/11
f 22/26/12 24/28/12 23/24/12
f 17/17/13 18/20/13 24/28/13
f 28/30/15 30/34/15 29/31/15
f 32/33/16 33/122/16 30/34/16
f 31/35/17 33/122/17 32/33/17
f 31/37/18 35/41/18 36/38/18
f 34/40/19 36/38/19 35/41/19
f 29/31/20 30/34/20 36/38/20
f 40/44/22 42/48/22 41/45/22
f 40/44/23 44/50/23 45/47/23
f 43/49/24 45/47/24 44/50/24
f 47/52/25 48/57/25 45/53/25
f 46/55/26 48/57/26 47/52/26
f 41/45/27 42/48/27 48/57/27
f 52/59/29 54/63/29 53/60/29
f 56/62/30 57/67/30 54/63/30
f 55/64/31 57/67/31 56/62/31
f 59/66/32 60/74/32 57/67/32
f 58/68/33 60/123/33 59/69/33
f 58/71/34 53/60/34 54/63/34
f 64/75/36 66/79/36 65/76/36
f 64/75/37 68/81/37 69/78/37
f 67/80/38 69/78/38 68/81/38
f 71/83/39 72/89/39 69/84/39
f 70/86/40 72/89/40 71/83/40
f 65/88/41 66/90/41 72/89/41
f 76/91/43 78/95/43 77/92/43
f 76/91/44 80/124/44 81/94/44
f 79/96/45 81/100/45 80/97/45
f 83/99/46 84/125/46 81/100/46
f 82/101/47 84/126/47 83/102/47
f 77/92/48 78/95/48 84/104/48
f 88/106/50 90/110/50 89/107/50
f 88/106/51 92/127/51 93/109/51
f 91/111/52 93/128/52 92/112/52
f 95/114/53 96/129/53 93/115/53
f 94/117/54 96/129/54 95/114/54
f 89/107/55 90/110/55 96/119/55
f 37/46/62 41/45/62 22/26/62 15/27/62
f 49/61/63 53/60/63 4/1/63 1/3/63
f 46/55/64 39/56/64 13/18/64 17/17/64
f 61/77/65 65/76/65 94/117/65 87/118/65
f 14/23/66 20/22/66 67/80/66 62/82/66
f 77/92/67 82/105/67 59/66/67 55/64/67
f 73/93/68 77/92/68 55/64/68 50/65/68
f 1/3/69 5/2/69 19/21/69 14/23/69
f 91/111/70 86/113/70 74/98/70 80/97/70
f 95/114/71 91/116/71 80/124/71 76/91/71
f 86/113/72 92/112/72 43/49/72 38/51/72
f 82/101/73 75/103/73 51/70/73 59/69/73
f 29/31/74 34/40/74 44/50/74 40/44/74
f 92/127/75 88/106/75 47/52/75 43/54/75
f 87/118/76 95/114/76 76/91/76 73/93/76
f 56/62/77 52/59/77 68/81/77 64/75/77
f 11/9/78 7/6/78 32/33/78 28/30/78
f 3/12/79 11/9/79 28/30/79 25/32/79
f 14/23/80 62/82/80 49/61/80 1/3/80
f 35/41/81 31/37/81 83/99/81 79/96/81
f 50/65/82 56/62/82 64/75/82 61/77/82
f 27/42/83 35/41/83 79/96/83 74/98/83
f 88/106/84 85/108/84 39/56/84 47/52/84
f 25/32/85 29/31/85 40/44/85 37/46/85
f 52/59/86 49/61/86 62/82/86 68/81/86
f 34/40/87 27/42/87 38/51/87 44/50/87
f 10/11/88 3/12/88 15/27/88 23/24/88
f 5/2/89 10/11/89 23/24/89 19/21/89
f 58/68/90 51/70/90 2/8/90 8/7/90
f 16/16/91 13/18/91 63/87/91 71/83/91
f 20/121/92 16/16/92 71/83/92 67/85/92
f 53/60/93 58/71/93 8/4/93 4/1/93
f 70/86/94 63/87/94 85/108/94 89/107/94
f 65/88/95 70/86/95 89/107/95 94/120/95
f 31/35/96 26/36/96 75/103/96 83/102/96
f 7/6/97 2/8/97 26/36/97 32/33/97
f 85/108/98 63/87/98 13/18/98 39/56/98
