# Blender 4.5.3 LTS
# www.blender.org
mtllib ambulance0.mtl
o Chassis_Black
v 0.333711 0.287179 -1.289857
v 0.333711 0.141842 -1.289857
v 0.423063 0.942148 -0.357910
v 0.426562 0.288605 -0.358660
v 0.427587 0.176592 -0.311124
v 0.393575 0.286920 -1.266098
v 0.306878 0.390053 -1.289857
v 0.194745 0.330451 -1.289857
v 0.198176 0.392178 -1.289857
v 0.197517 0.393595 -1.259772
v 0.306050 0.322387 -1.259772
v 0.195379 0.332849 -1.259772
v 0.356330 0.294490 1.193915
v 0.255498 0.294548 1.193915
v 0.356773 0.348982 1.193915
v 0.359553 0.297569 1.144169
v 0.256611 0.344324 1.144169
v 0.254922 0.293477 1.144169
v -0.427362 0.155937 -1.094607
v -0.426081 0.287095 -0.748187
v -0.426830 0.240651 -1.086582
v -0.427350 0.178007 -0.735985
v -0.427587 0.176592 -0.311124
v -0.423063 0.942148 -0.357910
v -0.426562 0.288605 -0.358660
v -0.385646 0.286915 -1.280855
v -0.306878 0.390053 -1.289857
v -0.197517 0.393595 -1.259772
v -0.311166 0.385326 -1.259772
v -0.306050 0.322387 -1.259772
v -0.195379 0.332849 -1.259772
v -0.356773 0.348982 1.193915
v -0.356330 0.294490 1.193915
v -0.255498 0.294548 1.193915
v -0.359553 0.297569 1.144169
v -0.353479 0.350222 1.144169
v -0.256611 0.344324 1.144169
v -0.254922 0.293477 1.144169
v 0.426081 0.287095 -0.748187
v 0.393575 0.141842 -1.261709
v 0.426755 0.287285 -1.070866
v 0.427362 0.155937 -1.094607
v 0.427350 0.178007 -0.735985
v 0.426830 0.240651 -1.086582
v 0.196597 0.227445 -1.289857
v -0.427398 0.943088 -0.311117
v -0.384996 0.141226 -1.280229
v -0.426755 0.287285 -1.070866
v -0.196597 0.227445 -1.289857
v -0.196368 0.196095 -1.289857
v 0.427398 0.943088 -0.311117
v -0.198176 0.392178 -1.289857
v -0.309226 0.325641 -1.289857
v 0.309226 0.325641 -1.289857
v 0.311166 0.385326 -1.259772
v -0.194745 0.330451 -1.289857
v 0.000000 0.171136 -1.289857
v -0.176501 0.254443 -1.289857
v 0.177398 0.253321 -1.289857
v 0.196368 0.196095 -1.289857
v 0.173932 0.168937 -1.289857
v -0.173932 0.168937 -1.289857
v 0.255341 0.346438 1.193915
v -0.255341 0.346438 1.193915
v 0.353479 0.350222 1.144169
v 0.393575 0.286920 -1.266098
v 0.393575 0.141842 -1.261709
v 0.333711 0.141842 -1.289857
v 0.333711 0.287148 -1.289857
vn 0.9841 -0.0880 -0.1541
vn 0.9660 0.2518 -0.0587
vn 0.9855 0.0310 -0.1667
vn 0.9494 -0.0034 -0.3140
vn 0.8029 0.5710 -0.1711
vn 1.0000 0.0053 -0.0060
vn 0.6211 0.6614 0.4205
vn 0.9995 0.0280 -0.0171
vn 1.0000 -0.0041 0.0035
vn -0.9154 0.3031 -0.2649
vn -0.0451 -0.0194 -0.9988
vn -0.0411 -0.0339 -0.9986
vn -0.7009 0.2512 -0.6676
vn -0.9808 0.0364 -0.1915
vn -0.9655 0.2550 -0.0537
vn -0.7632 0.0528 -0.6441
vn -1.0000 0.0053 -0.0060
vn -0.9988 -0.0172 -0.0458
vn -0.7273 0.6104 0.3136
vn -1.0000 -0.0038 0.0037
vn 0.6756 -0.7371 -0.0190
vn 0.6557 -0.7548 -0.0190
vn 0.7310 0.6823 0.0084
vn -0.6792 -0.7337 -0.0190
vn -0.6756 -0.7371 -0.0190
vn -0.7310 0.6823 0.0084
vn 0.7014 0.7128 0.0056
vn -0.8442 -0.5245 0.1106
vn 0.7128 -0.7013 0.0109
vn 0.5152 -0.8499 0.1106
vn -0.7014 0.7128 0.0056
vn -0.7128 -0.7013 0.0109
vn -0.0336 0.0215 -0.9992
vn -0.0000 -0.0000 -1.0000
vn 0.0559 0.0154 -0.9983
vn -0.0192 0.1461 -0.9891
vn -0.0125 -0.2347 -0.9720
vn -0.0128 -0.2398 -0.9707
vn -0.0439 0.0126 -0.9990
vn -0.9916 0.0514 -0.1187
vn -0.9825 0.1804 0.0461
vn 0.9916 0.0514 -0.1187
vn 0.9825 0.1804 0.0460
vn -0.6638 -0.7475 -0.0263
vn -0.7899 -0.6127 0.0255
vn -0.7227 0.6906 0.0279
vn -0.6191 0.7807 0.0852
vn 0.8864 0.2677 0.3777
vn 0.6638 -0.7475 -0.0263
vn 0.7899 -0.6127 0.0255
vn 0.7227 0.6906 0.0279
vn 0.6191 0.7807 0.0852
vn -0.3894 0.8398 -0.3784
vn -0.7580 0.6507 -0.0448
vn -0.7032 0.7109 0.0136
vn -0.6936 -0.7203 0.0043
vn -0.6319 -0.7748 -0.0190
vn 0.7135 -0.6995 -0.0394
vn 0.6936 -0.7203 0.0043
vn 0.7032 0.7109 0.0136
vn 0.7580 0.6507 -0.0448
vn 0.6677 -0.7441 -0.0191
vn -0.7136 -0.6995 -0.0394
vn 0.1170 -0.1209 -0.9858
vn -0.1888 -0.0112 -0.9819
vn 0.4026 0.0778 -0.9121
vn 0.5123 -0.1242 -0.8498
vt 0.502048 0.250000
vt 0.472815 0.222892
vt 0.454731 0.226329
vt 0.381830 0.227757
vt 0.375000 0.250000
vt 0.393895 0.181259
vt 0.434399 0.182278
vt 0.415411 0.130811
vt 0.437498 0.125000
vt 0.375000 0.264781
vt 0.422402 0.338223
vt 0.398673 0.342425
vt 0.502030 0.262434
vt 0.591951 0.334360
vt 0.592267 0.334321
vt 0.545273 0.334500
vt 0.446534 0.919349
vt 0.446510 0.919395
vt 0.450334 0.919927
vt 0.375000 0.312500
vt 0.400596 0.375008
vt 0.501956 0.312500
vt 0.449793 0.338180
vt 0.472402 0.341776
vt 0.472409 0.341946
vt 0.557940 0.140538
vt 0.500000 0.125000
vt 0.591759 0.315304
vt 0.588933 0.314513
vt 0.542026 0.316457
vt 0.536819 0.316976
vt 0.546409 0.334638
vt 0.446839 0.936682
vt 0.446597 0.936103
vt 0.450542 0.935879
vt 0.450720 0.935445
vt 0.450285 0.919838
vt 0.450285 0.919839
s 1
g Chassis_Black_Chassis_Black
usemtl Chassis_Black
f 6/1/1 41/2/2 44/3/3
f 44/3/3 42/4/4 40/5/5
f 40/5/5 6/1/1 44/3/3
f 43/6/6 39/7/7 4/8/8
f 4/8/8 5/9/9 43/6/6
f 47/10/10 50/11/11 62/12/12
f 26/13/13 21/3/14 48/2/15
f 21/3/14 47/10/10 19/4/16
f 47/10/10 21/3/14 26/13/13
f 22/6/17 25/8/18 20/7/19
f 25/8/18 22/6/17 23/9/20
f 9/14/21 10/15/22 8/16/23
f 28/15/24 52/14/25 56/16/26
f 14/17/27 18/18/28 63/19/29
f 38/18/30 34/17/31 64/19/32
f 2/20/33 57/21/34 61/12/34
f 2/20/33 61/12/34 60/11/34
f 1/22/35 45/23/34 59/24/34
f 59/24/34 58/25/36 1/22/35
f 57/21/34 2/20/33 62/12/37
f 2/20/33 47/10/38 62/12/37
f 58/25/36 49/23/39 26/13/13
f 26/13/13 1/22/35 58/25/36
f 24/26/40 25/8/18 23/9/20 46/27/41
f 5/9/9 4/8/8 3/26/42 51/27/43
f 10/15/22 9/14/21 7/28/44 55/29/45
f 55/29/45 7/28/44 54/30/46 11/31/47
f 8/16/23 10/15/22 12/32/48
f 11/31/47 54/30/46 8/16/23 12/32/48
f 27/28/49 52/14/25 28/15/24 29/29/50
f 53/30/51 27/28/49 29/29/50 30/31/52
f 31/32/53 28/15/24 56/16/26
f 56/16/26 53/30/51 30/31/52 31/32/53
f 16/33/54 13/34/55 15/35/56 65/36/57
f 63/19/29 18/18/28 17/37/58
f 18/18/28 14/17/27 13/34/55 16/33/54
f 65/36/57 15/35/56 63/19/29 17/37/58
f 32/35/59 33/34/60 35/33/61 36/36/62
f 37/38/63 38/18/30 64/19/32
f 33/34/60 34/17/31 38/18/30 35/33/61
f 64/19/32 32/35/59 36/36/62 37/38/63
f 66/1/64 67/5/65 68/20/66 69/22/67
f 2/20/33 60/11/34 45/23/34 1/22/35
f 47/10/10 26/13/13 49/23/39 50/11/11
o Chassis_Red
v 0.407308 0.374426 -1.189307
v 0.426032 0.443640 -0.358654
v 0.427398 0.443689 -0.311117
v 0.420889 0.373413 0.062188
v 0.421667 0.372788 0.333752
v 0.422429 0.444093 0.062422
v 0.421030 0.444516 0.334122
v 0.414108 0.445298 1.186803
v 0.401126 0.443144 -1.018094
v -0.426032 0.443640 -0.358654
v -0.420889 0.373413 0.062188
v -0.421667 0.372788 0.333752
v -0.422429 0.444093 0.062422
v -0.421030 0.444516 0.334122
v -0.407308 0.374426 -1.189307
v -0.427398 0.373765 -0.311117
v -0.426390 0.373810 -0.358660
v -0.415417 0.445240 1.183448
v -0.417538 0.372492 1.187009
v 0.419635 0.372248 1.179010
v 0.427398 0.373765 -0.311117
v 0.426390 0.373810 -0.358660
v -0.401126 0.443144 -1.018094
v -0.427398 0.443689 -0.311117
vn 0.9996 -0.0218 0.0174
vn 0.9998 -0.0183 0.0077
vn 0.9997 -0.0221 0.0064
vn 0.6661 -0.0230 0.7455
vn -0.6799 0.0479 0.7317
vn 0.7478 -0.0184 0.6637
vn 0.9963 0.0548 -0.0655
vn 0.8649 0.2600 -0.4293
vn 0.9940 0.1081 -0.0172
vn 0.9997 -0.0032 0.0255
vn 0.9996 0.0198 -0.0186
vn 0.9999 -0.0000 0.0133
vn 0.9983 0.0431 0.0390
vn -0.9999 -0.0026 0.0138
vn -0.9996 -0.0218 0.0174
vn -0.9997 -0.0193 0.0169
vn -0.9963 0.0549 -0.0654
vn -0.9940 0.1081 -0.0172
vn -0.8649 0.2600 -0.4293
vn -0.9997 -0.0232 -0.0055
vn -0.9998 -0.0205 -0.0043
vn -0.9997 -0.0252 -0.0047
vn -0.9996 -0.0276 0.0014
vn -0.9989 -0.0443 0.0132
vn -0.9911 -0.0593 0.1196
vn -0.9999 -0.0000 0.0133
vn -0.7095 0.0551 0.7026
vn -0.9998 0.0127 -0.0127
vn -0.9997 0.0230 0.0069
vn -0.9998 0.0209 0.0079
vn -0.9998 0.0166 0.0051
vn -0.9980 0.0620 0.0095
vt 0.452955 0.125000
vt 0.458765 0.108715
vt 0.452925 0.108820
vt 0.458861 0.990623
vt 0.452838 0.990781
vt 0.452837 0.994953
vt 0.437357 0.130560
vt 0.556642 0.237219
vt 0.558935 0.209731
vt 0.452895 0.092198
vt 0.458797 0.092131
vt 0.452837 0.009047
vt 0.458733 0.125000
vt 0.427472 0.130673
vt 0.458861 0.004155
vt 0.458861 0.993008
s 1
g Chassis_Red_Chassis_Red
usemtl Chassis_Red
f 90/39/68 75/40/69 73/41/70
f 77/42/71 88/43/72 89/44/73
f 71/45/74 70/46/75 78/47/76
f 75/40/69 74/48/77 73/41/70
f 76/49/78 89/50/73 74/48/77
f 90/39/79 72/51/79 75/40/79
f 71/45/74 91/52/80 70/46/75
f 75/40/69 76/49/78 74/48/77
f 76/49/78 77/53/71 89/50/73
f 85/39/81 80/41/82 82/40/83
f 79/45/84 92/47/85 84/46/86
f 82/40/87 80/41/88 81/48/89
f 83/49/90 81/48/91 88/50/92
f 85/39/81 82/40/83 93/51/93
f 87/54/94 88/43/72 77/42/71
f 79/45/84 84/46/86 86/52/95
f 82/40/96 81/48/97 83/49/98
f 83/49/99 88/50/72 87/53/94
o Plastic_White
v 0.196597 0.227445 -1.289857
v 0.000000 0.171136 -1.289857
v -0.196597 0.227445 -1.289857
v -0.196368 0.196095 -1.289857
v 0.176501 0.254443 -1.289857
v 0.196368 0.196095 -1.289857
v 0.173932 0.168937 -1.289857
v -0.177398 0.253321 -1.289857
v -0.173932 0.168937 -1.289857
v 0.158934 0.186736 1.193915
v 0.000000 0.266274 1.193915
v 0.180886 0.217553 1.193915
v -0.180749 0.250140 1.193915
v 0.159977 0.268739 1.193915
v 0.180749 0.250140 1.193915
v -0.158934 0.186736 1.193915
v -0.159977 0.268739 1.193915
v -0.180886 0.217553 1.193915
vn -0.0000 -0.0000 -1.0000
vn -0.0000 -0.0000 1.0000
vt 0.449793 0.338180
vt 0.398673 0.342425
vt 0.400596 0.375008
vt 0.422402 0.338223
vt 0.472409 0.341946
vt 0.440046 0.906197
vt 0.442739 0.906173
vt 0.444276 0.902591
vt 0.437500 0.902411
vt 0.472402 0.341776
vt 0.444072 0.875000
s 1
g Number_Plate_Number_Plate
usemtl Plastic_White
f 94/55/100 100/56/100 95/57/100
f 96/55/100 102/56/100 97/58/100
f 95/57/100 98/59/100 94/55/100
f 105/60/101 108/61/101 107/62/101
f 110/62/101 111/60/101 109/63/101
f 94/55/100 99/58/100 100/56/100
f 96/55/100 95/57/100 102/56/100
f 103/63/101 105/60/101 107/62/101
f 110/62/101 106/61/101 111/60/101
f 101/64/100 98/59/100 95/57/100 96/55/100
f 103/63/101 107/62/101 104/65/101
f 104/65/101 110/62/101 109/63/101 103/63/101
o Siren
v -0.146643 0.948719 -0.602811
v -0.135272 0.895726 -0.618624
v -0.113461 0.862033 -0.574508
v -0.108746 0.917113 -0.570205
v -0.178531 0.974823 -0.573208
v -0.135272 0.938500 -0.521785
v -0.153328 0.900576 -0.487249
v -0.242725 0.965377 -0.536639
v -0.199310 0.947358 -0.501730
v -0.263349 0.894002 -0.502131
v -0.281151 0.936360 -0.575938
v -0.285159 0.862032 -0.574509
v -0.263349 0.895726 -0.618624
v -0.212172 0.922414 -0.636625
v -0.199310 0.842370 -0.619025
v 0.186448 0.922414 -0.636625
v 0.135272 0.895726 -0.618624
v 0.113461 0.862033 -0.574508
v 0.163959 0.966471 -0.592006
v 0.114927 0.931692 -0.548069
v 0.177388 0.972140 -0.549526
v 0.153328 0.900576 -0.487249
v 0.199310 0.947358 -0.501730
v 0.255114 0.956341 -0.537394
v 0.263349 0.894002 -0.502131
v 0.251977 0.948718 -0.602812
v 0.289874 0.917113 -0.570205
v 0.285159 0.862032 -0.574509
v 0.263349 0.895726 -0.618624
v 0.199310 0.842370 -0.619025
vn -0.1366 0.2786 -0.9506
vn 0.5005 0.6794 -0.5366
vn 0.5625 -0.0356 -0.8260
vn 0.1513 0.9774 -0.1475
vn 0.9566 0.2895 -0.0319
vn -0.4441 0.8275 0.3436
vn -0.8285 0.5262 -0.1916
vn -0.4414 0.4192 0.7934
vn -0.8825 0.4431 0.1579
vn -0.9242 -0.1469 -0.3524
vn 0.0064 0.6418 0.7669
vn -0.1641 0.9670 0.1948
vn 0.5547 0.7441 0.3723
vn -0.3285 0.8528 -0.4060
vn 0.4584 0.7161 -0.5264
vn 0.9538 0.2936 -0.0644
vn 0.9215 -0.1084 -0.3730
vn -0.1550 0.2195 -0.9632
vn 0.9202 -0.1985 -0.3374
vn 0.0120 -0.4220 -0.9065
vn 0.6803 0.5565 0.4770
vn 0.4433 0.3179 0.8381
vn -0.0132 0.6437 0.7651
vn -0.6802 0.3037 0.6671
vn -0.9415 -0.0431 -0.3344
vn -0.6142 -0.0230 -0.7888
vn -0.6622 0.0024 -0.7493
vn 0.6532 0.2475 0.7156
vt 0.792771 0.727820
vt 0.557150 0.800000
vt 0.625000 0.600000
vt 0.687500 1.000000
vt 0.500000 0.600000
vt 0.159528 0.718902
vt 0.062500 1.000000
vt 0.000000 0.679101
vt 1.000000 0.679101
vt 0.937500 1.000000
vt 0.333720 0.400000
vt 0.444817 0.600000
vt 0.553895 0.400000
vt 0.250000 0.600000
vt 0.316924 0.800000
vt 0.125000 0.696624
vt 0.187500 1.000000
vt 0.000000 0.800000
vt 0.875000 0.600000
vt 0.942849 0.800000
vt 1.000000 0.600000
vt 0.946102 0.400000
vt 0.707229 0.727820
vt 0.812500 1.000000
vt 0.750000 0.400000
vt 0.375000 0.600000
vt 0.345274 0.895124
vt 0.125000 0.400000
vt 0.000000 0.400000
vt 0.474438 0.881799
vt 0.000000 0.600000
s 1
g Siren_Siren
usemtl Siren
f 125/66/102 112/67/103 113/68/104
f 125/66/102 116/69/105 112/67/103
f 113/68/104 112/67/103 115/70/106
f 119/71/107 116/72/105 122/73/108
f 122/74/108 116/75/105 125/66/102
f 133/76/109 131/77/110 129/78/111
f 134/79/112 132/80/113 131/77/110
f 133/76/109 134/79/112 131/77/110
f 134/79/112 135/81/114 132/80/113
f 132/80/113 135/81/114 130/82/115
f 135/81/114 137/83/116 130/72/115
f 140/84/104 137/85/116 138/86/117
f 139/87/118 140/84/104 138/86/117
f 127/88/119 137/85/116 140/84/104
f 137/85/116 127/88/119 130/89/115
f 113/68/104 114/78/120 126/90/121 125/66/102
f 117/91/122 115/70/106 112/67/103 116/92/105
f 113/68/104 115/70/106 114/78/120
f 118/76/123 114/78/120 115/70/106 117/91/122
f 120/79/124 117/91/122 116/92/105 119/71/107
f 121/93/125 118/76/123 120/79/124 119/71/107
f 117/91/122 120/79/124 118/76/123
f 122/73/108 123/94/126 121/93/125 119/71/107
f 126/90/121 123/87/126 124/84/127 125/66/102
f 122/74/108 125/66/102 124/84/127
f 123/87/126 122/74/108 124/84/127
f 128/68/128 127/88/119 141/90/121 129/78/111
f 130/95/115 127/88/119 128/68/128 131/77/110
f 134/79/112 133/76/109 136/93/129 135/81/114
f 129/78/111 131/77/110 128/68/128
f 131/77/110 132/80/113 130/95/115
f 138/96/117 135/81/114 136/93/129 139/94/118
f 135/81/114 138/96/117 137/83/116
f 140/84/104 139/87/118 141/90/121 127/88/119
