# Blender 4.5.3 LTS
# www.blender.org
mtllib ambulance0.mtl
o Interior_Front
v 0.372994 0.242616 -0.316017
v 0.372994 0.905540 -0.316017
v -0.372994 0.242616 -0.316017
v -0.372994 0.905540 -0.316017
v 0.372994 0.242616 -0.767727
v 0.372994 0.528495 -0.767727
v -0.372993 0.242616 -0.767727
v -0.372993 0.528495 -0.767727
v -0.372993 0.527127 -0.345870
v 0.372994 0.527127 -0.345870
v 0.372994 0.574078 -0.316017
v -0.372994 0.574078 -0.316017
v -0.372994 0.904564 -0.346062
v 0.372994 0.904564 -0.346062
vn 1.0000 -0.0000 -0.0000
vn -1.0000 -0.0000 -0.0000
vn -0.0000 -0.0000 1.0000
vn -0.0000 1.0000 -0.0000
vn -0.0000 -0.0000 -1.0000
vt 0.500000 0.250000
vt 0.625000 0.312500
vt 0.625000 0.250000
vt 0.625000 0.937500
vt 0.500000 1.000000
vt 0.625000 1.000000
vt 0.625000 0.875000
vt 0.375000 0.250000
vt 0.625000 0.375000
vt 0.625000 0.500000
vt 0.375000 0.500000
vt 0.375000 0.750000
vt 0.625000 0.750000
vt 0.125000 0.500000
vt 0.125000 0.750000
vt 0.375000 1.000000
vt 0.625000 0.000000
vt 0.500000 0.000000
vt 0.375000 0.000000
s 1
g Interior_Front
usemtl Plastic_White
f 12/1/1 13/2/1 4/3/1
f 14/4/2 11/5/2 2/6/2
f 11/5/2 14/4/2 10/7/2
f 3/8/1 9/9/1 12/1/1
f 8/10/3 7/11/3 5/12/3 6/13/3
f 7/11/4 3/14/4 1/15/4 5/12/4
f 5/12/2 1/16/2 10/7/2 6/13/2
f 7/11/1 8/10/1 9/9/1 3/8/1
f 1/16/2 11/5/2 10/7/2
f 9/9/1 13/2/1 12/1/1
f 2/17/5 11/18/5 12/1/5 4/3/5
f 11/18/5 1/19/5 3/8/5 12/1/5
o Interior_Rear
v 0.381821 0.375259 1.118351
v 0.381821 0.917715 1.118351
v -0.381821 0.375259 1.118351
v -0.381821 0.917715 1.118351
v 0.381821 0.375259 -0.265836
v 0.381821 0.917715 -0.265836
v -0.381821 0.375259 -0.265836
v -0.381821 0.917715 -0.265836
vn 1.0000 -0.0000 -0.0000
vn -1.0000 -0.0000 -0.0000
vn -0.0000 -0.0000 -1.0000
vn -0.0000 -0.0000 1.0000
vn -0.0000 1.0000 -0.0000
vt 0.625000 0.250000
vt 0.375000 0.250000
vt 0.375000 0.500000
vt 0.625000 0.500000
vt 0.625000 0.750000
vt 0.375000 0.750000
vt 0.375000 1.000000
vt 0.625000 1.000000
vt 0.625000 0.000000
vt 0.375000 0.000000
vt 0.125000 0.500000
vt 0.125000 0.750000
s 1
g Interior_Rear
usemtl Plastic_White
f 18/20/6 17/21/6 21/22/6 22/23/6
f 20/24/7 19/25/7 15/26/7 16/27/7
f 16/28/8 15/29/8 17/21/8 18/20/8
f 22/23/9 21/22/9 19/25/9 20/24/9
f 21/22/10 17/30/10 15/31/10 19/25/10
