# Blender 4.5.3 LTS
# www.blender.org
mtllib ambulance0.mtl
o Glass
v 0.395333 0.787853 -0.644914
v 0.267380 0.828530 -0.685485
v 0.289196 0.823032 -0.690957
v 0.287717 0.600680 -0.912283
v 0.199184 0.476892 1.193915
v 0.153616 0.465500 1.193915
v 0.077670 0.465500 1.193915
v 0.060582 0.476892 1.193915
v 0.054886 0.792068 1.193915
v 0.172603 0.835737 1.193915
v 0.427398 0.824255 0.150088
v 0.427398 0.784245 0.111445
v 0.427398 0.570291 0.109892
v 0.427398 0.546095 0.120248
v 0.427398 0.550817 0.284361
v 0.427398 0.576758 0.296475
v 0.427398 0.786289 0.294713
v 0.427398 0.862584 0.734741
v 0.427398 0.630275 0.967875
v 0.427398 0.619011 0.939148
v 0.427398 0.618856 0.590331
v 0.427398 0.819850 0.540541
v 0.427398 0.864559 0.580790
v 0.307441 0.385279 -1.289857
v 0.192511 0.355839 -1.289857
v 0.194447 0.339986 -1.289857
v 0.194548 0.384593 -1.289857
v -0.402910 0.619156 -0.397294
v -0.402952 0.597930 -0.413097
v -0.401226 0.550704 -0.774112
v -0.401009 0.565724 -0.795818
v -0.395333 0.787853 -0.644914
v -0.267380 0.828530 -0.685485
v -0.289196 0.823032 -0.690957
v -0.302729 0.815202 -0.698751
v -0.287717 0.600680 -0.912283
v -0.397954 0.769688 -0.670033
v -0.195386 0.786372 1.193915
v -0.199184 0.476892 1.193915
v -0.178299 0.465500 1.193915
v -0.153616 0.465500 1.193915
v -0.077670 0.465500 1.193915
v -0.060582 0.476892 1.193915
v -0.052988 0.495878 1.193915
v -0.071974 0.822446 1.193915
v -0.100454 0.833838 1.193915
v -0.172603 0.835737 1.193915
v -0.427398 0.827285 0.270810
v -0.427398 0.809545 0.287951
v -0.427398 0.847667 0.972659
v -0.427398 0.823769 0.980798
v -0.427398 0.652740 0.982089
v -0.427398 0.630275 0.967875
v -0.427398 0.618856 0.590331
v -0.427398 0.636590 0.554822
v -0.427398 0.864559 0.580790
v -0.312217 0.620216 -0.892838
v -0.290967 0.396446 -1.289857
v 0.000000 0.600892 -0.912073
v 0.000000 0.825727 -0.688275
v 0.302729 0.815202 -0.698751
v 0.303991 0.608228 -0.904770
v 0.312217 0.620216 -0.892838
v -0.303991 0.608228 -0.904770
v 0.290967 0.396446 -1.289857
v -0.208018 0.397771 -1.289857
v -0.316191 0.369167 -1.289857
v -0.307441 0.385279 -1.289857
v -0.300437 0.320016 -1.289857
v -0.194548 0.384593 -1.289857
v 0.208018 0.397771 -1.289857
v 0.316191 0.369167 -1.289857
v 0.300437 0.320016 -1.289857
v 0.213125 0.322067 -1.289857
v 0.193617 0.371531 -1.289857
v 0.314125 0.337424 -1.289857
v -0.192511 0.355839 -1.289857
v -0.213125 0.322067 -1.289857
v -0.194447 0.339986 -1.289857
v -0.193617 0.371531 -1.289857
v -0.314125 0.337424 -1.289857
v -0.427398 0.862584 0.734741
v -0.427398 0.862022 0.955037
v -0.427398 0.619011 0.939148
v -0.427398 0.655936 0.540307
v -0.427398 0.819850 0.540541
v -0.427398 0.848639 0.556666
v 0.427398 0.862022 0.955037
v 0.427398 0.847667 0.972659
v 0.427398 0.823769 0.980798
v 0.427398 0.652740 0.982089
v 0.427398 0.636590 0.554822
v 0.427398 0.655936 0.540307
v 0.427398 0.848639 0.556666
v -0.402013 0.799929 -0.397228
v -0.401713 0.808872 -0.434523
v -0.398059 0.596417 -0.790552
v -0.396007 0.793338 -0.621803
v 0.402013 0.799929 -0.397228
v 0.402910 0.619156 -0.397294
v 0.402952 0.597930 -0.413097
v 0.401226 0.550704 -0.774112
v 0.401009 0.565724 -0.795818
v 0.401713 0.808872 -0.434523
v 0.397954 0.769688 -0.670033
v 0.398059 0.596417 -0.790552
v 0.396007 0.793338 -0.621803
v -0.427398 0.824255 0.150088
v -0.427398 0.805522 0.122125
v -0.427398 0.784245 0.111445
v -0.427398 0.570291 0.109892
v -0.427398 0.546095 0.120248
v -0.427398 0.535629 0.158205
v -0.427398 0.535363 0.251495
v -0.427398 0.550817 0.284361
v -0.427398 0.576758 0.296475
v -0.427398 0.786289 0.294713
v 0.427398 0.827285 0.270810
v 0.427398 0.805522 0.122125
v 0.427398 0.535629 0.158205
v 0.427398 0.535363 0.251495
v 0.427398 0.809545 0.287951
v -0.054886 0.792068 1.193915
v -0.193488 0.816750 1.193915
v 0.195386 0.786372 1.193915
v 0.178299 0.465500 1.193915
v 0.052988 0.495878 1.193915
v 0.071974 0.822446 1.193915
v 0.100454 0.833838 1.193915
v 0.193488 0.816750 1.193915
v 0.347533 0.290918 1.193915
v 0.262499 0.290223 1.193915
v 0.343834 0.352415 1.193915
v -0.362389 0.336505 1.193915
v -0.323586 0.352604 1.193915
v -0.347533 0.290918 1.193915
v -0.252819 0.300771 1.193915
v 0.362389 0.303900 1.193915
v 0.362389 0.336505 1.193915
v 0.252354 0.316091 1.193915
v 0.269901 0.353111 1.193915
v 0.252819 0.300771 1.193915
v -0.252354 0.316091 1.193915
v -0.251879 0.331932 1.193915
v 0.323586 0.352604 1.193915
v 0.251879 0.331932 1.193915
v -0.362389 0.303900 1.193915
v -0.269901 0.353111 1.193915
v -0.262499 0.290223 1.193915
v -0.343834 0.352415 1.193915
vn -0.0000 0.7055 -0.7087
vn -0.0000 0.7054 -0.7088
vn -0.0000 -0.0000 1.0000
vn -0.0000 -0.0000 -1.0000
vn -1.0000 -0.0000 -0.0000
vn 1.0000 -0.0000 -0.0000
vn -0.9996 0.0263 0.0116
vn -0.9990 0.0361 -0.0282
vn -0.9973 0.0448 0.0576
vn -0.9876 0.1285 -0.0899
vn -0.9313 0.3098 -0.1915
vn 0.9313 0.3098 -0.1916
vn 0.9942 0.0980 -0.0447
vn 0.8964 0.0270 -0.4425
vn 0.9876 0.1284 -0.0900
vn -0.8964 0.0270 -0.4425
vn -0.9958 -0.0074 -0.0913
vn -0.9697 -0.2392 -0.0496
vn -0.9942 0.0980 -0.0447
vn -0.8935 0.3617 -0.2660
vn 0.9990 0.0361 -0.0282
vn 0.9996 0.0263 0.0116
vn 0.9973 0.0448 0.0576
vn 0.8935 0.3618 -0.2660
vn 0.9697 -0.2392 -0.0496
vn 0.9958 -0.0074 -0.0913
vt 0.808468 0.567537
vt 0.806482 0.566145
vt 0.803594 0.565269
vt 0.487521 0.884466
vt 0.463046 0.884139
vt 0.461477 0.909353
vt 0.487050 0.908698
vt 0.802098 0.591717
vt 0.805976 0.591079
vt 0.808326 0.590170
vt 0.750000 0.565294
vt 0.750000 0.591392
vt 0.575684 0.336397
vt 0.587147 0.334962
vt 0.598610 0.333526
vt 0.530674 0.317589
vt 0.556186 0.315044
vt 0.592679 0.315430
vt 0.461816 0.111005
vt 0.461379 0.107212
vt 0.463996 0.102597
vt 0.490972 0.892325
vt 0.451248 0.921549
vt 0.448189 0.918523
vt 0.451206 0.930808
vt 0.446109 0.934938
vt 0.449876 0.937500
vt 0.581698 0.312500
vt 0.529736 0.332678
vt 0.551795 0.335451
vt 0.561974 0.335601
vt 0.597453 0.316988
vt 0.489816 0.115992
vt 0.476272 0.116002
vt 0.473208 0.113828
vt 0.474673 0.115371
vt 0.493348 0.107552
vt 0.490140 0.096860
vt 0.473220 0.098670
vt 0.474151 0.097422
vt 0.476008 0.096804
vt 0.492115 0.097214
vt 0.493301 0.097979
vt 0.493511 0.114242
vt 0.492195 0.115291
vt 0.529934 0.178890
vt 0.518733 0.176966
vt 0.542191 0.177421
vt 0.467222 0.136371
vt 0.540692 0.163753
vt 0.523829 0.143815
vt 0.468834 0.134540
vt 0.496136 0.133951
vt 0.508466 0.137543
vt 0.539192 0.150086
vt 0.472759 0.117804
vt 0.468525 0.119976
vt 0.472333 0.116027
vt 0.467141 0.119561
vt 0.466361 0.118292
vt 0.461353 0.109591
vt 0.461974 0.102230
vt 0.462832 0.101510
vt 0.472546 0.116916
vt 0.446052 0.920272
vt 0.460535 0.905751
vt 0.460535 0.901494
vt 0.460535 0.888396
vt 0.461477 0.885448
vt 0.491129 0.904768
vt 0.489560 0.908370
vt 0.490031 0.887413
vt 0.449498 0.918441
vt 0.446923 0.918603
vt 0.447182 0.937500
vt 0.451191 0.934300
s 1
g Glass
usemtl Glass
f 63/1/1 62/2/2 4/3/1
f 9/4/3 127/5/3 5/6/3 125/7/3
f 2/8/1 3/9/1 61/10/1
f 4/3/1 2/8/1 63/1/1
f 61/10/1 63/1/1 2/8/1
f 57/1/1 36/3/1 64/2/2
f 59/11/1 60/12/1 2/8/1 4/3/1
f 33/8/1 35/10/1 34/9/1
f 36/3/1 57/1/1 33/8/1
f 35/10/1 33/8/1 57/1/1
f 75/13/4 27/14/4 71/15/4
f 69/16/4 81/17/4 68/18/4
f 66/15/4 70/14/4 80/13/4
f 111/19/5 113/20/5 116/21/5
f 16/21/6 120/20/6 13/19/6
f 129/22/3 9/4/3 125/7/3
f 141/23/3 140/24/3 145/25/3
f 131/26/3 139/27/3 145/25/3
f 143/24/3 148/23/3 135/25/3
f 135/25/3 134/27/3 136/26/3
f 24/18/4 72/28/4 76/17/4
f 76/17/4 73/16/4 24/18/4
f 73/16/4 74/29/4 24/18/4
f 74/29/4 26/30/4 25/31/4
f 25/31/4 75/13/4 71/15/4
f 65/32/4 25/31/4 71/15/4
f 81/17/4 67/28/4 68/18/4
f 25/31/4 65/32/4 24/18/4 74/29/4
f 77/31/4 79/30/4 78/29/4
f 78/29/4 69/16/4 68/18/4
f 80/13/4 77/31/4 66/15/4
f 58/32/4 66/15/4 77/31/4
f 86/33/5 85/34/5 54/35/5
f 85/34/5 55/36/5 54/35/5
f 18/37/6 90/38/6 20/39/6 21/35/6
f 84/39/5 53/40/5 52/41/5
f 52/41/5 51/38/5 84/39/5
f 51/38/5 50/42/5 83/43/5
f 82/37/5 51/38/5 83/43/5
f 82/37/5 56/44/5 86/33/5
f 56/44/5 87/45/5 86/33/5
f 82/37/5 86/33/5 54/35/5
f 92/36/6 93/34/6 21/35/6
f 93/34/6 22/33/6 21/35/6
f 22/33/6 94/45/6 23/44/6
f 18/37/6 88/43/6 90/38/6
f 88/43/6 89/42/6 90/38/6
f 22/33/6 23/44/6 18/37/6
f 19/40/6 20/39/6 91/41/6
f 68/18/4 58/32/4 77/31/4 78/29/4
f 90/38/6 91/41/6 20/39/6
f 21/35/6 22/33/6 18/37/6
f 31/46/7 30/47/8 97/48/9
f 30/47/8 29/49/10 37/50/11
f 105/50/12 107/51/13 100/52/14 101/49/15
f 28/52/16 95/53/17 96/54/18
f 96/54/18 98/51/19 28/52/16
f 98/51/19 32/55/20 37/50/11
f 37/50/11 97/48/9 30/47/8
f 101/49/15 102/47/21 105/50/12
f 102/47/21 103/46/22 106/48/23
f 105/50/12 102/47/21 106/48/23
f 105/50/12 1/55/24 107/51/13
f 107/51/13 104/54/25 100/52/14
f 104/54/25 99/53/26 100/52/14
f 84/39/5 51/38/5 82/37/5 54/35/5
f 48/56/5 108/57/5 117/58/5
f 108/57/5 109/59/5 110/60/5
f 117/58/5 108/57/5 110/60/5
f 33/8/1 60/12/1 59/11/1 36/3/1
f 111/19/5 112/61/5 113/20/5
f 113/20/5 114/62/5 116/21/5
f 114/62/5 115/63/5 116/21/5
f 117/58/5 49/64/5 48/56/5
f 119/59/6 11/57/6 12/60/6
f 11/57/6 118/56/6 17/58/6
f 118/56/6 122/64/6 17/58/6
f 117/58/5 110/60/5 111/19/5 116/21/5
f 16/21/6 15/63/6 121/62/6
f 120/20/6 16/21/6 121/62/6
f 120/20/6 14/61/6 13/19/6
f 17/58/6 12/60/6 11/57/6
f 132/65/3 131/26/3 145/25/3 140/24/3
f 39/6/3 40/66/3 41/67/3
f 41/67/3 42/68/3 44/5/3
f 42/68/3 43/69/3 44/5/3
f 39/6/3 41/67/3 44/5/3
f 47/70/3 124/71/3 38/7/3
f 45/72/3 46/22/3 123/4/3
f 46/22/3 47/70/3 38/7/3
f 123/4/3 46/22/3 38/7/3
f 126/66/3 5/6/3 6/67/3
f 44/5/3 123/4/3 38/7/3 39/6/3
f 6/67/3 5/6/3 127/5/3
f 125/7/3 130/71/3 10/70/3
f 10/70/3 129/22/3 125/7/3
f 129/22/3 128/72/3 9/4/3
f 127/5/3 8/69/3 7/68/3
f 127/5/3 7/68/3 6/67/3
f 141/23/3 146/73/3 140/24/3
f 136/26/3 149/65/3 143/24/3 135/25/3
f 140/24/3 142/74/3 132/65/3
f 131/26/3 138/75/3 139/27/3
f 139/27/3 133/76/3 145/25/3
f 143/24/3 144/73/3 148/23/3
f 137/74/3 143/24/3 149/65/3
f 37/50/11 29/49/10 28/52/16 98/51/19
f 135/25/3 150/76/3 134/27/3
f 134/27/3 147/75/3 136/26/3
f 13/19/6 12/60/6 17/58/6 16/21/6
