# Blender 4.0.2
# www.blender.org
v -0.191577 0.227371 1.000000
v -0.191577 0.399574 1.000000
v -0.670337 0.132858 -0.452103
v -0.670337 0.494087 -0.452103
v 0.191577 0.227371 1.000000
v 0.191577 0.399574 1.000000
v 0.670337 0.132858 -0.452103
v 0.670337 0.494087 -0.452103
v 0.000000 0.132858 -0.809836
v 0.000000 0.494087 -0.809836
v -0.335169 0.132858 -0.734645
v -0.335169 0.494087 -0.734645
v 0.335169 0.494087 -0.734645
v 0.335169 0.132858 -0.734645
vn 0.9497 -0.0000 0.3131
vn 0.2189 -0.0000 -0.9757
vn 0.6445 -0.0000 -0.7646
vn -0.0429 -0.9978 0.0508
vn 0.0055 -0.9986 0.0528
vn -0.0120 -0.9985 0.0534
vn -0.0055 0.9986 0.0528
vn 0.0120 0.9985 0.0534
vn 0.0429 0.9978 0.0508
vn -0.0428 -0.9978 0.0508
vn 0.0428 -0.9978 0.0508
vn 0.0055 -0.9986 0.0527
vn -0.9497 -0.0000 0.3131
vn -0.0428 0.9978 0.0508
vn 0.0428 0.9978 0.0508
vn -0.0000 -0.0000 1.0000
vn -0.2189 -0.0000 -0.9757
vn -0.6445 -0.0000 -0.7646
vn -0.0055 0.9986 0.0527
vt 0.375000 0.750000
vt 0.375000 0.500000
vt 0.625000 0.500000
vt 0.625000 0.750000
vt 0.375000 0.437500
vt 0.375000 0.375000
vt 0.625000 0.375000
vt 0.625000 0.437500
vt 0.312500 0.500000
vt 0.187500 0.500000
vt 0.250000 0.500000
vt 0.687500 0.500000
vt 0.750000 0.500000
vt 0.812500 0.500000
vt 0.125000 0.500000
vt 0.125000 0.750000
vt 0.375000 0.250000
vt 0.375000 0.000000
vt 0.625000 0.000000
vt 0.625000 0.250000
vt 0.875000 0.500000
vt 0.375000 1.000000
vt 0.625000 1.000000
vt 0.375000 0.312500
vt 0.625000 0.312500
vt 0.875000 0.750000
s 0
f 5/1/1 7/2/1 8/3/1 6/4/1
f 14/5/2 9/6/2 10/7/2 13/8/2
f 7/2/3 14/5/3 13/8/3 8/3/3
f 14/9/4 11/10/5 9/11/6
f 13/12/7 10/13/8 12/14/9
f 7/2/10 3/15/11 11/10/5 14/9/4
f 5/1/12 1/16/11 3/15/11 7/2/10
f 3/17/13 1/18/13 2/19/13 4/20/13
f 8/3/14 13/12/7 12/14/9 4/21/15
f 1/22/16 5/1/16 6/4/16 2/23/16
f 9/6/17 11/24/17 12/25/17 10/7/17
f 11/24/18 3/17/18 4/20/18 12/25/18
f 6/4/14 8/3/14 4/21/15 2/26/19
