# Blender v3.2.0 OBJ File: ''
# www.blender.org
v -0.130364 0.283439 -0.388630
v -0.275986 0.537840 -0.603892
v -0.275986 0.537840 -0.765926
v -0.130364 0.283439 -0.620643
v -0.244925 0.550835 -0.765926
v -0.099304 0.296434 -0.620643
v -0.244925 0.550835 -0.603892
v -0.099304 0.296434 -0.388630
vt 0.375000 0.000000
vt 0.625000 0.000000
vt 0.625000 0.250000
vt 0.375000 0.250000
vt 0.625000 0.500000
vt 0.375000 0.500000
vt 0.625000 0.750000
vt 0.375000 0.750000
vt 0.625000 1.000000
vt 0.375000 1.000000
vt 0.125000 0.500000
vt 0.125000 0.750000
vt 0.875000 0.500000
vt 0.875000 0.750000
vn -0.8679 -0.4968 -0.0000
vn 0.1725 -0.4122 -0.8946
vn 0.8679 0.4968 0.0000
vn -0.2296 0.5488 0.8038
vn 0.3860 -0.9225 0.0000
vn -0.3860 0.9225 0.0000
s 1
f 1/1/1 2/2/1 3/3/1 4/4/1
f 4/4/2 3/3/2 5/5/2 6/6/2
f 6/6/3 5/5/3 7/7/3 8/8/3
f 8/8/4 7/7/4 2/9/4 1/10/4
f 4/11/5 6/6/5 8/8/5 1/12/5
f 5/5/6 3/13/6 2/14/6 7/7/6
