<?xml version="1.0" encoding="UTF-8" standalone="no"?>
<!-- Created with Inkscape (http://www.inkscape.org/) -->

<svg
   width="64mm"
   height="64mm"
   viewBox="0 0 64 64"
   version="1.1"
   id="svg5"
   inkscape:version="1.3 (0e150ed6c4, 2023-07-21)"
   sodipodi:docname="vanilla_battle_icon.svg"
   xmlns:inkscape="http://www.inkscape.org/namespaces/inkscape"
   xmlns:sodipodi="http://sodipodi.sourceforge.net/DTD/sodipodi-0.dtd"
   xmlns="http://www.w3.org/2000/svg"
   xmlns:svg="http://www.w3.org/2000/svg">
  <sodipodi:namedview
     id="namedview7"
     pagecolor="#ffffff"
     bordercolor="#666666"
     borderopacity="1.0"
     inkscape:pageshadow="2"
     inkscape:pageopacity="0.0"
     inkscape:pagecheckerboard="0"
     inkscape:document-units="mm"
     showgrid="false"
     fit-margin-top="0"
     fit-margin-left="0"
     fit-margin-right="0"
     fit-margin-bottom="0"
     inkscape:zoom="2.1064798"
     inkscape:cx="21.600017"
     inkscape:cy="122.24186"
     inkscape:window-width="1920"
     inkscape:window-height="1009"
     inkscape:window-x="-8"
     inkscape:window-y="-8"
     inkscape:window-maximized="1"
     inkscape:current-layer="layer1"
     inkscape:showpageshadow="2"
     inkscape:deskcolor="#d1d1d1" />
  <defs
     id="defs2" />
  <g
     inkscape:label="Layer 1"
     inkscape:groupmode="layer"
     id="layer1"
     transform="translate(1,1)">
    <path
       id="rect850"
       style="font-size:26.575px;line-height:1.25;letter-spacing:0px;word-spacing:0px;fill:#f9e6e6;stroke:none;stroke-width:2;stop-color:#000000;fill-opacity:1"
       d="M 11.874859,0 H 50.125141 C 56.703813,0 62,5.296187 62,11.874859 V 50.125141 C 62,56.703813 56.703813,62 50.125141,62 H 11.874859 C 5.296187,62 0,56.703813 0,50.125141 V 11.874859 C 0,5.296187 5.296187,0 11.874859,0 Z" />
    <path
       id="path846"
       style="fill:#ce4e4e;stroke:#000000;stroke-width:7.55906;stop-color:#000000;fill-opacity:1"
       inkscape:transform-center-x="-0.66430507"
       inkscape:transform-center-y="0.89069607"
       transform="matrix(0.24625292,0.03179364,-0.03179364,0.24625292,5.3088251,20.298088)"
       d="M 87.37502,137.24666 63.435126,97.322384 16.247988,109.99452 46.820398,74.889042 20.186858,33.927312 63.021541,52.155214 93.748245,14.167341 89.649125,60.538277 135.27281,78.022211 89.904735,88.453123 Z" />
    <path
       id="path846-3"
       style="fill:#ce4e4e;stroke:#000000;stroke-width:7.55906;stop-color:#000000;fill-opacity:1"
       inkscape:transform-center-x="0.77916776"
       inkscape:transform-center-y="-0.7762465"
       transform="matrix(0.18446617,0.1662034,-0.1662034,0.18446617,42.124199,-4.6448071)"
       d="M 87.37502,137.24666 63.435126,97.322384 16.247988,109.99452 46.820398,74.889042 20.186858,33.927312 63.021541,52.155214 93.748245,14.167341 89.649125,60.538277 135.27281,78.022211 89.904735,88.453123 Z" />
  </g>
</svg>
