# Blender 4.0.2
# www.blender.org
mtllib C_RAM.mtl
g Gun.Fairing_Cylinder
v 0.324825 2.263743 -0.568570
v 0.631726 2.263743 -0.172354
v 0.568570 2.263743 0.324825
v 0.172354 2.263743 0.631726
v -0.324825 2.263743 0.568570
v -0.572098 2.263743 0.293011
v -0.649596 2.263743 -0.082517
v -0.400985 2.263743 -0.517682
v -0.051775 2.263743 -0.640680
v 0.221464 4.651479 -0.310553
v 0.236822 4.274379 -0.596798
v 0.235832 4.467558 -0.522588
v 0.455870 4.493000 -0.321041
v 0.528473 4.274379 -0.364648
v 0.399251 4.631061 -0.069449
v 0.565803 4.480089 -0.058629
v 0.633238 4.272996 -0.071334
v 0.310168 4.651736 0.221211
v 0.596798 4.274379 0.236822
v 0.522588 4.467558 0.235832
v 0.321041 4.493000 0.455870
v 0.364648 4.274379 0.528473
v 0.069449 4.631061 0.399251
v 0.050588 4.405339 0.614516
v -0.221464 4.651479 0.310553
v -0.236822 4.274379 0.596798
v -0.235832 4.467558 0.522588
v -0.455870 4.493000 0.321041
v -0.528473 4.274379 0.364648
v -0.399251 4.631061 0.069449
v -0.614516 4.405339 0.050588
v -0.310168 4.651736 -0.221211
v -0.596798 4.274379 -0.236822
v -0.522588 4.467558 -0.235832
v -0.321041 4.493000 -0.455870
v -0.364648 4.274379 -0.528473
v -0.069449 4.631061 -0.399251
v -0.050588 4.405339 -0.614516
vn 0.4126 -0.5561 -0.7215
vn 0.8021 0.1704 -0.5724
vn 0.8064 -0.5498 -0.2177
vn 0.7274 -0.5500 0.4105
vn 0.5644 0.1591 0.8100
vn 0.2237 -0.5472 0.8066
vn -0.3783 -0.5540 0.7416
vn -0.8192 0.1557 0.5519
vn -0.7330 -0.5664 0.3766
vn -0.8254 -0.5531 -0.1128
vn -0.9123 0.1549 -0.3792
vn -0.5190 -0.5540 -0.6510
vn -0.0708 -0.5620 -0.8241
vn 0.3593 0.9023 0.2381
vn 0.7812 0.5144 0.3537
vn 0.8480 0.5248 -0.0738
vn 0.4948 0.5481 0.6744
vn -0.2317 0.8999 0.3694
vn 0.0534 0.8513 0.5220
vn -0.3507 0.5392 0.7656
vn 0.0659 0.3517 0.9338
vn -0.6745 0.5480 0.4947
vn 0.9139 0.1634 0.3717
vn 0.9817 0.1607 -0.1024
vn -0.3690 0.9002 -0.2314
vn -0.5220 0.8513 0.0534
vn -0.7656 0.5394 -0.3507
vn -0.9330 0.3525 0.0725
vn -0.4948 0.5481 -0.6744
vn 0.2317 0.8999 -0.3694
vn -0.0534 0.8513 -0.5220
vn 0.4893 0.8696 -0.0664
vn 0.3507 0.5392 -0.7656
vn -0.0704 0.3506 -0.9339
vn 0.6788 0.5416 -0.4960
vn 0.3917 0.1511 -0.9076
vn -0.3818 0.1496 0.9121
vn -0.5696 0.1538 -0.8074
vt 0.917331 0.500000
vt 0.844252 0.877527
vt 0.792331 0.500000
vt 0.667331 0.500000
vt 0.594096 0.877527
vt 0.542331 0.500000
vt 0.417331 0.500000
vt 0.344096 0.877527
vt 0.325317 0.500000
vt 0.229831 0.500000
vt 0.188668 0.877547
vt 0.104831 0.500000
vt 0.730796 0.488109
vt 0.866345 0.453380
vt 0.976079 0.311543
vt 0.953380 0.133655
vt 0.811543 0.023921
vt 0.633655 0.046621
vt 0.517579 0.279658
vt 0.537365 0.141137
vt 0.606625 0.435318
vt 0.357907 0.174866
vt 0.472948 0.162166
vt 0.484172 0.199168
vt 0.422364 0.083534
vt 0.446894 0.113424
vt 0.174758 0.141904
vt 0.277251 0.105344
vt 0.162166 0.027052
vt 0.199168 0.015828
vt 0.083534 0.077636
vt 0.113424 0.053106
vt 0.688668 0.877547
vt 0.766365 0.877450
vt 0.142093 0.325134
vt 0.105344 0.222749
vt 0.027052 0.337834
vt 0.015828 0.300832
vt 0.077636 0.416466
vt 0.053106 0.386576
vt 0.325242 0.358096
vt 0.222749 0.394656
vt 0.394656 0.277251
vt 0.337834 0.472948
vt 0.300832 0.484172
vt 0.416466 0.422364
vt 0.386576 0.446894
vt 0.760318 0.957005
vt 0.938637 0.877547
vt 0.438668 0.877547
vt 0.512780 0.924621
vt 0.262780 0.924621
vt 0.024871 0.924621
vt 0.012817 0.500000
vt 0.094096 0.877527
vt 1.000000 0.500000
vt 0.996187 0.924133
vt 0.674406 0.950735
vt 0.591422 0.970474
vt 0.488103 0.230735
vt 0.424406 0.950735
vt 0.341422 0.970474
vt 0.366091 0.041229
vt 0.300832 0.015828
vt 0.337834 0.027052
vt 0.230735 0.011897
vt 0.174406 0.950735
vt 0.091422 0.970474
vt 0.041229 0.133909
vt 0.015828 0.199168
vt 0.027052 0.162166
vt 0.011897 0.269265
vt 0.931167 0.950735
vt 0.841422 0.970474
vt 0.133909 0.458771
vt 0.199168 0.484172
vt 0.162166 0.472948
vt 0.484172 0.300832
vt 0.472948 0.337834
vt 0.269265 0.488103
vt 0.458771 0.366091
s 1
g Gun.Fairing_Fairing
usemtl Fairing
f 1/1/1 14/2/2 2/3/3
f 3/4/4 22/5/5 4/6/6
f 5/7/7 29/8/8 6/9/9
f 7/10/10 33/11/11 8/12/12
f 9/13/13 1/14/1 2/15/3
f 2/15/3 3/16/4 4/17/6
f 4/17/6 5/18/7 7/19/10
f 5/18/7 6/20/9 7/19/10
f 7/19/10 8/21/12 9/13/13
f 18/22/14 20/23/15 16/24/16
f 18/22/14 21/25/17 20/26/15
f 25/27/18 23/28/19 18/22/14
f 25/27/18 27/29/20 24/30/21
f 25/27/18 28/31/22 27/32/20
f 19/33/23 3/4/4 2/3/3 17/34/24
f 32/35/25 30/36/26 25/27/18
f 32/35/25 34/37/27 31/38/28
f 32/35/25 35/39/29 34/40/27
f 10/41/30 37/42/31 32/35/25
f 18/22/14 15/43/32 10/41/30
f 10/41/30 12/44/33 38/45/34
f 10/41/30 13/46/35 12/47/33
f 16/48/16 17/34/24 14/2/2
f 1/1/1 11/49/36 14/2/2
f 2/3/3 14/2/2 17/34/24
f 26/50/37 5/7/7 4/6/6 24/51/21
f 3/4/4 19/33/23 22/5/5
f 4/6/6 22/5/5 24/51/21
f 31/52/28 7/10/10 6/9/9 29/8/8
f 5/7/7 26/50/37 29/8/8
f 38/53/34 9/54/13 8/12/12 36/55/38
f 7/10/10 31/52/28 33/11/11
f 8/12/12 33/11/11 36/55/38
f 11/49/36 1/1/1 9/56/13 38/57/34
f 32/35/25 25/27/18 18/22/14 10/41/30
f 19/33/23 17/34/24 16/48/16 20/58/15
f 20/58/15 21/59/17 22/5/5 19/33/23
f 15/43/32 18/22/14 16/60/16
f 27/61/20 28/62/22 29/8/8 26/50/37
f 21/59/17 24/51/21 22/5/5
f 18/22/14 23/28/19 21/63/17
f 23/28/19 24/64/21 21/65/17
f 24/51/21 27/61/20 26/50/37
f 23/28/19 25/27/18 24/66/21
f 34/67/27 35/68/29 36/55/38 33/11/11
f 28/62/22 31/52/28 29/8/8
f 25/27/18 30/36/26 28/69/22
f 30/36/26 31/70/28 28/71/22
f 31/52/28 34/67/27 33/11/11
f 30/36/26 32/35/25 31/72/28
f 12/73/33 13/74/35 14/2/2 11/49/36
f 35/68/29 38/53/34 36/55/38
f 32/35/25 37/42/31 35/75/29
f 37/42/31 38/76/34 35/77/29
f 15/43/32 16/78/16 13/79/35
f 2/15/3 4/17/6 7/19/10 9/13/13
f 37/42/31 10/41/30 38/80/34
f 13/74/35 16/48/16 14/2/2
f 38/57/34 12/73/33 11/49/36
f 10/41/30 15/43/32 13/81/35
g Gun.Cylinder.001_Cylinder.001
v 0.595153 2.236855 -0.117366
v 2.476760 2.236855 -0.117366
v 0.595153 2.164788 -0.091136
v 2.476760 2.164788 -0.091136
v 0.595153 2.126441 -0.024718
v 2.476760 2.126442 -0.024718
v 0.595153 2.139759 0.050809
v 2.476760 2.139759 0.050809
v 0.595153 2.198509 0.100106
v 2.476760 2.198509 0.100106
v 0.595153 2.275201 0.100106
v 2.476760 2.275201 0.100106
v 0.595153 2.333951 0.050809
v 2.476760 2.333951 0.050809
v 0.595153 2.347268 -0.024718
v 2.476760 2.347269 -0.024718
v 0.595153 2.308922 -0.091136
v 2.476760 2.308923 -0.091136
vn 1.0000 -0.0000 -0.0000
vn -0.0000 -0.9848 -0.1736
vn -0.0000 -0.6428 -0.7660
vn 0.7178 -0.4475 -0.5333
vn 0.7178 -0.6856 -0.1209
vn -0.0000 0.6428 -0.7660
vn -0.0000 0.9848 -0.1736
vn 0.7178 0.6856 -0.1209
vn 0.7178 0.4475 -0.5333
vn -0.0000 0.8660 0.5000
vn 0.7178 0.6029 0.3481
vn -0.0000 0.3420 0.9397
vn 0.7178 0.2381 0.6542
vn -0.0000 -0.3420 0.9397
vn 0.7178 -0.2381 0.6542
vn -0.0000 -0.0000 -1.0000
vn 0.7178 -0.0000 -0.6962
vn -0.0000 -0.8660 0.5000
vn 0.7178 -0.6029 0.3481
vt 0.000000 0.000000
vt 0.777778 0.500000
vt 0.888889 0.500000
vt 0.888889 1.000000
vt 0.777778 1.000000
vt 0.111111 0.500000
vt 0.222222 0.500000
vt 0.222222 1.000000
vt 0.111111 1.000000
vt 0.333333 0.500000
vt 0.333333 1.000000
vt 0.444444 0.500000
vt 0.444444 1.000000
vt 0.555556 0.500000
vt 0.555556 1.000000
vt 1.000000 0.500000
vt 1.000000 1.000000
vt 0.000000 0.500000
vt 0.000000 1.000000
vt 0.666667 0.500000
vt 0.666667 1.000000
s 0
g Gun.Cylinder.001_Steel
usemtl Steel
f 56/82/39 42/82/39 40/82/39
f 50/82/39 48/82/39 52/82/39
f 48/82/39 46/82/39 52/82/39
s 1
f 43/83/40 41/84/41 42/85/42 44/86/43
f 55/87/44 53/88/45 54/89/46 56/90/47
f 53/88/45 51/91/48 52/92/49 54/89/46
f 51/91/48 49/93/50 50/94/51 52/92/49
s 0
f 54/82/39 52/82/39 46/82/39 44/82/39
s 1
f 49/93/50 47/95/52 48/96/53 50/94/51
f 41/84/41 39/97/54 40/98/55 42/85/42
f 39/99/54 55/87/44 56/90/47 40/100/55
f 47/95/52 45/101/56 46/102/57 48/96/53
s 0
f 56/82/39 54/82/39 44/82/39 42/82/39
s 1
f 45/101/56 43/83/40 44/86/43 46/102/57
g Yaw.Right_Cube.001
v -0.529308 1.380531 1.002890
v -0.184690 2.657852 1.002890
v -0.529308 1.380531 0.674050
v -0.184690 2.657852 0.727835
v 0.529308 1.380531 1.002890
v 0.184690 2.657852 1.002890
v 0.529308 1.380531 0.674050
v 0.184690 2.657852 0.727835
v 0.328558 1.999880 0.712721
v 0.328558 1.999880 1.002890
v -0.328558 1.999880 1.002890
v -0.328558 1.999880 0.712721
vn 0.9769 0.2136 -0.0000
vn -0.0000 -0.0000 1.0000
vn 0.9513 0.3083 -0.0000
vn -0.0000 0.0623 -0.9981
vn -0.9769 0.2136 -0.0000
vn -0.9513 0.3083 -0.0000
vn -0.0000 0.0230 -0.9997
vn -0.0000 1.0000 -0.0000
vt 0.500000 0.750000
vt 0.500000 0.500000
vt 0.625000 0.500000
vt 0.625000 0.750000
vt 0.500000 1.000000
vt 0.375000 1.000000
vt 0.375000 0.750000
vt 0.625000 1.000000
vt 0.375000 0.500000
vt 0.375000 0.250000
vt 0.500000 0.250000
vt 0.625000 0.250000
vt 0.500000 0.000000
vt 0.625000 0.000000
vt 0.375000 0.000000
vt 0.875000 0.500000
vt 0.875000 0.750000
s 0
g Yaw.Right_Metal
usemtl Metal
f 66/103/58 65/104/58 64/105/58 62/106/58
f 67/107/59 57/108/59 61/109/59 66/103/59
f 58/110/59 67/107/59 66/103/59 62/106/59
f 61/109/60 63/111/60 65/104/60 66/103/60
f 65/104/61 63/111/61 59/112/61 68/113/61
f 60/114/62 68/113/62 67/115/62 58/116/62
f 68/113/63 59/112/63 57/117/63 67/115/63
f 64/105/64 65/104/64 68/113/64 60/114/64
f 62/106/65 64/105/65 60/118/65 58/119/65
g Base_Cube.002
v -1.271218 -0.010932 1.271160
v -1.271218 1.189068 1.271160
v -1.271218 -0.010932 -1.271276
v -1.271218 1.189068 -1.271276
v 1.271218 -0.010932 1.271160
v 1.271218 1.189068 1.271160
v 1.271218 -0.010932 -1.271276
v 1.271218 1.189068 -1.271276
vn -0.0000 -0.0000 -1.0000
vn 1.0000 -0.0000 -0.0000
vn -0.0000 -0.0000 1.0000
vn -0.0000 -1.0000 -0.0000
vn -0.0000 1.0000 -0.0000
vn -1.0000 -0.0000 -0.0000
vt 0.375000 0.500000
vt 0.375000 0.250000
vt 0.625000 0.250000
vt 0.625000 0.500000
vt 0.375000 0.750000
vt 0.625000 0.750000
vt 0.375000 1.000000
vt 0.625000 1.000000
vt 0.125000 0.750000
vt 0.125000 0.500000
vt 0.875000 0.500000
vt 0.875000 0.750000
vt 0.375000 0.000000
vt 0.625000 0.000000
s 0
g Base_Metal
usemtl Metal
f 75/120/66 71/121/66 72/122/66 76/123/66
f 73/124/67 75/120/67 76/123/67 74/125/67
f 69/126/68 73/124/68 74/125/68 70/127/68
f 69/128/69 71/129/69 75/120/69 73/124/69
f 74/125/70 76/123/70 72/130/70 70/131/70
f 71/121/71 69/132/71 70/133/71 72/122/71
g Yaw.Base_Cylinder.002
v 0.000000 1.165097 -1.211112
v 0.000000 1.409497 -1.211112
v 0.463451 1.165097 -1.118926
v 0.463451 1.409497 -1.118926
v 0.856345 1.165097 -0.856403
v 0.856345 1.409497 -0.856403
v 1.118868 1.165097 -0.463508
v 1.118868 1.409497 -0.463508
v 1.211055 1.165097 -0.000058
v 1.211055 1.409497 -0.000058
v 1.118868 1.165097 0.463393
v 1.118868 1.409497 0.463393
v 0.856345 1.165097 0.856287
v 0.856345 1.409497 0.856287
v 0.463451 1.165097 1.118811
v 0.463451 1.409497 1.118811
v 0.000000 1.165097 1.210997
v 0.000000 1.409497 1.210997
v -0.463451 1.165097 1.118811
v -0.463451 1.409497 1.118811
v -0.856345 1.165097 0.856287
v -0.856345 1.409497 0.856287
v -1.118868 1.165097 0.463393
v -1.118868 1.409497 0.463393
v -1.211055 1.165097 -0.000058
v -1.211055 1.409497 -0.000058
v -1.118868 1.165097 -0.463508
v -1.118868 1.409497 -0.463508
v -0.856345 1.165097 -0.856403
v -0.856345 1.409497 -0.856403
v -0.463451 1.165097 -1.118926
v -0.463451 1.409497 -1.118926
vn 0.7071 -0.0000 -0.7071
vn 0.3827 -0.0000 -0.9239
vn 0.9239 -0.0000 -0.3827
vn 1.0000 -0.0000 -0.0000
vn 0.9239 -0.0000 0.3827
vn 0.7071 -0.0000 0.7071
vn 0.3827 -0.0000 0.9239
vn -0.0000 -0.0000 1.0000
vn -0.3827 -0.0000 0.9239
vn -0.7071 -0.0000 0.7071
vn -0.9239 -0.0000 0.3827
vn -1.0000 -0.0000 -0.0000
vn -0.9239 -0.0000 -0.3827
vn -0.7071 -0.0000 -0.7071
vn -0.0000 1.0000 -0.0000
vn -0.3827 -0.0000 -0.9239
vn -0.0000 -0.0000 -1.0000
vn -0.0000 -1.0000 -0.0000
vt 0.875000 0.500000
vt 0.937500 0.500000
vt 0.937500 1.000000
vt 0.875000 1.000000
vt 0.812500 0.500000
vt 0.812500 1.000000
vt 0.750000 0.500000
vt 0.750000 1.000000
vt 0.687500 0.500000
vt 0.687500 1.000000
vt 0.625000 0.500000
vt 0.625000 1.000000
vt 0.562500 0.500000
vt 0.562500 1.000000
vt 0.500000 0.500000
vt 0.500000 1.000000
vt 0.437500 0.500000
vt 0.437500 1.000000
vt 0.375000 0.500000
vt 0.375000 1.000000
vt 0.312500 0.500000
vt 0.312500 1.000000
vt 0.250000 0.500000
vt 0.250000 1.000000
vt 0.187500 0.500000
vt 0.187500 1.000000
vt 0.125000 0.500000
vt 0.125000 1.000000
vt 0.080294 0.080294
vt 0.419706 0.080294
vt 0.419706 0.419706
vt 0.080294 0.419706
vt 0.341844 0.471731
vt 0.250000 0.490000
vt 0.158156 0.471731
vt 0.028269 0.341844
vt 0.010000 0.250000
vt 0.028269 0.158156
vt 0.158156 0.028269
vt 0.250000 0.010000
vt 0.341844 0.028269
vt 0.471731 0.158156
vt 0.490000 0.250000
vt 0.471731 0.341844
vt 0.062500 0.500000
vt 0.062500 1.000000
vt 0.000000 0.500000
vt 0.000000 1.000000
vt 0.841844 0.028269
vt 0.528269 0.158156
vt 0.658156 0.471731
vt 0.971731 0.341844
vt 0.750000 0.490000
vt 0.841844 0.471731
vt 0.919706 0.419706
vt 0.990000 0.250000
vt 0.971731 0.158156
vt 0.919706 0.080294
vt 0.750000 0.010000
vt 0.658156 0.028269
vt 0.580294 0.080294
vt 0.510000 0.250000
vt 0.528269 0.341844
vt 0.580294 0.419706
vt 1.000000 0.500000
vt 1.000000 1.000000
s 1
g Yaw.Base_Metal
usemtl Metal
f 81/134/72 79/135/73 80/136/73 82/137/72
f 83/138/74 81/134/72 82/137/72 84/139/74
f 85/140/75 83/138/74 84/139/74 86/141/75
f 87/142/76 85/140/75 86/141/75 88/143/76
f 89/144/77 87/142/76 88/143/76 90/145/77
f 91/146/78 89/144/77 90/145/77 92/147/78
f 93/148/79 91/146/78 92/147/78 94/149/79
f 95/150/80 93/148/79 94/149/79 96/151/80
f 97/152/81 95/150/80 96/151/80 98/153/81
f 99/154/82 97/152/81 98/153/81 100/155/82
f 101/156/83 99/154/82 100/155/82 102/157/83
f 103/158/84 101/156/83 102/157/83 104/159/84
f 105/160/85 103/158/84 104/159/84 106/161/85
f 98/162/86 90/163/86 82/164/86 106/165/86
f 82/164/86 80/166/86 106/165/86
f 80/166/86 78/167/86 106/165/86
f 78/167/86 108/168/86 106/165/86
f 106/165/86 104/169/86 98/162/86
f 104/169/86 102/170/86 98/162/86
f 102/170/86 100/171/86 98/162/86
f 98/162/86 96/172/86 90/163/86
f 96/172/86 94/173/86 90/163/86
f 94/173/86 92/174/86 90/163/86
f 90/163/86 88/175/86 82/164/86
f 88/175/86 86/176/86 82/164/86
f 86/176/86 84/177/86 82/164/86
f 107/178/87 105/160/85 106/161/85 108/179/87
f 77/180/88 107/178/87 108/179/87 78/181/88
f 91/182/89 99/183/89 107/184/89 83/185/89
f 107/184/89 77/186/89 79/187/89
f 79/187/89 81/188/89 83/185/89
f 83/185/89 85/189/89 87/190/89
f 87/190/89 89/191/89 91/182/89
f 91/182/89 93/192/89 95/193/89
f 95/193/89 97/194/89 99/183/89
f 99/183/89 101/195/89 103/196/89
f 103/196/89 105/197/89 107/184/89
f 107/184/89 79/187/89 83/185/89
f 83/185/89 87/190/89 91/182/89
f 91/182/89 95/193/89 99/183/89
f 99/183/89 103/196/89 107/184/89
f 79/135/73 77/198/88 78/199/88 80/136/73
g Gun.Front_Cylinder.003
v 1.645431 2.236855 -0.126673
v 2.457682 2.236855 -0.126673
v 1.645431 2.155431 -0.097037
v 2.457682 2.155431 -0.097037
v 1.645431 2.112106 -0.021997
v 2.457682 2.112107 -0.021997
v 1.645431 2.127153 0.063337
v 2.457682 2.127153 0.063337
v 1.645431 2.193530 0.119034
v 2.457682 2.193530 0.119034
v 1.645431 2.280180 0.119034
v 2.457682 2.280180 0.119034
v 1.645431 2.346557 0.063337
v 2.457682 2.346557 0.063337
v 1.645431 2.361604 -0.021997
v 2.457682 2.361604 -0.021997
v 1.645431 2.318279 -0.097037
v 2.457682 2.318279 -0.097037
vn -1.0000 -0.0000 -0.0000
vn -0.9325 -0.3557 -0.0627
vn -0.9325 -0.2322 -0.2767
vn 0.9325 -0.2322 -0.2767
vn 0.9325 -0.3557 -0.0627
vn -0.9325 -0.3128 0.1806
vn 0.9325 -0.3128 0.1806
vn 0.9325 0.1235 0.3394
vn -0.9325 0.1235 0.3394
vn -0.9325 -0.1235 0.3394
vn 0.9325 -0.1235 0.3394
vn -0.9325 0.3128 0.1806
vn 0.9325 0.3128 0.1806
vn -0.9325 0.3557 -0.0627
vn 0.9325 0.3557 -0.0627
vn -0.9325 0.2322 -0.2767
vn 0.9325 0.2322 -0.2767
vn 1.0000 -0.0000 -0.0000
vn -0.9325 -0.0000 -0.3612
vn 0.9325 -0.0000 -0.3612
vt 0.000000 0.000000
vt 0.777778 0.500000
vt 0.888889 0.500000
vt 0.888889 1.000000
vt 0.777778 1.000000
vt 0.666667 0.500000
vt 0.666667 1.000000
vt 0.444444 1.000000
vt 0.444444 0.500000
vt 0.555556 0.500000
vt 0.555556 1.000000
vt 0.333333 0.500000
vt 0.333333 1.000000
vt 0.222222 0.500000
vt 0.222222 1.000000
vt 0.111111 0.500000
vt 0.111111 1.000000
vt 0.486354 0.291676
vt 0.404269 0.433851
vt 0.250000 0.490000
vt 0.095731 0.433851
vt 0.013646 0.291676
vt 0.042154 0.130000
vt 0.167915 0.024474
vt 0.332085 0.024474
vt 0.457846 0.130000
vt 0.000000 0.500000
vt 0.000000 1.000000
vt 1.000000 0.500000
vt 1.000000 1.000000
s 0
g Gun.Front_Steel2
usemtl Steel2
f 125/200/90 109/200/90 111/200/90
f 119/200/90 121/200/90 115/200/90
f 119/200/90 115/200/90 117/200/90
s 1
f 113/201/91 111/202/92 112/203/93 114/204/94
f 115/205/95 113/201/91 114/204/94 116/206/96
f 120/207/97 119/208/98 117/209/99 118/210/100
f 121/211/101 119/208/98 120/207/97 122/212/102
f 123/213/103 121/211/101 122/212/102 124/214/104
s 0
f 123/200/90 113/200/90 115/200/90 121/200/90
s 1
f 125/215/105 123/213/103 124/214/104 126/216/106
s 0
f 114/217/107 112/218/107 110/219/107
f 110/219/107 126/220/107 124/221/107
f 124/221/107 122/222/107 120/223/107
f 120/223/107 118/224/107 116/225/107
f 116/225/107 114/217/107 120/223/107
f 125/200/90 111/200/90 113/200/90 123/200/90
s 1
f 109/226/108 125/215/105 126/216/106 110/227/109
f 117/209/99 115/205/95 116/206/96 118/210/100
s 0
f 110/219/107 124/221/107 120/223/107 114/217/107
s 1
f 111/202/92 109/228/108 110/229/109 112/203/93
g Gun.Center_Cube.003
v -0.653226 1.860893 0.669199
v -0.653226 2.663099 0.669199
v -0.653226 1.860893 -0.669199
v -0.653226 2.663099 -0.669199
v 0.653226 1.860893 0.669199
v 0.653226 2.663099 0.669199
v 0.653226 1.860893 -0.669199
v 0.653226 2.663099 -0.669199
vn -0.0000 -0.0000 -1.0000
vn 1.0000 -0.0000 -0.0000
vn -0.0000 -0.0000 1.0000
vn -0.0000 -1.0000 -0.0000
vn -0.0000 1.0000 -0.0000
vn -1.0000 -0.0000 -0.0000
vt 0.375000 0.500000
vt 0.375000 0.250000
vt 0.625000 0.250000
vt 0.625000 0.500000
vt 0.375000 0.750000
vt 0.625000 0.750000
vt 0.375000 1.000000
vt 0.625000 1.000000
vt 0.125000 0.750000
vt 0.125000 0.500000
vt 0.875000 0.500000
vt 0.875000 0.750000
vt 0.375000 0.000000
vt 0.625000 0.000000
s 0
g Gun.Center_Metal
usemtl Metal
f 133/230/110 129/231/110 130/232/110 134/233/110
f 131/234/111 133/230/111 134/233/111 132/235/111
f 127/236/112 131/234/112 132/235/112 128/237/112
f 127/238/113 129/239/113 133/230/113 131/234/113
f 132/235/114 134/233/114 130/240/114 128/241/114
f 129/231/115 127/242/115 128/243/115 130/232/115
g Gun.Pitch_Cylinder.011
v 0.000000 2.514144 -0.801907
v 0.000000 2.514144 0.801907
v 0.082096 2.497814 -0.801907
v 0.082096 2.497814 0.801907
v 0.151694 2.451310 -0.801907
v 0.151694 2.451310 0.801907
v 0.198198 2.381712 -0.801907
v 0.198198 2.381712 0.801907
v 0.214528 2.299616 -0.801907
v 0.214528 2.299616 0.801907
v 0.198198 2.217520 -0.801907
v 0.198198 2.217520 0.801907
v 0.151694 2.147922 -0.801907
v 0.151694 2.147922 0.801907
v 0.082096 2.101418 -0.801907
v 0.082096 2.101418 0.801907
v 0.000000 2.085088 -0.801907
v 0.000000 2.085088 0.801907
v -0.082096 2.101418 -0.801907
v -0.082096 2.101418 0.801907
v -0.151694 2.147922 -0.801907
v -0.151694 2.147922 0.801907
v -0.198198 2.217520 -0.801907
v -0.198198 2.217520 0.801907
v -0.214528 2.299616 -0.801907
v -0.214528 2.299616 0.801907
v -0.198198 2.381712 -0.801907
v -0.198198 2.381712 0.801907
v -0.151694 2.451310 -0.801907
v -0.151694 2.451310 0.801907
v -0.082096 2.497814 -0.801907
v -0.082096 2.497814 0.801907
vn 0.7071 0.7071 -0.0000
vn 0.3827 0.9239 -0.0000
vn 0.9239 0.3827 -0.0000
vn 1.0000 -0.0000 -0.0000
vn 0.9239 -0.3827 -0.0000
vn 0.7071 -0.7071 -0.0000
vn 0.3827 -0.9239 -0.0000
vn -0.0000 -1.0000 -0.0000
vn -0.3827 -0.9239 -0.0000
vn -0.7071 -0.7071 -0.0000
vn -0.9239 -0.3827 -0.0000
vn -1.0000 -0.0000 -0.0000
vn -0.9239 0.3827 -0.0000
vn -0.7071 0.7071 -0.0000
vn -0.3827 0.9239 -0.0000
vn -0.0000 1.0000 -0.0000
vt 0.875000 0.500000
vt 0.937500 0.500000
vt 0.937500 1.000000
vt 0.875000 1.000000
vt 0.812500 0.500000
vt 0.812500 1.000000
vt 0.750000 0.500000
vt 0.750000 1.000000
vt 0.687500 0.500000
vt 0.687500 1.000000
vt 0.625000 0.500000
vt 0.625000 1.000000
vt 0.562500 0.500000
vt 0.562500 1.000000
vt 0.500000 0.500000
vt 0.500000 1.000000
vt 0.437500 0.500000
vt 0.437500 1.000000
vt 0.375000 0.500000
vt 0.375000 1.000000
vt 0.312500 0.500000
vt 0.312500 1.000000
vt 0.250000 0.500000
vt 0.250000 1.000000
vt 0.187500 0.500000
vt 0.187500 1.000000
vt 0.125000 0.500000
vt 0.125000 1.000000
vt 0.062500 0.500000
vt 0.062500 1.000000
vt 0.000000 0.500000
vt 0.000000 1.000000
vt 1.000000 0.500000
vt 1.000000 1.000000
s 1
g Gun.Pitch_Metal
usemtl Metal
f 139/244/116 137/245/117 138/246/117 140/247/116
f 141/248/118 139/244/116 140/247/116 142/249/118
f 143/250/119 141/248/118 142/249/118 144/251/119
f 145/252/120 143/250/119 144/251/119 146/253/120
f 147/254/121 145/252/120 146/253/120 148/255/121
f 149/256/122 147/254/121 148/255/121 150/257/122
f 151/258/123 149/256/122 150/257/122 152/259/123
f 153/260/124 151/258/123 152/259/123 154/261/124
f 155/262/125 153/260/124 154/261/124 156/263/125
f 157/264/126 155/262/125 156/263/125 158/265/126
f 159/266/127 157/264/126 158/265/126 160/267/127
f 161/268/128 159/266/127 160/267/127 162/269/128
f 163/270/129 161/268/128 162/269/128 164/271/129
f 165/272/130 163/270/129 164/271/129 166/273/130
f 135/274/131 165/272/130 166/273/130 136/275/131
f 137/245/117 135/276/131 136/277/131 138/246/117
g Yaw.Left_Cube.004
v 0.529308 1.380531 -0.990025
v 0.184690 2.657852 -0.990025
v 0.529308 1.380531 -0.661185
v 0.184690 2.657852 -0.714971
v -0.529308 1.380531 -0.990025
v -0.184690 2.657852 -0.990025
v -0.529308 1.380531 -0.661186
v -0.184690 2.657852 -0.714971
v -0.328558 1.999880 -0.699856
v -0.328558 1.999880 -0.990025
v 0.328558 1.999880 -0.990025
v 0.328558 1.999880 -0.699856
vn -0.9769 0.2136 -0.0000
vn -0.0000 -0.0000 -1.0000
vn -0.9513 0.3083 -0.0000
vn -0.0000 0.0623 0.9981
vn 0.9769 0.2136 -0.0000
vn 0.9513 0.3083 -0.0000
vn -0.0000 0.0230 0.9997
vn -0.0000 1.0000 -0.0000
vt 0.500000 0.750000
vt 0.500000 0.500000
vt 0.625000 0.500000
vt 0.625000 0.750000
vt 0.500000 1.000000
vt 0.375000 1.000000
vt 0.375000 0.750000
vt 0.625000 1.000000
vt 0.375000 0.500000
vt 0.375000 0.250000
vt 0.500000 0.250000
vt 0.625000 0.250000
vt 0.500000 0.000000
vt 0.625000 0.000000
vt 0.375000 0.000000
vt 0.875000 0.500000
vt 0.875000 0.750000
s 0
g Yaw.Left_Metal
usemtl Metal
f 176/278/132 175/279/132 174/280/132 172/281/132
f 177/282/133 167/283/133 171/284/133 176/278/133
f 168/285/133 177/282/133 176/278/133 172/281/133
f 171/284/134 173/286/134 175/279/134 176/278/134
f 175/279/135 173/286/135 169/287/135 178/288/135
f 170/289/136 178/288/136 177/290/136 168/291/136
f 178/288/137 169/287/137 167/292/137 177/290/137
f 174/280/138 175/279/138 178/288/138 170/289/138
f 172/281/139 174/280/139 170/293/139 168/294/139
