# Blender 4.0.2
# www.blender.org
o Cube
v -1.267583 0.000813 1.259505
v -0.598115 1.173069 0.590037
v -1.267583 0.000813 -1.275661
v -0.598115 1.173069 -0.606193
v 1.267583 0.000813 1.259505
v 0.598115 1.173069 0.590037
v 1.267583 0.000813 -1.275661
v 0.598115 1.173069 -0.606193
v -1.267583 1.173069 1.259505
v -1.267583 1.173069 -1.275661
v 1.267583 1.173069 -1.275661
v 1.267583 1.173069 1.259505
v -0.598115 4.710639 0.590037
v -0.598115 4.710639 -0.606193
v 0.598115 4.710639 -0.606193
v 0.598115 4.710639 0.590037
vn -1.0000 -0.0000 -0.0000
vn -0.0000 -0.0000 -1.0000
vn 1.0000 -0.0000 -0.0000
vn -0.0000 -0.0000 1.0000
vn -0.0000 -1.0000 -0.0000
vn -0.0000 1.0000 -0.0000
vt 0.375000 0.000000
vt 0.625000 0.000000
vt 0.625000 0.250000
vt 0.375000 0.250000
vt 0.625000 0.500000
vt 0.375000 0.500000
vt 0.625000 0.750000
vt 0.375000 0.750000
vt 0.625000 1.000000
vt 0.375000 1.000000
vt 0.125000 0.500000
vt 0.125000 0.750000
vt 0.652646 0.722354
vt 0.652646 0.527646
vt 0.847354 0.722354
vt 0.847354 0.527646
vt 0.875000 0.500000
vt 0.875000 0.750000
s 0
f 1/1/1 9/2/1 10/3/1 3/4/1
f 3/4/2 10/3/2 11/5/2 7/6/2
f 7/6/3 11/5/3 12/7/3 5/8/3
f 5/8/4 12/7/4 9/9/4 1/10/4
f 3/11/5 7/6/5 5/8/5 1/12/5
f 6/13/3 8/14/3 15/14/3 16/13/3
f 2/15/6 4/16/6 10/17/6 9/18/6
f 4/16/6 8/14/6 11/5/6 10/17/6
f 8/14/6 6/13/6 12/7/6 11/5/6
f 6/13/6 2/15/6 9/18/6 12/7/6
f 15/14/6 14/16/6 13/15/6 16/13/6
f 4/16/1 2/15/1 13/15/1 14/16/1
f 2/15/4 6/13/4 16/13/4 13/15/4
f 8/14/2 4/16/2 14/16/2 15/14/2
o Cube.001
v 0.504286 2.109488 0.170009
v 0.504286 2.449507 0.170009
v 0.504286 2.109488 -0.170009
v 0.504286 2.449507 -0.170009
v 2.451541 2.109488 0.170009
v 2.451541 2.449507 0.170009
v 2.451541 2.109488 -0.170009
v 2.451541 2.449507 -0.170009
vn -1.0000 -0.0000 -0.0000
vn -0.0000 -0.0000 -1.0000
vn 1.0000 -0.0000 -0.0000
vn -0.0000 -0.0000 1.0000
vn -0.0000 -1.0000 -0.0000
vn -0.0000 1.0000 -0.0000
vt 0.375000 0.000000
vt 0.625000 0.000000
vt 0.625000 0.250000
vt 0.375000 0.250000
vt 0.625000 0.500000
vt 0.375000 0.500000
vt 0.625000 0.750000
vt 0.375000 0.750000
vt 0.625000 1.000000
vt 0.375000 1.000000
vt 0.125000 0.500000
vt 0.125000 0.750000
vt 0.875000 0.500000
vt 0.875000 0.750000
s 0
f 17/19/7 18/20/7 20/21/7 19/22/7
f 19/22/8 20/21/8 24/23/8 23/24/8
f 23/24/9 24/23/9 22/25/9 21/26/9
f 21/26/10 22/25/10 18/27/10 17/28/10
f 19/29/11 23/24/11 21/26/11 17/30/11
f 24/23/12 20/31/12 18/32/12 22/25/12
