# Blender v3.2.0 OBJ File: ''
# www.blender.org
o Cylinder
v 0.000000 -1.000000 -1.000000
v 0.000000 1.000000 -1.000000
v 0.433884 1.000000 -0.900969
v 0.433884 -1.000000 -0.900969
v 0.781832 1.000000 -0.623490
v 0.781832 -1.000000 -0.623490
v 0.974928 1.000000 -0.222521
v 0.974928 -1.000000 -0.222521
v 0.974928 1.000000 0.222521
v 0.974928 -1.000000 0.222521
v 0.781832 1.000000 0.623490
v 0.781832 -1.000000 0.623490
v 0.433884 1.000000 0.900969
v 0.433884 -1.000000 0.900969
v 0.000000 1.000000 1.000000
v 0.000000 -1.000000 1.000000
v -0.433884 1.000000 0.900969
v -0.433884 -1.000000 0.900969
v -0.781832 1.000000 0.623490
v -0.781832 -1.000000 0.623490
v -0.974928 1.000000 0.222521
v -0.974928 -1.000000 0.222521
v -0.974928 1.000000 -0.222521
v -0.974928 -1.000000 -0.222521
v -0.781832 1.000000 -0.623490
v -0.781832 -1.000000 -0.623490
v -0.433884 1.000000 -0.900969
v -0.433884 -1.000000 -0.900969
vt 0.016017 0.196595
vt 0.145868 0.033767
vt 0.483983 0.196595
vt 0.857143 0.500000
vt 0.928571 0.500000
vt 0.928571 1.000000
vt 0.857143 1.000000
vt 0.785714 0.500000
vt 0.785714 1.000000
vt 0.714286 0.500000
vt 0.714286 1.000000
vt 0.642857 0.500000
vt 0.642857 1.000000
vt 0.571428 0.500000
vt 0.571428 1.000000
vt 0.500000 0.500000
vt 0.500000 1.000000
vt 0.428571 0.500000
vt 0.428571 1.000000
vt 0.357143 0.500000
vt 0.357143 1.000000
vt 0.285714 0.500000
vt 0.285714 1.000000
vt 0.214286 0.500000
vt 0.214286 1.000000
vt 0.142857 0.500000
vt 0.142857 1.000000
vt 0.071428 0.500000
vt 0.071428 1.000000
vt 0.437640 0.399638
vt 0.354132 0.466233
vt 0.250000 0.490000
vt 0.145868 0.466233
vt 0.062360 0.399638
vt 0.016017 0.303405
vt 0.062360 0.100362
vt 0.250000 0.010000
vt 0.354132 0.033767
vt 0.437640 0.100362
vt 0.483983 0.303405
vt -0.000000 0.500000
vt -0.000000 1.000000
vt 0.983983 0.303405
vt 0.750000 0.010000
vt 0.516017 0.303405
vt 0.645868 0.466233
vt 0.750000 0.490000
vt 0.854132 0.466233
vt 0.937640 0.399638
vt 0.983983 0.196595
vt 0.937640 0.100362
vt 0.854132 0.033767
vt 0.645868 0.033767
vt 0.562360 0.100362
vt 0.516017 0.196595
vt 0.562360 0.399638
vt 1.000000 0.500000
vt 1.000000 1.000000
vn 0.0000 1.0000 -0.0000
vn 0.6235 0.0000 -0.7818
vn 0.9010 0.0000 -0.4339
vn 1.0000 0.0000 0.0000
vn 0.9010 0.0000 0.4339
vn 0.6235 -0.0000 0.7818
vn 0.2225 -0.0000 0.9749
vn -0.2225 -0.0000 0.9749
vn -0.6235 -0.0000 0.7818
vn -0.9010 0.0000 0.4339
vn -1.0000 0.0000 0.0000
vn -0.9010 0.0000 -0.4339
vn -0.6235 0.0000 -0.7818
vn -0.2225 0.0000 -0.9749
vn -0.0000 -1.0000 -0.0000
vn 0.2225 0.0000 -0.9749
s 1
f 21/1/1 17/2/1 9/3/1
f 6/4/2 4/5/2 3/6/2 5/7/2
f 8/8/3 6/4/3 5/7/3 7/9/3
f 10/10/4 8/8/4 7/9/4 9/11/4
f 12/12/5 10/10/5 9/11/5 11/13/5
f 14/14/6 12/12/6 11/13/6 13/15/6
f 16/16/7 14/14/7 13/15/7 15/17/7
f 18/18/8 16/16/8 15/17/8 17/19/8
f 20/20/9 18/18/9 17/19/9 19/21/9
f 22/22/10 20/20/10 19/21/10 21/23/10
f 24/24/11 22/22/11 21/23/11 23/25/11
f 26/26/12 24/24/12 23/25/12 25/27/12
f 28/28/13 26/26/13 25/27/13 27/29/13
f 5/30/1 3/31/1 2/32/1
f 2/32/1 27/33/1 25/34/1
f 25/34/1 23/35/1 21/1/1
f 21/1/1 19/36/1 17/2/1
f 17/2/1 15/37/1 9/3/1
f 15/37/1 13/38/1 9/3/1
f 13/38/1 11/39/1 9/3/1
f 9/3/1 7/40/1 5/30/1
f 5/30/1 2/32/1 9/3/1
f 1/41/14 28/28/14 27/29/14 2/42/14
f 8/43/15 16/44/15 24/45/15 28/46/15
f 28/46/15 1/47/15 8/43/15
f 1/47/15 4/48/15 8/43/15
f 4/48/15 6/49/15 8/43/15
f 8/43/15 10/50/15 16/44/15
f 10/50/15 12/51/15 16/44/15
f 12/51/15 14/52/15 16/44/15
f 16/44/15 18/53/15 20/54/15
f 20/54/15 22/55/15 16/44/15
f 22/55/15 24/45/15 16/44/15
f 24/45/15 26/56/15 28/46/15
f 25/34/1 21/1/1 9/3/1 2/32/1
f 4/5/16 1/57/16 2/58/16 3/6/16
