# Blender v3.1.0 Alpha OBJ File: ''
# www.blender.org
o cross
v -1.000000 -0.000000 1.000000
v 1.000000 -0.000000 1.000000
v 1.000000 0.000000 -1.000000
v -1.000000 0.000000 -1.000000
v 0.000000 -1.000000 1.000000
v 0.000000 1.000000 1.000000
v 0.000000 1.000000 -1.000000
v 0.000000 -1.000000 -1.000000
vt 0.000000 0.000000
vt 1.000000 0.000000
vt 1.000000 1.000000
vt 0.000000 1.000000
vt 0.000000 0.000000
vt 1.000000 0.000000
vt 1.000000 1.000000
vt 0.000000 1.000000
vn 0.0000 1.0000 0.0000
vn -1.0000 0.0000 0.0000
s 1
f 1/1/1 2/2/1 3/3/1 4/4/1
f 5/5/2 6/6/2 7/7/2 8/8/2
o cross.001
v -0.707107 -0.707107 1.000000
v 0.707107 0.707107 1.000000
v 0.707107 0.707107 -1.000000
v -0.707107 -0.707107 -1.000000
v 0.707107 -0.707107 1.000000
v -0.707107 0.707107 1.000000
v -0.707107 0.707107 -1.000000
v 0.707107 -0.707107 -1.000000
vt 0.000000 0.000000
vt 1.000000 0.000000
vt 1.000000 1.000000
vt 0.000000 1.000000
vt 0.000000 0.000000
vt 1.000000 0.000000
vt 1.000000 1.000000
vt 0.000000 1.000000
vn -0.7071 0.7071 0.0000
vn -0.7071 -0.7071 0.0000
s 1
f 9/9/3 10/10/3 11/11/3 12/12/3
f 13/13/4 14/14/4 15/15/4 16/16/4
o cross.002
v -0.939693 -0.342020 1.000000
v 0.939693 0.342020 1.000000
v 0.939693 0.342020 -1.000000
v -0.939693 -0.342020 -1.000000
v 0.342020 -0.939693 1.000000
v -0.342020 0.939693 1.000000
v -0.342020 0.939693 -1.000000
v 0.342020 -0.939693 -1.000000
vt 0.000000 0.000000
vt 1.000000 0.000000
vt 1.000000 1.000000
vt 0.000000 1.000000
vt 0.000000 0.000000
vt 1.000000 0.000000
vt 1.000000 1.000000
vt 0.000000 1.000000
vn -0.3420 0.9397 0.0000
vn -0.9397 -0.3420 0.0000
s 1
f 17/17/5 18/18/5 19/19/5 20/20/5
f 21/21/6 22/22/6 23/23/6 24/24/6
o cross.003
v -0.422618 -0.906308 1.000000
v 0.422618 0.906308 1.000000
v 0.422618 0.906308 -1.000000
v -0.422618 -0.906308 -1.000000
v 0.906308 -0.422618 1.000000
v -0.906308 0.422618 1.000000
v -0.906308 0.422618 -1.000000
v 0.906308 -0.422618 -1.000000
vt 0.000000 0.000000
vt 1.000000 0.000000
vt 1.000000 1.000000
vt 0.000000 1.000000
vt 0.000000 0.000000
vt 1.000000 0.000000
vt 1.000000 1.000000
vt 0.000000 1.000000
vn -0.9063 0.4226 0.0000
vn -0.4226 -0.9063 -0.0000
s 1
f 25/25/7 26/26/7 27/27/7 28/28/7
f 29/29/8 30/30/8 31/31/8 32/32/8
