mtllib industrial15x22.mtl
g g0
o Mesh
v 7.52835 -0.0991085 10.9953
v 7.52835 -0.0991085 10.8327
v 7.52835 -0.0991085 -10.8454
v 7.52835 -0.0991085 -11.0047
v 0.0283536 -0.0991092 10.9953
v 0.0283503 -0.0991092 -11.0047
v -7.47165 -0.09911 10.9953
v -7.47165 -0.09911 -11.0047
v -7.47165 -0.09911 10.8327
v -7.47165 -0.09911 -10.8454
v 3.77835 4.52889 10.8327
v 7.52835 5.90089 10.9953
v 7.52835 5.90089 10.8327
v 3.77835 4.52889 -10.8454
v 7.52835 5.90089 -10.8454
v 7.52835 5.90089 -11.0047
v 0.0283536 5.90089 10.8327
v 0.0283536 5.90089 10.9953
v 0.0283503 5.90089 -10.8454
v 0.0283503 5.90089 -11.0047
v -3.72165 4.52889 10.8327
v -7.47165 5.90089 10.9953
v -3.72165 4.52889 -10.8454
v -7.47165 5.90089 -11.0047
v -7.47165 5.90089 10.8327
v -7.47165 5.90089 -10.8454
vn -0.121059 0.992645 -1.00738e-08
vn -0.174472 0.984662 0
vn -0.343593 0.939119 1.11769e-08
vn -0.343593 0.939119 1.11769e-08
vn -0.343593 0.939119 0
vn -1.82472e-07 1 -7.61131e-09
vn 0.0216441 0.0591585 -0.998014
vn 0.0216441 0.0591585 -0.998014
vn 0.0216441 0.0591585 -0.998014
vn -0.174472 0.984662 0
vn -0.0896456 0.995974 -3.33206e-09
vn -0.174472 0.984662 0
vn -1.46635e-08 0.115319 0.993329
vn -1.46635e-08 0.115319 0.993329
vn -1.46635e-08 0.115319 0.993329
vn -1.90406e-07 1 -7.61131e-09
vn 0.174472 0.984662 0
vn 0.0896454 0.995974 -3.33206e-09
vn -1.19004e-07 1 1.07258e-06
vn -0.174472 0.984662 0
vn -0.0896456 0.995974 -3.33206e-09
vn -1.49699e-08 0.117728 -0.993046
vn -1.49699e-08 0.117728 -0.993046
vn -1.49699e-08 0.117728 -0.993046
vn 0.174472 0.984662 0
vn 0.0896454 0.995974 -3.33206e-09
vn 0.174472 0.984662 0
vn -0.0211969 0.057936 0.998095
vn -0.0211969 0.057936 0.998095
vn -0.0211969 0.057936 0.998095
vn 0.343592 0.939119 1.99547e-06
vn 0.343592 0.939119 4.02911e-06
vn -1.19004e-07 1 1.07258e-06
vn 0.121058 0.992645 3.75521e-15
vn 0.174472 0.984662 0
vn 0.343592 0.939119 -1.90872e-08
vn -0.343593 0.939119 1.11769e-08
vn -1.82472e-07 1 -7.61131e-09
vn -0.121059 0.992645 -1.00738e-08
vn -0.343593 0.939119 1.11769e-08
vn -1.82472e-07 1 -7.61131e-09
vn 0.0896454 0.995974 -3.33206e-09
vn -0.0896456 0.995974 -3.33206e-09
vn -0.121059 0.992645 -1.00738e-08
vn 0.0896454 0.995974 -3.33206e-09
vn 0.121058 0.992645 3.75521e-15
vn -1.19004e-07 1 1.07258e-06
vn -0.0896456 0.995974 -3.33206e-09
vn 0.121058 0.992645 3.75521e-15
vn 0.343592 0.939119 -1.90872e-08
vn 0.343592 0.939119 1.99547e-06
vn -1.19004e-07 1 1.07258e-06
vn 0 0 1
vn 0 0 1
vn 0 0 1
vn 0 0 1
vn 0 0 1
vn 0 0 1
vn 0 0 1
vn 0 0 1
vn 0 0 -1
vn 0 0 -1
vn 0 0 -1
vn 0 0 -1
vn 0 0 -1
vn 0 0 -1
vn 0 0 -1
vn 0 0 -1
vn 1 0 -2.19963e-08
vn 1 0 -2.19963e-08
vn 1 0 -2.19963e-08
vn 1 0 -2.19963e-08
vn -1 0 -5.80822e-06
vn -1 0 -5.80822e-06
vn -1 0 5.49907e-08
vn -1 0 5.49907e-08
vn 1 0 0
vn 1 0 0
vn 1 0 -2.19963e-08
vn 1 0 -2.19963e-08
vn 1 0 0
vn 1 0 0
vn 1 0 -2.19963e-08
vn 1 0 -2.19963e-08
vn -1 0 5.49907e-08
vn -1 0 5.49907e-08
vn -1 0 0
vn -1 0 0
vn -1 0 -1.17264e-05
vn -1 0 -1.17264e-05
vn -1 0 -5.80822e-06
vn -1 0 -5.80822e-06
vt 0.964595 1.18549
vt 0.979163 1.24553
vt 0.964595 1.24553
vt -0.008278 0.367011
vt -0.008278 0.424879
vt -0.020151 0.424657
vt -0.021338 0.367011
vt -0.021338 0.424768
vt -0.032659 0.424768
vt 0.979163 1.18549
vt 0.964595 1.12545
vt 0.979163 1.12545
vt -0.009356 0.482525
vt -0.020151 0.424657
vt -0.008278 0.424879
vt -0.97647 1.18549
vt -0.990732 1.12545
vt -0.97647 1.12545
vt 0.964595 1.0654
vt 0.979163 1.12545
vt 0.964595 1.12545
vt -0.157433 0.473763
vt -0.168663 0.422468
vt -0.157114 0.422528
vt -0.990732 1.0654
vt -0.97647 1.12545
vt -0.990732 1.12545
vt -0.156651 0.258572
vt -0.156971 0.309808
vt -0.167959 0.30975
vt -0.157888 0.371287
vt -0.157114 0.422528
vt -0.168663 0.422468
vt -0.97647 1.0654
vt -0.990732 1.00536
vt -0.97647 1.00536
vt -0.97647 1.24553
vt -0.97647 1.18549
vt 0.964595 1.18549
vt 0.964595 1.24553
vt -0.97647 1.18549
vt -0.97647 1.12545
vt 0.964595 1.12545
vt 0.964595 1.18549
vt -0.97647 1.12545
vt -0.97647 1.0654
vt 0.964595 1.0654
vt 0.964595 1.12545
vt -0.97647 1.0654
vt -0.97647 1.00536
vt 0.964595 1.00536
vt 0.964595 1.0654
vt 0.249141 0.75508
vt 0.249141 0.995065
vt 0.003823 0.995065
vt 0.003823 0.75508
vt 0.494459 0.75508
vt 0.494459 0.995065
vt 0.249141 0.995065
vt 0.249141 0.75508
vt 0.249141 0.75508
vt 0.249141 0.995065
vt 0.494459 0.995065
vt 0.494459 0.75508
vt 0.003823 0.75508
vt 0.003823 0.995065
vt 0.249141 0.995065
vt 0.249141 0.75508
vt -0.025241 0.261706
vt -0.025241 0.499611
vt 0.781829 0.499611
vt 0.781829 0.261706
vt 0.401334 1.2602
vt 0.401334 1.49836
vt 1.20123 1.49836
vt 1.20123 1.2602
vt 0.996877 0.499611
vt 0.996877 0.261706
vt 0.984213 0.261706
vt 0.984213 0.499611
vt -0.706437 0.261706
vt -0.706437 0.499611
vt -0.69404 0.499611
vt -0.69404 0.261706
vt 1.87003 1.2602
vt 1.87003 1.49836
vt 1.88232 1.49836
vt 1.88232 1.2602
vt 0.185209 1.2602
vt 0.185209 1.49836
vt 0.19776 1.49836
vt 0.19776 1.2602
usemtl acmat_0
f 11/1/1 12/2/2 13/3/3
f 15/4/4 16/5/5 14/6/6
f 17/7/7 12/8/8 11/9/9
f 12/10/10 17/11/11 18/12/12
f 20/13/13 14/14/14 16/15/15
f 14/16/16 20/17/17 19/18/18
f 21/19/19 18/20/20 17/21/21
f 18/22/22 21/23/23 22/24/24
f 24/25/25 19/26/26 20/27/27
f 19/28/28 24/29/29 23/30/30
f 25/31/31 22/32/32 21/33/33
f 23/34/34 24/35/35 26/36/36
f 15/37/37 14/38/38 11/39/39 13/40/40
f 14/41/41 19/42/42 17/43/43 11/44/44
f 19/45/45 23/46/46 21/47/47 17/48/48
f 23/49/49 26/50/50 25/51/51 21/52/52
f 5/53/53 18/54/54 22/55/55 7/56/56
f 1/57/57 12/58/58 18/59/59 5/60/60
f 6/61/61 20/62/62 16/63/63 4/64/64
f 8/65/65 24/66/66 20/67/67 6/68/68
f 3/69/69 15/70/70 13/71/71 2/72/72
f 9/73/73 25/74/74 26/75/75 10/76/76
f 12/77/77 1/78/78 2/79/79 13/80/80
f 4/81/81 16/82/82 15/83/83 3/84/84
f 10/85/85 26/86/86 24/87/87 8/88/88
f 7/89/89 22/90/90 25/91/91 9/92/92
