# Blender v2.90.0 OBJ File: ''
# www.blender.org
mtllib pipe_box.mtl
v -1.100000 -1 1.100000
v -1.100000 1 1.100000
v -1.100000 1 -1.100000
v -1.100000 -1 -1.100000
v 1.100000 1 -1.100000
v 1.100000 -1 -1.100000
v 1.100000 1 1.100000
v 1.100000 -1 1.100000
v 1.000000 -1 1.000000
v 1.000000 -1 -1.000000
v -1.000000 -1 -1.000000
v -1.000000 1 0.550000
v -1.000000 1 -1.000000
v 1.000000 1 -1.000000
v 1.000000 1 1.000000
v -1.000000 1 1.000000
v -1.000000 -1 1.000000
vt 0.625000 0.000000
vt 0.375000 0.250000
vt 0.375000 0.000000
vt 0.625000 0.250000
vt 0.375000 0.500000
vt 0.625000 0.500000
vt 0.375000 0.750000
vt 0.625000 0.750000
vt 0.375000 1.000000
vt 0.363636 0.738636
vt 0.363636 0.511364
vt 0.863636 0.511364
vt 0.636364 0.511364
vt 0.568750 0.056250
vt 0.568750 0.000000
vt 0.431250 0.000000
vt 0.568750 1.000000
vt 0.431250 0.750000
vt 0.431250 1.000000
vt 0.636364 0.738636
vt 0.863636 0.738636
vt 0.875000 0.750000
vt 0.568750 0.750000
vt 0.431250 0.500000
vt 0.568750 0.500000
vt 0.431250 0.250000
vt 0.136364 0.738636
vt 0.125000 0.750000
vt 0.625000 1.000000
vt 0.136364 0.511364
vt 0.125000 0.500000
vt 0.875000 0.500000
vt 0.863636 0.687500
vt 0.568750 0.250000
vn -1.0000 0.0000 0.0000
vn 0.0000 0.0000 -1.0000
vn 1.0000 0.0000 0.0000
vn 0.0000 0.0000 1.0000
vn 0.0000 -1.0000 0.0000
vn 0.0000 1.0000 -0.0000
g Cube.002_Cube.002_None
usemtl None
s 1
f 2/1/1 4/2/1 1/3/1
f 3/4/2 6/5/2 4/2/2
f 5/6/3 8/7/3 6/5/3
f 7/8/4 1/9/4 8/7/4
f 6/5/5 9/10/5 10/11/5
f 13/12/6 14/13/6 5/6/6
f 12/14/3 16/15/3 17/16/3
f 16/17/2 9/18/2 17/19/2
f 15/20/6 16/21/6 2/22/6
f 15/23/1 10/24/1 9/18/1
f 14/25/4 11/26/4 10/24/4
f 17/27/5 8/7/5 1/28/5
f 2/1/1 3/4/1 4/2/1
f 3/4/2 5/6/2 6/5/2
f 5/6/3 7/8/3 8/7/3
f 7/8/4 2/29/4 1/9/4
f 11/30/5 4/31/5 10/11/5
f 4/31/5 6/5/5 10/11/5
f 6/5/5 8/7/5 9/10/5
f 3/32/6 2/22/6 12/33/6
f 3/32/6 12/33/6 13/12/6
f 15/20/6 7/8/6 14/13/6
f 7/8/6 5/6/6 14/13/6
f 3/32/6 13/12/6 5/6/6
f 17/16/3 11/26/3 12/14/3
f 11/26/3 13/34/3 12/14/3
f 16/17/2 15/23/2 9/18/2
f 2/22/6 7/8/6 15/20/6
f 16/21/6 12/33/6 2/22/6
f 15/23/1 14/25/1 10/24/1
f 14/25/4 13/34/4 11/26/4
f 4/31/5 11/30/5 1/28/5
f 11/30/5 17/27/5 1/28/5
f 17/27/5 9/10/5 8/7/5
