# Blender 4.4.0
# www.blender.org
g rail
v -0.231135 1.000000 -0.360824
v -0.231135 -1.000000 -0.360824
v -0.288888 1.000000 -0.326483
v -0.288888 -1.000000 -0.326483
v -0.314786 1.000000 -0.255536
v -0.314786 -1.000000 -0.255536
v -0.348768 1.000000 -0.261541
v -0.348768 -1.000000 -0.261541
v -0.341845 1.000000 -0.318558
v -0.341845 -1.000000 -0.318558
v -0.309218 1.000000 -0.365827
v -0.309218 -1.000000 -0.365827
v -0.258361 1.000000 -0.392519
v -0.258361 -1.000000 -0.392519
v -0.200925 1.000000 -0.392519
v -0.200926 -1.000000 -0.392519
v -0.150069 1.000000 -0.365827
v -0.150069 -1.000000 -0.365827
v -0.117441 1.000000 -0.318558
v -0.117441 -1.000000 -0.318558
v -0.110518 1.000000 -0.261541
v -0.110518 -1.000000 -0.261541
v -0.134529 1.000000 -0.267762
v -0.134529 -1.000000 -0.267762
v -0.150722 1.000000 -0.337819
v -0.150723 -1.000000 -0.337819
vn 0.5111 -0.0000 0.8595
vn 0.9394 -0.0000 0.3429
vn -0.1740 -0.0000 0.9847
vn -0.9927 -0.0000 -0.1205
vn -0.8230 -0.0000 -0.5681
vn -0.4647 -0.0000 -0.8855
vn -0.0000 -0.0000 -1.0000
vn 0.4647 -0.0000 -0.8855
vn 0.8230 -0.0000 -0.5681
vn 0.9927 -0.0000 -0.1205
vn -0.2508 -0.0000 0.9680
vn -0.9743 -0.0000 0.2252
vn -0.2751 -0.0000 0.9614
vt 1.000000 0.500000
vt 1.000000 1.000000
vt 0.923077 1.000000
vt 0.923077 0.500000
vt 0.846154 1.000000
vt 0.846154 0.500000
vt 0.769231 1.000000
vt 0.769231 0.500000
vt 0.692308 1.000000
vt 0.692308 0.500000
vt 0.615385 1.000000
vt 0.615385 0.500000
vt 0.538462 1.000000
vt 0.538462 0.500000
vt 0.461538 1.000000
vt 0.461538 0.500000
vt 0.384615 1.000000
vt 0.384615 0.500000
vt 0.307692 1.000000
vt 0.307692 0.500000
vt 0.230769 1.000000
vt 0.230769 0.500000
vt 0.153846 1.000000
vt 0.153846 0.500000
vt 0.076923 1.000000
vt 0.076923 0.500000
vt 0.000000 1.000000
vt 0.000000 0.500000
s 1
f 1/1/1 3/4/1 4/3/1 2/2/1
f 3/4/2 5/6/2 6/5/2 4/3/2
f 5/6/3 7/8/3 8/7/3 6/5/3
f 7/8/4 9/10/4 10/9/4 8/7/4
f 9/10/5 11/12/5 12/11/5 10/9/5
f 11/12/6 13/14/6 14/13/6 12/11/6
f 13/14/7 15/16/7 16/15/7 14/13/7
f 15/16/8 17/18/8 18/17/8 16/15/8
f 17/18/9 19/20/9 20/19/9 18/17/9
f 19/20/10 21/22/10 22/21/10 20/19/10
f 21/22/11 23/24/11 24/23/11 22/21/11
f 23/24/12 25/26/12 26/25/12 24/23/12
f 25/26/13 1/28/13 2/27/13 26/25/13
g roof
v 0 1 0
v -0.235979 1 -0.224432
v 0 1 1
v 0 -1 0
v -0.235979 -1 -0.224432
v 0 -1 1
vn 0.6884 -0.0000 -0.7253
vn -0.9819 -0.0000 0.1894
vt 0.375000 0.750000
vt 0.625000 0.750000
vt 0.625000 1.000000
vt 0.375000 1.000000
vt 0.625000 0.500000
vt 0.875000 0.500000
vt 0.875000 0.750000
s 1
f 30/29/14 31/30/14 28/31/14 27/32/14
f 32/33/15 29/34/15 28/35/15 31/30/15
