# Blender v2.90.0 OBJ File: ''
# www.blender.org
mtllib road_bollard.mtl
o Mball.001_Mesh
v 0.381383 -0.019967 -0.067304
v 0.336521 -0.019967 -0.190678
v 0.381383 -0.019967 0.067304
v 0.347083 2.127457 0.061251
v 0.347083 2.127457 -0.061251
v 0.336521 -0.019967 0.190678
v 0.306255 2.127457 0.173529
v 0.300510 2.127457 0.183753
v 0.330207 -0.019967 0.201912
v 0.201912 -0.019967 0.330207
v 0.183753 2.127457 0.300510
v 0.173529 2.127457 0.306255
v 0.190678 -0.019967 0.336521
v 0.067304 -0.019967 0.381382
v 0.061251 2.127457 0.347083
v -0.061251 2.127457 0.347083
v -0.067304 -0.019967 0.381382
v -0.173529 2.127457 0.306255
v -0.190678 -0.019967 0.336521
v -0.201912 -0.019967 0.330207
v -0.183753 2.127457 0.300510
v -0.123300 2.274881 0.306255
v -0.183753 2.274881 0.274318
v -0.274318 2.274881 0.183753
v -0.300510 2.127457 0.183753
v -0.306256 2.127457 0.173529
v -0.306256 2.274881 0.123300
v -0.324666 2.274881 0.061251
v -0.347083 2.127457 0.061251
v -0.347083 2.127457 -0.061251
v -0.324666 2.274881 -0.061251
v -0.381382 -0.019967 0.067304
v -0.381382 -0.019967 -0.067304
v -0.336521 -0.019967 -0.190678
v -0.306256 2.127457 -0.173529
v -0.300510 2.127457 -0.183753
v -0.330207 -0.019967 -0.201912
v -0.201912 -0.019967 -0.330207
v -0.183753 2.127457 -0.300510
v -0.173529 2.127457 -0.306255
v -0.190678 -0.019967 -0.336521
v -0.067304 -0.019967 -0.381382
v -0.061251 2.127457 -0.347083
v 0.067304 -0.019967 -0.381382
v 0.061251 2.127457 -0.347083
v -0.061251 2.274881 -0.324666
v 0.061251 2.274881 -0.324666
v 0.123300 2.274881 -0.306255
v 0.173529 2.127457 -0.306255
v 0.183753 2.127457 -0.300510
v 0.183753 2.274881 -0.274318
v 0.274318 2.274881 -0.183753
v 0.300510 2.127457 -0.183753
v 0.306255 2.127457 -0.173529
v 0.306255 2.274881 -0.123300
v 0.324665 2.274881 -0.061251
v 0.306255 2.322866 -0.061251
v 0.324665 2.274881 0.061251
v 0.306255 2.322866 0.061251
v 0.245440 2.422306 0.061251
v 0.245440 2.422306 -0.061251
v 0.306255 2.274881 0.123300
v 0.274318 2.274881 0.183753
v 0.183753 2.413416 0.183753
v 0.183753 2.422306 0.173529
v 0.173529 2.422306 0.183753
v 0.183753 2.274881 0.274318
v 0.123300 2.274881 0.306255
v 0.061251 2.322866 0.306255
v 0.061251 2.422306 0.245440
v -0.061251 2.422306 0.245440
v -0.061251 2.322866 0.306255
v -0.061251 2.274881 0.324666
v 0.061251 2.274881 0.324666
v -0.061251 2.481566 0.183753
v 0.061251 2.481566 0.183753
v -0.173529 2.422306 0.183753
v -0.183753 2.422306 0.173529
v -0.183753 2.481566 0.061251
v -0.061251 2.538442 0.061251
v -0.245440 2.422306 0.061251
v -0.245440 2.422306 -0.061251
v -0.183753 2.481566 -0.061251
v -0.183753 2.422306 -0.173529
v -0.173529 2.422306 -0.183753
v -0.061251 2.481566 -0.183753
v -0.061251 2.538442 -0.061251
v 0.061251 2.481566 -0.183753
v 0.061251 2.538442 -0.061251
v -0.061251 2.422306 -0.245440
v 0.061251 2.422306 -0.245440
v 0.173529 2.422306 -0.183753
v -0.061251 2.322866 -0.306255
v 0.061251 2.322866 -0.306255
v -0.183753 2.413416 -0.183753
v -0.183753 2.274881 -0.274318
v -0.123300 2.274881 -0.306255
v -0.274318 2.274881 -0.183753
v 0.061251 2.538442 0.061251
v 0.183753 2.481566 -0.061251
v 0.183753 2.481566 0.061251
v -0.306256 2.322866 -0.061251
v -0.306256 2.274881 -0.123300
v -0.306256 2.322866 0.061251
v -0.183753 2.413416 0.183753
v 0.183753 2.422306 -0.173529
v 0.330207 -0.019967 -0.201912
v 0.183753 2.413416 -0.183753
v 0.201912 -0.019967 -0.330207
v 0.190678 -0.019967 -0.336521
v -0.336521 -0.019967 0.190678
v -0.330207 -0.019967 0.201912
vn 0.9847 0.0162 0.1735
vn 0.9847 0.0162 -0.1735
vn 0.9829 0.0778 -0.1666
vn 0.9829 0.0778 0.1666
vn 0.9072 0.0803 0.4129
vn 0.9087 0.0161 0.4172
vn 0.7968 0.0161 0.6039
vn 0.8004 0.0793 0.5941
vn 0.5941 0.0793 0.8004
vn 0.6039 0.0161 0.7968
vn 0.4172 0.0161 0.9087
vn 0.4129 0.0803 0.9072
vn 0.1666 0.0778 0.9829
vn 0.1735 0.0162 0.9847
vn -0.1735 0.0162 0.9847
vn -0.1666 0.0778 0.9829
vn -0.4172 0.0161 0.9087
vn -0.4129 0.0803 0.9072
vn -0.5941 0.0793 0.8004
vn -0.6039 0.0161 0.7968
vn -0.5606 0.3064 0.7692
vn -0.3838 0.3014 0.8728
vn -0.8004 0.0793 0.5941
vn -0.7711 0.3042 0.5594
vn -0.8762 0.2988 0.3782
vn -0.9072 0.0803 0.4129
vn -0.9829 0.0778 0.1666
vn -0.9576 0.2467 0.1483
vn -0.9576 0.2467 -0.1483
vn -0.9829 0.0778 -0.1666
vn -0.9847 0.0162 -0.1735
vn -0.9847 0.0162 0.1735
vn -0.9072 0.0803 -0.4129
vn -0.9087 0.0161 -0.4172
vn -0.7968 0.0161 -0.6039
vn -0.8004 0.0793 -0.5941
vn -0.5941 0.0793 -0.8004
vn -0.6039 0.0161 -0.7968
vn -0.4172 0.0161 -0.9087
vn -0.4129 0.0803 -0.9072
vn -0.1666 0.0778 -0.9829
vn -0.1735 0.0162 -0.9847
vn 0.1666 0.0778 -0.9829
vn 0.1735 0.0162 -0.9847
vn 0.1483 0.2467 -0.9576
vn -0.1483 0.2467 -0.9576
vn 0.4129 0.0803 -0.9072
vn 0.3838 0.3014 -0.8728
vn 0.5606 0.3064 -0.7692
vn 0.5941 0.0793 -0.8004
vn 0.8004 0.0793 -0.5941
vn 0.7711 0.3042 -0.5594
vn 0.8762 0.2988 -0.3782
vn 0.9072 0.0803 -0.4129
vn 0.9576 0.2467 -0.1483
vn 0.8742 0.4511 -0.1793
vn 0.8742 0.4511 0.1793
vn 0.9576 0.2467 0.1483
vn 0.7676 0.6102 -0.1959
vn 0.7676 0.6102 0.1959
vn 0.7711 0.3042 0.5594
vn 0.8762 0.2988 0.3782
vn 0.6048 0.6613 0.4437
vn 0.5996 0.5240 0.6049
vn 0.4364 0.6663 0.6046
vn 0.3838 0.3014 0.8728
vn 0.5606 0.3064 0.7692
vn 0.1955 0.6093 0.7684
vn 0.1843 0.4525 0.8725
vn -0.1843 0.4525 0.8725
vn -0.1955 0.6093 0.7684
vn 0.1483 0.2467 0.9576
vn -0.1483 0.2467 0.9576
vn 0.1944 0.8129 0.5489
vn -0.2029 0.8149 0.5429
vn -0.4319 0.6687 0.6053
vn -0.2108 0.9546 0.2105
vn -0.5438 0.8146 0.2016
vn -0.5925 0.6701 0.4472
vn -0.7676 0.6102 0.1959
vn -0.5492 0.8127 -0.1947
vn -0.7676 0.6102 -0.1959
vn -0.6048 0.6613 -0.4437
vn -0.2104 0.9547 -0.2104
vn -0.1944 0.8129 -0.5489
vn -0.4364 0.6663 -0.6046
vn 0.2108 0.9546 -0.2105
vn 0.2029 0.8149 -0.5429
vn 0.1955 0.6093 -0.7684
vn -0.1955 0.6093 -0.7684
vn 0.4319 0.6687 -0.6053
vn 0.1843 0.4525 -0.8725
vn -0.1843 0.4525 -0.8725
vn -0.3838 0.3014 -0.8728
vn -0.5606 0.3064 -0.7692
vn -0.5996 0.5240 -0.6049
vn -0.7711 0.3042 -0.5594
vn 0.2104 0.9547 0.2104
vn 0.5492 0.8127 0.1947
vn 0.5438 0.8146 -0.2016
vn -0.8762 0.2988 -0.3782
vn -0.8742 0.4511 -0.1793
vn -0.8742 0.4511 0.1793
vn -0.5996 0.5240 0.6049
vn 0.5925 0.6701 -0.4472
vn 0.9087 0.0161 -0.4172
vn 0.7968 0.0161 -0.6039
vn 0.5996 0.5240 -0.6049
vn 0.6039 0.0161 -0.7968
vn 0.4172 0.0161 -0.9087
vn -0.9087 0.0161 0.4172
vn -0.7968 0.0161 0.6039
usemtl None
s 1
f 3//1 1//2 5//3 4//4
f 7//5 6//6 3//1 4//4
f 9//7 6//6 7//5 8//8
f 11//9 10//10 9//7 8//8
f 13//11 10//10 11//9 12//12
f 15//13 14//14 13//11 12//12
f 17//15 14//14 15//13 16//16
f 19//17 17//15 16//16 18//18
f 21//19 20//20 19//17 18//18
f 23//21 21//19 18//18 22//22
f 25//23 21//19 23//21 24//24
f 27//25 26//26 25//23 24//24
f 29//27 26//26 27//25 28//28
f 31//29 30//30 29//27 28//28
f 30//30 33//31 32//32 29//27
f 35//33 34//34 33//31 30//30
f 37//35 34//34 35//33 36//36
f 39//37 38//38 37//35 36//36
f 41//39 38//38 39//37 40//40
f 43//41 42//42 41//39 40//40
f 45//43 44//44 42//42 43//41
f 47//45 45//43 43//41 46//46
f 49//47 45//43 47//45 48//48
f 51//49 50//50 49//47 48//48
f 53//51 50//50 51//49 52//52
f 55//53 54//54 53//51 52//52
f 5//3 54//54 55//53 56//55
f 55//53 57//56 56//55
f 56//55 57//56 59//57 58//58
f 59//57 57//56 61//59 60//60
f 63//61 62//62 59//57 60//60
f 65//63 64//64 63//61 60//60
f 64//64 65//63 66//65
f 68//66 67//67 64//64 66//65
f 70//68 69//69 68//66 66//65
f 72//70 69//69 70//68 71//71
f 74//72 69//69 72//70 73//73
f 73//73 72//70 22//22
f 70//68 76//74 75//75 71//71
f 71//71 75//75 77//76
f 80//77 79//78 78//79 77//76
f 75//75 80//77 77//76
f 78//79 79//78 81//80
f 79//78 83//81 82//82 81//80
f 83//81 84//83 82//82
f 83//81 87//84 86//85 85//86
f 84//83 83//81 85//86
f 89//87 88//88 86//85 87//84
f 86//85 88//88 91//89 90//90
f 91//89 88//88 92//91
f 91//89 94//92 93//93 90//90
f 97//94 96//95 95//96 85//86
f 90//90 93//93 97//94 85//86
f 95//96 96//95 98//97
f 93//93 46//46 97//94
f 99//98 89//87 87//84 80//77
f 101//99 100//100 89//87 99//98
f 86//85 90//90 85//86
f 95//96 84//83 85//86
f 98//97 103//101 102//102 82//82
f 84//83 95//96 98//97 82//82
f 102//102 103//101 31//29
f 82//82 102//102 104//103 81//80
f 80//77 87//84 83//81 79//78
f 78//79 105//104 77//76
f 76//74 99//98 80//77 75//75
f 69//69 74//72 68//66
f 76//74 70//68 66//65
f 101//99 99//98 76//74 66//65
f 65//63 101//99 66//65
f 64//64 67//67 63//61
f 101//99 65//63 60//60
f 61//59 100//100 101//99 60//60
f 106//105 100//100 61//59
f 59//57 62//62 58//58
f 54//54 2//106 107//107 53//51
f 52//52 108//108 106//105 61//59
f 57//56 55//53 52//52 61//59
f 106//105 108//108 92//91
f 107//107 109//109 50//50 53//51
f 51//49 108//108 52//52
f 50//50 109//109 110//110 49//47
f 48//48 94//92 91//89 92//91
f 108//108 51//49 48//48 92//91
f 47//45 94//92 48//48
f 93//93 94//92 47//45 46//46
f 46//46 43//41 40//40 97//94
f 40//40 39//37 96//95 97//94
f 96//95 39//37 36//36 98//97
f 36//36 35//33 103//101 98//97
f 104//103 102//102 31//29 28//28
f 32//32 111//111 26//26 29//27
f 27//25 104//103 28//28
f 26//26 111//111 112//112 25//23
f 24//24 105//104 78//79 81//80
f 104//103 27//25 24//24 81//80
f 23//21 105//104 24//24
f 22//22 72//70 71//71 77//76
f 105//104 23//21 22//22 77//76
f 18//18 16//16 73//73 22//22
f 16//16 15//13 74//72 73//73
f 12//12 11//9 67//67 68//66
f 67//67 11//9 8//8 63//61
f 8//8 7//5 62//62 63//61
f 62//62 7//5 4//4 58//58
f 4//4 5//3 56//55 58//58
f 110//110 44//44 45//43 49//47
f 1//2 2//106 54//54 5//3
f 89//87 100//100 106//105 92//91
f 88//88 89//87 92//91
f 103//101 35//33 30//30 31//29
f 74//72 15//13 12//12 68//66
f 112//112 20//20 21//19 25//23
