# Blender 3.2.0 Alpha
# www.blender.org
mtllib road_bollard.mtl
o Mball.001_Mesh
v 0.390446 -0.020010 -0.000001
v 0.330058 2.269562 -0.073854
v 0.347083 2.127457 0.061251
v 0.302401 2.127105 0.181543
v 0.333264 -0.019967 0.197801
v 0.180921 2.126549 0.302720
v 0.198644 -0.019966 0.332881
v 0.073667 2.269295 0.330146
v -0.000000 -0.020010 0.390445
v -0.061251 2.127457 0.347083
v -0.198644 -0.019966 0.332881
v -0.179318 2.128724 0.303668
v -0.166616 2.266934 0.290070
v -0.302406 2.126611 0.181554
v -0.288959 2.269703 0.166222
v -0.347083 2.127457 0.061251
v -0.319463 2.293919 0.068314
v -0.330059 2.269564 -0.073854
v -0.390445 -0.020010 0.000001
v -0.302402 2.127106 -0.181541
v -0.333265 -0.019967 -0.197800
v -0.180921 2.126549 -0.302719
v -0.198644 -0.019966 -0.332881
v -0.061251 2.127457 -0.347083
v 0.000000 -0.020010 -0.390445
v 0.072768 2.268556 -0.330113
v -0.068308 2.293718 -0.319529
v 0.179318 2.128724 -0.303668
v 0.166616 2.266934 -0.290069
v 0.302405 2.126611 -0.181555
v 0.288956 2.269704 -0.166225
v 0.319462 2.293919 0.068314
v 0.211165 2.462610 -0.068344
v 0.215416 2.458947 0.068061
v 0.288671 2.269879 0.166547
v 0.180371 2.420614 0.181091
v 0.168360 2.268974 0.288263
v 0.065955 2.463287 0.209097
v -0.066061 2.295056 0.319109
v -0.061488 2.462144 0.213426
v -0.181088 2.419391 0.181487
v -0.061251 2.538442 0.061251
v -0.214561 2.461056 0.065498
v -0.212149 2.460251 -0.070842
v -0.180371 2.420614 -0.181091
v -0.061251 2.538442 -0.061251
v -0.063589 2.460763 -0.213784
v 0.061251 2.538442 -0.061251
v 0.064440 2.464742 -0.208687
v 0.181088 2.419391 -0.181487
v -0.168360 2.268974 -0.288263
v -0.288673 2.269878 -0.166544
v 0.061251 2.538442 0.061251
v 0.333265 -0.019967 -0.197800
v 0.198644 -0.019966 -0.332881
v -0.333265 -0.019967 0.197800
vn -0.9998 0.0156 0.0140
vn -0.9895 0.0658 0.1287
vn -0.9369 0.2936 -0.1897
vn -0.0152 0.0155 -0.9998
vn -0.1284 0.0658 -0.9895
vn 0.1917 0.2976 -0.9352
vn 0.9895 0.0659 0.1288
vn 0.8454 0.0763 0.5286
vn 0.8538 0.0149 0.5204
vn 0.9998 0.0156 0.0140
vn 0.5239 0.3017 -0.7966
vn 0.5175 0.0593 -0.8536
vn 0.8088 0.2890 0.5122
vn 0.9142 0.3601 0.1858
vn 0.6596 0.7240 0.2020
vn -0.6564 0.7282 0.1973
vn -0.5512 0.6137 0.5653
vn -0.2183 0.9516 0.2161
vn -0.1892 0.7291 0.6578
vn -0.5503 0.6161 -0.5636
vn -0.5152 0.2903 -0.8064
vn -0.7950 0.3025 -0.5258
vn -0.6523 0.7272 -0.2138
vn 0.5466 0.6159 0.5673
vn 0.5282 0.3043 0.7927
vn 0.5499 0.6117 -0.5687
vn 0.6487 0.7317 -0.2094
vn 0.7950 0.3027 -0.5256
vn 0.9368 0.2941 -0.1894
vn -0.8088 0.2892 0.5121
vn -0.9140 0.3608 0.1858
vn -0.5103 0.2881 0.8103
vn 0.1943 0.2975 0.9347
vn -0.1856 0.3685 0.9109
vn -0.1269 0.0662 0.9897
vn 0.2171 0.9521 -0.2154
vn 0.2021 0.7346 -0.6478
vn 0.5194 0.0589 0.8525
vn 0.5071 0.0164 0.8617
vn -0.0133 0.0154 0.9998
vn -0.5258 0.0774 0.8471
vn -0.5198 0.0149 0.8542
vn -0.8451 0.0758 0.5292
vn -0.8523 0.0593 -0.5197
vn -0.8619 0.0165 -0.5068
vn -0.5283 0.0760 -0.8456
vn -0.5207 0.0148 -0.8536
vn 0.8520 0.0590 -0.5202
vn -0.1894 0.3647 -0.9117
vn 0.2045 0.7324 0.6494
vn -0.1924 0.7264 -0.6598
vn -0.2188 0.9512 -0.2176
vn 0.2188 0.9513 0.2170
vn 0.8616 0.0165 -0.5073
vn 0.5057 0.0165 -0.8626
vn -0.8535 0.0149 0.5209
s 1
usemtl None
f 19//1 16//2 18//3
f 25//4 24//5 26//6
f 3//7 4//8 5//9 1//10
f 26//6 29//11 28//12
f 35//13 32//14 34//15
f 43//16 41//17 42//18
f 40//19 42//18 41//17
f 45//20 51//21 52//22
f 52//22 18//3 44//23
f 36//24 37//25 35//13
f 50//26 33//27 31//28
f 2//29 31//28 33//27
f 29//11 50//26 31//28
f 41//17 43//16 15//30
f 17//31 15//30 43//16
f 13//32 41//17 15//30
f 8//33 39//34 10//35
f 2//29 32//14 3//7
f 33//27 50//26 48//36
f 49//37 48//36 50//26
f 1//10 2//29 3//7
f 4//8 6//38 7//39 5//9
f 7//39 6//38 8//33 9//40
f 10//35 12//41 11//42 9//40
f 9//40 8//33 10//35
f 13//32 15//30 14//43 12//41
f 15//30 17//31 16//2 14//43
f 18//3 20//44 21//45 19//1
f 18//3 16//2 17//31
f 20//44 22//46 23//47 21//45
f 23//47 22//46 24//5 25//4
f 29//11 31//28 30//48 28//12
f 26//6 24//5 27//49
f 34//15 32//14 2//29 33//27
f 2//29 30//48 31//28
f 36//24 38//50 8//33 37//25
f 36//24 35//13 34//15
f 40//19 39//34 8//33 38//50
f 47//51 45//20 44//23 46//52
f 46//52 48//36 49//37 47//51
f 47//51 49//37 26//6 27//49
f 45//20 47//51 27//49 51//21
f 42//18 53//53 48//36 46//52
f 53//53 34//15 33//27 48//36
f 43//16 44//23 18//3 17//31
f 45//20 52//22 44//23
f 43//16 42//18 46//52 44//23
f 40//19 38//50 53//53 42//18
f 38//50 36//24 34//15 53//53
f 30//48 54//54 55//55 28//12
f 50//26 29//11 26//6 49//37
f 51//21 27//49 24//5 22//46
f 20//44 52//22 51//21 22//46
f 16//2 19//1 56//56 14//43
f 41//17 13//32 39//34 40//19
f 13//32 12//41 10//35 39//34
f 4//8 35//13 37//25 6//38
f 3//7 32//14 35//13 4//8
f 26//6 28//12 55//55 25//4
f 2//29 1//10 54//54 30//48
f 14//43 56//56 11//42 12//41
f 52//22 20//44 18//3
f 8//33 6//38 37//25
