# Blender v2.90.0 OBJ File: ''
# www.blender.org
mtllib LK4_glass.mtl
o LK4_body.001
v 0.749490 0.631883 -1.622706
v 0.783969 0.406846 -1.582910
v 0.674833 0.704084 -0.433004
v 0.793808 0.349171 -1.089889
v 0.669298 0.711670 -0.944714
v 0.804026 0.321740 -0.372266
vt 0.000000 0.000000
vt 0.000000 0.000000
vt 0.000000 0.000000
vt 0.000000 0.000000
vt 0.000000 0.000000
vt 0.000000 0.000000
vn 0.9885 0.1511 -0.0021
vn 0.9484 0.3160 0.0267
vn 0.9501 0.3095 0.0390
vn 0.9521 0.2959 0.0778
vn 0.9472 0.3207 -0.0018
vn 0.9474 0.3199 -0.0013
g LK4_body.001_LK4_body.001_DefaultMaterial
usemtl DefaultMaterial
s 1
f 1/1/1 4/2/1 2/3/1
f 5/4/2 4/2/3 1/1/4
f 3/5/5 4/2/3 5/4/2
f 6/6/6 4/2/3 3/5/5
o LK4_body.002
v -0.000244 0.679138 -1.625587
v 0.129294 0.422290 -1.989728
v -0.000244 0.422219 -1.990378
v -0.129781 0.422290 -1.989728
v -0.335858 0.676338 -1.615933
v -0.594728 0.572756 -1.737645
v -0.475508 0.672041 -1.597728
v 0.335371 0.676338 -1.615933
v 0.475020 0.672041 -1.597728
v 0.594241 0.572756 -1.737645
v 0.493693 0.426452 -1.949678
v 0.341449 0.423474 -1.978905
v 0.603906 0.487002 -1.850570
v 0.615910 0.426440 -1.920341
v -0.589042 0.663037 -1.580544
v 0.588555 0.663037 -1.580544
v 0.128342 0.678934 -1.624119
v -0.128830 0.678934 -1.624119
v -0.341936 0.423474 -1.978905
v -0.494180 0.426452 -1.949678
v -0.616397 0.426440 -1.920341
v -0.604394 0.487002 -1.850570
vt 0.000000 0.000000
vt 0.000000 0.000000
vt 0.000000 0.000000
vt 0.000000 0.000000
vt 0.000000 0.000000
vt 0.000000 0.000000
vt 0.000000 0.000000
vt 0.000000 0.000000
vt 0.000000 0.000000
vt 0.000000 0.000000
vt 0.000000 0.000000
vt 0.000000 0.000000
vt 0.000000 0.000000
vt 0.000000 0.000000
vt 0.000000 0.000000
vt 0.000000 0.000000
vt 0.000000 0.000000
vt 0.000000 0.000000
vt 0.000000 0.000000
vt 0.000000 0.000000
vt 0.000000 0.000000
vt 0.000000 0.000000
vn -0.0000 0.8176 -0.5758
vn 0.0024 0.8176 -0.5758
vn -0.0024 0.8176 -0.5758
vn -0.0941 0.8480 -0.5216
vn 0.0941 0.8480 -0.5216
vn 0.0989 0.7965 -0.5965
vn 0.0988 0.7965 -0.5965
vn 0.0987 0.7966 -0.5964
vn 0.1520 0.7592 -0.6329
vn -0.1423 0.8604 -0.4893
vn 0.1423 0.8604 -0.4893
vn 0.0261 0.8186 -0.5737
vn 0.0329 0.8203 -0.5709
vn 0.0314 0.8200 -0.5715
vn -0.0329 0.8203 -0.5709
vn -0.1520 0.7592 -0.6329
vn -0.0600 0.8195 -0.5699
vn 0.0247 0.8183 -0.5743
vn -0.0079 0.8185 -0.5745
vn -0.0989 0.7965 -0.5965
vn 0.0600 0.8195 -0.5699
vn -0.0987 0.7966 -0.5964
vn 0.0079 0.8185 -0.5745
vn -0.0247 0.8183 -0.5743
g LK4_body.002_LK4_body.002_DefaultMaterial
usemtl DefaultMaterial
s 1
f 7/7/7 8/8/8 9/9/7
f 7/7/7 9/9/7 10/10/9
f 11/11/10 12/12/10 13/13/10
f 14/14/11 15/15/11 16/16/11
f 17/17/12 18/18/12 16/16/13
f 19/19/14 17/17/12 16/16/13
f 20/20/15 17/17/15 19/19/15
f 12/12/16 21/21/16 13/13/16
f 15/15/17 22/22/17 16/16/17
f 23/23/18 14/14/19 18/18/20
f 11/11/21 24/24/21 25/25/21
f 26/26/22 27/27/22 28/28/22
f 11/11/23 25/25/23 12/12/23
f 23/23/18 18/18/20 8/8/24
f 24/24/25 7/7/25 10/10/25
f 25/25/26 26/26/26 12/12/26
f 18/18/27 14/14/27 16/16/27
f 26/26/28 28/28/28 12/12/28
f 7/7/29 23/23/29 8/8/29
f 25/25/30 24/24/30 10/10/30
o LK4_body.003
v -0.696363 0.588214 -1.583697
v -0.721629 0.530841 -1.626209
v -0.747788 0.475969 -1.624523
v -0.783810 0.406870 -1.583050
v -0.794588 0.398546 -1.481887
v -0.734437 0.523972 -0.402872
v -0.702576 0.628024 -0.420495
v -0.675103 0.708703 -0.686361
v -0.674228 0.669996 -1.425847
v -0.798691 0.387816 -1.377842
v -0.675114 0.701901 -1.274227
v -0.794863 0.384943 -1.219430
v -0.674847 0.711763 -1.049981
v -0.802430 0.341342 -1.066970
v -0.802396 0.341203 -1.059952
v -0.801797 0.338804 -0.939380
v -0.674460 0.712378 -0.944712
v -0.669375 0.712305 -0.939597
v -0.669362 0.712378 -0.944712
v -0.674473 0.712305 -0.939597
v -0.674692 0.711055 -0.851706
v -0.800671 0.334291 -0.712553
v -0.767014 0.427049 -0.388652
v -0.804513 0.321740 -0.372266
v -0.676023 0.704261 -0.437143
vt 0.000000 0.000000
vt 0.000000 0.000000
vt 0.000000 0.000000
vt 0.000000 0.000000
vt 0.000000 0.000000
vt 0.000000 0.000000
vt 0.000000 0.000000
vt 0.000000 0.000000
vt 0.000000 0.000000
vt 0.000000 0.000000
vt 0.000000 0.000000
vt 0.000000 0.000000
vt 0.000000 0.000000
vt 0.000000 0.000000
vt 0.000000 0.000000
vt 0.000000 0.000000
vt 0.000000 0.000000
vt 0.000000 0.000000
vt 0.000000 0.000000
vt 0.000000 0.000000
vt 0.000000 0.000000
vt 0.000000 0.000000
vt 0.000000 0.000000
vt 0.000000 0.000000
vt 0.000000 0.000000
vn -0.9024 0.4289 -0.0425
vn -0.8995 0.4328 -0.0602
vn -0.9566 0.2911 -0.0105
vn -0.9146 0.4044 0.0056
vn -0.9169 0.3895 -0.0873
vn -0.9334 0.3577 0.0290
vn -0.9362 0.3512 -0.0143
vn -0.9451 0.3234 0.0456
vn -0.9456 0.3252 0.0112
vn -0.9456 0.3252 0.0110
vn -0.9456 0.3252 0.0111
vn -0.9465 0.3227 0.0016
vn 0.0000 0.9999 0.0143
vn -0.6861 0.2436 0.6855
vn 0.0000 -0.0006 -1.0000
vn -0.9470 0.3212 0.0096
vn -0.9465 0.3227 0.0022
vn -0.9466 0.3223 0.0044
vn -0.9471 0.3208 0.0111
vn -0.9483 0.3174 0.0078
vn -0.9481 0.3178 0.0022
vn -0.9482 0.3177 0.0032
vn -0.9476 0.3195 0.0070
vn -0.9420 0.3357 0.0017
vn -0.9482 0.3174 0.0084
vn -0.8991 0.4336 -0.0596
vn -0.9034 0.4192 -0.0905
vn -0.9442 0.3294 0.0024
g LK4_body.003_LK4_body.003_DefaultMaterial
usemtl DefaultMaterial
s 1
f 29/29/31 30/30/31 31/31/31
f 32/32/32 33/33/32 31/31/32
f 34/34/33 35/35/33 36/36/33
f 37/37/34 33/33/34 38/38/34
f 39/39/35 37/37/35 38/38/35
f 39/39/36 38/38/36 40/40/36
f 41/41/37 39/39/37 40/40/37
f 41/41/38 40/40/38 42/42/38
f 41/41/39 42/42/40 43/43/41
f 41/41/39 43/43/41 44/44/39
f 45/45/42 41/41/42 44/44/42
f 46/46/43 47/47/43 45/45/43
f 46/46/44 45/45/44 44/44/44
f 48/48/45 46/46/45 44/44/45
f 49/49/46 48/48/47 44/44/48
f 49/49/46 44/44/48 50/50/49
f 36/36/50 49/49/51 50/50/52
f 50/50/53 51/51/53 34/34/53
f 50/50/54 52/52/54 51/51/54
f 50/50/52 34/34/55 36/36/50
f 33/33/56 29/29/56 31/31/56
f 33/33/57 37/37/57 29/29/57
f 35/35/58 53/53/58 36/36/58
o LK4_body.004
v -0.707538 0.586392 0.355295
v -0.677974 0.659514 0.251083
v -0.811961 0.298781 0.206744
v -0.816239 0.286592 0.624486
v -0.816913 0.284936 0.734659
v -0.778799 0.385127 0.603886
v -0.815821 0.287618 0.556204
v -0.742902 0.484522 0.488509
v -0.678361 0.674751 0.122101
v -0.809602 0.306042 -0.037879
v -0.677670 0.688348 -0.086552
v -0.770384 0.416187 -0.228181
v -0.808029 0.310882 -0.200962
v -0.677151 0.694142 -0.226110
v -0.736866 0.515119 -0.257643
v -0.704041 0.620798 -0.291825
v -0.676805 0.698005 -0.319149
vt 0.000000 0.000000
vt 0.000000 0.000000
vt 0.000000 0.000000
vt 0.000000 0.000000
vt 0.000000 0.000000
vt 0.000000 0.000000
vt 0.000000 0.000000
vt 0.000000 0.000000
vt 0.000000 0.000000
vt 0.000000 0.000000
vt 0.000000 0.000000
vt 0.000000 0.000000
vt 0.000000 0.000000
vt 0.000000 0.000000
vt 0.000000 0.000000
vt 0.000000 0.000000
vt 0.000000 0.000000
vn -0.9364 0.3503 -0.0199
vn -0.9348 0.3551 -0.0004
vn -0.9349 0.3548 0.0002
vn -0.9364 0.3509 0.0086
vn -0.9369 0.3496 0.0096
vn -0.9413 0.3375 0.0082
vn -0.9411 0.3380 0.0076
vn -0.9383 0.3432 0.0434
vn -0.9422 0.3350 0.0009
vn -0.9444 0.3282 0.0183
vn -0.9455 0.3255 -0.0065
vn -0.9416 0.3368 0.0009
vn -0.9491 0.3149 0.0095
vn -0.9469 0.3215 0.0022
vn -0.9500 0.3092 0.0436
vn -0.9418 0.3359 0.0104
g LK4_body.004_LK4_body.004_DefaultMaterial
usemtl DefaultMaterial
s 1
f 54/54/59 55/55/59 56/56/59
f 57/57/60 58/58/60 59/59/61
f 57/57/60 59/59/61 60/60/62
f 60/60/62 59/59/61 61/61/63
f 54/54/64 56/56/65 61/61/63
f 56/56/65 60/60/62 61/61/63
f 56/56/66 55/55/66 62/62/66
f 56/56/67 62/62/67 63/63/67
f 63/63/68 62/62/68 64/64/68
f 64/64/69 65/65/69 63/63/69
f 65/65/70 66/66/70 63/63/70
f 64/64/71 67/67/71 68/68/71
f 65/65/72 64/64/72 68/68/72
f 68/68/73 67/67/73 69/69/73
f 69/69/74 67/67/74 70/70/74
o LK4_body.005
v 0.524244 0.332090 0.983697
v 0.703514 0.382672 0.721144
v 0.677177 0.477944 0.592256
v -0.148748 0.327095 1.070098
v -0.000244 0.326993 1.068977
v -0.135184 0.660782 0.394543
v 0.372146 0.328961 1.036294
v 0.134696 0.660782 0.394543
v 0.148261 0.327095 1.070098
v -0.000244 0.660810 0.394898
v -0.372633 0.328961 1.036294
v -0.347597 0.660100 0.389084
v -0.677664 0.477944 0.592256
v 0.671612 0.322162 0.890208
v 0.347110 0.660100 0.389084
v 0.646851 0.574725 0.454635
v -0.672099 0.322162 0.890208
v -0.524731 0.332090 0.983697
v -0.704001 0.382672 0.721144
v 0.721974 0.293628 0.848217
v -0.722462 0.293628 0.848217
v -0.647339 0.574725 0.454635
v 0.490797 0.659119 0.373167
v -0.491284 0.659119 0.373167
v 0.613549 0.651550 0.338226
v -0.614037 0.651550 0.338226
vt 0.000000 0.000000
vt 0.000000 0.000000
vt 0.000000 0.000000
vt 0.000000 0.000000
vt 0.000000 0.000000
vt 0.000000 0.000000
vt 0.000000 0.000000
vt 0.000000 0.000000
vt 0.000000 0.000000
vt 0.000000 0.000000
vt 0.000000 0.000000
vt 0.000000 0.000000
vt 0.000000 0.000000
vt 0.000000 0.000000
vt 0.000000 0.000000
vt 0.000000 0.000000
vt 0.000000 0.000000
vt 0.000000 0.000000
vt 0.000000 0.000000
vt 0.000000 0.000000
vt 0.000000 0.000000
vt 0.000000 0.000000
vt 0.000000 0.000000
vt 0.000000 0.000000
vt 0.000000 0.000000
vt 0.000000 0.000000
vn 0.4649 0.7547 0.4629
vn 0.0040 0.8965 0.4429
vn 0.0591 0.8955 0.4411
vn -0.0003 0.8962 0.4437
vn 0.0000 0.8961 0.4438
vn -0.0014 0.8961 0.4438
vn -0.2120 0.8733 0.4386
vn 0.2946 0.8807 0.3708
vn 0.2120 0.8733 0.4386
vn -0.0591 0.8955 0.4411
vn -0.0027 0.8964 0.4432
vn 0.1146 0.9154 0.3859
vn 0.1135 0.8243 0.5547
vn -0.0040 0.8965 0.4429
vn -0.2946 0.8807 0.3708
vn 0.6685 0.6512 0.3592
vn 0.0146 0.8904 0.4550
vn -0.1146 0.9154 0.3859
vn -0.6685 0.6512 0.3592
vn -0.0146 0.8904 0.4550
vn -0.1135 0.8243 0.5547
vn 0.0764 0.7620 0.6430
vn -0.0764 0.7620 0.6430
vn 0.1946 0.8433 0.5009
vn -0.1946 0.8433 0.5009
vn -0.4649 0.7547 0.4629
g LK4_body.005_LK4_body.005_DefaultMaterial
usemtl DefaultMaterial
s 1
f 71/71/75 72/72/75 73/73/75
f 74/74/76 75/75/76 76/76/76
f 77/77/77 78/78/77 79/79/77
f 75/75/78 80/80/79 76/76/80
f 81/81/81 82/82/81 83/83/81
f 84/84/82 72/72/82 71/71/82
f 85/85/83 77/77/83 73/73/83
f 76/76/84 81/81/84 74/74/84
f 78/78/85 80/80/79 75/75/78
f 77/77/86 71/71/86 73/73/86
f 73/73/87 86/86/87 85/85/87
f 78/78/85 75/75/78 79/79/88
f 87/87/89 88/88/89 89/89/89
f 84/84/90 90/90/90 72/72/90
f 85/85/91 78/78/91 77/77/91
f 88/88/92 81/81/92 83/83/92
f 91/91/93 87/87/93 89/89/93
f 81/81/94 76/76/94 82/82/94
f 92/92/95 83/83/95 82/82/95
f 85/85/96 86/86/96 93/93/96
f 92/92/97 82/82/97 94/94/97
f 93/93/98 86/86/98 95/95/98
f 92/92/99 94/94/99 96/96/99
f 89/89/100 88/88/100 83/83/100
o LK4_body.006
v 0.677182 0.688348 -0.086552
v 0.769896 0.416187 -0.228181
v 0.736379 0.515119 -0.257643
v 0.815751 0.286592 0.624486
v 0.778312 0.385127 0.603886
v 0.816425 0.284936 0.734659
v 0.815334 0.287618 0.556204
v 0.742415 0.484522 0.488509
v 0.811473 0.298781 0.206744
v 0.707051 0.586392 0.355295
v 0.677487 0.659514 0.251083
v 0.677874 0.674751 0.122101
v 0.809115 0.306042 -0.037879
v 0.807542 0.310882 -0.200962
v 0.676664 0.694142 -0.226110
v 0.703553 0.620798 -0.291825
v 0.676318 0.698005 -0.319149
vt 0.000000 0.000000
vt 0.000000 0.000000
vt 0.000000 0.000000
vt 0.000000 0.000000
vt 0.000000 0.000000
vt 0.000000 0.000000
vt 0.000000 0.000000
vt 0.000000 0.000000
vt 0.000000 0.000000
vt 0.000000 0.000000
vt 0.000000 0.000000
vt 0.000000 0.000000
vt 0.000000 0.000000
vt 0.000000 0.000000
vt 0.000000 0.000000
vt 0.000000 0.000000
vt 0.000000 0.000000
vn 0.9469 0.3214 0.0022
vn 0.9348 0.3551 -0.0004
vn 0.9349 0.3548 0.0002
vn 0.9364 0.3509 0.0087
vn 0.9369 0.3496 0.0096
vn 0.9411 0.3379 0.0076
vn 0.9413 0.3375 0.0082
vn 0.9364 0.3503 -0.0199
vn 0.9383 0.3432 0.0434
vn 0.9422 0.3350 0.0009
vn 0.9444 0.3282 0.0183
vn 0.9416 0.3368 0.0009
vn 0.9455 0.3255 -0.0065
vn 0.9491 0.3149 0.0096
vn 0.9500 0.3092 0.0436
vn 0.9418 0.3359 0.0104
g LK4_body.006_LK4_body.006_DefaultMaterial
usemtl DefaultMaterial
s 1
f 97/97/101 98/98/101 99/99/101
f 100/100/102 101/101/103 102/102/102
f 100/100/102 103/103/104 101/101/103
f 103/103/104 104/104/105 101/101/103
f 103/103/104 105/105/106 104/104/105
f 105/105/106 106/106/107 104/104/105
f 107/107/108 106/106/108 105/105/108
f 105/105/109 108/108/109 107/107/109
f 105/105/110 109/109/110 108/108/110
f 109/109/111 97/97/111 108/108/111
f 110/110/112 98/98/112 109/109/112
f 98/98/113 97/97/113 109/109/113
f 111/111/114 97/97/114 99/99/114
f 99/99/115 112/112/115 111/111/115
f 112/112/116 113/113/116 111/111/116
o LK4_body.007
v 0.782241 0.241062 -1.862474
v 0.810179 0.148854 -1.791138
v 0.831262 0.072028 -1.918390
v 0.788216 0.240095 -1.772161
v 0.673828 0.202030 -1.966998
v 0.687418 0.072373 -1.986687
v 0.651556 0.072450 -2.002061
v 0.731197 0.241839 -1.928729
v 0.786329 0.072134 -1.939311
v 0.555920 0.202030 -1.994847
v 0.470647 0.071666 -2.031858
v 0.673828 0.241839 -1.966998
v 0.698727 0.072340 -1.980098
v 0.398667 0.201319 -2.030273
v 0.438424 0.131556 -2.030273
vt 0.000000 0.000000
vt 0.000000 0.000000
vt 0.000000 0.000000
vt 0.000000 0.000000
vt 0.000000 0.000000
vt 0.000000 0.000000
vt 0.000000 0.000000
vt 0.000000 0.000000
vt 0.000000 0.000000
vt 0.000000 0.000000
vt 0.000000 0.000000
vt 0.000000 0.000000
vt 0.000000 0.000000
vt 0.000000 0.000000
vt 0.000000 0.000000
vn 0.9594 0.2820 -0.0113
vn 0.9674 0.2456 -0.0614
vn 0.3881 0.1780 -0.9043
vn 0.7612 0.2837 -0.5831
vn 0.1594 0.1717 -0.9722
vn 0.5549 0.0000 -0.8319
vn 0.4163 0.1701 -0.8932
vn 0.4955 0.1809 -0.8496
vn 0.3896 0.3891 -0.8348
vn 0.2243 0.2184 -0.9497
vn 0.4446 0.1989 -0.8734
vn 0.2175 0.1240 -0.9681
vn 0.2091 0.1381 -0.9681
g LK4_body.007_LK4_body.007_DefaultMaterial
usemtl DefaultMaterial
s 1
f 114/114/117 115/115/117 116/116/117
f 117/117/118 115/115/118 114/114/118
f 118/118/119 119/119/119 120/120/119
f 121/121/120 114/114/120 122/122/120
f 123/123/121 120/120/121 124/124/121
f 125/125/122 121/121/122 118/118/122
f 118/118/123 122/122/123 126/126/123
f 118/118/124 126/126/124 119/119/124
f 114/114/125 116/116/125 122/122/125
f 123/123/126 118/118/126 120/120/126
f 121/121/127 122/122/127 118/118/127
f 127/127/128 123/123/128 128/128/128
f 128/128/129 123/123/129 124/124/129
o LK4_body.008
v -0.788703 0.240095 -1.772161
v -0.782729 0.241062 -1.862474
v -0.810666 0.148854 -1.791138
v -0.674316 0.202030 -1.966998
v -0.556407 0.202030 -1.994847
v -0.652043 0.072450 -2.002061
v -0.831749 0.072028 -1.918390
v -0.399154 0.201319 -2.030273
v -0.438912 0.131556 -2.030273
v -0.786816 0.072134 -1.939311
v -0.471134 0.071666 -2.031858
v -0.731684 0.241839 -1.928729
v -0.699214 0.072340 -1.980098
v -0.687905 0.072373 -1.986687
v -0.674316 0.241839 -1.966998
vt 0.000000 0.000000
vt 0.000000 0.000000
vt 0.000000 0.000000
vt 0.000000 0.000000
vt 0.000000 0.000000
vt 0.000000 0.000000
vt 0.000000 0.000000
vt 0.000000 0.000000
vt 0.000000 0.000000
vt 0.000000 0.000000
vt 0.000000 0.000000
vt 0.000000 0.000000
vt 0.000000 0.000000
vt 0.000000 0.000000
vt 0.000000 0.000000
vn -0.9674 0.2456 -0.0614
vn -0.2243 0.2184 -0.9497
vn -0.9594 0.2819 -0.0113
vn -0.2175 0.1240 -0.9681
vn -0.3896 0.3891 -0.8348
vn -0.2091 0.1381 -0.9681
vn -0.4446 0.1989 -0.8734
vn -0.4163 0.1701 -0.8932
vn -0.4955 0.1809 -0.8496
vn -0.7612 0.2837 -0.5832
vn -0.3881 0.1780 -0.9043
vn -0.5549 0.0000 -0.8319
vn -0.1594 0.1717 -0.9722
g LK4_body.008_LK4_body.008_DefaultMaterial
usemtl DefaultMaterial
s 1
f 129/129/130 130/130/130 131/131/130
f 132/132/131 133/133/131 134/134/131
f 131/131/132 130/130/132 135/135/132
f 133/133/133 136/136/133 137/137/133
f 135/135/134 130/130/134 138/138/134
f 133/133/135 137/137/135 139/139/135
f 138/138/136 140/140/136 132/132/136
f 132/132/137 141/141/137 138/138/137
f 132/132/138 142/142/138 141/141/138
f 130/130/139 140/140/139 138/138/139
f 142/142/140 132/132/140 134/134/140
f 140/140/141 143/143/141 132/132/141
f 134/134/142 133/133/142 139/139/142
o LK4_body.009
v 0.874169 0.010655 1.856983
v 0.873263 0.019129 1.853450
v 0.793287 0.101201 1.923793
v 0.401817 0.011456 2.069480
v 0.397215 0.002332 2.070116
v 0.650477 -0.066380 2.050131
v 0.871300 0.027771 1.849401
v 0.371383 -0.067383 2.077292
v 0.432156 0.074278 2.048939
v 0.428049 0.066587 2.049637
v 0.444591 0.074378 2.045995
v 0.405923 0.020560 2.066141
v 0.826631 -0.063353 1.988878
v 0.832931 -0.062341 1.986579
v 0.838211 -0.061943 1.975931
v 0.629866 0.074579 2.018788
v 0.618519 0.074479 2.020638
v 0.637688 0.074579 2.017577
v 0.640817 0.074579 2.016850
v 0.672244 -0.064364 2.044615
v 0.741994 0.074579 1.993337
v 0.749291 0.074579 1.989770
v 0.756563 0.077742 1.976677
v 0.787160 0.097837 1.933410
v 0.854230 0.106287 1.814655
v 0.845474 0.113453 1.817419
v 0.790501 0.099824 1.928304
v 0.874569 -0.061545 1.899033
v 0.881144 -0.053115 1.883982
v 0.849856 0.113296 1.812125
v 0.660144 -0.065376 2.049021
v 0.366875 -0.062345 2.076031
v 0.880170 -0.061148 1.887324
v 0.367040 -0.066480 2.077356
vt 0.000000 0.000000
vt 0.000000 0.000000
vt 0.000000 0.000000
vt 0.000000 0.000000
vt 0.000000 0.000000
vt 0.000000 0.000000
vt 0.000000 0.000000
vt 0.000000 0.000000
vt 0.000000 0.000000
vt 0.000000 0.000000
vt 0.000000 0.000000
vt 0.000000 0.000000
vt 0.000000 0.000000
vt 0.000000 0.000000
vt 0.000000 0.000000
vt 0.000000 0.000000
vt 0.000000 0.000000
vt 0.000000 0.000000
vt 0.000000 0.000000
vt 0.000000 0.000000
vt 0.000000 0.000000
vt 0.000000 0.000000
vt 0.000000 0.000000
vt 0.000000 0.000000
vt 0.000000 0.000000
vt 0.000000 0.000000
vt 0.000000 0.000000
vt 0.000000 0.000000
vt 0.000000 0.000000
vt 0.000000 0.000000
vt 0.000000 0.000000
vt 0.000000 0.000000
vt 0.000000 0.000000
vt 0.000000 0.000000
vn 0.7865 0.3074 0.5356
vn 0.0857 0.0262 0.9960
vn 0.8009 0.3934 0.4515
vn 0.0964 0.0665 0.9931
vn 0.2305 -0.0348 0.9724
vn 0.0629 0.3099 0.9487
vn -0.1764 0.9830 -0.0507
vn 0.1544 0.2359 0.9594
vn 0.0000 -1.0000 0.0001
vn 0.3333 0.1746 0.9265
vn 0.2198 0.2387 0.9459
vn 0.4270 0.2338 0.8735
vn 0.7484 0.4163 0.5163
vn 0.7954 0.3798 0.4723
vn 0.5736 0.4325 0.6956
vn 0.1693 0.2374 0.9565
vn 0.7659 0.2424 0.5955
vn 0.8756 0.2467 0.4153
vn 0.7772 0.2776 0.5647
vn 0.6610 0.3829 0.6453
vn 0.6663 0.3861 0.6380
vn 0.8012 0.4057 0.4398
vn 0.7968 0.3074 0.5202
vn 0.6357 0.5804 0.5090
vn 0.1600 0.2755 0.9479
vn 0.0868 0.2346 0.9682
vn 0.1401 0.2333 0.9623
vn 0.3122 0.2536 0.9156
vn -0.1146 0.1436 0.9830
vn 0.8989 0.0709 0.4324
vn 0.0778 0.3071 0.9485
vn 0.1513 0.2494 0.9565
g LK4_body.009_LK4_body.009_DefaultMaterial
usemtl DefaultMaterial
s 1
f 144/144/143 145/145/143 146/146/143
f 147/147/144 148/148/144 149/149/144
f 145/145/145 150/150/145 146/146/145
f 151/151/146 149/149/146 148/148/146
f 152/152/147 153/153/147 154/154/147
f 153/153/148 155/155/148 154/154/148
f 156/156/149 157/157/149 158/158/149
f 159/159/150 160/160/150 149/149/150
f 161/161/151 159/159/151 162/162/151
f 163/163/152 156/156/152 164/164/152
f 162/162/153 163/163/153 164/164/153
f 164/164/154 156/156/154 165/165/154
f 165/165/155 156/156/155 166/166/155
f 167/167/156 158/158/156 144/144/156
f 150/150/157 168/168/157 169/169/157
f 162/162/158 159/159/158 149/149/158
f 167/167/159 144/144/159 170/170/159
f 158/158/160 171/171/160 144/144/160
f 170/170/161 144/144/161 146/146/161
f 166/166/162 158/158/162 167/167/162
f 156/156/163 158/158/163 166/166/163
f 146/146/164 150/150/164 169/169/164
f 171/171/165 172/172/165 144/144/165
f 169/169/166 168/168/166 173/173/166
f 147/147/167 149/149/167 155/155/167
f 174/174/168 162/162/168 149/149/168
f 154/154/169 149/149/169 160/160/169
f 163/163/170 162/162/170 174/174/170
f 175/175/171 151/151/171 148/148/171
f 171/171/172 176/176/172 172/172/172
f 177/177/173 151/151/173 175/175/173
f 155/155/174 149/149/174 154/154/174
o LK4_body.010
v -0.367528 -0.066480 2.077356
v -0.367362 -0.062345 2.076031
v -0.371871 -0.067383 2.077292
v -0.672732 -0.064364 2.044615
v -0.641304 0.074579 2.016850
v -0.742481 0.074579 1.993337
v -0.650964 -0.066380 2.050131
v -0.397702 0.002332 2.070116
v -0.402304 0.011456 2.069480
v -0.445078 0.074378 2.045995
v -0.619007 0.074479 2.020638
v -0.406411 0.020560 2.066141
v -0.873751 0.019129 1.853450
v -0.874656 0.010655 1.856983
v -0.793774 0.101201 1.923793
v -0.630354 0.074579 2.018788
v -0.428537 0.066587 2.049637
v -0.432643 0.074278 2.048939
v -0.660631 -0.065376 2.049021
v -0.838698 -0.061943 1.975931
v -0.757051 0.077742 1.976677
v -0.787647 0.097837 1.933410
v -0.833418 -0.062341 1.986579
v -0.827118 -0.063353 1.988878
v -0.749779 0.074579 1.989770
v -0.880657 -0.061148 1.887324
v -0.875056 -0.061545 1.899033
v -0.881632 -0.053115 1.883982
v -0.871787 0.027771 1.849401
v -0.845962 0.113453 1.817419
v -0.790989 0.099824 1.928304
v -0.638175 0.074579 2.017577
v -0.854717 0.106287 1.814655
v -0.850343 0.113296 1.812125
vt 0.000000 0.000000
vt 0.000000 0.000000
vt 0.000000 0.000000
vt 0.000000 0.000000
vt 0.000000 0.000000
vt 0.000000 0.000000
vt 0.000000 0.000000
vt 0.000000 0.000000
vt 0.000000 0.000000
vt 0.000000 0.000000
vt 0.000000 0.000000
vt 0.000000 0.000000
vt 0.000000 0.000000
vt 0.000000 0.000000
vt 0.000000 0.000000
vt 0.000000 0.000000
vt 0.000000 0.000000
vt 0.000000 0.000000
vt 0.000000 0.000000
vt 0.000000 0.000000
vt 0.000000 0.000000
vt 0.000000 0.000000
vt 0.000000 0.000000
vt 0.000000 0.000000
vt 0.000000 0.000000
vt 0.000000 0.000000
vt 0.000000 0.000000
vt 0.000000 0.000000
vt 0.000000 0.000000
vt 0.000000 0.000000
vt 0.000000 0.000000
vt 0.000000 0.000000
vt 0.000000 0.000000
vt 0.000000 0.000000
vn -0.0778 0.3071 0.9485
vn -0.2198 0.2387 0.9459
vn -0.0964 0.0665 0.9931
vn -0.0857 0.0262 0.9960
vn -0.1401 0.2333 0.9623
vn -0.1513 0.2494 0.9565
vn -0.7865 0.3073 0.5357
vn -0.1693 0.2374 0.9565
vn -0.2305 -0.0348 0.9724
vn -0.0868 0.2346 0.9682
vn -0.6621 0.3836 0.6438
vn -0.6648 0.3852 0.6400
vn -0.6610 0.3829 0.6453
vn -0.0629 0.3099 0.9487
vn 0.1145 0.1436 0.9830
vn 0.1764 0.9830 -0.0507
vn -0.1544 0.2359 0.9594
vn -0.3333 0.1746 0.9265
vn -0.3122 0.2536 0.9156
vn -0.7484 0.4163 0.5163
vn -0.6663 0.3861 0.6380
vn -0.8989 0.0708 0.4324
vn -0.7954 0.3798 0.4723
vn -0.4269 0.2337 0.8735
vn -0.8756 0.2467 0.4153
vn -0.1600 0.2755 0.9479
vn -0.8012 0.4057 0.4398
vn -0.7772 0.2777 0.5646
vn 0.0000 -1.0000 -0.0000
vn -0.7659 0.2423 0.5956
vn -0.8009 0.3935 0.4514
vn -0.7967 0.3074 0.5203
vn -0.5736 0.4325 0.6956
vn -0.6357 0.5804 0.5089
g LK4_body.010_LK4_body.010_DefaultMaterial
usemtl DefaultMaterial
s 1
f 178/178/175 179/179/175 180/180/175
f 181/181/176 182/182/176 183/183/176
f 184/184/177 180/180/177 185/185/177
f 185/185/178 186/186/178 184/184/178
f 184/184/179 187/187/179 188/188/179
f 184/184/180 189/189/180 187/187/180
f 190/190/181 191/191/181 192/192/181
f 193/193/182 182/182/182 184/184/182
f 194/194/183 195/195/183 187/187/183
f 182/182/184 196/196/184 184/184/184
f 197/197/185 198/198/186 199/199/187
f 189/189/188 194/194/188 187/187/188
f 180/180/189 179/179/189 185/185/189
f 200/200/190 201/201/190 197/197/190
f 188/188/191 193/193/191 184/184/191
f 201/201/192 181/181/192 183/183/192
f 182/182/193 181/181/193 196/196/193
f 201/201/194 202/202/194 198/198/194
f 197/197/185 201/201/195 198/198/186
f 203/203/196 204/204/196 205/205/196
f 197/197/197 199/199/197 191/191/197
f 201/201/198 183/183/198 202/202/198
f 204/204/199 197/197/199 191/191/199
f 184/184/200 186/186/200 189/189/200
f 206/206/201 192/192/201 207/207/201
f 191/191/202 208/208/202 192/192/202
f 193/193/203 209/209/203 182/182/203
f 191/191/204 199/199/204 208/208/204
f 206/206/205 190/190/205 192/192/205
f 205/205/206 204/204/206 191/191/206
f 210/210/207 206/206/207 207/207/207
f 207/207/208 211/211/208 210/210/208
