# Blender v2.90.0 OBJ File: ''
# www.blender.org
mtllib LK4_glass.mtl
o LK4_body.001
v 0.749490 0.631883 -1.622706
v 0.773672 0.372539 -1.494832
v 0.729669 0.617108 -0.417343
v 0.669298 0.711670 -0.944714
vt 0.000000 0.000000
vt 0.000000 0.000000
vt 0.000000 0.000000
vt 0.000000 0.000000
vn 0.9457 0.3244 -0.0185
vn 0.9801 0.1851 0.0718
vn 0.9849 0.1411 0.0999
vn 0.9341 0.3542 -0.0445
g LK4_body.001_LK4_body.001_DefaultMaterial
usemtl DefaultMaterial
s 1
f 4/1/1 2/2/2 1/3/3
f 3/4/4 2/2/2 4/1/1
o LK4_body.002
v -0.000244 0.679138 -1.625587
v 0.129294 0.422290 -1.989728
v -0.000244 0.422219 -1.990378
v -0.129781 0.422290 -1.989728
v -0.335858 0.676338 -1.615933
v -0.594728 0.572756 -1.737645
v -0.475508 0.672041 -1.597728
v 0.335371 0.676338 -1.615933
v 0.475020 0.672041 -1.597728
v 0.594241 0.572756 -1.737645
v 0.493693 0.426452 -1.949678
v 0.341449 0.423474 -1.978905
v 0.603906 0.487002 -1.850570
v 0.615910 0.426440 -1.920341
v -0.589042 0.663037 -1.580544
v 0.588555 0.663037 -1.580544
v 0.128342 0.678934 -1.624119
v -0.128830 0.678934 -1.624119
v -0.341936 0.423474 -1.978905
v -0.494180 0.426452 -1.949678
v -0.616397 0.426440 -1.920341
v -0.604394 0.487002 -1.850570
vt 0.000000 0.000000
vt 0.000000 0.000000
vt 0.000000 0.000000
vt 0.000000 0.000000
vt 0.000000 0.000000
vt 0.000000 0.000000
vt 0.000000 0.000000
vt 0.000000 0.000000
vt 0.000000 0.000000
vt 0.000000 0.000000
vt 0.000000 0.000000
vt 0.000000 0.000000
vt 0.000000 0.000000
vt 0.000000 0.000000
vt 0.000000 0.000000
vt 0.000000 0.000000
vt 0.000000 0.000000
vt 0.000000 0.000000
vt 0.000000 0.000000
vt 0.000000 0.000000
vt 0.000000 0.000000
vt 0.000000 0.000000
vn -0.0000 0.8176 -0.5758
vn 0.0024 0.8176 -0.5758
vn -0.0024 0.8176 -0.5758
vn -0.0941 0.8480 -0.5216
vn 0.0941 0.8480 -0.5216
vn 0.0989 0.7965 -0.5965
vn 0.0988 0.7965 -0.5965
vn 0.0987 0.7966 -0.5964
vn 0.1520 0.7592 -0.6329
vn -0.1423 0.8604 -0.4893
vn 0.1423 0.8604 -0.4893
vn 0.0261 0.8186 -0.5737
vn 0.0329 0.8203 -0.5709
vn 0.0314 0.8200 -0.5715
vn -0.0329 0.8203 -0.5709
vn -0.1520 0.7592 -0.6329
vn -0.0600 0.8195 -0.5699
vn 0.0247 0.8183 -0.5743
vn -0.0079 0.8185 -0.5745
vn -0.0989 0.7965 -0.5965
vn 0.0600 0.8195 -0.5699
vn -0.0987 0.7966 -0.5964
vn 0.0079 0.8185 -0.5745
vn -0.0247 0.8183 -0.5743
g LK4_body.002_LK4_body.002_DefaultMaterial
usemtl DefaultMaterial
s 1
f 5/5/5 6/6/6 7/7/5
f 5/5/5 7/7/5 8/8/7
f 9/9/8 10/10/8 11/11/8
f 12/12/9 13/13/9 14/14/9
f 15/15/10 16/16/10 14/14/11
f 17/17/12 15/15/10 14/14/11
f 18/18/13 15/15/13 17/17/13
f 10/10/14 19/19/14 11/11/14
f 13/13/15 20/20/15 14/14/15
f 21/21/16 12/12/17 16/16/18
f 9/9/19 22/22/19 23/23/19
f 24/24/20 25/25/20 26/26/20
f 9/9/21 23/23/21 10/10/21
f 21/21/16 16/16/18 6/6/22
f 22/22/23 5/5/23 8/8/23
f 23/23/24 24/24/24 10/10/24
f 16/16/25 12/12/25 14/14/25
f 24/24/26 26/26/26 10/10/26
f 5/5/27 21/21/27 6/6/27
f 23/23/28 22/22/28 8/8/28
o LK4_body.003
v -0.696363 0.588214 -1.583697
v -0.721629 0.530841 -1.626209
v -0.747788 0.475969 -1.624523
v -0.783810 0.406870 -1.583050
v -0.794588 0.398546 -1.481887
v -0.734437 0.523972 -0.402872
v -0.702576 0.628024 -0.420495
v -0.675103 0.708703 -0.686361
v -0.674228 0.669996 -1.425847
v -0.798691 0.387816 -1.377842
v -0.675114 0.701901 -1.274227
v -0.794863 0.384943 -1.219430
v -0.674847 0.711763 -1.049981
v -0.802430 0.341342 -1.066970
v -0.802396 0.341203 -1.059952
v -0.801797 0.338804 -0.939380
v -0.674460 0.712378 -0.944712
v -0.669375 0.712305 -0.939597
v -0.669362 0.712378 -0.944712
v -0.674473 0.712305 -0.939597
v -0.674692 0.711055 -0.851706
v -0.800671 0.334291 -0.712553
v -0.767014 0.427049 -0.388652
v -0.804513 0.321740 -0.372266
v -0.676023 0.704261 -0.437143
vt 0.000000 0.000000
vt 0.000000 0.000000
vt 0.000000 0.000000
vt 0.000000 0.000000
vt 0.000000 0.000000
vt 0.000000 0.000000
vt 0.000000 0.000000
vt 0.000000 0.000000
vt 0.000000 0.000000
vt 0.000000 0.000000
vt 0.000000 0.000000
vt 0.000000 0.000000
vt 0.000000 0.000000
vt 0.000000 0.000000
vt 0.000000 0.000000
vt 0.000000 0.000000
vt 0.000000 0.000000
vt 0.000000 0.000000
vt 0.000000 0.000000
vt 0.000000 0.000000
vt 0.000000 0.000000
vt 0.000000 0.000000
vt 0.000000 0.000000
vt 0.000000 0.000000
vt 0.000000 0.000000
vn -0.9024 0.4289 -0.0425
vn -0.8995 0.4328 -0.0602
vn -0.9566 0.2911 -0.0105
vn -0.9146 0.4044 0.0056
vn -0.9169 0.3895 -0.0873
vn -0.9334 0.3577 0.0290
vn -0.9362 0.3512 -0.0143
vn -0.9451 0.3234 0.0456
vn -0.9456 0.3252 0.0112
vn -0.9456 0.3252 0.0110
vn -0.9456 0.3252 0.0111
vn -0.9465 0.3227 0.0016
vn 0.0000 0.9999 0.0143
vn -0.6861 0.2436 0.6855
vn 0.0000 -0.0006 -1.0000
vn -0.9470 0.3212 0.0096
vn -0.9465 0.3227 0.0022
vn -0.9466 0.3223 0.0044
vn -0.9471 0.3208 0.0111
vn -0.9483 0.3174 0.0078
vn -0.9481 0.3178 0.0022
vn -0.9482 0.3177 0.0032
vn -0.9476 0.3195 0.0070
vn -0.9420 0.3357 0.0017
vn -0.9482 0.3174 0.0084
vn -0.8991 0.4336 -0.0596
vn -0.9034 0.4192 -0.0905
vn -0.9442 0.3294 0.0024
g LK4_body.003_LK4_body.003_DefaultMaterial
usemtl DefaultMaterial
s 1
f 27/27/29 28/28/29 29/29/29
f 30/30/30 31/31/30 29/29/30
f 32/32/31 33/33/31 34/34/31
f 35/35/32 31/31/32 36/36/32
f 37/37/33 35/35/33 36/36/33
f 37/37/34 36/36/34 38/38/34
f 39/39/35 37/37/35 38/38/35
f 39/39/36 38/38/36 40/40/36
f 39/39/37 40/40/38 41/41/39
f 39/39/37 41/41/39 42/42/37
f 43/43/40 39/39/40 42/42/40
f 44/44/41 45/45/41 43/43/41
f 44/44/42 43/43/42 42/42/42
f 46/46/43 44/44/43 42/42/43
f 47/47/44 46/46/45 42/42/46
f 47/47/44 42/42/46 48/48/47
f 34/34/48 47/47/49 48/48/50
f 48/48/51 49/49/51 32/32/51
f 48/48/52 50/50/52 49/49/52
f 48/48/50 32/32/53 34/34/48
f 31/31/54 27/27/54 29/29/54
f 31/31/55 35/35/55 27/27/55
f 33/33/56 51/51/56 34/34/56
o LK4_body.004
v -0.707538 0.586392 0.355295
v -0.677974 0.659514 0.251083
v -0.811961 0.298781 0.206744
v -0.816239 0.286592 0.624486
v -0.816913 0.284936 0.734659
v -0.778799 0.385127 0.603886
v -0.815821 0.287618 0.556204
v -0.742902 0.484522 0.488509
v -0.678361 0.674751 0.122101
v -0.809602 0.306042 -0.037879
v -0.677670 0.688348 -0.086552
v -0.770384 0.416187 -0.228181
v -0.808029 0.310882 -0.200962
v -0.677151 0.694142 -0.226110
v -0.736866 0.515119 -0.257643
v -0.704041 0.620798 -0.291825
v -0.676805 0.698005 -0.319149
vt 0.000000 0.000000
vt 0.000000 0.000000
vt 0.000000 0.000000
vt 0.000000 0.000000
vt 0.000000 0.000000
vt 0.000000 0.000000
vt 0.000000 0.000000
vt 0.000000 0.000000
vt 0.000000 0.000000
vt 0.000000 0.000000
vt 0.000000 0.000000
vt 0.000000 0.000000
vt 0.000000 0.000000
vt 0.000000 0.000000
vt 0.000000 0.000000
vt 0.000000 0.000000
vt 0.000000 0.000000
vn -0.9364 0.3503 -0.0199
vn -0.9348 0.3551 -0.0004
vn -0.9349 0.3548 0.0002
vn -0.9364 0.3509 0.0086
vn -0.9369 0.3496 0.0096
vn -0.9413 0.3375 0.0082
vn -0.9411 0.3380 0.0076
vn -0.9383 0.3432 0.0434
vn -0.9422 0.3350 0.0009
vn -0.9444 0.3282 0.0183
vn -0.9455 0.3255 -0.0065
vn -0.9416 0.3368 0.0009
vn -0.9491 0.3149 0.0095
vn -0.9469 0.3215 0.0022
vn -0.9500 0.3092 0.0436
vn -0.9418 0.3359 0.0104
g LK4_body.004_LK4_body.004_DefaultMaterial
usemtl DefaultMaterial
s 1
f 52/52/57 53/53/57 54/54/57
f 55/55/58 56/56/58 57/57/59
f 55/55/58 57/57/59 58/58/60
f 58/58/60 57/57/59 59/59/61
f 52/52/62 54/54/63 59/59/61
f 54/54/63 58/58/60 59/59/61
f 54/54/64 53/53/64 60/60/64
f 54/54/65 60/60/65 61/61/65
f 61/61/66 60/60/66 62/62/66
f 62/62/67 63/63/67 61/61/67
f 63/63/68 64/64/68 61/61/68
f 62/62/69 65/65/69 66/66/69
f 63/63/70 62/62/70 66/66/70
f 66/66/71 65/65/71 67/67/71
f 67/67/72 65/65/72 68/68/72
o LK4_body.005
v 0.524244 0.332090 0.983697
v 0.703514 0.382672 0.721144
v 0.677177 0.477944 0.592256
v -0.148748 0.327095 1.070098
v -0.000244 0.326993 1.068977
v -0.135184 0.660782 0.394543
v 0.372146 0.328961 1.036294
v 0.134696 0.660782 0.394543
v 0.148261 0.327095 1.070098
v -0.000244 0.660810 0.394898
v -0.372633 0.328961 1.036294
v -0.347597 0.660100 0.389084
v -0.677664 0.477944 0.592256
v 0.671612 0.322162 0.890208
v 0.347110 0.660100 0.389084
v 0.646851 0.574725 0.454635
v -0.672099 0.322162 0.890208
v -0.524731 0.332090 0.983697
v -0.704001 0.382672 0.721144
v 0.721974 0.293628 0.848217
v -0.722462 0.293628 0.848217
v -0.647339 0.574725 0.454635
v 0.490797 0.659119 0.373167
v -0.491284 0.659119 0.373167
v 0.613549 0.651550 0.338226
v -0.614037 0.651550 0.338226
vt 0.000000 0.000000
vt 0.000000 0.000000
vt 0.000000 0.000000
vt 0.000000 0.000000
vt 0.000000 0.000000
vt 0.000000 0.000000
vt 0.000000 0.000000
vt 0.000000 0.000000
vt 0.000000 0.000000
vt 0.000000 0.000000
vt 0.000000 0.000000
vt 0.000000 0.000000
vt 0.000000 0.000000
vt 0.000000 0.000000
vt 0.000000 0.000000
vt 0.000000 0.000000
vt 0.000000 0.000000
vt 0.000000 0.000000
vt 0.000000 0.000000
vt 0.000000 0.000000
vt 0.000000 0.000000
vt 0.000000 0.000000
vt 0.000000 0.000000
vt 0.000000 0.000000
vt 0.000000 0.000000
vt 0.000000 0.000000
vn 0.4649 0.7547 0.4629
vn 0.0040 0.8965 0.4429
vn 0.0591 0.8955 0.4411
vn -0.0003 0.8962 0.4437
vn 0.0000 0.8961 0.4438
vn -0.0014 0.8961 0.4438
vn -0.2120 0.8733 0.4386
vn 0.2946 0.8807 0.3708
vn 0.2120 0.8733 0.4386
vn -0.0591 0.8955 0.4411
vn -0.0027 0.8964 0.4432
vn 0.1146 0.9154 0.3859
vn 0.1135 0.8243 0.5547
vn -0.0040 0.8965 0.4429
vn -0.2946 0.8807 0.3708
vn 0.6685 0.6512 0.3592
vn 0.0146 0.8904 0.4550
vn -0.1146 0.9154 0.3859
vn -0.6685 0.6512 0.3592
vn -0.0146 0.8904 0.4550
vn -0.1135 0.8243 0.5547
vn 0.0764 0.7620 0.6430
vn -0.0764 0.7620 0.6430
vn 0.1946 0.8433 0.5009
vn -0.1946 0.8433 0.5009
vn -0.4649 0.7547 0.4629
g LK4_body.005_LK4_body.005_DefaultMaterial
usemtl DefaultMaterial
s 1
f 69/69/73 70/70/73 71/71/73
f 72/72/74 73/73/74 74/74/74
f 75/75/75 76/76/75 77/77/75
f 73/73/76 78/78/77 74/74/78
f 79/79/79 80/80/79 81/81/79
f 82/82/80 70/70/80 69/69/80
f 83/83/81 75/75/81 71/71/81
f 74/74/82 79/79/82 72/72/82
f 76/76/83 78/78/77 73/73/76
f 75/75/84 69/69/84 71/71/84
f 71/71/85 84/84/85 83/83/85
f 76/76/83 73/73/76 77/77/86
f 85/85/87 86/86/87 87/87/87
f 82/82/88 88/88/88 70/70/88
f 83/83/89 76/76/89 75/75/89
f 86/86/90 79/79/90 81/81/90
f 89/89/91 85/85/91 87/87/91
f 79/79/92 74/74/92 80/80/92
f 90/90/93 81/81/93 80/80/93
f 83/83/94 84/84/94 91/91/94
f 90/90/95 80/80/95 92/92/95
f 91/91/96 84/84/96 93/93/96
f 90/90/97 92/92/97 94/94/97
f 87/87/98 86/86/98 81/81/98
o LK4_body.006
v 0.677182 0.688348 -0.086552
v 0.769896 0.416187 -0.228181
v 0.736379 0.515119 -0.257643
v 0.815751 0.286592 0.624486
v 0.778312 0.385127 0.603886
v 0.816425 0.284936 0.734659
v 0.815334 0.287618 0.556204
v 0.742415 0.484522 0.488509
v 0.811473 0.298781 0.206744
v 0.707051 0.586392 0.355295
v 0.677487 0.659514 0.251083
v 0.677874 0.674751 0.122101
v 0.809115 0.306042 -0.037879
v 0.807542 0.310882 -0.200962
v 0.676664 0.694142 -0.226110
v 0.703553 0.620798 -0.291825
v 0.676318 0.698005 -0.319149
vt 0.000000 0.000000
vt 0.000000 0.000000
vt 0.000000 0.000000
vt 0.000000 0.000000
vt 0.000000 0.000000
vt 0.000000 0.000000
vt 0.000000 0.000000
vt 0.000000 0.000000
vt 0.000000 0.000000
vt 0.000000 0.000000
vt 0.000000 0.000000
vt 0.000000 0.000000
vt 0.000000 0.000000
vt 0.000000 0.000000
vt 0.000000 0.000000
vt 0.000000 0.000000
vt 0.000000 0.000000
vn 0.9469 0.3214 0.0022
vn 0.9348 0.3551 -0.0004
vn 0.9349 0.3548 0.0002
vn 0.9364 0.3509 0.0087
vn 0.9369 0.3496 0.0096
vn 0.9411 0.3379 0.0076
vn 0.9413 0.3375 0.0082
vn 0.9364 0.3503 -0.0199
vn 0.9383 0.3432 0.0434
vn 0.9422 0.3350 0.0009
vn 0.9444 0.3282 0.0183
vn 0.9416 0.3368 0.0009
vn 0.9455 0.3255 -0.0065
vn 0.9491 0.3149 0.0096
vn 0.9500 0.3092 0.0436
vn 0.9418 0.3359 0.0104
g LK4_body.006_LK4_body.006_DefaultMaterial
usemtl DefaultMaterial
s 1
f 95/95/99 96/96/99 97/97/99
f 98/98/100 99/99/101 100/100/100
f 98/98/100 101/101/102 99/99/101
f 101/101/102 102/102/103 99/99/101
f 101/101/102 103/103/104 102/102/103
f 103/103/104 104/104/105 102/102/103
f 105/105/106 104/104/106 103/103/106
f 103/103/107 106/106/107 105/105/107
f 103/103/108 107/107/108 106/106/108
f 107/107/109 95/95/109 106/106/109
f 108/108/110 96/96/110 107/107/110
f 96/96/111 95/95/111 107/107/111
f 109/109/112 95/95/112 97/97/112
f 97/97/113 110/110/113 109/109/113
f 110/110/114 111/111/114 109/109/114
o LK4_body.007
v 0.782241 0.241062 -1.862474
v 0.810179 0.148854 -1.791138
v 0.831262 0.072028 -1.918390
v 0.788216 0.240095 -1.772161
v 0.673828 0.202030 -1.966998
v 0.687418 0.072373 -1.986687
v 0.651556 0.072450 -2.002061
v 0.731197 0.241839 -1.928729
v 0.786329 0.072134 -1.939311
v 0.555920 0.202030 -1.994847
v 0.470647 0.071666 -2.031858
v 0.673828 0.241839 -1.966998
v 0.698727 0.072340 -1.980098
v 0.398667 0.201319 -2.030273
v 0.438424 0.131556 -2.030273
vt 0.000000 0.000000
vt 0.000000 0.000000
vt 0.000000 0.000000
vt 0.000000 0.000000
vt 0.000000 0.000000
vt 0.000000 0.000000
vt 0.000000 0.000000
vt 0.000000 0.000000
vt 0.000000 0.000000
vt 0.000000 0.000000
vt 0.000000 0.000000
vt 0.000000 0.000000
vt 0.000000 0.000000
vt 0.000000 0.000000
vt 0.000000 0.000000
vn 0.9594 0.2820 -0.0113
vn 0.9674 0.2456 -0.0614
vn 0.3881 0.1780 -0.9043
vn 0.7612 0.2837 -0.5831
vn 0.1594 0.1717 -0.9722
vn 0.5549 0.0000 -0.8319
vn 0.4163 0.1701 -0.8932
vn 0.4955 0.1809 -0.8496
vn 0.3896 0.3891 -0.8348
vn 0.2243 0.2184 -0.9497
vn 0.4446 0.1989 -0.8734
vn 0.2175 0.1240 -0.9681
vn 0.2091 0.1381 -0.9681
g LK4_body.007_LK4_body.007_DefaultMaterial
usemtl DefaultMaterial
s 1
f 112/112/115 113/113/115 114/114/115
f 115/115/116 113/113/116 112/112/116
f 116/116/117 117/117/117 118/118/117
f 119/119/118 112/112/118 120/120/118
f 121/121/119 118/118/119 122/122/119
f 123/123/120 119/119/120 116/116/120
f 116/116/121 120/120/121 124/124/121
f 116/116/122 124/124/122 117/117/122
f 112/112/123 114/114/123 120/120/123
f 121/121/124 116/116/124 118/118/124
f 119/119/125 120/120/125 116/116/125
f 125/125/126 121/121/126 126/126/126
f 126/126/127 121/121/127 122/122/127
o LK4_body.008
v -0.788703 0.240095 -1.772161
v -0.782729 0.241062 -1.862474
v -0.810666 0.148854 -1.791138
v -0.674316 0.202030 -1.966998
v -0.556407 0.202030 -1.994847
v -0.652043 0.072450 -2.002061
v -0.831749 0.072028 -1.918390
v -0.399154 0.201319 -2.030273
v -0.438912 0.131556 -2.030273
v -0.786816 0.072134 -1.939311
v -0.471134 0.071666 -2.031858
v -0.731684 0.241839 -1.928729
v -0.699214 0.072340 -1.980098
v -0.687905 0.072373 -1.986687
v -0.674316 0.241839 -1.966998
vt 0.000000 0.000000
vt 0.000000 0.000000
vt 0.000000 0.000000
vt 0.000000 0.000000
vt 0.000000 0.000000
vt 0.000000 0.000000
vt 0.000000 0.000000
vt 0.000000 0.000000
vt 0.000000 0.000000
vt 0.000000 0.000000
vt 0.000000 0.000000
vt 0.000000 0.000000
vt 0.000000 0.000000
vt 0.000000 0.000000
vt 0.000000 0.000000
vn -0.9674 0.2456 -0.0614
vn -0.2243 0.2184 -0.9497
vn -0.9594 0.2819 -0.0113
vn -0.2175 0.1240 -0.9681
vn -0.3896 0.3891 -0.8348
vn -0.2091 0.1381 -0.9681
vn -0.4446 0.1989 -0.8734
vn -0.4163 0.1701 -0.8932
vn -0.4955 0.1809 -0.8496
vn -0.7612 0.2837 -0.5832
vn -0.3881 0.1780 -0.9043
vn -0.5549 0.0000 -0.8319
vn -0.1594 0.1717 -0.9722
g LK4_body.008_LK4_body.008_DefaultMaterial
usemtl DefaultMaterial
s 1
f 127/127/128 128/128/128 129/129/128
f 130/130/129 131/131/129 132/132/129
f 129/129/130 128/128/130 133/133/130
f 131/131/131 134/134/131 135/135/131
f 133/133/132 128/128/132 136/136/132
f 131/131/133 135/135/133 137/137/133
f 136/136/134 138/138/134 130/130/134
f 130/130/135 139/139/135 136/136/135
f 130/130/136 140/140/136 139/139/136
f 128/128/137 138/138/137 136/136/137
f 140/140/138 130/130/138 132/132/138
f 138/138/139 141/141/139 130/130/139
f 132/132/140 131/131/140 137/137/140
o LK4_body.009
v 0.874169 0.010655 1.856983
v 0.873263 0.019129 1.853450
v 0.793287 0.101201 1.923793
v 0.401817 0.011456 2.069480
v 0.397215 0.002332 2.070116
v 0.650477 -0.066380 2.050131
v 0.871300 0.027771 1.849401
v 0.371383 -0.067383 2.077292
v 0.432156 0.074278 2.048939
v 0.428049 0.066587 2.049637
v 0.444591 0.074378 2.045995
v 0.405923 0.020560 2.066141
v 0.826631 -0.063353 1.988878
v 0.832931 -0.062341 1.986579
v 0.838211 -0.061943 1.975931
v 0.629866 0.074579 2.018788
v 0.618519 0.074479 2.020638
v 0.637688 0.074579 2.017577
v 0.640817 0.074579 2.016850
v 0.672244 -0.064364 2.044615
v 0.741994 0.074579 1.993337
v 0.749291 0.074579 1.989770
v 0.756563 0.077742 1.976677
v 0.787160 0.097837 1.933410
v 0.854230 0.106287 1.814655
v 0.845474 0.113453 1.817419
v 0.790501 0.099824 1.928304
v 0.874569 -0.061545 1.899033
v 0.881144 -0.053115 1.883982
v 0.849856 0.113296 1.812125
v 0.660144 -0.065376 2.049021
v 0.366875 -0.062345 2.076031
v 0.880170 -0.061148 1.887324
v 0.367040 -0.066480 2.077356
vt 0.000000 0.000000
vt 0.000000 0.000000
vt 0.000000 0.000000
vt 0.000000 0.000000
vt 0.000000 0.000000
vt 0.000000 0.000000
vt 0.000000 0.000000
vt 0.000000 0.000000
vt 0.000000 0.000000
vt 0.000000 0.000000
vt 0.000000 0.000000
vt 0.000000 0.000000
vt 0.000000 0.000000
vt 0.000000 0.000000
vt 0.000000 0.000000
vt 0.000000 0.000000
vt 0.000000 0.000000
vt 0.000000 0.000000
vt 0.000000 0.000000
vt 0.000000 0.000000
vt 0.000000 0.000000
vt 0.000000 0.000000
vt 0.000000 0.000000
vt 0.000000 0.000000
vt 0.000000 0.000000
vt 0.000000 0.000000
vt 0.000000 0.000000
vt 0.000000 0.000000
vt 0.000000 0.000000
vt 0.000000 0.000000
vt 0.000000 0.000000
vt 0.000000 0.000000
vt 0.000000 0.000000
vt 0.000000 0.000000
vn 0.7865 0.3074 0.5356
vn 0.0857 0.0262 0.9960
vn 0.8009 0.3934 0.4515
vn 0.0964 0.0665 0.9931
vn 0.2305 -0.0348 0.9724
vn 0.0629 0.3099 0.9487
vn -0.1764 0.9830 -0.0507
vn 0.1544 0.2359 0.9594
vn 0.0000 -1.0000 0.0001
vn 0.3333 0.1746 0.9265
vn 0.2198 0.2387 0.9459
vn 0.4270 0.2338 0.8735
vn 0.7484 0.4163 0.5163
vn 0.7954 0.3798 0.4723
vn 0.5736 0.4325 0.6956
vn 0.1693 0.2374 0.9565
vn 0.7659 0.2424 0.5955
vn 0.8756 0.2467 0.4153
vn 0.7772 0.2776 0.5647
vn 0.6610 0.3829 0.6453
vn 0.6663 0.3861 0.6380
vn 0.8012 0.4057 0.4398
vn 0.7968 0.3074 0.5202
vn 0.6357 0.5804 0.5090
vn 0.1600 0.2755 0.9479
vn 0.0868 0.2346 0.9682
vn 0.1401 0.2333 0.9623
vn 0.3122 0.2536 0.9156
vn -0.1146 0.1436 0.9830
vn 0.8989 0.0709 0.4324
vn 0.0778 0.3071 0.9485
vn 0.1513 0.2494 0.9565
g LK4_body.009_LK4_body.009_DefaultMaterial
usemtl DefaultMaterial
s 1
f 142/142/141 143/143/141 144/144/141
f 145/145/142 146/146/142 147/147/142
f 143/143/143 148/148/143 144/144/143
f 149/149/144 147/147/144 146/146/144
f 150/150/145 151/151/145 152/152/145
f 151/151/146 153/153/146 152/152/146
f 154/154/147 155/155/147 156/156/147
f 157/157/148 158/158/148 147/147/148
f 159/159/149 157/157/149 160/160/149
f 161/161/150 154/154/150 162/162/150
f 160/160/151 161/161/151 162/162/151
f 162/162/152 154/154/152 163/163/152
f 163/163/153 154/154/153 164/164/153
f 165/165/154 156/156/154 142/142/154
f 148/148/155 166/166/155 167/167/155
f 160/160/156 157/157/156 147/147/156
f 165/165/157 142/142/157 168/168/157
f 156/156/158 169/169/158 142/142/158
f 168/168/159 142/142/159 144/144/159
f 164/164/160 156/156/160 165/165/160
f 154/154/161 156/156/161 164/164/161
f 144/144/162 148/148/162 167/167/162
f 169/169/163 170/170/163 142/142/163
f 167/167/164 166/166/164 171/171/164
f 145/145/165 147/147/165 153/153/165
f 172/172/166 160/160/166 147/147/166
f 152/152/167 147/147/167 158/158/167
f 161/161/168 160/160/168 172/172/168
f 173/173/169 149/149/169 146/146/169
f 169/169/170 174/174/170 170/170/170
f 175/175/171 149/149/171 173/173/171
f 153/153/172 147/147/172 152/152/172
o LK4_body.010
v -0.367528 -0.066480 2.077356
v -0.367362 -0.062345 2.076031
v -0.371871 -0.067383 2.077292
v -0.672732 -0.064364 2.044615
v -0.641304 0.074579 2.016850
v -0.742481 0.074579 1.993337
v -0.650964 -0.066380 2.050131
v -0.397702 0.002332 2.070116
v -0.402304 0.011456 2.069480
v -0.445078 0.074378 2.045995
v -0.619007 0.074479 2.020638
v -0.406411 0.020560 2.066141
v -0.873751 0.019129 1.853450
v -0.874656 0.010655 1.856983
v -0.793774 0.101201 1.923793
v -0.630354 0.074579 2.018788
v -0.428537 0.066587 2.049637
v -0.432643 0.074278 2.048939
v -0.660631 -0.065376 2.049021
v -0.838698 -0.061943 1.975931
v -0.757051 0.077742 1.976677
v -0.787647 0.097837 1.933410
v -0.833418 -0.062341 1.986579
v -0.827118 -0.063353 1.988878
v -0.749779 0.074579 1.989770
v -0.880657 -0.061148 1.887324
v -0.875056 -0.061545 1.899033
v -0.881632 -0.053115 1.883982
v -0.871787 0.027771 1.849401
v -0.845962 0.113453 1.817419
v -0.790989 0.099824 1.928304
v -0.638175 0.074579 2.017577
v -0.854717 0.106287 1.814655
v -0.850343 0.113296 1.812125
vt 0.000000 0.000000
vt 0.000000 0.000000
vt 0.000000 0.000000
vt 0.000000 0.000000
vt 0.000000 0.000000
vt 0.000000 0.000000
vt 0.000000 0.000000
vt 0.000000 0.000000
vt 0.000000 0.000000
vt 0.000000 0.000000
vt 0.000000 0.000000
vt 0.000000 0.000000
vt 0.000000 0.000000
vt 0.000000 0.000000
vt 0.000000 0.000000
vt 0.000000 0.000000
vt 0.000000 0.000000
vt 0.000000 0.000000
vt 0.000000 0.000000
vt 0.000000 0.000000
vt 0.000000 0.000000
vt 0.000000 0.000000
vt 0.000000 0.000000
vt 0.000000 0.000000
vt 0.000000 0.000000
vt 0.000000 0.000000
vt 0.000000 0.000000
vt 0.000000 0.000000
vt 0.000000 0.000000
vt 0.000000 0.000000
vt 0.000000 0.000000
vt 0.000000 0.000000
vt 0.000000 0.000000
vt 0.000000 0.000000
vn -0.0778 0.3071 0.9485
vn -0.2198 0.2387 0.9459
vn -0.0964 0.0665 0.9931
vn -0.0857 0.0262 0.9960
vn -0.1401 0.2333 0.9623
vn -0.1513 0.2494 0.9565
vn -0.7865 0.3073 0.5357
vn -0.1693 0.2374 0.9565
vn -0.2305 -0.0348 0.9724
vn -0.0868 0.2346 0.9682
vn -0.6621 0.3836 0.6438
vn -0.6648 0.3852 0.6400
vn -0.6610 0.3829 0.6453
vn -0.0629 0.3099 0.9487
vn 0.1145 0.1436 0.9830
vn 0.1764 0.9830 -0.0507
vn -0.1544 0.2359 0.9594
vn -0.3333 0.1746 0.9265
vn -0.3122 0.2536 0.9156
vn -0.7484 0.4163 0.5163
vn -0.6663 0.3861 0.6380
vn -0.8989 0.0708 0.4324
vn -0.7954 0.3798 0.4723
vn -0.4269 0.2337 0.8735
vn -0.8756 0.2467 0.4153
vn -0.1600 0.2755 0.9479
vn -0.8012 0.4057 0.4398
vn -0.7772 0.2777 0.5646
vn 0.0000 -1.0000 -0.0000
vn -0.7659 0.2423 0.5956
vn -0.8009 0.3935 0.4514
vn -0.7967 0.3074 0.5203
vn -0.5736 0.4325 0.6956
vn -0.6357 0.5804 0.5089
g LK4_body.010_LK4_body.010_DefaultMaterial
usemtl DefaultMaterial
s 1
f 176/176/173 177/177/173 178/178/173
f 179/179/174 180/180/174 181/181/174
f 182/182/175 178/178/175 183/183/175
f 183/183/176 184/184/176 182/182/176
f 182/182/177 185/185/177 186/186/177
f 182/182/178 187/187/178 185/185/178
f 188/188/179 189/189/179 190/190/179
f 191/191/180 180/180/180 182/182/180
f 192/192/181 193/193/181 185/185/181
f 180/180/182 194/194/182 182/182/182
f 195/195/183 196/196/184 197/197/185
f 187/187/186 192/192/186 185/185/186
f 178/178/187 177/177/187 183/183/187
f 198/198/188 199/199/188 195/195/188
f 186/186/189 191/191/189 182/182/189
f 199/199/190 179/179/190 181/181/190
f 180/180/191 179/179/191 194/194/191
f 199/199/192 200/200/192 196/196/192
f 195/195/183 199/199/193 196/196/184
f 201/201/194 202/202/194 203/203/194
f 195/195/195 197/197/195 189/189/195
f 199/199/196 181/181/196 200/200/196
f 202/202/197 195/195/197 189/189/197
f 182/182/198 184/184/198 187/187/198
f 204/204/199 190/190/199 205/205/199
f 189/189/200 206/206/200 190/190/200
f 191/191/201 207/207/201 180/180/201
f 189/189/202 197/197/202 206/206/202
f 204/204/203 188/188/203 190/190/203
f 203/203/204 202/202/204 189/189/204
f 208/208/205 204/204/205 205/205/205
f 205/205/206 209/209/206 208/208/206
