# Blender v2.90.0 OBJ File: ''
# www.blender.org
mtllib LK4_glass.mtl
v 0.695876 0.588214 -1.583697
v 0.747301 0.475969 -1.624523
v 0.721142 0.530841 -1.626209
v 0.783969 0.406846 -1.582910
v 0.678182 0.687623 -1.389260
v 0.674833 0.704084 -0.433004
v 0.799584 0.339360 -0.933719
v 0.809709 0.387040 -1.224395
v 0.669298 0.711670 -0.944714
v 0.801943 0.341342 -1.066971
v 0.804026 0.321740 -0.372266
v -0.000243 0.421985 -1.992350
v -0.205739 0.680883 -1.627825
v -0.598972 0.527617 -1.807541
v -0.589385 0.665341 -1.581536
v 0.587064 0.656878 -1.579973
v 0.598486 0.527605 -1.807558
v 0.354013 0.422743 -1.977243
v 0.615910 0.426440 -1.920341
v -0.354500 0.422743 -1.977243
v -0.616397 0.426440 -1.920341
v -0.696363 0.588214 -1.583697
v -0.721629 0.530841 -1.626209
v -0.747788 0.475969 -1.624523
v -0.784456 0.406846 -1.582910
v -0.675319 0.704084 -0.433004
v -0.674228 0.669996 -1.425847
v -0.810196 0.387040 -1.224395
v -0.675114 0.701901 -1.274227
v -0.669785 0.711670 -0.944714
v -0.802430 0.341342 -1.066970
v -0.800071 0.339360 -0.933719
v -0.804513 0.321740 -0.372266
v -0.680581 0.669431 0.241554
v -0.815284 0.283090 0.735827
v -0.758272 0.442701 0.536802
v -0.807986 0.310857 -0.199538
v -0.678704 0.698340 -0.316779
v 0.450329 0.321602 1.012669
v 0.727895 0.298822 0.847933
v 0.616892 0.643692 0.337061
v -0.152121 0.326965 1.069373
v -0.421175 0.667864 0.392149
v 0.295841 0.659386 0.392567
v 0.148261 0.327095 1.070098
v -0.450816 0.321602 1.012669
v -0.617849 0.649517 0.336656
v -0.728382 0.298821 0.847933
v 0.807499 0.310857 -0.199538
v 0.678215 0.698340 -0.316779
v 0.814796 0.283091 0.735826
v 0.757786 0.442698 0.536805
v 0.680095 0.669431 0.241554
v 0.804233 0.239467 -1.776246
v 0.810179 0.148854 -1.791138
v 0.823450 0.070776 -1.919323
v 0.674530 0.202392 -1.968093
v 0.681347 0.241158 -1.977966
v 0.471307 0.071665 -2.031461
v 0.398667 0.201319 -2.030273
v -0.804720 0.239467 -1.776246
v -0.810666 0.148854 -1.791138
v -0.675018 0.202392 -1.968093
v -0.823937 0.070776 -1.919323
v -0.399154 0.201319 -2.030273
v -0.471794 0.071665 -2.031461
v -0.681835 0.241158 -1.977965
v 0.887746 -0.060010 1.889877
v 0.791371 0.100451 1.926087
v 0.366238 -0.067332 2.074038
v 0.431901 0.074407 2.050526
v 0.832811 -0.062701 1.986692
v 0.749257 0.074855 1.995878
v 0.657954 -0.065680 2.048728
v 0.853455 0.116246 1.814249
v -0.366726 -0.067332 2.074038
v -0.658440 -0.065681 2.048728
v -0.432390 0.074407 2.050526
v -0.749745 0.074855 1.995877
v -0.888230 -0.060011 1.889875
v -0.791859 0.100452 1.926085
v -0.833298 -0.062701 1.986692
v -0.853942 0.116245 1.814249
vt 0.000000 0.000000
vt 0.000000 0.000000
vt 0.000000 0.000000
vt 0.000000 0.000000
vt 0.000000 0.000000
vt 0.000000 0.000000
vt 0.000000 0.000000
vt 0.000000 0.000000
vt 0.000000 0.000000
vt 0.000000 0.000000
vt 0.000000 0.000000
vt 0.000000 0.000000
vt 0.000000 0.000000
vt 0.000000 0.000000
vt 0.000000 0.000000
vt 0.000000 0.000000
vt 0.000000 0.000000
vt 0.000000 0.000000
vt 0.000000 0.000000
vt 0.000000 0.000000
vt 0.000000 0.000000
vt 0.000000 0.000000
vt 0.000000 0.000000
vt 0.000000 0.000000
vt 0.000000 0.000000
vt 0.000000 0.000000
vt 0.000000 0.000000
vt 0.000000 0.000000
vt 0.000000 0.000000
vt 0.000000 0.000000
vt 0.000000 0.000000
vt 0.000000 0.000000
vt 0.000000 0.000000
vt 0.000000 0.000000
vt 0.000000 0.000000
vt 0.000000 0.000000
vt 0.000000 0.000000
vt 0.000000 0.000000
vt 0.000000 0.000000
vt 0.000000 0.000000
vt 0.000000 0.000000
vt 0.000000 0.000000
vt 0.000000 0.000000
vt 0.000000 0.000000
vt 0.000000 0.000000
vt 0.000000 0.000000
vt 0.000000 0.000000
vt 0.000000 0.000000
vt 0.000000 0.000000
vt 0.000000 0.000000
vt 0.000000 0.000000
vt 0.000000 0.000000
vt 0.000000 0.000000
vt 0.000000 0.000000
vt 0.000000 0.000000
vt 0.000000 0.000000
vt 0.000000 0.000000
vt 0.000000 0.000000
vt 0.000000 0.000000
vt 0.000000 0.000000
vt 0.000000 0.000000
vt 0.000000 0.000000
vt 0.000000 0.000000
vt 0.000000 0.000000
vt 0.000000 0.000000
vt 0.000000 0.000000
vt 0.000000 0.000000
vt 0.000000 0.000000
vt 0.000000 0.000000
vt 0.000000 0.000000
vt 0.000000 0.000000
vt 0.000000 0.000000
vt 0.000000 0.000000
vt 0.000000 0.000000
vt 0.000000 0.000000
vt 0.000000 0.000000
vt 0.000000 0.000000
vt 0.000000 0.000000
vt 0.000000 0.000000
vt 0.000000 0.000000
vt 0.000000 0.000000
vt 0.000000 0.000000
vt 0.000000 0.000000
vn 0.9024 0.4289 -0.0425
vn 0.8976 0.4357 -0.0672
vn 0.8909 0.4321 -0.1399
vn 0.9241 0.3795 -0.0454
vn 0.9168 0.3994 -0.0033
vn 0.9454 0.3250 0.0255
vn 0.9466 0.3114 0.0837
vn 0.9462 0.2952 0.1324
vn 0.9446 0.3280 0.0062
vn 0.9464 0.3229 0.0002
vn 0.9473 0.3205 0.0026
vn -0.0966 0.8518 -0.5149
vn 0.1308 0.7480 -0.6507
vn 0.0587 0.8092 -0.5846
vn 0.0213 0.8365 -0.5476
vn 0.0151 0.8271 -0.5618
vn 0.0577 0.8449 -0.5318
vn 0.0509 0.8373 -0.5444
vn -0.1308 0.7480 -0.6507
vn -0.0527 0.8138 -0.5788
vn 0.0061 0.8169 -0.5768
vn -0.0291 0.8685 -0.4948
vn -0.0233 0.8088 -0.5876
vn -0.9024 0.4289 -0.0425
vn -0.9121 0.4077 -0.0430
vn -0.9205 0.3813 -0.0856
vn -0.9188 0.3947 0.0032
vn -0.9455 0.3249 0.0217
vn -0.9462 0.2952 0.1324
vn -0.9466 0.3114 0.0837
vn -0.9448 0.3276 0.0102
vn -0.9455 0.3256 0.0001
vn -0.9473 0.3205 0.0026
vn -0.8976 0.4357 -0.0672
vn -0.8952 0.4344 -0.0995
vn -0.8062 0.5524 0.2120
vn -0.8023 0.5573 0.2138
vn -0.8019 0.5571 0.2158
vn -0.9433 0.3321 0.0025
vn -0.9473 0.3201 0.0134
vn 0.3466 0.8106 0.4719
vn 0.1028 0.8840 0.4560
vn 0.0068 0.8962 0.4436
vn 0.0057 0.8957 0.4446
vn 0.0103 0.8948 0.4463
vn -0.2122 0.8576 0.4684
vn 0.1213 0.8841 0.4514
vn -0.1069 0.8704 0.4806
vn -0.0015 0.8980 0.4401
vn -0.3495 0.8062 0.4774
vn 0.9473 0.3201 0.0134
vn 0.8023 0.5573 0.2138
vn 0.8062 0.5523 0.2120
vn 0.8019 0.5571 0.2158
vn 0.9433 0.3321 0.0025
vn 0.9961 0.0538 0.0704
vn 0.7545 0.4724 -0.4556
vn 0.3034 -0.0098 -0.9528
vn 0.0852 -0.2600 -0.9619
vn 0.2175 0.1307 -0.9673
vn -0.9961 0.0538 0.0704
vn -0.2175 0.1307 -0.9673
vn -0.0853 -0.2599 -0.9619
vn -0.7545 0.4724 -0.4556
vn -0.3034 -0.0098 -0.9528
vn 0.0851 0.1246 0.9886
vn 0.3291 0.1375 0.9342
vn 0.8013 0.3763 0.4651
vn 0.7149 0.3957 0.5765
vn 0.7914 0.3645 0.4908
vn 0.1639 0.2522 0.9537
vn -0.0851 0.1246 0.9886
vn -0.1639 0.2522 0.9537
vn -0.4681 0.2287 0.8536
vn -0.5749 0.2980 0.7620
vn -0.7149 0.3957 0.5765
vn -0.3291 0.1375 0.9342
vn -0.8013 0.3763 0.4651
vn -0.7914 0.3645 0.4908
g LK4_body.001_LK4_body.001_DefaultMaterial
usemtl DefaultMaterial
s 1
f 1/1/1 2/2/1 3/3/1
f 1/1/2 4/4/2 2/2/2
f 5/5/3 4/4/3 1/1/3
f 5/5/4 8/6/4 4/4/4
f 9/7/5 8/6/5 5/5/5
f 9/7/6 10/8/7 8/6/8
f 9/7/6 7/9/9 10/8/7
f 6/10/10 7/9/9 9/7/6
f 11/11/11 7/9/9 6/10/10
f 13/12/12 14/13/12 15/14/12
f 19/15/13 18/16/14 17/17/15
f 13/12/16 16/18/17 18/16/18
f 20/19/19 21/20/19 14/13/19
f 13/12/20 20/19/20 14/13/20
f 13/12/16 18/16/18 12/21/21
f 18/16/14 16/18/22 17/17/15
f 20/19/23 13/12/16 12/21/21
f 22/22/24 23/23/24 24/24/24
f 27/25/25 25/26/25 28/27/25
f 29/28/26 27/25/26 28/27/26
f 30/29/27 29/28/27 28/27/27
f 30/29/28 28/27/29 31/30/30
f 30/29/28 31/30/30 32/31/31
f 26/32/32 30/29/28 32/31/31
f 32/31/31 33/33/33 26/32/32
f 25/26/34 22/22/34 24/24/34
f 25/26/35 27/25/35 22/22/35
f 34/34/36 35/35/37 36/36/38
f 35/35/39 34/34/39 37/37/39
f 37/37/40 34/34/40 38/38/40
f 39/39/41 40/40/41 41/41/41
f 39/39/42 44/42/42 45/43/42
f 42/44/43 44/42/44 43/45/45
f 46/46/46 43/45/46 47/47/46
f 44/42/47 39/39/47 41/41/47
f 43/45/48 46/46/48 42/44/48
f 44/42/44 42/44/43 45/43/49
f 48/48/50 46/46/50 47/47/50
f 53/49/51 49/50/51 50/51/51
f 51/52/52 53/49/53 52/53/54
f 51/52/55 49/50/55 53/49/55
f 54/54/56 55/55/56 56/56/56
f 58/57/57 54/54/57 56/56/57
f 57/58/58 56/56/58 59/59/58
f 58/57/59 56/56/59 57/58/59
f 60/60/60 57/58/60 59/59/60
f 62/61/61 61/62/61 64/63/61
f 63/64/62 65/65/62 66/66/62
f 64/63/63 67/67/63 63/64/63
f 61/62/64 67/67/64 64/63/64
f 64/63/65 63/64/65 66/66/65
f 70/68/66 74/69/66 71/70/66
f 74/69/67 72/71/67 73/72/67
f 69/73/68 72/71/68 68/74/68
f 73/72/69 72/71/69 69/73/69
f 69/73/70 68/74/70 75/75/70
f 71/70/71 74/69/71 73/72/71
f 77/76/72 76/77/72 78/78/72
f 77/76/73 78/78/73 79/79/73
f 82/80/74 79/79/75 81/81/76
f 82/80/74 77/76/77 79/79/75
f 82/80/78 81/81/78 80/82/78
f 80/82/79 81/81/79 83/83/79
