# Blender 4.4.3
# www.blender.org
mtllib ship0.mtl
o Cube
v 1.000000 1.000000 -1.000000
v 0.340047 -1.000000 -1.000000
v 1.000000 1.000000 1.000000
v 0.340047 -1.000000 1.000000
v -1.000000 1.000000 -1.000000
v -0.340047 -1.000000 -1.000000
v -1.000000 1.000000 1.000000
v -0.340047 -1.000000 1.000000
v 0.000000 -1.000000 -5.778605
v 1.000000 -0.000000 -1.000000
v -1.000000 -0.000000 -1.000000
v 0.000000 1.000000 -5.778605
v 0.000000 -0.000000 -5.778605
v -1.000000 0.000000 1.000000
v 1.000000 0.000000 1.000000
v 0.000000 1.000000 5.778605
v 0.000000 -1.000000 5.778605
v 0.000000 0.000000 5.778605
vn -0.0000 1.0000 -0.0000
vn -0.0000 -1.0000 -0.0000
vn -0.0000 -0.6779 0.7351
vn -0.0000 0.5397 0.8418
vn -0.7250 0.6847 0.0750
vn -0.9714 -0.2211 0.0862
vn -0.7250 0.6847 -0.0750
vn -0.9714 -0.2211 -0.0862
vn 0.9714 -0.2211 -0.0862
vn 0.7250 0.6847 -0.0750
vn 0.7250 0.6847 0.0750
vn 0.9714 -0.2211 0.0862
vn -0.0000 -0.6779 -0.7351
vn -0.0000 0.5397 -0.8418
vn -0.0000 -0.9376 -0.3478
vn 0.5369 -0.8427 -0.0403
vn -0.5369 -0.8427 -0.0403
vn -0.0000 -0.9376 0.3478
vn -0.5369 -0.8427 0.0403
vn 0.5369 -0.8427 0.0403
vt 0.625000 0.750000
vt 0.875000 0.750000
vt 0.750000 0.750000
vt 0.125000 0.750000
vt 0.375000 0.750000
vt 0.250000 0.750000
vt 0.125000 0.500000
vt 0.250000 0.500000
vt 0.375000 0.500000
vt 0.625000 0.500000
vt 0.750000 0.500000
vt 0.875000 0.500000
vt 0.500000 0.875000
vt 0.625000 0.875000
vt 0.625000 1.000000
vt 0.500000 1.000000
vt 0.500000 0.000000
vt 0.625000 0.000000
vt 0.625000 0.250000
vt 0.500000 0.250000
vt 0.500000 0.500000
vt 0.500000 0.750000
vt 0.500000 0.375000
vt 0.625000 0.375000
vt 0.375000 0.375000
vt 0.375000 0.250000
vt 0.375000 0.875000
vt 0.375000 1.000000
vt 0.375000 0.000000
s 1
usemtl Body
f 3/1/1 7/2/1 16/3/1
f 8/4/2 4/5/2 17/6/2
f 6/7/2 9/8/2 2/9/2
f 8/4/2 6/7/2 2/9/2 4/5/2
f 1/10/1 12/11/1 5/12/1
f 3/1/1 1/10/1 5/12/1 7/2/1
f 18/13/3 16/14/4 7/15/5 14/16/6
f 14/17/6 7/18/5 5/19/7 11/20/8
f 10/21/9 1/10/10 3/1/11 15/22/12
f 13/23/13 12/24/14 1/10/10 10/21/9
f 9/25/15 13/23/13 10/21/9 2/9/16
f 6/26/17 11/20/8 13/23/13 9/25/15
f 11/20/8 5/19/7 12/24/14 13/23/13
f 17/27/18 18/13/3 14/16/6 8/28/19
f 4/5/20 15/22/12 18/13/3 17/27/18
f 15/22/12 3/1/11 16/14/4 18/13/3
f 8/29/19 14/17/6 11/20/8 6/26/17
f 2/9/16 10/21/9 15/22/12 4/5/20
o Cube.001
v -0.137755 1.355564 -0.345224
v -0.137755 9.390042 -0.345225
v -0.137755 1.355564 -3.119825
v -0.137755 9.359681 -0.845791
v -0.031104 1.355564 -0.345224
v -0.031104 9.398492 -0.345225
v -0.031104 1.355564 -3.119825
v -0.031104 9.368131 -0.845791
vn -1.0000 -0.0000 -0.0000
vn -0.0108 0.2731 -0.9619
vn 1.0000 -0.0000 -0.0000
vn -0.0000 -0.0000 1.0000
vn -0.0000 -1.0000 -0.0000
vn -0.0788 0.9951 -0.0604
vt 0.375000 0.000000
vt 0.625000 0.000000
vt 0.625000 0.250000
vt 0.375000 0.250000
vt 0.625000 0.500000
vt 0.375000 0.500000
vt 0.625000 0.750000
vt 0.375000 0.750000
vt 0.625000 1.000000
vt 0.375000 1.000000
vt 0.125000 0.500000
vt 0.125000 0.750000
vt 0.875000 0.500000
vt 0.875000 0.750000
s 1
usemtl Sail
f 19/30/21 20/31/21 22/32/21 21/33/21
f 21/33/22 22/32/22 26/34/22 25/35/22
f 25/35/23 26/34/23 24/36/23 23/37/23
f 23/37/24 24/36/24 20/38/24 19/39/24
f 21/40/25 25/35/25 23/37/25 19/41/25
f 26/34/26 22/42/26 20/43/26 24/36/26
o Cube.002
v -0.137755 1.355564 0.377307
v -0.137755 8.111241 0.377306
v -0.137755 1.355564 3.151909
v -0.137755 8.080880 0.877873
v -0.031104 1.355564 0.377307
v -0.031104 8.111241 0.377306
v -0.031104 1.355564 3.151909
v -0.031104 8.080880 0.877873
vn -1.0000 -0.0000 -0.0000
vn -0.0000 0.3203 0.9473
vn 1.0000 -0.0000 -0.0000
vn -0.0000 -0.0000 -1.0000
vn -0.0000 -1.0000 -0.0000
vn -0.0000 0.9982 0.0605
vt 0.375000 0.000000
vt 0.375000 0.250000
vt 0.625000 0.250000
vt 0.625000 0.000000
vt 0.375000 0.500000
vt 0.625000 0.500000
vt 0.375000 0.750000
vt 0.625000 0.750000
vt 0.375000 1.000000
vt 0.625000 1.000000
vt 0.125000 0.500000
vt 0.125000 0.750000
vt 0.875000 0.750000
vt 0.875000 0.500000
s 1
usemtl Sail
f 27/44/27 29/45/27 30/46/27 28/47/27
f 29/45/28 33/48/28 34/49/28 30/46/28
f 33/48/29 31/50/29 32/51/29 34/49/29
f 31/50/30 27/52/30 28/53/30 32/51/30
f 29/54/31 27/55/31 31/50/31 33/48/31
f 34/49/32 32/51/32 28/56/32 30/57/32
o Cylinder
v 0.000000 1.000000 -0.115289
v 0.000000 9.722143 -0.115290
v 0.115289 1.000000 -0.000000
v 0.115289 9.722143 -0.000001
v 0.000000 1.000000 0.115289
v 0.000000 9.722143 0.115288
v -0.115289 1.000000 -0.000000
v -0.115289 9.722143 -0.000001
vn -0.0000 1.0000 -0.0000
vn -0.0000 -1.0000 -0.0000
vn -0.0000 -0.5773 -0.8165
vn -0.0000 0.5773 -0.8165
vn 0.8165 0.5773 -0.0000
vn 0.8165 -0.5773 -0.0000
vn -0.0000 0.5773 0.8165
vn -0.0000 -0.5773 0.8165
vn -0.8165 0.5773 -0.0000
vn -0.8165 -0.5773 -0.0000
vt 0.490000 0.250000
vt 0.250000 0.490000
vt 0.010000 0.250000
vt 0.250000 0.010000
vt 0.750000 0.490000
vt 0.990000 0.250000
vt 0.750000 0.010000
vt 0.510000 0.250000
vt 1.000000 0.500000
vt 1.000000 1.000000
vt 0.750000 1.000000
vt 0.750000 0.500000
vt 0.500000 1.000000
vt 0.500000 0.500000
vt 0.250000 1.000000
vt 0.250000 0.500000
vt 0.000000 1.000000
vt 0.000000 0.500000
s 1
usemtl Rod
f 38/58/33 36/59/33 42/60/33 40/61/33
f 35/62/34 37/63/34 39/64/34 41/65/34
f 35/66/35 36/67/36 38/68/37 37/69/38
f 37/69/38 38/68/37 40/70/39 39/71/40
f 39/71/40 40/70/39 42/72/41 41/73/42
f 41/73/42 42/72/41 36/74/36 35/75/35
