# Blender 4.4.3
# www.blender.org
mtllib ship0.mtl
o Cube
v 1.000000 1.000000 -1.000000
v 0.340047 -1.000000 -1.000000
v 1.000000 1.000000 1.000000
v 0.340047 -1.000000 1.000000
v -1.000000 1.000000 -1.000000
v -0.340047 -1.000000 -1.000000
v -1.000000 1.000000 1.000000
v -0.340047 -1.000000 1.000000
v 0.000000 -1.000000 -5.778605
v 1.000000 -0.000000 -1.000000
v -1.000000 -0.000000 -1.000000
v 0.000000 1.000000 -5.229222
v 0.000000 -0.000000 -5.778605
v -1.000000 0.000000 1.000000
v 1.000000 0.000000 1.000000
v 0.000000 1.000000 5.229222
v 0.000000 -1.000000 5.778605
v 0.000000 0.000000 5.778605
v -0.245590 -1.000000 -3.389302
v 0.245590 -1.000000 -3.389302
v 0.565962 1.000000 -3.356871
v -0.565962 1.000000 -3.356871
v 0.722222 -0.000000 -3.389302
v -0.722222 -0.000000 -3.389302
v 0.565962 1.000000 3.356871
v -0.565962 1.000000 3.356871
v -0.245590 -1.000000 3.389302
v 0.245590 -1.000000 3.389302
v -0.722222 0.000000 3.389302
v 0.722222 0.000000 3.389302
v 0.722222 1.000000 3.389302
v 0.000000 1.000000 5.778605
v -0.722222 1.000000 3.389302
v 0.722222 1.000000 -3.389302
v 0.000000 1.000000 -5.778605
v -0.722222 1.000000 -3.389302
v 0.841040 1.000000 -0.990791
v 0.841040 1.000000 0.990791
v -0.841040 1.000000 -0.990791
v -0.841040 1.000000 0.990791
v 0.841040 0.463059 0.990791
v -0.841040 0.463059 0.990791
v 0.841040 0.463059 -0.990791
v -0.841040 0.463059 -0.990791
v 0.565962 0.463059 -3.356871
v -0.565962 0.463059 -3.356871
v -0.565962 0.463059 3.356871
v 0.565962 0.463059 3.356871
v 0.000000 0.463059 5.229222
v 0.000000 0.463058 -5.229222
vn 0.9983 -0.0000 -0.0578
vn 0.9791 -0.0000 -0.2032
vn -0.0000 -1.0000 -0.0000
vn -0.9791 -0.0000 0.2032
vn -0.0000 -0.0000 1.0000
vn 0.9983 -0.0000 0.0578
vn -0.9677 -0.1866 0.1695
vn -0.9112 0.3659 0.1891
vn -0.7371 0.6745 0.0427
vn -0.9620 -0.2691 0.0474
vn -0.7371 0.6745 -0.0427
vn -0.9620 -0.2691 -0.0474
vn 0.9620 -0.2691 -0.0474
vn 0.7371 0.6745 -0.0427
vn 0.7371 0.6745 0.0427
vn 0.9620 -0.2691 0.0474
vn 0.9677 -0.1866 -0.1695
vn 0.9112 0.3659 -0.1891
vn 0.5906 -0.8019 -0.0901
vn 0.4435 -0.8962 -0.0141
vn -0.9103 -0.3922 -0.1323
vn -0.9677 -0.1866 -0.1695
vn -0.0000 -0.4263 -0.9046
vn -0.0000 -0.7926 -0.6098
vn -0.7166 0.6815 -0.1487
vn -0.0000 0.5284 -0.8490
vn -0.5906 -0.8019 0.0901
vn -0.4435 -0.8962 0.0141
vn 0.9103 -0.3922 0.1323
vn 0.9677 -0.1866 0.1695
vn -0.0000 -0.4263 0.9046
vn -0.0000 -0.7926 0.6098
vn 0.7166 0.6815 0.1487
vn -0.0000 0.5284 0.8490
vn -0.4435 -0.8962 -0.0141
vn 0.4435 -0.8962 0.0141
vn -0.9791 -0.0000 -0.2032
vn -0.9983 -0.0000 -0.0578
vn -0.0000 -0.0000 -1.0000
vn -0.0000 1.0000 -0.0000
vn -0.9983 -0.0000 0.0578
vn 0.9791 -0.0000 0.2032
vt 0.855162 0.750000
vt 0.799121 0.750000
vt 0.187500 0.750000
vt 0.312500 0.750000
vt 0.250000 0.750000
vt 0.187500 0.500000
vt 0.250000 0.500000
vt 0.312500 0.500000
vt 0.125000 0.750000
vt 0.125000 0.500000
vt 0.375000 0.500000
vt 0.375000 0.750000
vt 0.700879 0.500000
vt 0.750000 0.500000
vt 0.855162 0.500000
vt 0.500000 0.937500
vt 0.625000 0.937500
vt 0.625000 1.000000
vt 0.500000 1.000000
vt 0.500000 0.000000
vt 0.625000 0.000000
vt 0.625000 0.250000
vt 0.500000 0.250000
vt 0.500000 0.500000
vt 0.625000 0.500000
vt 0.625000 0.750000
vt 0.500000 0.750000
vt 0.500000 0.437500
vt 0.625000 0.437500
vt 0.375000 0.437500
vt 0.375000 0.312500
vt 0.500000 0.312500
vt 0.500000 0.375000
vt 0.375000 0.375000
vt 0.625000 0.312500
vt 0.625000 0.375000
vt 0.375000 0.937500
vt 0.375000 1.000000
vt 0.375000 0.812500
vt 0.500000 0.812500
vt 0.500000 0.875000
vt 0.375000 0.875000
vt 0.625000 0.812500
vt 0.625000 0.875000
vt 0.375000 0.000000
vt 0.375000 0.250000
vt 0.700879 0.750000
vt 0.644838 0.750000
vt 0.750000 0.750000
vt 0.750000 0.750000
vt 0.687500 0.750000
vt 0.812500 0.750000
vt 0.687500 0.500000
vt 0.799121 0.500000
vt 0.812500 0.500000
vt 0.644838 0.500000
vt 0.875000 0.500000
vt 0.875000 0.750000
s 1
g Cube_Material
usemtl Material
f 40/1/1 26/2/2 47/2/2 42/1/1
f 27/3/3 28/4/3 17/5/3
f 19/6/3 9/7/3 20/8/3
f 8/9/3 6/10/3 2/11/3 4/12/3
f 21/13/4 12/14/5 50/14/5 45/13/4
f 39/15/6 40/1/1 42/1/1 44/15/6
f 29/16/7 33/17/8 7/18/9 14/19/10
f 14/20/10 7/21/9 5/22/11 11/23/12
f 10/24/13 1/25/14 3/26/15 15/27/16
f 23/28/17 34/29/18 1/25/14 10/24/13
f 20/30/19 23/28/17 10/24/13 2/11/20
f 19/31/21 24/32/22 13/33/23 9/34/24
f 24/32/22 36/35/25 35/36/26 13/33/23
f 27/37/27 29/16/7 14/19/10 8/38/28
f 28/39/29 30/40/30 18/41/31 17/42/32
f 30/40/30 31/43/33 32/44/34 18/41/31
f 8/45/28 14/20/10 11/23/12 6/46/35
f 2/11/20 10/24/13 15/27/16 4/12/36
f 11/23/12 5/22/11 36/35/25 24/32/22
f 6/46/35 11/23/12 24/32/22 19/31/21
f 9/34/24 13/33/23 23/28/17 20/30/19
f 13/33/23 35/36/26 34/29/18 23/28/17
f 25/47/37 38/48/38 41/48/38 48/47/37
f 6/10/3 19/6/3 20/8/3 2/11/3
f 15/27/16 3/26/15 31/43/33 30/40/30
f 4/12/36 15/27/16 30/40/30 28/39/29
f 17/42/32 18/41/31 29/16/7 27/37/27
f 18/41/31 32/44/34 33/17/8 29/16/7
f 8/9/3 4/12/3 28/4/3 27/3/3
f 26/2/2 16/49/39 49/49/39 47/2/2
f 25/47/40 16/49/40 32/50/40 31/51/40
f 16/49/40 26/2/40 33/52/40 32/50/40
f 12/14/40 21/13/40 34/53/40 35/14/40
f 22/54/40 12/14/40 35/14/40 36/55/40
f 37/56/40 38/48/40 3/26/40 1/25/40
f 40/1/40 39/15/40 5/57/40 7/58/40
f 21/13/40 37/56/40 1/25/40 34/53/40
f 39/15/40 22/54/40 36/55/40 5/57/40
f 38/48/40 25/47/40 31/51/40 3/26/40
f 26/2/40 40/1/40 7/58/40 33/52/40
f 48/47/40 47/2/40 49/49/40
f 45/13/40 50/14/40 46/54/40
f 41/48/40 43/56/40 44/15/40 42/1/40
f 43/56/40 45/13/40 46/54/40 44/15/40
f 41/48/40 42/1/40 47/2/40 48/47/40
f 37/56/41 21/13/4 45/13/4 43/56/41
f 12/14/5 22/54/42 46/54/42 50/14/5
f 16/49/39 25/47/37 48/47/37 49/49/39
f 22/54/42 39/15/6 44/15/6 46/54/42
f 38/48/38 37/56/41 43/56/41 41/48/38
o Cube.001
v -0.137755 1.355564 -0.345224
v -0.137755 9.390042 -0.345225
v -0.137755 1.355564 -3.119825
v -0.137755 9.359681 -0.845791
v -0.031104 1.355564 -0.345224
v -0.031104 9.398492 -0.345225
v -0.031104 1.355564 -3.119825
v -0.031104 9.368131 -0.845791
vn -1.0000 -0.0000 -0.0000
vn -0.0108 0.2731 -0.9619
vn 1.0000 -0.0000 -0.0000
vn -0.0000 -0.0000 1.0000
vn -0.0000 -1.0000 -0.0000
vn -0.0788 0.9951 -0.0604
vt 0.375000 0.000000
vt 0.625000 0.000000
vt 0.625000 0.250000
vt 0.375000 0.250000
vt 0.625000 0.500000
vt 0.375000 0.500000
vt 0.625000 0.750000
vt 0.375000 0.750000
vt 0.625000 1.000000
vt 0.375000 1.000000
vt 0.125000 0.500000
vt 0.125000 0.750000
vt 0.875000 0.500000
vt 0.875000 0.750000
s 1
g Cube.001_None
usemtl None
f 51/59/43 52/60/43 54/61/43 53/62/43
f 53/62/44 54/61/44 58/63/44 57/64/44
f 57/64/45 58/63/45 56/65/45 55/66/45
f 55/66/46 56/65/46 52/67/46 51/68/46
f 53/69/47 57/64/47 55/66/47 51/70/47
f 58/63/48 54/71/48 52/72/48 56/65/48
o Cube.002
v -0.137755 1.355564 0.377307
v -0.137755 8.111241 0.377306
v -0.137755 1.355564 3.151909
v -0.137755 8.080880 0.877873
v -0.031104 1.355564 0.377307
v -0.031104 8.111241 0.377306
v -0.031104 1.355564 3.151909
v -0.031104 8.080880 0.877873
vn -1.0000 -0.0000 -0.0000
vn -0.0000 0.3203 0.9473
vn 1.0000 -0.0000 -0.0000
vn -0.0000 -0.0000 -1.0000
vn -0.0000 -1.0000 -0.0000
vn -0.0000 0.9982 0.0605
vt 0.375000 0.000000
vt 0.375000 0.250000
vt 0.625000 0.250000
vt 0.625000 0.000000
vt 0.375000 0.500000
vt 0.625000 0.500000
vt 0.375000 0.750000
vt 0.625000 0.750000
vt 0.375000 1.000000
vt 0.625000 1.000000
vt 0.125000 0.500000
vt 0.125000 0.750000
vt 0.875000 0.750000
vt 0.875000 0.500000
s 1
g Cube.002_None
usemtl None
f 59/73/49 61/74/49 62/75/49 60/76/49
f 61/74/50 65/77/50 66/78/50 62/75/50
f 65/77/51 63/79/51 64/80/51 66/78/51
f 63/79/52 59/81/52 60/82/52 64/80/52
f 61/83/53 59/84/53 63/79/53 65/77/53
f 66/78/54 64/80/54 60/85/54 62/86/54
o Cylinder
v 0.000000 0.329374 -0.115289
v 0.000000 9.722143 -0.115290
v 0.115289 0.329374 -0.000000
v 0.115289 9.722143 -0.000001
v 0.000000 0.329374 0.115289
v 0.000000 9.722143 0.115288
v -0.115289 0.329374 -0.000000
v -0.115289 9.722143 -0.000001
vn -0.0000 1.0000 -0.0000
vn -0.0000 -1.0000 -0.0000
vn -0.0000 -0.5773 -0.8165
vn -0.0000 0.5773 -0.8165
vn 0.8165 0.5773 -0.0000
vn 0.8165 -0.5773 -0.0000
vn -0.0000 0.5773 0.8165
vn -0.0000 -0.5773 0.8165
vn -0.8165 0.5773 -0.0000
vn -0.8165 -0.5773 -0.0000
vt 0.490000 0.250000
vt 0.250000 0.490000
vt 0.010000 0.250000
vt 0.250000 0.010000
vt 0.750000 0.490000
vt 0.990000 0.250000
vt 0.750000 0.010000
vt 0.510000 0.250000
vt 1.000000 0.500000
vt 1.000000 1.000000
vt 0.750000 1.000000
vt 0.750000 0.500000
vt 0.500000 1.000000
vt 0.500000 0.500000
vt 0.250000 1.000000
vt 0.250000 0.500000
vt 0.000000 1.000000
vt 0.000000 0.500000
s 1
g Cylinder_None
usemtl None
f 70/87/55 68/88/55 74/89/55 72/90/55
f 67/91/56 69/92/56 71/93/56 73/94/56
f 67/95/57 68/96/58 70/97/59 69/98/60
f 69/98/60 70/97/59 72/99/61 71/100/62
f 71/100/62 72/99/61 74/101/63 73/102/64
f 73/102/64 74/101/63 68/103/58 67/104/57
