# Blender 4.4.3
# www.blender.org
mtllib ship0.mtl
o Cube
v 1.000000 1.000000 -1.000000
v 0.340047 -1.000000 -1.000000
v 1.000000 1.000000 1.000000
v 0.340047 -1.000000 1.000000
v -1.000000 1.000000 -1.000000
v -0.340047 -1.000000 -1.000000
v -1.000000 1.000000 1.000000
v -0.340047 -1.000000 1.000000
v 0.000000 -1.000000 -5.778605
v 1.000000 -0.000000 -1.000000
v -1.000000 -0.000000 -1.000000
v 0.000000 1.000000 -5.229222
v 0.000000 -0.000000 -5.778605
v -1.000000 0.000000 1.000000
v 1.000000 0.000000 1.000000
v 0.000000 1.000000 5.283286
v 0.000000 -1.000000 5.778605
v 0.000000 0.000000 5.778605
v -0.245590 -1.000000 -3.389302
v 0.245590 -1.000000 -3.389302
v 0.565962 1.000000 -3.356871
v -0.565962 1.000000 -3.356871
v 0.722222 -0.000000 -3.389302
v -0.722222 -0.000000 -3.389302
v 0.565962 1.000000 3.356871
v -0.565962 1.000000 3.356871
v -0.245590 -1.000000 3.389302
v 0.245590 -1.000000 3.389302
v -0.722222 0.000000 3.389302
v 0.722222 0.000000 3.389302
v 0.722222 1.000000 3.389302
v 0.000000 1.000000 5.778605
v -0.722222 1.000000 3.389302
v 0.722222 1.000000 -3.389302
v 0.000000 1.000000 -5.778605
v -0.722222 1.000000 -3.389302
v 0.841040 1.000000 -0.990791
v 0.841040 1.000000 0.990791
v -0.841040 1.000000 -0.990791
v -0.841040 1.000000 0.990791
v 0.841040 0.463059 0.990791
v -0.841040 0.463059 0.990791
v 0.841040 0.463059 -0.990791
v -0.841040 0.463059 -0.990791
v 0.565962 0.463059 -3.356871
v -0.565962 0.463059 -3.356871
v -0.565962 0.463059 3.356871
v 0.565962 0.463059 3.356871
v 0.000000 0.463059 5.283286
v 0.000000 0.463058 -5.229222
v -0.171155 -1.000000 4.518055
v 0.171155 -1.000000 4.518055
v 0.392830 0.000000 4.518055
v 0.449635 1.000000 4.505397
v -0.392830 0.000000 4.518055
v -0.449635 1.000000 4.505397
v -0.291145 1.000000 4.497644
v 0.291145 1.000000 4.497644
v -0.351764 0.463059 4.469949
v 0.351764 0.463059 4.469949
v -0.157077 -1.000000 -4.583953
v 0.157077 -1.000000 -4.583953
v 0.314759 1.000000 -4.293046
v -0.431368 -0.000000 -4.583953
v -0.401662 1.000000 -4.583953
v 0.431368 -0.000000 -4.583953
v 0.401662 1.000000 -4.583953
v -0.314759 1.000000 -4.293046
v -0.282981 0.463058 -4.293046
v 0.884034 -0.000000 -2.194651
v 0.932715 1.000000 -2.194651
v 0.309155 -1.000000 -2.194651
v -0.884034 -0.000000 -2.194651
v -0.932715 1.000000 -2.194651
v -0.309155 -1.000000 -2.194651
v 0.761999 1.000000 -2.173831
v -0.761999 1.000000 -2.173831
v 0.703501 0.463059 -2.173831
v -0.703501 0.463059 -2.173831
v -0.739529 1.000000 2.173831
v -0.946285 0.000000 2.194651
v -0.905210 1.000000 2.194651
v -0.317053 -1.000000 2.194651
v 0.739529 1.000000 2.173831
v 0.946285 0.000000 2.194651
v 0.905210 1.000000 2.194651
v 0.317053 -1.000000 2.194651
v 0.755468 0.463059 2.173831
v -0.755468 0.463059 2.173831
v -0.348778 -1.000000 0.000000
v 0.348778 -1.000000 0.000000
v -0.862636 1.000000 -0.000000
v -0.862636 0.463059 -0.000000
v -1.025677 0.000000 0.000000
v -1.025677 1.000000 -0.000000
v 1.025677 0.000000 0.000000
v 1.025677 1.000000 -0.000000
v 0.862636 1.000000 -0.000000
v 0.862636 0.463059 -0.000000
v 0.282981 0.463058 -4.293046
vn -0.0000 -1.0000 -0.0000
vn -0.0000 1.0000 -0.0000
vn -0.9904 -0.0266 -0.1358
vn -0.9857 -0.0346 -0.1646
vn -0.9932 -0.0147 -0.1154
vn -0.9932 -0.0147 -0.1152
vn 0.9591 -0.2810 0.0337
vn 0.9998 -0.0169 0.0123
vn 0.9997 -0.0246 -0.0093
vn 0.9573 -0.2891 -0.0000
vn -1.0000 -0.0000 -0.0000
vn -0.9984 0.0142 -0.0548
vn -0.9980 0.0271 0.0565
vn -0.9573 -0.2859 -0.0437
vn -0.9573 -0.2891 -0.0000
vn -0.7336 -0.6796 -0.0000
vn -0.7349 -0.6772 -0.0378
vn -0.9590 -0.2673 -0.0943
vn -0.8826 -0.4651 -0.0686
vn -0.9997 -0.0085 -0.0239
vn 0.9624 -0.1241 0.2415
vn 0.9639 -0.1825 0.1940
vn 0.9172 -0.3735 0.1389
vn 0.9613 -0.2093 0.1790
vn 0.8968 -0.3499 -0.2708
vn 0.9631 -0.1165 -0.2426
vn 0.9569 -0.0592 -0.2842
vn 0.5617 -0.6560 0.5042
vn -0.6809 -0.7281 -0.0789
vn -0.9607 -0.0916 0.2622
vn 0.0670 -0.4029 -0.9128
vn 0.8942 -0.3988 0.2034
vn -0.9878 -0.0999 0.1195
vn -0.9997 -0.0246 0.0093
vn -0.9998 -0.0169 0.0123
vn -0.9591 -0.2810 0.0337
vn -0.9569 -0.0592 -0.2842
vn -0.9631 -0.1165 -0.2426
vn -0.7125 -0.6679 -0.2152
vn -0.5617 -0.6558 0.5043
vn 0.9851 -0.0330 -0.1685
vn 0.9932 -0.0147 -0.1152
vn 0.9932 -0.0147 -0.1154
vn 0.9908 0.0186 -0.1343
vn 0.9977 0.0202 -0.0651
vn 0.9953 -0.0062 -0.0970
vn -0.9181 0.3611 0.1636
vn -0.9911 -0.0202 0.1317
vn 0.6617 -0.7231 0.1981
vn 0.7041 -0.6932 0.1539
vn -0.9919 0.0540 0.1151
vn -0.9918 0.0540 0.1154
vn -0.9588 -0.2070 -0.1948
vn -0.9194 -0.3756 -0.1167
vn -0.9642 -0.2104 -0.1614
vn -0.9569 0.0283 0.2890
vn -0.9568 0.0283 0.2893
vn -0.9689 0.0390 0.2442
vn -0.9795 0.0043 0.2016
vn 0.9562 -0.0465 -0.2891
vn 0.9536 -0.0462 -0.2975
vn 0.7336 -0.6796 -0.0000
vn 0.7359 -0.6763 0.0323
vn -0.9613 -0.2093 0.1790
vn -0.9061 -0.3737 0.1982
vn -0.0129 0.4402 -0.8978
vn 0.9911 -0.0202 0.1317
vn -0.9829 0.1384 0.1217
vn 0.9918 0.0540 0.1154
vn 0.9774 0.0413 0.2073
vn 0.9919 0.0540 0.1151
vn 0.9306 0.3256 -0.1672
vn 0.9871 -0.0460 -0.1535
vn 0.9970 0.0516 -0.0584
vn 0.9846 0.1412 -0.1028
vn 0.9642 -0.2104 -0.1614
vn 0.9590 -0.2673 -0.0943
vn -0.9536 -0.0462 -0.2975
vn -0.9562 -0.0465 -0.2891
vn -0.9270 -0.0427 -0.3727
vn 0.9270 -0.0427 -0.3727
vn -0.9523 0.0282 0.3040
vn -0.9871 -0.0460 -0.1535
vn 0.9080 -0.3752 -0.1865
vn 0.9997 -0.0085 -0.0239
vn 0.9573 -0.2859 -0.0437
vn 0.9980 0.0271 0.0565
vn -0.9979 0.0283 0.0589
vn -0.9628 -0.2534 0.0943
vn 0.9628 -0.2534 0.0943
vn 0.8729 -0.4830 0.0685
vn -0.5912 0.4946 -0.6371
vn 0.7420 -0.6649 0.0861
vn 0.9076 -0.4064 -0.1053
vn 0.7349 -0.6772 -0.0375
vn -0.7052 -0.6941 -0.1447
vn 0.9568 0.0283 0.2893
vn 0.9569 0.0283 0.2890
vn -0.7359 -0.6763 0.0324
vn -0.9324 -0.3450 0.1082
vn 0.9996 0.0012 -0.0282
vn 1.0000 -0.0000 -0.0000
vn -0.9975 0.0209 -0.0674
vn -0.9925 0.0066 -0.1223
vn 0.9523 0.0282 0.3040
vt 0.218750 0.750000
vt 0.281250 0.750000
vt 0.250000 0.750000
vt 0.218750 0.500000
vt 0.250000 0.500000
vt 0.281250 0.500000
vt 0.750000 0.750000
vt 0.781250 0.750000
vt 0.725439 0.500000
vt 0.687500 0.500000
vt 0.718750 0.500000
vt 0.750000 0.500000
vt 0.781250 0.500000
vt 0.774561 0.500000
vt 0.725439 0.750000
vt 0.774561 0.750000
vt 0.725439 0.500000
vt 0.812500 0.500000
vt 0.799121 0.500000
vt 0.700879 0.750000
vt 0.672858 0.750000
vt 0.500000 0.750000
vt 0.375000 0.750000
vt 0.375000 0.625000
vt 0.500000 0.625000
vt 0.125000 0.750000
vt 0.125000 0.625000
vt 0.843750 0.500000
vt 0.827142 0.500000
vt 0.644838 0.625000
vt 0.644838 0.500000
vt 0.875000 0.625000
vt 0.855162 0.625000
vt 0.855162 0.500000
vt 0.875000 0.500000
vt 0.125000 0.500000
vt 0.375000 0.500000
vt 0.500000 0.250000
vt 0.500000 0.125000
vt 0.625000 0.125000
vt 0.625000 0.250000
vt 0.875000 0.750000
vt 0.843750 0.750000
vt 0.827142 0.750000
vt 0.855162 0.750000
vt 0.500000 0.281250
vt 0.375000 0.281250
vt 0.375000 0.250000
vt 0.500000 0.843750
vt 0.375000 0.843750
vt 0.375000 0.812500
vt 0.500000 0.812500
vt 0.625000 0.406250
vt 0.500000 0.406250
vt 0.500000 0.375000
vt 0.625000 0.375000
vt 0.625000 0.281250
vt 0.799121 0.750000
vt 0.500000 0.906250
vt 0.500000 0.875000
vt 0.375000 0.125000
vt 0.375000 0.000000
vt 0.500000 0.000000
vt 0.656250 0.750000
vt 0.687500 0.750000
vt 0.718750 0.750000
vt 0.500000 0.343750
vt 0.625000 0.343750
vt 0.187500 0.750000
vt 0.156250 0.750000
vt 0.343750 0.750000
vt 0.312500 0.750000
vt 0.625000 0.500000
vt 0.656250 0.500000
vt 0.672858 0.500000
vt 0.375000 0.906250
vt 0.375000 0.875000
vt 0.700879 0.500000
vt 0.625000 0.843750
vt 0.625000 0.812500
vt 0.625000 0.625000
vt 0.644838 0.750000
vt 0.625000 0.750000
vt 0.812500 0.750000
vt 0.312500 0.500000
vt 0.187500 0.500000
vt 0.375000 0.343750
vt 0.375000 0.312500
vt 0.500000 0.312500
vt 0.500000 0.937500
vt 0.625000 0.906250
vt 0.625000 0.937500
vt 0.343750 0.500000
vt 0.156250 0.500000
vt 0.375000 0.937500
vt 0.375000 0.406250
vt 0.375000 0.375000
vt 0.375000 0.468750
vt 0.375000 0.437500
vt 0.500000 0.437500
vt 0.500000 0.468750
vt 0.625000 0.437500
vt 0.500000 0.500000
vt 0.375000 0.968750
vt 0.500000 0.968750
vt 0.500000 0.781250
vt 0.375000 0.781250
vt 0.625000 0.875000
vt 0.625000 0.781250
vt 0.625000 0.468750
vt 0.625000 0.312500
vt 0.375000 1.000000
vt 0.500000 1.000000
vt 0.625000 1.000000
vt 0.625000 0.968750
vt 0.625000 0.000000
s 1
g Cube_Material
usemtl Material
f 51/1/1 52/2/1 17/3/1
f 61/4/1 9/5/1 62/6/1
f 16/7/2 56/8/2 32/7/2
f 63/9/2 34/10/2 67/11/2
f 12/12/2 65/13/2 68/14/2
f 60/15/2 59/16/2 49/7/2
f 100/17/2 50/12/2 69/14/2
f 68/14/2 36/18/2 22/19/2
f 12/12/2 67/11/2 35/12/2
f 48/20/3 25/20/4 84/21/5 88/21/6
f 15/22/7 4/23/8 91/24/9 96/25/10
f 4/23/1 8/26/1 90/27/1 91/24/1
f 36/18/2 74/28/2 77/29/2 22/19/2
f 99/30/11 98/30/12 37/31/13 43/31/13
f 95/32/2 92/33/2 39/34/2 5/35/2
f 91/24/1 90/27/1 6/36/1 2/37/1
f 11/38/14 94/39/15 95/40/16 5/41/17
f 7/42/2 82/43/2 80/44/2 40/45/2
f 73/46/18 75/47/19 6/48/20 11/38/14
f 53/49/21 52/50/22 28/51/23 30/52/24
f 67/53/25 66/54/26 13/55/27 35/56/28
f 74/57/29 73/46/18 11/38/14 5/41/17
f 47/58/2 48/20/2 88/21/2 89/44/2
f 55/59/30 18/60/31 32/7/32 56/8/33
f 90/61/34 8/62/35 14/63/36 94/39/15
f 11/38/14 6/48/20 90/61/34 94/39/15
f 86/64/2 84/21/2 25/20/2 31/65/2
f 54/66/2 31/65/2 25/20/2 58/15/2
f 60/15/2 48/20/2 47/58/2 59/16/2
f 13/55/37 64/67/38 65/68/39 35/56/40
f 47/58/41 89/44/42 80/44/43 26/58/44
f 40/45/45 80/44/43 89/44/42 42/45/46
f 27/69/1 83/70/1 87/71/1 28/72/1
f 1/73/2 71/74/2 76/75/2 37/31/2
f 51/76/47 17/77/48 18/60/31 55/59/30
f 45/78/2 100/17/2 69/14/2 46/19/2
f 54/79/49 53/49/21 30/52/24 31/80/50
f 43/31/13 37/31/13 76/75/51 78/75/52
f 54/66/2 58/15/2 16/7/2
f 16/7/2 57/16/2 56/8/2
f 32/7/2 54/66/2 16/7/2
f 63/9/2 21/78/2 34/10/2
f 12/12/2 35/12/2 65/13/2
f 95/32/2 7/42/2 40/45/2 92/33/2
f 97/81/2 98/30/2 38/82/2 3/83/2
f 5/35/2 39/34/2 77/29/2 74/28/2
f 34/10/2 21/78/2 76/75/2 71/74/2
f 82/43/2 33/84/2 26/58/2 80/44/2
f 3/83/2 38/82/2 84/21/2 86/64/2
f 42/45/2 41/82/2 99/30/2 93/33/2
f 44/34/2 43/31/2 78/75/2 79/29/2
f 20/85/1 19/86/1 61/4/1 62/6/1
f 64/67/38 61/87/53 19/88/54 24/89/55
f 42/45/2 89/44/2 88/21/2 41/82/2
f 63/9/56 100/17/57 45/78/58 21/78/59
f 59/16/60 47/58/41 26/58/44 57/16/61
f 51/1/1 27/69/1 28/72/1 52/2/1
f 15/22/7 96/25/10 97/81/62 3/83/63
f 79/29/2 78/75/2 45/78/2 46/19/2
f 56/8/2 57/16/2 26/58/2 33/84/2
f 29/90/64 55/59/30 56/91/33 33/92/65
f 18/60/66 17/77/67 52/50/22 53/49/21
f 72/93/1 75/94/1 19/86/1 20/85/1
f 27/95/68 51/76/47 55/59/30 29/90/64
f 79/29/69 46/19/70 22/19/70 77/29/71
f 62/96/72 9/97/73 13/55/27 66/54/26
f 72/98/74 20/99/75 23/100/76 70/101/77
f 58/15/78 60/15/79 49/7/80 16/7/80
f 49/7/81 59/16/60 57/16/61 16/7/81
f 100/17/57 63/9/56 12/12/82 50/12/82
f 68/14/2 65/13/2 36/18/2
f 12/12/2 63/9/2 67/11/2
f 2/37/1 6/36/1 75/94/1 72/93/1
f 13/55/37 9/97/83 61/87/53 64/67/38
f 34/102/84 23/100/76 66/54/26 67/53/25
f 20/99/75 62/96/72 66/54/26 23/100/76
f 2/37/85 72/98/74 70/101/77 10/103/86
f 78/75/52 76/75/51 21/78/59 45/78/58
f 44/34/87 79/29/69 77/29/71 39/34/87
f 83/104/88 27/95/68 29/90/64 81/105/89
f 85/106/90 87/107/91 4/23/8 15/22/7
f 32/108/92 18/60/66 53/49/21 54/79/49
f 85/106/90 15/22/7 3/83/63 86/109/93
f 25/20/4 48/20/3 60/15/79 58/15/78
f 10/103/86 70/101/77 71/110/94 1/73/95
f 24/89/55 19/88/54 75/47/19 73/46/18
f 36/111/96 24/89/55 73/46/18 74/57/29
f 46/19/70 69/14/97 68/14/98 22/19/70
f 70/101/77 23/100/76 34/102/84 71/110/94
f 93/33/2 99/30/2 43/31/2 44/34/2
f 8/112/35 83/104/88 81/105/89 14/113/36
f 7/114/99 14/113/36 81/105/89 82/115/100
f 30/52/24 28/51/23 87/107/91 85/106/90
f 30/52/24 85/106/90 86/109/93 31/80/50
f 93/33/101 92/33/102 40/45/45 42/45/46
f 64/67/38 24/89/55 36/111/96 65/68/39
f 97/81/2 1/73/2 37/31/2 98/30/2
f 82/115/100 81/105/89 29/90/64 33/92/65
f 87/71/1 83/70/1 8/26/1 4/23/1
f 91/24/9 2/37/85 10/103/86 96/25/10
f 41/82/103 38/82/104 98/30/12 99/30/11
f 96/25/10 10/103/86 1/73/95 97/81/62
f 94/39/15 14/63/36 7/116/99 95/40/16
f 38/82/104 41/82/103 88/21/6 84/21/5
f 69/14/97 50/12/105 12/12/105 68/14/98
f 44/34/87 39/34/87 92/33/102 93/33/101
o Cube.001
v 0.254739 1.355564 -0.390612
v 0.254738 9.390042 -0.390615
v -0.715798 1.355564 -2.989933
v 0.079644 9.359681 -0.859559
v 0.288685 1.355564 -0.403287
v 0.288684 9.398492 -0.403290
v -0.681853 1.355564 -3.002608
v 0.113589 9.368131 -0.872233
vn 0.9368 -0.0000 -0.3498
vn -0.9368 -0.0000 0.3498
vn -0.3661 0.2730 -0.8896
vn -0.2330 0.9722 0.0241
vn 0.3498 -0.0000 0.9368
vn -0.0000 -1.0000 -0.0000
vt 0.375000 0.750000
vt 0.375000 0.500000
vt 0.625000 0.500000
vt 0.625000 0.750000
vt 0.625000 0.250000
vt 0.375000 0.250000
vt 0.375000 0.000000
vt 0.625000 0.000000
vt 0.875000 0.750000
vt 0.875000 0.500000
vt 0.625000 1.000000
vt 0.375000 1.000000
vt 0.125000 0.750000
vt 0.125000 0.500000
s 1
g Cube.001_None
usemtl None
f 105/117/106 107/118/106 108/119/106 106/120/106
f 104/121/107 103/122/107 101/123/107 102/124/107
f 107/118/108 103/122/108 104/121/108 108/119/108
f 102/125/109 106/120/109 108/119/109 104/126/109
f 102/127/110 101/128/110 105/117/110 106/120/110
f 101/129/111 103/130/111 107/118/111 105/117/111
o Cube.002
v -0.323929 1.355564 0.437730
v -0.323929 8.111241 0.437727
v 0.666604 1.355564 3.029498
v -0.145227 8.080880 0.905309
v -0.290082 1.355564 0.424794
v -0.290082 8.111241 0.424791
v 0.700451 1.355564 3.016562
v -0.111380 8.080880 0.892373
vn 0.9341 -0.0000 -0.3570
vn 0.0216 0.9982 0.0565
vn 0.3382 0.3203 0.8849
vn -0.9341 -0.0000 0.3570
vn -0.0000 -1.0000 -0.0000
vn -0.3570 -0.0000 -0.9341
vt 0.625000 0.500000
vt 0.375000 0.500000
vt 0.375000 0.750000
vt 0.625000 0.750000
vt 0.875000 0.750000
vt 0.875000 0.500000
vt 0.625000 0.250000
vt 0.375000 0.250000
vt 0.625000 0.000000
vt 0.375000 0.000000
vt 0.125000 0.500000
vt 0.125000 0.750000
vt 0.375000 1.000000
vt 0.625000 1.000000
s 1
g Cube.002_None
usemtl None
f 116/131/112 115/132/112 113/133/112 114/134/112
f 110/135/113 112/136/113 116/131/113 114/134/113
f 116/131/114 112/137/114 111/138/114 115/132/114
f 112/137/115 110/139/115 109/140/115 111/138/115
f 113/133/116 115/132/116 111/141/116 109/142/116
f 114/134/117 113/133/117 109/143/117 110/144/117
o Cylinder
v 0.000000 0.329374 -0.115289
v 0.000000 9.722143 -0.115292
v 0.115289 0.329374 -0.000000
v 0.115289 9.722143 -0.000003
v 0.000000 0.329374 0.115289
v 0.000000 9.722143 0.115286
v -0.115289 0.329374 -0.000000
v -0.115289 9.722143 -0.000003
vn -0.3335 0.9428 -0.0000
vn -0.0000 0.9428 0.3334
vn -0.0000 -0.9428 0.3334
vn -0.3335 -0.9428 -0.0000
vn -0.0000 1.0000 -0.0000
vn -0.0000 -0.9428 -0.3335
vn -0.0000 0.9428 -0.3335
vn 0.3334 0.9428 -0.0000
vn 0.3334 -0.9428 -0.0000
vn -0.0000 -1.0000 -0.0000
vt 0.250000 0.500000
vt 0.500000 0.500000
vt 0.500000 1.000000
vt 0.250000 1.000000
vt 0.250000 0.010000
vt 0.490000 0.250000
vt 0.250000 0.490000
vt 0.010000 0.250000
vt 0.000000 1.000000
vt 0.000000 0.500000
vt 0.750000 0.500000
vt 0.750000 1.000000
vt 1.000000 0.500000
vt 1.000000 1.000000
vt 0.510000 0.250000
vt 0.750000 0.490000
vt 0.990000 0.250000
vt 0.750000 0.010000
s 1
g Cylinder_None
usemtl None
f 123/145/118 121/146/119 122/147/120 124/148/121
f 122/149/122 120/150/122 118/151/122 124/152/122
f 118/153/123 117/154/124 123/145/118 124/148/121
f 121/146/119 119/155/125 120/156/126 122/147/120
f 119/155/125 117/157/124 118/158/123 120/156/126
f 123/159/127 117/160/127 119/161/127 121/162/127
