# Blender v2.91.2 OBJ File: 'ship.blend'
# www.blender.org
mtllib ship0.mtl
o Cube
v 1.000000 1.000000 -1.000000
v 0.340047 -1.000000 -1.000000
v 1.000000 1.000000 1.000000
v 0.340047 -1.000000 1.000000
v -1.000000 1.000000 -1.000000
v -0.340047 -1.000000 -1.000000
v -1.000000 1.000000 1.000000
v -0.340047 -1.000000 1.000000
v 0.000000 -1.000000 -5.778605
v 1.000000 0.000000 -1.000000
v -1.000000 0.000000 -1.000000
v 0.000000 1.000000 -5.778605
v 0.000000 0.000000 -5.778605
v -1.000000 0.000000 1.000000
v 1.000000 0.000000 1.000000
v 0.000000 1.000000 5.778605
v 0.000000 -1.000000 5.778605
v 0.000000 0.000000 5.778605
vt 0.625000 0.750000
vt 0.875000 0.750000
vt 0.750000 0.750000
vt 0.125000 0.750000
vt 0.375000 0.750000
vt 0.250000 0.750000
vt 0.125000 0.500000
vt 0.250000 0.500000
vt 0.375000 0.500000
vt 0.625000 0.500000
vt 0.750000 0.500000
vt 0.875000 0.500000
vt 0.500000 0.875000
vt 0.625000 0.875000
vt 0.625000 1.000000
vt 0.500000 1.000000
vt 0.500000 0.000000
vt 0.625000 0.000000
vt 0.625000 0.250000
vt 0.500000 0.250000
vt 0.500000 0.500000
vt 0.500000 0.750000
vt 0.500000 0.375000
vt 0.625000 0.375000
vt 0.375000 0.375000
vt 0.375000 0.250000
vt 0.375000 0.875000
vt 0.375000 1.000000
vt 0.375000 0.000000
vn 0.0000 1.0000 0.0000
vn 0.0000 -1.0000 0.0000
vn 0.0000 -0.6779 0.7351
vn 0.0000 0.5397 0.8418
vn -0.7250 0.6846 0.0750
vn -0.9714 -0.2210 0.0862
vn -0.7250 0.6846 -0.0750
vn -0.9714 -0.2210 -0.0862
vn 0.9714 -0.2210 -0.0862
vn 0.7250 0.6846 -0.0750
vn 0.7250 0.6846 0.0750
vn 0.9714 -0.2210 0.0862
vn 0.0000 -0.6779 -0.7351
vn 0.0000 0.5397 -0.8418
vn 0.0000 -0.9376 -0.3478
vn 0.5369 -0.8426 -0.0403
vn -0.5369 -0.8426 -0.0403
vn 0.0000 -0.9376 0.3478
vn -0.5369 -0.8426 0.0403
vn 0.5369 -0.8426 0.0403
usemtl Material
s off
f 3/1/1 7/2/1 16/3/1
f 8/4/2 4/5/2 17/6/2
f 6/7/2 9/8/2 2/9/2
f 8/4/2 6/7/2 2/9/2 4/5/2
f 1/10/1 12/11/1 5/12/1
f 3/1/1 1/10/1 5/12/1 7/2/1
s 1
f 18/13/3 16/14/4 7/15/5 14/16/6
f 14/17/6 7/18/5 5/19/7 11/20/8
f 10/21/9 1/10/10 3/1/11 15/22/12
f 13/23/13 12/24/14 1/10/10 10/21/9
f 9/25/15 13/23/13 10/21/9 2/9/16
f 6/26/17 11/20/8 13/23/13 9/25/15
f 11/20/8 5/19/7 12/24/14 13/23/13
f 17/27/18 18/13/3 14/16/6 8/28/19
f 4/5/20 15/22/12 18/13/3 17/27/18
f 15/22/12 3/1/11 16/14/4 18/13/3
f 8/29/19 14/17/6 11/20/8 6/26/17
f 2/9/16 10/21/9 15/22/12 4/5/20
o Cube.001
v -0.137755 1.355564 -0.345224
v -0.137755 9.390042 -0.345224
v -0.137755 1.355564 -3.119825
v -0.137755 9.359681 -0.845790
v -0.031104 1.355564 -0.345224
v -0.031104 9.398492 -0.345224
v -0.031104 1.355564 -3.119825
v -0.031104 9.368131 -0.845790
vt 0.375000 0.000000
vt 0.625000 0.000000
vt 0.625000 0.250000
vt 0.375000 0.250000
vt 0.625000 0.500000
vt 0.375000 0.500000
vt 0.625000 0.750000
vt 0.375000 0.750000
vt 0.625000 1.000000
vt 0.375000 1.000000
vt 0.125000 0.500000
vt 0.125000 0.750000
vt 0.875000 0.500000
vt 0.875000 0.750000
vn -1.0000 -0.0000 0.0000
vn -0.0108 0.2731 -0.9619
vn 1.0000 0.0000 0.0000
vn 0.0000 0.0000 1.0000
vn 0.0000 -1.0000 0.0000
vn -0.0788 0.9951 -0.0604
usemtl None
s off
f 19/30/21 20/31/21 22/32/21 21/33/21
f 21/33/22 22/32/22 26/34/22 25/35/22
f 25/35/23 26/34/23 24/36/23 23/37/23
f 23/37/24 24/36/24 20/38/24 19/39/24
f 21/40/25 25/35/25 23/37/25 19/41/25
f 26/34/26 22/42/26 20/43/26 24/36/26
o Cylinder
v 0.000000 1.000000 -0.115289
v 0.000000 9.722143 -0.115289
v 0.115289 1.000000 0.000000
v 0.115289 9.722143 0.000000
v -0.000000 1.000000 0.115289
v -0.000000 9.722143 0.115289
v -0.115289 1.000000 -0.000000
v -0.115289 9.722143 -0.000000
vt 0.490000 0.250000
vt 0.250000 0.490000
vt 0.010000 0.250000
vt 0.250000 0.010000
vt 0.750000 0.490000
vt 0.990000 0.250000
vt 0.750000 0.010000
vt 0.510000 0.250000
vt 1.000000 0.500000
vt 1.000000 1.000000
vt 0.750000 1.000000
vt 0.750000 0.500000
vt 0.500000 1.000000
vt 0.500000 0.500000
vt 0.250000 1.000000
vt 0.250000 0.500000
vt 0.000000 1.000000
vt 0.000000 0.500000
vn 0.0000 1.0000 0.0000
vn 0.0000 -1.0000 0.0000
vn 0.0000 -0.5773 -0.8165
vn 0.0000 0.5773 -0.8165
vn 0.8165 0.5773 0.0000
vn 0.8165 -0.5773 0.0000
vn 0.0000 0.5773 0.8165
vn 0.0000 -0.5773 0.8165
vn -0.8165 0.5773 0.0000
vn -0.8165 -0.5773 0.0000
usemtl None
s off
f 30/44/27 28/45/27 34/46/27 32/47/27
f 27/48/28 29/49/28 31/50/28 33/51/28
s 1
f 27/52/29 28/53/30 30/54/31 29/55/32
f 29/55/32 30/54/31 32/56/33 31/57/34
f 31/57/34 32/56/33 34/58/35 33/59/36
f 33/59/36 34/58/35 28/60/30 27/61/29
o Cube.002
v -0.137755 1.355564 0.377307
v -0.137755 8.111241 0.377307
v -0.137755 1.355564 3.151909
v -0.137755 8.080880 0.877874
v -0.031104 1.355564 0.377307
v -0.031104 8.111241 0.377307
v -0.031104 1.355564 3.151909
v -0.031104 8.080880 0.877874
vt 0.375000 0.000000
vt 0.375000 0.250000
vt 0.625000 0.250000
vt 0.625000 0.000000
vt 0.375000 0.500000
vt 0.625000 0.500000
vt 0.375000 0.750000
vt 0.625000 0.750000
vt 0.375000 1.000000
vt 0.625000 1.000000
vt 0.125000 0.500000
vt 0.125000 0.750000
vt 0.875000 0.750000
vt 0.875000 0.500000
vn -1.0000 0.0000 0.0000
vn 0.0000 0.3203 0.9473
vn 1.0000 -0.0000 0.0000
vn 0.0000 0.0000 -1.0000
vn 0.0000 -1.0000 0.0000
vn 0.0000 0.9982 0.0605
usemtl None
s off
f 35/62/37 37/63/37 38/64/37 36/65/37
f 37/63/38 41/66/38 42/67/38 38/64/38
f 41/66/39 39/68/39 40/69/39 42/67/39
f 39/68/40 35/70/40 36/71/40 40/69/40
f 37/72/41 35/73/41 39/68/41 41/66/41
f 42/67/42 40/69/42 36/74/42 38/75/42
