# Blender v3.1.0 Alpha OBJ File: ''
# www.blender.org
mtllib skate0.mtl
v -100.000000 -0.400012 100.000000
v -100.000000 -0.000012 100.000000
v -100.000000 0.000012 -100.000000
v -100.000000 -0.399988 -100.000000
v 100.000000 0.000012 -100.000000
v 100.000000 -0.399988 -100.000000
v 100.000000 -0.000012 100.000000
v 100.000000 -0.400012 100.000000
vt 0.375000 0.000000
vt 0.625000 0.000000
vt 0.625000 0.250000
vt 0.375000 0.250000
vt 0.625000 0.500000
vt 0.375000 0.500000
vt 0.625000 0.750000
vt 0.375000 0.750000
vt 0.625000 1.000000
vt 0.375000 1.000000
vt 0.125000 0.500000
vt 0.125000 0.750000
vt 0.875000 0.500000
vt 0.875000 0.750000
vn -1.0000 0.0000 0.0000
vn 0.0000 0.0000 -1.0000
vn 1.0000 0.0000 0.0000
vn 0.0000 0.0000 1.0000
vn 0.0000 -1.0000 -0.0000
vn 0.0000 1.0000 0.0000
g object2_object2_Material.002
usemtl Material.002
s 1
f 1/1/1 2/2/1 3/3/1 4/4/1
f 4/4/2 3/3/2 5/5/2 6/6/2
f 6/6/3 5/5/3 7/7/3 8/8/3
f 8/8/4 7/7/4 2/9/4 1/10/4
f 4/11/5 6/6/5 8/8/5 1/12/5
f 5/5/6 3/13/6 2/14/6 7/7/6
v -1.000000 -0.000000 1.000000
v -1.000000 2.000000 1.000000
v -1.000000 2.000000 -1.000000
v -1.000000 0.000000 -1.000000
v 1.000000 2.000000 -1.000000
v 1.000000 0.000000 -1.000000
v 1.000000 2.000000 1.000000
v 1.000000 -0.000000 1.000000
vt 0.375000 0.000000
vt 0.625000 0.000000
vt 0.625000 0.250000
vt 0.375000 0.250000
vt 0.625000 0.500000
vt 0.375000 0.500000
vt 0.625000 0.750000
vt 0.375000 0.750000
vt 0.625000 1.000000
vt 0.375000 1.000000
vt 0.125000 0.500000
vt 0.125000 0.750000
vt 0.875000 0.500000
vt 0.875000 0.750000
vn -1.0000 -0.0000 0.0000
vn 0.0000 0.0000 -1.0000
vn 1.0000 0.0000 0.0000
vn 0.0000 -0.0000 1.0000
vn 0.0000 -1.0000 -0.0000
vn 0.0000 1.0000 0.0000
g object3_object3_Material.001
usemtl Material.001
s 1
f 9/15/7 10/16/7 11/17/7 12/18/7
f 12/18/8 11/17/8 13/19/8 14/20/8
f 14/20/9 13/19/9 15/21/9 16/22/9
f 16/22/10 15/21/10 10/23/10 9/24/10
f 12/25/11 14/20/11 16/22/11 9/26/11
f 13/19/12 11/27/12 10/28/12 15/21/12
v 17.000000 -0.000000 10.000000
v 17.000000 2.000000 10.000000
v 17.000000 2.000000 -10.000000
v 17.000000 0.000000 -10.000000
v 19.000000 2.000000 -10.000000
v 19.000000 0.000000 -10.000000
v 19.000000 2.000000 10.000000
v 19.000000 -0.000000 10.000000
vt 0.375000 0.000000
vt 0.625000 0.000000
vt 0.625000 0.250000
vt 0.375000 0.250000
vt 0.625000 0.500000
vt 0.375000 0.500000
vt 0.625000 0.750000
vt 0.375000 0.750000
vt 0.625000 1.000000
vt 0.375000 1.000000
vt 0.125000 0.500000
vt 0.125000 0.750000
vt 0.875000 0.500000
vt 0.875000 0.750000
vn -1.0000 0.0000 0.0000
vn 0.0000 0.0000 -1.0000
vn 1.0000 0.0000 0.0000
vn 0.0000 0.0000 1.0000
vn 0.0000 -1.0000 -0.0000
vn 0.0000 1.0000 0.0000
g object4_object4_Material.003
usemtl Material.003
s 1
f 17/29/13 18/30/13 19/31/13 20/32/13
f 20/32/14 19/31/14 21/33/14 22/34/14
f 22/34/15 21/33/15 23/35/15 24/36/15
f 24/36/16 23/35/16 18/37/16 17/38/16
f 20/39/17 22/34/17 24/36/17 17/40/17
f 21/33/18 19/41/18 18/42/18 23/35/18
v -3.008404 -2.211979 -15.527877
v -3.008404 -0.266969 -15.062112
v -3.008404 5.379782 -38.642681
v -3.008404 3.434772 -39.108448
v 21.238846 5.379782 -38.642681
v 21.238846 3.434772 -39.108448
v 21.238846 -0.266969 -15.062112
v 21.238846 -2.211979 -15.527877
vt 0.375000 0.000000
vt 0.625000 0.000000
vt 0.625000 0.250000
vt 0.375000 0.250000
vt 0.625000 0.500000
vt 0.375000 0.500000
vt 0.625000 0.750000
vt 0.375000 0.750000
vt 0.625000 1.000000
vt 0.375000 1.000000
vt 0.125000 0.500000
vt 0.125000 0.750000
vt 0.875000 0.500000
vt 0.875000 0.750000
vn -1.0000 -0.0000 0.0000
vn 0.0000 0.2329 -0.9725
vn 1.0000 -0.0000 0.0000
vn 0.0000 -0.2329 0.9725
vn 0.0000 -0.9725 -0.2329
vn 0.0000 0.9725 0.2329
g object5_object5_None
usemtl None
s off
f 25/43/19 26/44/19 27/45/19 28/46/19
f 28/46/20 27/45/20 29/47/20 30/48/20
f 30/48/21 29/47/21 31/49/21 32/50/21
f 32/50/22 31/49/22 26/51/22 25/52/22
f 28/53/23 30/48/23 32/50/23 25/54/23
f 29/47/24 27/55/24 26/56/24 31/49/24
v 4.000000 3.082811 -37.687851
v 4.000000 5.018651 -38.190365
v 4.000000 -0.006500 -57.548767
v 4.000000 -1.942343 -57.046253
v 6.000000 -0.006500 -57.548767
v 6.000000 -1.942343 -57.046253
v 6.000000 5.018651 -38.190365
v 6.000000 3.082811 -37.687851
vt 0.375000 0.000000
vt 0.625000 0.000000
vt 0.625000 0.250000
vt 0.375000 0.250000
vt 0.625000 0.500000
vt 0.375000 0.500000
vt 0.625000 0.750000
vt 0.375000 0.750000
vt 0.625000 1.000000
vt 0.375000 1.000000
vt 0.125000 0.500000
vt 0.125000 0.750000
vt 0.875000 0.500000
vt 0.875000 0.750000
vn -1.0000 0.0000 0.0000
vn 0.0000 -0.2513 -0.9679
vn 1.0000 0.0000 0.0000
vn 0.0000 0.2513 0.9679
vn 0.0000 -0.9679 0.2513
vn 0.0000 0.9679 -0.2513
g object6_object6_Material.003
usemtl Material.003
s 1
f 33/57/25 34/58/25 35/59/25 36/60/25
f 36/60/26 35/59/26 37/61/26 38/62/26
f 38/62/27 37/61/27 39/63/27 40/64/27
f 40/64/28 39/63/28 34/65/28 33/66/28
f 36/67/29 38/62/29 40/64/29 33/68/29
f 37/61/30 35/69/30 34/70/30 39/63/30
v -21.596405 -1.111553 5.191153
v -21.596405 9.270754 5.191154
v -21.596405 9.270754 -5.191153
v -21.596405 -1.111553 -5.191153
v -16.344170 3.792140 -5.191153
v -15.736351 2.654992 -5.191153
v -11.214100 -0.174962 5.191153
v -11.214100 -1.111553 5.191153
v -11.214100 -1.111553 -5.191153
v -11.214100 -0.174962 -5.191153
v -15.736351 2.654992 5.191153
v -16.344170 3.792139 5.191153
v -16.106585 9.270754 -5.191153
v -16.106585 9.270754 5.191154
v -11.550629 -0.141817 -5.191153
v -11.550629 -0.141817 5.191153
v -12.784505 0.232476 -5.191153
v -12.784505 0.232476 5.191153
v -13.921652 0.840293 -5.191153
v -13.921652 0.840293 5.191153
v -14.918367 1.658277 -5.191153
v -14.918367 1.658277 5.191153
v -16.718460 5.026014 -5.191153
v -16.718460 5.026014 5.191153
v -16.844845 6.309204 -5.191153
v -16.844845 6.309204 5.191154
v -16.718460 7.592391 -5.191153
v -16.718460 7.592391 5.191154
v -16.344168 8.826267 -5.191153
v -16.344168 8.826267 5.191154
vt 0.375000 0.000000
vt 0.625000 0.000000
vt 0.625000 0.250000
vt 0.375000 0.250000
vt 0.493078 0.376471
vt 0.465696 0.391107
vt 0.397553 0.750000
vt 0.375000 0.750000
vt 0.375000 0.500000
vt 0.397553 0.500000
vt 0.375000 1.000000
vt 0.465696 0.858893
vt 0.493078 0.873529
vt 0.125000 0.500000
vt 0.125000 0.750000
vt 0.742808 0.500000
vt 0.875000 0.500000
vt 0.875000 0.750000
vt 0.742808 0.750000
vt 0.476946 0.552689
vt 0.468750 0.552690
vt 0.468750 0.947310
vt 0.476946 0.947310
vt 0.398351 0.491897
vt 0.407363 0.462186
vt 0.625000 0.382192
vt 0.614297 0.376471
vt 0.584586 0.367458
vt 0.522789 0.367458
vt 0.553688 0.364415
vt 0.421999 0.434804
vt 0.441696 0.410803
vt 0.614297 0.873529
vt 0.625000 0.867808
vt 0.625000 1.000000
vt 0.407363 0.787814
vt 0.398351 0.758103
vt 0.584586 0.882542
vt 0.522789 0.882542
vt 0.553688 0.885585
vt 0.421999 0.815196
vt 0.441696 0.839197
vt 0.437500 0.552690
vt 0.437500 0.947310
vt 0.406250 0.552690
vt 0.406250 0.947310
vt 0.375000 0.552690
vt 0.375000 0.947310
vt 0.343750 0.552690
vt 0.343750 0.947310
vt 0.312500 0.552690
vt 0.312500 0.947310
vt 0.281250 0.552690
vt 0.281250 0.947310
vt 0.250000 0.552690
vt 0.250000 0.947310
vt 0.218750 0.552690
vt 0.218750 0.947310
vt 0.187500 0.552690
vt 0.187500 0.947310
vt 0.175285 0.947310
vt 0.175285 0.552690
vn -1.0000 0.0000 0.0000
vn 0.0000 0.0000 -1.0000
vn 1.0000 0.0000 0.0000
vn 0.0000 0.0000 1.0000
vn 0.0000 -1.0000 -0.0000
vn 0.0000 1.0000 0.0000
vn 0.0980 0.9952 0.0000
vn 0.2903 0.9569 0.0000
vn 0.3827 0.9239 0.0000
vn 0.5556 0.8315 0.0000
vn 0.7071 0.7071 0.0000
vn 0.8315 0.5556 0.0000
vn 0.9239 0.3827 0.0000
vn 0.9808 0.1951 0.0000
vn 0.9808 -0.1951 0.0000
vn 0.9239 -0.3827 0.0000
vn 0.8819 -0.4714 0.0000
g object7_object7_None
usemtl None
s off
f 41/71/31 42/72/31 43/73/31 44/74/31
f 44/74/32 45/75/32 46/76/32
f 47/77/33 48/78/33 49/79/33 50/80/33
f 41/81/34 51/82/34 52/83/34
f 44/84/35 49/79/35 48/78/35 41/85/35
f 53/86/36 43/87/36 42/88/36 54/89/36
f 50/90/37 55/91/37 56/92/37 47/93/37
f 50/80/32 49/79/32 55/94/32
f 49/79/32 44/74/32 57/95/32
f 55/94/32 49/79/32 57/95/32
f 43/73/32 53/96/32 69/97/32
f 43/73/32 69/97/32 67/98/32
f 44/74/32 43/73/32 63/99/32
f 43/73/32 67/98/32 65/100/32
f 43/73/32 65/100/32 63/99/32
f 59/101/32 57/95/32 44/74/32
f 61/102/32 59/101/32 44/74/32
f 44/74/32 63/99/32 45/75/32
f 46/76/32 61/102/32 44/74/32
f 70/103/34 54/104/34 42/105/34
f 41/81/34 48/78/34 58/106/34
f 48/78/34 47/77/34 56/107/34
f 48/78/34 56/107/34 58/106/34
f 70/103/34 42/105/34 68/108/34
f 42/105/34 41/81/34 64/109/34
f 68/108/34 42/105/34 66/110/34
f 66/110/34 42/105/34 64/109/34
f 41/81/34 58/106/34 60/111/34
f 41/81/34 60/111/34 62/112/34
f 41/81/34 62/112/34 51/82/34
f 52/83/34 64/109/34 41/81/34
s 1
f 56/92/38 55/91/38 57/113/39 58/114/39
f 58/114/39 57/113/39 59/115/40 60/116/40
f 60/116/40 59/115/40 61/117/41 62/118/41
f 61/117/41 46/119/42 51/120/42 62/118/41
f 46/119/42 45/121/43 52/122/43 51/120/42
f 45/121/43 63/123/44 64/124/44 52/122/43
f 63/123/44 65/125/33 66/126/33 64/124/44
f 65/125/33 67/127/45 68/128/45 66/126/33
f 67/127/45 69/129/46 70/130/46 68/128/45
f 54/131/47 70/130/46 69/129/46 53/132/47
v 17.000000 3.614312 30.604347
v 17.000000 5.583928 30.257050
v 17.000000 2.110966 10.560895
v 17.000000 0.141350 10.908191
v 19.000000 2.110966 10.560895
v 19.000000 0.141350 10.908191
v 19.000000 5.583928 30.257050
v 19.000000 3.614312 30.604347
vt 0.375000 0.000000
vt 0.625000 0.000000
vt 0.625000 0.250000
vt 0.375000 0.250000
vt 0.625000 0.500000
vt 0.375000 0.500000
vt 0.625000 0.750000
vt 0.375000 0.750000
vt 0.625000 1.000000
vt 0.375000 1.000000
vt 0.125000 0.500000
vt 0.125000 0.750000
vt 0.875000 0.500000
vt 0.875000 0.750000
vn -1.0000 0.0000 0.0000
vn 0.0000 -0.1736 -0.9848
vn 1.0000 -0.0000 0.0000
vn 0.0000 0.1736 0.9848
vn 0.0000 -0.9848 0.1736
vn 0.0000 0.9848 -0.1736
g object4.001_object4.001_Material.003
usemtl Material.003
s 1
f 71/133/48 72/134/48 73/135/48 74/136/48
f 74/136/49 73/135/49 75/137/49 76/138/49
f 76/138/50 75/137/50 77/139/50 78/140/50
f 78/140/51 77/139/51 72/141/51 71/142/51
f 74/143/52 76/138/52 78/140/52 71/144/52
f 75/137/53 73/145/53 72/146/53 77/139/53
v 7.569499 -1.111553 36.788219
v 7.569499 9.270754 36.788219
v 7.569499 9.270754 26.405912
v 7.569499 -1.111553 26.405912
v 12.821734 3.792140 26.405912
v 13.429553 2.654992 26.405912
v 17.951805 -0.174962 36.788219
v 17.951805 -1.111553 36.788219
v 17.951805 -1.111553 26.405912
v 17.951805 -0.174962 26.405912
v 13.429553 2.654992 36.788219
v 12.821734 3.792139 36.788219
v 13.059319 9.270754 26.405912
v 13.059319 9.270754 36.788219
v 17.615276 -0.141817 26.405912
v 17.615276 -0.141817 36.788219
v 16.381399 0.232476 26.405912
v 16.381399 0.232476 36.788219
v 15.244252 0.840293 26.405912
v 15.244252 0.840293 36.788219
v 14.247537 1.658277 26.405912
v 14.247537 1.658277 36.788219
v 12.447444 5.026014 26.405912
v 12.447444 5.026013 36.788219
v 12.321059 6.309204 26.405912
v 12.321059 6.309204 36.788219
v 12.447444 7.592391 26.405912
v 12.447444 7.592391 36.788219
v 12.821736 8.826267 26.405912
v 12.821736 8.826267 36.788219
vt 0.375000 0.000000
vt 0.625000 0.000000
vt 0.625000 0.250000
vt 0.375000 0.250000
vt 0.493078 0.376471
vt 0.465696 0.391107
vt 0.397553 0.750000
vt 0.375000 0.750000
vt 0.375000 0.500000
vt 0.397553 0.500000
vt 0.375000 1.000000
vt 0.465696 0.858893
vt 0.493078 0.873529
vt 0.125000 0.500000
vt 0.125000 0.750000
vt 0.742808 0.500000
vt 0.875000 0.500000
vt 0.875000 0.750000
vt 0.742808 0.750000
vt 0.476946 0.552689
vt 0.468750 0.552690
vt 0.468750 0.947310
vt 0.476946 0.947310
vt 0.398351 0.491897
vt 0.407363 0.462186
vt 0.625000 0.382192
vt 0.614297 0.376471
vt 0.584586 0.367458
vt 0.522789 0.367458
vt 0.553688 0.364415
vt 0.421999 0.434804
vt 0.441696 0.410803
vt 0.614297 0.873529
vt 0.625000 0.867808
vt 0.625000 1.000000
vt 0.407363 0.787814
vt 0.398351 0.758103
vt 0.584586 0.882542
vt 0.522789 0.882542
vt 0.553688 0.885585
vt 0.421999 0.815196
vt 0.441696 0.839197
vt 0.437500 0.552690
vt 0.437500 0.947310
vt 0.406250 0.552690
vt 0.406250 0.947310
vt 0.375000 0.552690
vt 0.375000 0.947310
vt 0.343750 0.552690
vt 0.343750 0.947310
vt 0.312500 0.552690
vt 0.312500 0.947310
vt 0.281250 0.552690
vt 0.281250 0.947310
vt 0.250000 0.552690
vt 0.250000 0.947310
vt 0.218750 0.552690
vt 0.218750 0.947310
vt 0.187500 0.552690
vt 0.187500 0.947310
vt 0.175285 0.947310
vt 0.175285 0.552690
vn -1.0000 0.0000 0.0000
vn -0.0000 0.0000 -1.0000
vn 1.0000 0.0000 0.0000
vn -0.0000 0.0000 1.0000
vn 0.0000 -1.0000 0.0000
vn 0.0000 1.0000 0.0000
vn 0.0980 0.9952 0.0000
vn 0.2903 0.9569 0.0000
vn 0.3827 0.9239 0.0000
vn 0.5556 0.8315 0.0000
vn 0.7071 0.7071 0.0000
vn 0.8315 0.5556 0.0000
vn 0.9239 0.3827 0.0000
vn 0.9808 0.1951 0.0000
vn 0.9808 -0.1951 0.0000
vn 0.9239 -0.3827 0.0000
vn 0.8819 -0.4714 0.0000
g object7.001_object7.001_None
usemtl None
s off
f 79/147/54 80/148/54 81/149/54 82/150/54
f 82/150/55 83/151/55 84/152/55
f 85/153/56 86/154/56 87/155/56 88/156/56
f 79/157/57 89/158/57 90/159/57
f 82/160/58 87/155/58 86/154/58 79/161/58
f 91/162/59 81/163/59 80/164/59 92/165/59
f 88/166/60 93/167/60 94/168/60 85/169/60
f 88/156/55 87/155/55 93/170/55
f 87/155/55 82/150/55 95/171/55
f 93/170/55 87/155/55 95/171/55
f 81/149/55 91/172/55 107/173/55
f 81/149/55 107/173/55 105/174/55
f 82/150/55 81/149/55 101/175/55
f 81/149/55 105/174/55 103/176/55
f 81/149/55 103/176/55 101/175/55
f 97/177/55 95/171/55 82/150/55
f 99/178/55 97/177/55 82/150/55
f 82/150/55 101/175/55 83/151/55
f 84/152/55 99/178/55 82/150/55
f 108/179/57 92/180/57 80/181/57
f 79/157/57 86/154/57 96/182/57
f 86/154/57 85/153/57 94/183/57
f 86/154/57 94/183/57 96/182/57
f 108/179/57 80/181/57 106/184/57
f 80/181/57 79/157/57 102/185/57
f 106/184/57 80/181/57 104/186/57
f 104/186/57 80/181/57 102/185/57
f 79/157/57 96/182/57 98/187/57
f 79/157/57 98/187/57 100/188/57
f 79/157/57 100/188/57 89/158/57
f 90/159/57 102/185/57 79/157/57
s 1
f 94/168/61 93/167/61 95/189/62 96/190/62
f 96/190/62 95/189/62 97/191/63 98/192/63
f 98/192/63 97/191/63 99/193/64 100/194/64
f 99/193/64 84/195/65 89/196/65 100/194/64
f 84/195/65 83/197/66 90/198/66 89/196/65
f 83/197/66 101/199/67 102/200/67 90/198/66
f 101/199/67 103/201/56 104/202/56 102/200/67
f 103/201/56 105/203/68 106/204/68 104/202/56
f 105/203/68 107/205/69 108/206/69 106/204/68
f 92/207/70 108/206/69 107/205/69 91/208/70
