# Blender 4.2.1 LTS
# www.blender.org
mtllib compact0.mtl
o Glass
v 1.387804 0.134555 -0.308329
v 1.241228 0.139782 -0.562346
v 1.265632 0.198362 -0.495092
v 1.327858 0.155361 -0.404065
v 0.728758 0.335102 -0.143094
v 0.212437 0.592413 -0.390480
v 0.217582 0.606296 0.230686
v 0.692289 0.321790 -0.352248
v -0.050971 0.298490 -0.516667
v -0.110951 0.312028 -0.516213
v -0.575379 0.337418 -0.512413
v -0.228825 0.611371 -0.404125
v -0.222520 0.306731 -0.517315
v -0.572660 0.586357 -0.419257
v 1.218118 0.216058 -0.521181
v 1.216384 0.152405 -0.572564
v -1.077617 0.360925 -0.352239
v 0.645883 0.325840 -0.439599
v 0.607452 0.339446 -0.462094
v -0.924476 0.552165 -0.322723
v -0.925227 0.538192 -0.357116
v -1.058257 0.374323 -0.376253
v -0.074737 0.603238 -0.404793
v 0.569500 0.309681 -0.515580
v 0.556925 0.295999 -0.519277
v 0.563937 0.333105 -0.508092
v -0.211482 0.599265 -0.406691
v -0.562029 0.319430 -0.513273
v -0.108072 0.586533 -0.405543
v -0.559506 0.618784 -0.412365
v -0.206331 0.323834 -0.512253
v 0.188174 0.564692 -0.434456
v 0.073647 0.597908 -0.414137
v -0.939761 0.518457 -0.381044
v -1.026565 0.412345 -0.392178
v 1.331645 0.131111 -0.453447
v 1.208154 0.204938 -0.543510
v -0.874405 0.542575 -0.419294
v -0.659859 0.605511 -0.405388
v -0.626891 0.591861 -0.400095
v -0.663803 0.331627 -0.514965
v -0.959065 0.350663 -0.503875
v -0.935787 0.338076 -0.509524
v -0.901648 0.515838 -0.440501
v -0.635950 0.344832 -0.501879
v -1.155941 0.210609 -0.374477
v -1.151597 0.208231 -0.388058
v -1.118604 0.276483 -0.383357
v -1.122717 0.276785 -0.395670
v -1.111064 0.210478 -0.489593
v -1.103968 0.226936 -0.508341
v -1.171980 0.220096 -0.262195
v -1.178845 0.210478 -0.281773
v -1.152872 0.277154 -0.265074
v -1.076595 0.267943 -0.488591
v 1.387804 0.134555 0.308329
v 1.241227 0.139782 0.562346
v 1.265632 0.198362 0.495092
v 1.327856 0.155363 0.404069
v 0.727268 0.335213 0.158377
v 0.692289 0.321790 0.352248
v -0.050971 0.298490 0.516667
v -0.110951 0.312028 0.516213
v -0.575379 0.337418 0.512413
v -0.228825 0.611371 0.404125
v -0.222520 0.306731 0.517315
v -0.572660 0.586357 0.419257
v 1.218118 0.216059 0.521180
v 1.216388 0.152407 0.572570
v -1.090567 0.358569 0.139672
v -1.076733 0.365446 0.364816
v 0.645883 0.325840 0.439599
v 0.607452 0.339446 0.462094
v -0.923126 0.551362 0.321788
v -0.925193 0.538161 0.357111
v -0.074737 0.603238 0.404793
v 0.569500 0.309681 0.515580
v 0.556925 0.295999 0.519276
v 0.563937 0.333106 0.508094
v -0.211482 0.599265 0.406691
v -0.562029 0.319430 0.513273
v -0.108072 0.586533 0.405543
v -0.559506 0.618784 0.412365
v -0.206331 0.323834 0.512253
v 0.188174 0.564692 0.434456
v 0.073647 0.597908 0.414137
v -0.939761 0.518457 0.381044
v -1.026565 0.412345 0.392178
v 1.331645 0.131111 0.453448
v 1.208154 0.204938 0.543510
v -0.873506 0.544816 0.421327
v -0.660083 0.605320 0.405062
v -0.626891 0.591860 0.400094
v -0.663804 0.331631 0.514982
v -0.901895 0.515436 0.441864
v -0.935736 0.338137 0.509712
v -0.959065 0.350670 0.503891
v -0.635950 0.344832 0.501879
v 0.218634 0.595362 0.393199
v -1.155899 0.210587 0.374473
v -1.151597 0.208231 0.388057
v -1.118032 0.276138 0.383161
v -1.122718 0.276785 0.395669
v -1.111064 0.210478 0.489593
v -1.103968 0.226936 0.508341
v -1.171979 0.220097 0.262194
v -1.178845 0.210478 0.281773
v -1.152871 0.277154 0.265074
v -1.076595 0.267943 0.488591
vn -0.7617 0.6470 0.0341
vn -0.7624 0.6470 0.0131
vn -0.7586 0.6458 0.0865
vn -0.7637 0.6425 0.0632
vn -0.7787 0.6194 -0.0995
vn -0.7640 0.6367 -0.1041
vn -0.7494 0.6337 -0.1919
vn -0.7585 0.6349 -0.1469
vn -0.0287 0.3184 -0.9475
vn -0.0095 0.2926 -0.9562
vn 0.0158 0.3328 -0.9429
vn 0.0998 0.3661 0.9252
vn 0.1338 0.3785 0.9159
vn -0.0280 0.4243 0.9051
vn -0.0184 0.3653 0.9307
vn -0.8356 0.3772 0.3993
vn -0.8427 0.5085 0.1770
vn -0.8509 0.4494 0.2721
vn -0.8412 0.3048 0.4466
vn -0.0175 0.3460 0.9381
vn 0.1008 0.3486 0.9318
vn 0.0495 0.3431 0.9380
vn 0.0574 0.3505 -0.9348
vn -0.0840 0.3537 -0.9316
vn -0.0572 0.3447 -0.9370
vn 0.4687 0.8652 0.1780
vn 0.4758 0.8771 0.0654
vn 0.4924 0.8692 0.0446
vn -0.7698 0.6357 -0.0567
vn -0.7864 0.5089 -0.3501
vn 0.1008 0.3486 -0.9318
vn -0.0842 0.3552 -0.9310
vn -0.0172 0.3464 -0.9379
vn 0.0235 0.2835 0.9587
vn 0.1100 0.3341 0.9361
vn 0.0495 0.3431 -0.9380
vn 0.0288 0.1966 -0.9801
vn 0.0235 0.2835 -0.9587
vn 0.3766 0.3211 -0.8690
vn 0.1100 0.3341 -0.9361
vn -0.0120 0.2907 -0.9568
vn -0.8647 0.4394 0.2434
vn -0.8515 0.4581 0.2552
vn -0.8942 0.4137 0.1712
vn -0.9193 0.3819 0.0951
vn -0.1650 0.3703 -0.9142
vn -0.0408 0.2954 -0.9545
vn 0.0955 0.3686 -0.9247
vn -0.0155 0.3671 -0.9301
vn -0.0327 0.4366 -0.8991
vn 0.1366 0.3812 -0.9143
vn 0.4747 0.8784 -0.0559
vn 0.4894 0.8541 -0.1761
vn 0.4692 0.8798 -0.0759
vn 0.4214 0.8883 -0.1827
vn 0.4797 0.8455 -0.2346
vn 0.7085 0.6535 -0.2666
vn 0.6815 0.6762 -0.2798
vn 0.7514 0.5685 -0.3349
vn 0.6830 0.4617 -0.5660
vn 0.6184 0.4551 -0.6406
vn 0.6503 0.4964 -0.5751
vn 0.5298 0.4725 -0.7043
vn 0.6018 0.5128 0.6123
vn 0.6504 0.4964 0.5750
vn 0.6185 0.4551 0.6405
vn 0.6830 0.4617 0.5660
vn -0.0276 0.3664 -0.9300
vn -0.8509 0.4495 -0.2720
vn -0.8519 0.5088 0.1242
vn -0.8427 0.5085 -0.1770
vn -0.9320 0.3206 0.1693
vn -0.8957 0.4113 -0.1693
vn -0.9193 0.3819 -0.0947
vn 0.0158 0.3328 0.9429
vn -0.0572 0.3447 0.9370
vn -0.0840 0.3537 0.9316
vn 0.0574 0.3505 0.9348
vn -0.7305 0.6484 0.2146
vn -0.7700 0.6357 0.0546
vn 0.0288 0.1966 0.9801
vn 0.3766 0.3211 0.8690
vn -0.8678 0.4350 -0.2402
vn -0.8563 0.4516 -0.2506
vn -0.0842 0.3552 0.9310
vn -0.0120 0.2906 0.9568
vn -0.0095 0.2925 0.9562
vn -0.0287 0.3184 0.9475
vn -0.0408 0.2953 0.9545
vn -0.1650 0.3703 0.9142
vn 0.2548 0.3575 0.8985
vn 0.2783 0.3572 0.8916
vn 0.4651 0.8644 0.1911
vn 0.4214 0.8883 0.1827
vn 0.7514 0.5685 0.3349
vn 0.6815 0.6762 0.2798
vn 0.7085 0.6534 0.2666
vn 0.6018 0.5128 -0.6123
vn 0.5300 0.4726 0.7041
vn 0.2898 0.3555 -0.8886
vn 0.2558 0.3561 -0.8987
vn -0.0371 0.3633 0.9309
vn -0.8519 0.5088 -0.1242
vn -0.9319 0.3206 -0.1693
vn -0.1639 0.7101 -0.6847
vn -0.1262 0.6474 0.7516
vn 0.5425 0.8384 0.0529
vn -0.8356 0.3772 -0.3993
vn -0.8412 0.3049 -0.4465
vt 0.850480 0.528736
vt 0.862211 0.589335
vt 0.862211 0.534065
vt 0.851671 0.519888
vt 0.862211 0.536737
vt 0.850469 0.528387
vt 0.859116 0.519252
vt 0.600594 0.375000
vt 0.593128 0.413007
vt 0.558352 0.349205
vt 0.557313 0.294693
vt 0.616051 0.294753
vt 0.611163 0.274440
vt 0.579771 0.271906
vt 0.875000 0.540313
vt 0.875000 0.507566
vt 0.869947 0.502625
vt 0.869292 0.532836
vt 0.565645 0.334933
vt 0.609694 0.335930
vt 0.611210 0.334916
vt 0.561282 0.344442
vt 0.613826 0.348324
vt 0.609809 0.363240
vt 0.703991 0.538972
vt 0.702193 0.587449
vt 0.724960 0.555246
vt 0.852927 0.515498
vt 0.862211 0.528942
vt 0.569243 0.336031
vt 0.606366 0.301258
vt 0.571612 0.302176
vt 0.612176 0.302439
vt 0.574452 0.301095
vt 0.583368 0.411250
vt 0.875000 0.544035
vt 0.869279 0.536145
vt 0.870019 0.561172
vt 0.875000 0.561956
vt 0.610965 0.345241
vt 0.587790 0.412842
vt 0.557313 0.294694
vt 0.579783 0.271902
vt 0.611249 0.274412
vt 0.616058 0.294833
vt 0.702182 0.591077
vt 0.631301 0.408468
vt 0.706476 0.509498
vt 0.708277 0.500000
vt 0.625000 0.492756
vt 0.625000 0.500000
vt 0.595178 0.492293
vt 0.625000 0.484554
vt 0.573221 0.482185
vt 0.609827 0.479406
vt 0.573268 0.479406
vt 0.625000 0.479789
vt 0.586997 0.270831
vt 0.873690 0.501683
vt 0.874000 0.563930
vt 0.870019 0.561173
vt 0.875000 0.544036
vt 0.869279 0.536115
vt 0.562579 0.296909
vt 0.610080 0.296924
vt 0.586996 0.270831
vt 0.873999 0.563930
vt 0.614742 0.277102
vt 0.615108 0.277217
vt 0.629684 0.405989
s 1
g Glass_Glass
usemtl Glass
f 74/1/1 70/2/2 71/3/3 75/4/4
f 17/5/5 20/6/6 21/4/7
f 17/5/5 21/4/7 35/7/8
f 32/8/9 26/9/10 9/10/11
f 94/11/12 92/12/13 95/13/14 96/14/15
f 101/15/16 104/16/17 109/17/18 103/18/19
f 66/19/20 80/20/21 65/21/22
f 9/10/11 10/22/23 23/23/24 33/24/25
f 61/25/26 60/26/27 7/27/28
f 21/4/7 34/28/29 35/7/8
f 35/7/8 22/29/30 17/5/5
f 27/20/31 31/30/32 13/19/33
f 66/19/20 65/21/22 67/31/34 81/32/35
f 27/20/31 13/19/33 12/21/36
f 30/33/37 12/21/36 14/31/38
f 11/34/39 14/31/38 28/32/40
f 25/35/41 9/10/11 26/9/10
f 100/36/42 102/37/43 108/38/44 107/39/45
f 10/22/23 29/40/46 23/23/24
f 24/41/47 25/35/41 26/9/10
f 33/24/25 32/8/9 9/10/11
f 41/42/48 43/43/49 44/44/50 39/45/51
f 5/46/52 8/25/53 6/47/54
f 8/25/53 18/48/55 19/49/56
f 8/25/53 19/49/56 6/47/54
f 4/50/57 1/51/58 36/52/59
f 4/50/57 36/52/59 3/53/60
f 36/52/59 2/54/61 3/53/60
f 37/55/62 2/54/61 16/56/63
f 68/57/64 90/55/65 57/54/66 58/53/67
f 43/43/49 42/58/68 44/44/50
f 55/17/69 51/59/70 50/16/71
f 52/60/72 54/61/73 53/39/74
f 62/10/75 86/24/76 76/23/77 63/22/78
f 88/7/79 87/28/80 75/4/4
f 75/4/4 71/3/3 88/7/79
f 65/21/22 83/33/81 67/31/34
f 67/31/34 64/34/82 81/32/35
f 46/62/83 53/39/74 54/61/73 48/63/84
f 84/30/85 80/20/21 66/19/20
f 62/10/75 78/35/86 79/9/87
f 85/8/88 62/10/75 79/9/87
f 78/35/86 77/41/89 79/9/87
f 85/8/88 86/24/76 62/10/75
f 63/22/78 76/23/77 82/40/90
f 98/64/91 93/65/92 92/12/13 94/11/12
f 73/49/93 72/48/94 61/25/26
f 89/52/95 56/51/96 59/50/97
f 57/54/66 89/52/95 58/53/67
f 89/52/95 59/50/97 58/53/67
f 15/57/98 3/53/60 2/54/61 37/55/62
f 90/55/65 69/56/99 57/54/66
f 40/65/100 45/64/101 41/42/48 39/45/51
f 97/66/102 96/14/15 95/13/14
f 70/2/2 74/1/1 20/6/6 17/5/5
f 109/17/18 104/16/17 105/59/103
f 108/38/44 106/67/104 107/39/45
f 7/27/28 60/26/27 5/46/52 6/47/54
f 39/45/51 44/44/50 38/68/105
f 95/13/14 92/12/13 91/69/106
f 99/70/107 73/49/93 61/25/26 7/27/28
f 47/15/108 49/18/109 55/17/69 50/16/71
f 14/31/38 12/21/36 13/19/33 28/32/40
