# Blender 4.4.3
# www.blender.org
mtllib stop_sign.mtl
o StopSign
usemtl Material.001
v 0.000000 -0.078951 -0.099181
v 0.000000 4.324424 -0.099181
v 0.077942 -0.078951 0.035819
v 0.077942 4.324424 0.035819
v -0.077942 -0.078951 0.035819
v -0.077942 4.324424 0.035819
v 0.418334 6.301990 -0.000000
v 1.000000 5.721938 -0.000000
v 0.413083 4.301990 -0.000000
v 1.000000 4.888846 -0.000000
v -0.418830 4.301990 -0.000000
v -1.000000 4.882267 -0.000000
v -0.416081 6.301990 -0.000000
v -1.000000 5.718581 -0.000000
v 1.000000 4.888846 -0.039999
v 1.000000 5.721938 -0.039999
v 0.418334 6.301990 -0.039999
v -0.418830 4.301990 -0.039999
v 0.413083 4.301990 -0.039999
v -1.000000 5.718581 -0.039999
v -1.000000 4.882267 -0.039999
v -0.416081 6.301990 -0.039999
vn -0.0000 1.0000 -0.0000
vn -0.0000 -1.0000 -0.0000
vn 0.8660 -0.0000 -0.5000
vn -0.0000 -0.0000 1.0000
vn -0.8660 -0.0000 -0.5000
vn -0.0000 -0.0000 -1.0000
vn 1.0000 -0.0000 -0.0000
vn 0.7071 -0.7071 -0.0000
vn -0.7068 0.7074 -0.0000
vn -0.7066 -0.7077 -0.0000
vn 0.7061 0.7081 -0.0000
vn -1.0000 -0.0000 -0.0000
vt 0.914250 0.889907
vt 0.895915 0.921665
vt 0.877579 0.889907
vt 0.940023 0.921665
vt 0.958358 0.889907
vt 0.921687 0.889907
vt 0.932671 0.922547
vt 0.962077 0.922547
vt 0.962077 0.966655
vt 0.932671 0.966655
vt 0.903266 0.922547
vt 0.903266 0.966655
vt 0.873861 0.922547
vt 0.873861 0.966655
vt 0.920452 0.948440
vt 0.934768 0.913660
vt 0.899916 0.948440
vt 0.290585 0.000000
vt 0.706541 0.000000
vt 0.000000 0.290138
vt 0.000000 0.708295
vt 0.885544 0.934081
vt 0.920323 0.899216
vt 0.291960 1.000000
vt 1.000000 0.293428
vt 0.709167 1.000000
vt 1.000000 0.709974
vt 0.885544 0.913498
vt 0.899848 0.899216
vt 0.934768 0.934164
f 4/1/1 2/2/1 6/3/1
f 1/4/2 3/5/2 5/6/2
f 3/7/3 1/8/3 2/9/3 4/10/3
f 5/11/4 3/7/4 4/10/4 6/12/4
f 1/13/5 5/11/5 6/12/5 2/14/5
f 17/15/6 15/16/6 22/17/6
f 11/18/4 9/19/4 12/20/4
f 12/20/4 9/19/4 14/21/4
f 20/22/6 22/17/6 15/16/6 19/23/6
f 13/24/4 10/25/4 7/26/4
f 7/26/4 10/25/4 8/27/4
f 20/22/6 19/23/6 21/28/6
f 21/28/6 19/23/6 18/29/6
f 15/16/6 17/15/6 16/30/6
f 15/25/7 16/27/7 8/27/7 10/25/7
f 10/25/4 13/24/4 14/21/4 9/19/4
f 19/19/8 15/25/8 10/25/8 9/19/8
f 22/24/9 20/21/9 14/21/9 13/24/9
f 17/26/1 22/24/1 13/24/1 7/26/1
f 21/20/10 18/18/10 11/18/10 12/20/10
f 18/18/2 19/19/2 9/19/2 11/18/2
f 16/27/11 17/26/11 7/26/11 8/27/11
f 20/21/12 21/20/12 12/20/12 14/21/12
