# Blender v2.90.0 OBJ File: ''
# www.blender.org
mtllib FN_brake.mtl
o FN_brake
v -0.014530 0.150136 -0.085483
v -0.007926 0.016512 -0.167647
v -0.007926 -0.134174 -0.110115
v -0.005944 -0.159622 0.057024
v -0.008806 -0.078851 0.151347
v -0.007926 0.048444 0.159699
v -0.007926 0.150799 0.080602
v 0.000000 0.120671 -0.114814
v -0.017806 0.081608 -0.169409
v 0.015422 0.097221 -0.165672
v -0.033912 0.097477 -0.152216
v -0.027622 0.010502 -0.175323
v 0.019036 0.010502 -0.175324
v -0.021652 0.000185 -0.183339
v 0.013067 0.000185 -0.183340
v -0.027918 -0.036004 -0.171382
v 0.019332 -0.036004 -0.171382
v -0.019827 -0.018765 -0.182330
v -0.018562 -0.054671 -0.185809
v -0.019853 -0.072853 -0.169178
v 0.010860 -0.058384 -0.182189
v -0.028089 -0.107847 -0.143838
v 0.019503 -0.107847 -0.143838
v -0.015562 -0.029397 -0.132686
v -0.015213 0.029580 -0.135463
v -0.032363 0.025612 -0.135494
v 0.006628 0.029580 -0.135462
v 0.023777 0.025612 -0.135494
v -0.004292 0.124878 -0.137505
v -0.032585 -0.028215 -0.131780
v 0.023999 -0.028215 -0.131780
v -0.015159 -0.104087 -0.118709
v 0.006566 -0.104186 -0.119412
v -0.004293 -0.134442 -0.119191
v 0.009642 0.050502 -0.171447
v -0.018228 0.050502 -0.171447
v 0.007607 0.039283 -0.179458
v 0.010637 0.035107 -0.192060
v -0.016191 0.039284 -0.179458
v -0.019223 0.035108 -0.192060
v 0.011241 -0.018765 -0.182330
v 0.004996 -0.032293 -0.167935
v -0.014798 -0.026388 -0.170894
v -0.017891 -0.054517 -0.172554
v 0.010014 -0.055195 -0.172639
v -0.004645 -0.071211 -0.158243
v 0.006065 -0.062510 -0.120893
v -0.014651 -0.062508 -0.120893
v 0.005731 0.096784 -0.136088
v -0.014306 0.096790 -0.136248
v 0.006976 -0.029405 -0.132681
v -0.053285 -0.110506 0.014999
v -0.016569 -0.120369 -0.033377
v -0.052194 -0.056560 -0.088183
v -0.016515 -0.059707 -0.104055
v -0.016542 0.021645 -0.108827
v -0.051958 0.038772 -0.078092
v -0.016800 0.049619 -0.077694
v -0.051101 0.081570 -0.009591
v -0.016578 0.092239 -0.032161
v -0.052326 0.041522 0.077237
v -0.016560 0.023204 0.101787
v -0.050855 -0.038422 0.091385
v -0.054243 -0.054204 0.031013
v -0.054243 -0.065432 -0.000003
v -0.054243 -0.054205 -0.031023
v -0.054243 -0.033280 -0.047080
v -0.054243 -0.007131 -0.050523
v -0.054243 0.022743 -0.036527
v -0.054243 0.036737 -0.006655
v -0.054243 0.033293 0.019496
v -0.054243 0.017236 0.040419
v -0.054243 -0.007131 0.050512
v -0.054243 -0.033280 0.047069
v -0.016542 -0.114935 0.051560
v -0.016460 0.092646 0.046505
v -0.016446 -0.059239 0.109742
vt 0.649130 0.406779
vt 0.736387 0.315489
vt 0.666187 0.336404
vt 0.687499 0.460945
vt 0.747629 0.463402
vt 0.793910 0.425777
vt 0.796373 0.366008
vt 0.098293 0.357121
vt 0.032343 0.352274
vt 0.071480 0.371173
vt 0.106222 0.331501
vt 0.090661 0.301952
vt 0.051441 0.297875
vt 0.028123 0.326071
vt 0.045219 0.366364
vt 0.655646 0.946309
vt 0.689914 0.962164
vt 0.667943 0.963901
vt 0.659794 0.921535
vt 0.742425 0.965424
vt 0.765039 0.921637
vt 0.769164 0.946451
vt 0.660004 0.934460
vt 0.764816 0.934577
vt 0.669968 0.883247
vt 0.656796 0.908456
vt 0.652028 0.897496
vt 0.772816 0.897605
vt 0.768048 0.908558
vt 0.754898 0.883371
vt 0.661389 0.871626
vt 0.669262 0.856337
vt 0.691879 0.848806
vt 0.695460 0.888916
vt 0.729450 0.888999
vt 0.732853 0.849012
vt 0.706202 0.966401
vt 0.718534 0.966598
vt 0.715696 0.983179
vt 0.694697 0.925590
vt 0.730119 0.925633
vt 0.705120 0.839226
vt 0.707341 0.849068
vt 0.716972 0.849540
vt 0.715775 0.837718
vt 0.761579 0.868558
vt 0.766012 0.966854
vt 0.771345 0.938696
vt 0.653478 0.938566
vt 0.778951 0.883030
vt 0.644708 0.887652
vt 0.654094 0.867234
vt 0.770236 0.866713
vt 0.653413 0.848454
vt 0.771744 0.845395
vt 0.763110 0.843043
vt 0.718675 0.927940
vt 0.706112 0.927924
vt 0.718776 0.887733
vt 0.706151 0.887689
vt 0.717449 0.868573
vt 0.707639 0.868403
vt 0.672221 0.836894
vt 0.681786 0.986779
vt 0.703632 0.981274
vt 0.800241 0.924905
vt 0.805168 0.910159
vt 0.802247 0.865987
vt 0.190300 0.109289
vt 0.157347 0.119083
vt 0.146243 0.084608
vt 0.097986 0.096784
vt 0.115230 0.117637
vt 0.075267 0.134550
vt 0.082796 0.156787
vt 0.099507 0.149488
vt 0.114945 0.177235
vt 0.091231 0.191032
vt 0.151911 0.178218
vt 0.173322 0.189781
vt 0.172863 0.155180
vt 0.155030 0.137523
vt 0.145887 0.128177
vt 0.132994 0.126040
vt 0.123352 0.130593
vt 0.117133 0.139255
vt 0.116792 0.152325
vt 0.124091 0.163132
vt 0.134012 0.166694
vt 0.144457 0.164772
vt 0.152669 0.157978
vt 0.156564 0.148052
vt 0.133127 0.210701
vt 0.200331 0.154200
vn -0.0100 -0.8597 -0.5108
vn -0.2805 0.8715 -0.4022
vn -0.0195 -0.4562 -0.8897
vn 0.0117 -0.9431 0.3324
vn -0.0121 -0.5012 0.8652
vn 0.0032 0.1914 0.9815
vn 0.0027 0.7951 0.6065
vn 0.5148 0.6051 -0.6073
vn -0.5760 0.2460 -0.7795
vn -0.6335 0.7677 -0.0959
vn -0.4054 0.3568 -0.8417
vn -0.9546 -0.0064 -0.2977
vn 0.6493 0.5159 -0.5588
vn 0.9580 0.0085 -0.2865
vn 0.1909 0.1903 -0.9630
vn 0.0349 0.0268 -0.9990
vn -0.0349 0.0268 -0.9990
vn -0.9362 -0.0486 -0.3480
vn -0.8108 -0.0522 -0.5829
vn -0.4718 -0.0570 -0.8798
vn 0.5214 -0.0901 -0.8485
vn 0.8108 -0.0522 -0.5829
vn 0.9298 -0.0422 -0.3655
vn 0.0858 -0.2546 -0.9632
vn -0.3863 -0.4427 -0.8092
vn -0.7220 -0.6046 -0.3364
vn -0.7594 0.0848 0.6450
vn 0.7594 0.0839 0.6452
vn 0.7318 -0.6054 -0.3129
vn -0.6699 0.4680 0.5764
vn 0.7383 0.2497 0.6266
vn -0.0727 0.9426 0.3258
vn -0.7500 0.0262 0.6609
vn 0.7664 0.0750 0.6380
vn 0.0022 -0.9305 0.3662
vn -0.6690 -0.1630 0.7252
vn 0.6762 -0.1578 0.7196
vn 0.0147 -0.0963 -0.9952
vn -0.9532 0.1309 -0.2725
vn 0.9531 0.1310 -0.2727
vn -0.9392 -0.0240 -0.3424
vn 0.9529 0.0323 -0.3017
vn 0.9477 0.3150 -0.0516
vn -0.9780 0.1559 -0.1388
vn -0.0719 0.9947 -0.0730
vn 0.0032 0.0327 0.9995
vn -0.0034 0.0340 0.9994
vn -0.0657 0.1999 0.9776
vn 0.0659 0.1999 0.9776
vn 0.3977 0.0821 0.9138
vn -0.3770 0.0953 0.9213
vn -0.5475 -0.6840 0.4821
vn -0.7614 -0.6446 0.0693
vn -0.6447 -0.6792 -0.3508
vn -0.4603 -0.4317 -0.7757
vn -0.7486 -0.3599 -0.5568
vn -0.8546 0.2730 -0.4417
vn -0.4381 0.5674 -0.6973
vn -0.6548 0.3543 -0.6676
vn -0.6684 0.7420 0.0513
vn -0.5788 0.7788 -0.2420
vn -0.6336 0.5717 0.5213
vn -0.5059 0.3064 0.8064
vn -0.5592 -0.2596 0.7873
vn -0.9981 -0.0346 0.0512
vn -0.9998 -0.0220 -0.0022
vn -0.9988 -0.0371 -0.0305
vn -0.9990 -0.0157 -0.0409
vn -0.9915 0.0504 -0.1201
vn -0.9981 0.0443 -0.0418
vn -0.9976 0.0687 -0.0113
vn -0.9975 0.0672 0.0202
vn -0.9990 0.0271 0.0342
vn -0.9976 -0.0007 0.0687
vn -0.9968 -0.0351 0.0721
vn -1.0000 0.0026 0.0015
vn -1.0000 -0.0011 0.0027
g FN_brake_FN_brake_DefaultMaterial
usemtl DefaultMaterial
s 1
f 3/1/1 1/2/2 2/3/3
f 4/4/4 1/2/2 3/1/1
f 5/5/5 1/2/2 4/4/4
f 6/6/6 1/2/2 5/5/5
f 7/7/7 1/2/2 6/6/6
f 6/8/6 8/9/8 7/10/7
f 5/11/5 8/9/8 6/8/6
f 4/12/4 8/9/8 5/11/5
f 3/13/1 8/9/8 4/12/4
f 2/14/3 8/9/8 3/13/1
f 7/10/7 8/9/8 1/15/2
f 36/16/9 11/17/10 9/18/11
f 36/16/9 12/19/12 11/17/10
f 10/20/13 13/21/14 35/22/15
f 36/16/9 40/23/16 12/19/12
f 13/21/14 38/24/17 35/22/15
f 16/25/18 14/26/19 18/27/20
f 41/28/21 15/29/22 17/30/23
f 16/25/18 19/31/24 20/32/25
f 16/25/18 22/33/26 30/34/27
f 31/35/28 23/36/29 17/30/23
f 50/37/30 49/38/31 29/39/32
f 12/19/12 26/40/33 11/17/10
f 10/20/13 28/41/34 13/21/14
f 34/42/35 32/43/36 22/33/26
f 23/36/29 33/44/37 34/45/35
f 20/32/25 34/42/35 22/33/26
f 23/36/29 34/45/35 21/46/38
f 35/22/15 9/47/11 10/20/13
f 37/48/39 35/22/15 38/24/17
f 36/16/9 39/49/40 40/23/16
f 13/21/14 37/48/39 38/24/17
f 40/23/16 39/49/40 12/19/12
f 42/50/41 41/28/21 21/46/38
f 18/27/20 43/51/42 19/31/24
f 43/51/42 44/52/43 19/31/24
f 45/53/44 42/50/41 21/46/38
f 44/52/43 46/54/45 19/31/24
f 46/55/45 45/53/44 21/46/38
f 19/31/24 46/54/45 20/32/25
f 46/55/45 21/46/38 20/56/25
f 31/35/28 13/21/14 28/41/34
f 12/19/12 30/34/27 26/40/33
f 17/30/23 13/21/14 31/35/28
f 12/19/12 16/25/18 30/34/27
f 28/41/34 49/38/31 27/57/46
f 50/37/30 26/40/33 25/58/47
f 28/41/34 10/20/13 49/38/31
f 50/37/30 11/17/10 26/40/33
f 28/41/34 27/57/46 31/35/28
f 27/57/46 51/59/48 31/35/28
f 24/60/49 25/58/47 30/34/27
f 25/58/47 26/40/33 30/34/27
f 51/59/48 47/61/50 31/35/28
f 48/62/51 24/60/49 30/34/27
f 31/35/28 47/61/50 33/44/37
f 31/35/28 33/44/37 23/36/29
f 32/43/36 48/62/51 30/34/27
f 32/43/36 30/34/27 22/33/26
f 23/36/29 21/46/38 17/30/23
f 20/32/25 22/33/26 16/25/18
f 21/46/38 41/28/21 17/30/23
f 18/27/20 19/31/24 16/25/18
f 17/30/23 15/29/22 13/21/14
f 12/19/12 14/26/19 16/25/18
f 33/44/37 32/43/36 34/45/35
f 21/63/38 34/42/35 20/32/25
f 9/18/11 11/17/10 50/37/30
f 29/39/32 49/38/31 10/20/13
f 9/18/11 50/37/30 29/39/32
f 10/64/13 9/18/11 29/65/32
f 1/66/2 8/67/8 2/68/3
f 75/69/52 52/70/53 53/71/54
f 55/72/55 53/71/54 52/70/53
f 55/72/55 52/70/53 54/73/56
f 55/72/55 54/73/56 56/74/57
f 58/75/58 56/74/57 54/73/56
f 58/75/58 54/73/56 57/76/59
f 58/75/58 57/76/59 59/77/60
f 60/78/61 58/75/58 59/77/60
f 60/78/61 59/77/60 61/79/62
f 62/80/63 60/78/61 61/79/62
f 62/80/63 61/79/62 63/81/64
f 62/80/63 63/81/64 75/69/52
f 75/69/52 63/81/64 52/70/53
f 52/70/53 64/82/65 65/83/66
f 52/70/53 65/83/66 66/84/67
f 54/73/56 52/70/53 66/84/67
f 54/73/56 66/84/67 67/85/68
f 54/73/56 67/85/68 68/86/69
f 54/73/56 68/86/69 69/87/70
f 54/73/56 69/87/70 57/76/59
f 57/76/59 69/87/70 70/88/71
f 57/76/59 70/88/71 59/77/60
f 59/77/60 70/88/71 71/89/72
f 59/77/60 71/89/72 61/79/62
f 61/79/62 71/89/72 72/90/73
f 61/79/62 72/90/73 73/91/74
f 63/81/64 61/79/62 73/91/74
f 63/81/64 73/91/74 74/92/75
f 63/81/64 74/92/75 64/82/65
f 63/81/64 64/82/65 52/70/53
f 60/78/61 62/80/63 76/93/76
f 77/94/77 62/80/63 75/69/52
