# Blender v2.90.0 OBJ File: ''
# www.blender.org
mtllib FN_glass.mtl
o FN_glass
v 1.528651 -0.480991 -0.347173
v 1.526544 -0.441292 -0.496458
v 1.660230 -0.311333 -0.529519
v 1.685910 -0.305524 -0.467360
v 1.711100 -0.300235 -0.394842
v 1.528661 -0.480985 0.341903
v 1.711100 -0.300235 0.389588
v 1.685910 -0.305524 0.462106
v 1.660230 -0.311333 0.524265
v 1.526529 -0.441306 0.491201
v 1.564494 -0.481942 -0.173027
v 1.735320 -0.295984 -0.301608
v 1.753980 -0.292916 -0.199490
v 1.593419 -0.450617 0.201379
v 1.753980 -0.292916 0.194236
v 1.735320 -0.295984 0.296354
v 1.641090 -0.418064 -0.002627
v 1.762520 -0.291177 -0.100321
v 1.764167 -0.290728 0.064872
v 1.527072 -0.512110 0.138460
v 1.333181 -0.603516 -0.452277
v 1.333181 -0.603516 0.447024
v 1.353402 -0.618551 -0.301669
v 1.353402 -0.618551 0.296418
v 1.369383 -0.631608 -0.002627
v -0.587360 -0.491215 -0.594971
v -0.348641 -0.617576 -0.537624
v -0.587362 -0.491213 0.589717
v -0.348641 -0.617576 0.532370
v -0.637363 -0.507978 -0.334350
v -0.391408 -0.635182 -0.269230
v -0.778973 -0.432266 0.361907
v -0.391408 -0.635182 0.263974
v -0.778834 -0.448548 -0.152194
v -0.403522 -0.637676 -0.120370
v -0.406269 -0.637736 -0.002627
v -0.802512 -0.439296 0.068383
v -0.403522 -0.637676 0.115117
v -0.879782 -0.372119 -0.382882
v -1.205361 -0.195135 -0.203852
v -1.220830 -0.198032 -0.002627
v -1.177780 -0.192720 -0.390569
v -1.205361 -0.195135 0.198598
v -1.177780 -0.192720 0.385315
v -0.775097 -0.382215 -0.646979
v -0.775089 -0.382220 0.641723
v -0.895894 -0.301141 -0.683103
v -0.895894 -0.301142 0.677849
v -1.075860 -0.192675 -0.658180
v -1.049880 -0.194470 -0.708632
v -1.036290 -0.196890 -0.728743
v -1.049880 -0.194470 0.703378
v -1.075860 -0.192675 0.652926
v -1.036290 -0.196890 0.723489
v -1.127361 -0.192781 -0.546383
v -1.127361 -0.192781 0.541129
v 0.391553 -0.225942 -0.761272
v 0.340929 -0.220749 -0.761472
v 0.391564 -0.225943 0.756018
v 0.340929 -0.220749 0.756218
v 0.883515 -0.279493 -0.712372
v 0.883538 -0.279496 0.707115
v 1.365458 -0.337452 -0.653833
v 1.365453 -0.337451 0.648580
v 1.402557 -0.411054 0.622654
v 0.455355 -0.628925 -0.564135
v 0.405606 -0.629239 -0.561807
v 0.455362 -0.628924 0.558882
v 0.405606 -0.629239 0.556553
v 0.714797 -0.602035 -0.577972
v 0.940765 -0.564661 -0.592038
v 0.714798 -0.602035 0.572719
v 0.940765 -0.564661 0.586785
v 1.143252 -0.505900 -0.607618
v 1.402555 -0.411055 -0.627907
v 1.143252 -0.505900 0.602365
v 1.488312 -0.375750 -0.621020
v 1.531894 -0.353998 -0.612974
v 1.488313 -0.375750 0.615766
v 1.531894 -0.353998 0.607720
v 0.171594 -0.625099 -0.557250
v 0.336862 -0.624858 -0.553177
v 0.010740 -0.620808 -0.563234
v 0.263026 -0.236099 -0.744716
v 0.171594 -0.625099 0.551996
v 0.262996 -0.234934 0.737373
v 0.010741 -0.620808 0.557981
v 0.336862 -0.624858 0.547923
v -0.142185 -0.607427 -0.573059
v -0.294790 -0.570801 -0.591909
v -0.173078 -0.212992 -0.744335
v -0.142185 -0.607427 0.567805
v -0.671065 -0.188790 0.742168
v -0.294790 -0.570801 0.586656
v -0.455269 -0.496698 -0.625261
v -0.619115 -0.403838 -0.664925
v -0.671115 -0.187674 -0.744710
v -0.455269 -0.496698 0.620007
v -0.619115 -0.403838 0.659671
v -2.112850 0.365986 -0.588115
v -2.118990 0.385879 -0.571179
v -2.122850 0.403204 -0.559884
v -2.122102 0.425404 -0.566657
v -2.088089 0.366091 -0.627198
v -2.112850 0.365986 0.582861
v -2.088087 0.366091 0.621945
v -2.122102 0.425405 0.561403
v -2.122850 0.403204 0.554629
v -2.118990 0.385880 0.565925
v -2.068106 0.424646 -0.649540
v -2.050040 0.408836 -0.664184
v -2.037980 0.393627 -0.674255
v -2.068106 0.424646 0.644287
v -2.037980 0.393628 0.669001
v -2.050040 0.408836 0.658930
v -2.037050 0.379561 -0.675437
v -2.041700 0.366065 -0.672175
v -2.041700 0.366065 0.666920
v -2.037050 0.379561 0.670183
v -2.123030 0.415548 -0.560193
v -2.123030 0.415548 0.554939
v -2.099661 0.295624 -0.617778
v -2.105410 0.283885 -0.610099
v -2.055375 0.284104 -0.664045
v -2.049988 0.228512 -0.676753
v -2.107340 0.269510 -0.608546
v -2.099661 0.295624 0.612524
v -2.049988 0.228512 0.671500
v -2.055375 0.284104 0.658791
v -2.105410 0.283885 0.604845
v -2.107340 0.269510 0.603292
v -2.103046 0.250197 -0.621158
v -2.093650 0.228478 -0.638339
v -2.103046 0.250198 0.615903
v -2.093651 0.228478 0.633084
v -1.992641 0.249040 -0.712566
v -1.995576 0.228536 -0.711552
v -1.995576 0.228536 0.706298
v -1.992641 0.249041 0.707312
v -1.992832 0.272038 -0.710933
v -1.992832 0.272038 0.705679
v -2.003309 0.113822 -0.684356
v -1.943532 0.111488 -0.718054
v -1.780349 -0.001744 -0.732579
v -1.844009 -0.000641 -0.696626
v -2.052718 0.118077 -0.634101
v -2.003309 0.113822 0.679102
v -2.052718 0.118078 0.628847
v -1.844008 -0.000640 0.691373
v -1.943532 0.111489 0.712800
v -1.780355 -0.001741 0.727325
v -2.029717 0.079632 -0.564497
v -2.082965 0.125635 -0.548006
v -2.099507 0.099417 -0.375890
v -2.029719 0.079634 0.559244
v -2.099507 0.099418 0.370636
v -2.082964 0.125638 0.542748
v -2.122992 0.139345 -0.337253
v -2.070029 0.069056 -0.412078
v -2.070029 0.069057 0.406824
v -2.122992 0.139344 0.332000
v -1.904495 0.003209 -0.628271
v -1.978652 0.012839 -0.501484
v -1.904500 0.003211 0.623012
v -1.978652 0.012839 0.496230
v -1.724937 -0.045634 -0.705079
v -1.752800 -0.022597 -0.725153
v -1.724937 -0.045633 0.699825
v -1.752800 -0.022597 0.719899
vt 0.505365 0.255624
vt 0.438672 0.238535
vt 0.420245 0.139318
vt 0.454033 0.126945
vt 0.493254 0.114958
vt 0.900476 0.255618
vt 0.912589 0.114960
vt 0.951809 0.126947
vt 0.985594 0.139318
vt 0.967170 0.238542
vt 0.613070 0.242431
vt 0.543390 0.103739
vt 0.598031 0.095189
vt 0.820688 0.210199
vt 0.807816 0.095191
vt 0.862456 0.103742
vt 0.701945 0.187073
vt 0.650877 0.091081
vt 0.738873 0.090787
vt 0.773985 0.265436
vt 0.462434 0.373122
vt 0.943415 0.373118
vt 0.543392 0.369803
vt 0.862457 0.369801
vt 0.702935 0.367761
vt 0.365172 0.859744
vt 0.448401 0.871358
vt 0.430057 0.959395
vt 0.343472 0.950305
vt 0.142151 0.808307
vt 0.172976 0.950305
vt 0.086392 0.959395
vt 0.068045 0.871359
vt 0.307562 0.813183
vt 0.295850 0.947066
vt 0.258224 0.946303
vt 0.235260 0.807149
vt 0.220597 0.947066
vt 0.380878 0.771152
vt 0.322708 0.654811
vt 0.258221 0.650996
vt 0.382507 0.662162
vt 0.193736 0.654813
vt 0.133937 0.662166
vt 0.461023 0.803492
vt 0.055425 0.803498
vt 0.476819 0.758666
vt 0.469589 0.690540
vt 0.486114 0.698055
vt 0.492708 0.702215
vt 0.039629 0.758670
vt 0.030333 0.698060
vt 0.046858 0.690545
vt 0.023739 0.702221
vt 0.433200 0.676304
vt 0.083245 0.676309
vt 0.494969 0.415472
vt 0.474267 0.414924
vt 0.447266 0.585931
vt 0.468555 0.583672
vt 0.494972 0.415473
vt 0.447266 0.585931
vt 0.474267 0.414924
vt 0.468559 0.583671
vt 0.926893 0.520392
vt 0.893187 0.509895
vt 0.876514 0.537153
vt 0.945396 0.530137
vt 0.926893 0.520393
vt 0.945396 0.530137
vt 0.876518 0.537151
vt 0.893187 0.509893
vt 0.602910 0.426219
vt 0.673100 0.560691
vt 0.698022 0.441901
vt 0.602910 0.426219
vt 0.698022 0.441902
vt 0.673109 0.560690
vt 0.782808 0.466502
vt 0.782808 0.466502
vt 0.376452 0.416668
vt 0.414625 0.579369
vt 0.445512 0.416763
vt 0.309095 0.418457
vt 0.232194 0.588952
vt 0.376452 0.416668
vt 0.414587 0.579371
vt 0.309095 0.418457
vt 0.445512 0.416763
vt 0.245140 0.424051
vt 0.181291 0.439375
vt 0.245140 0.424051
vt 0.023919 0.599635
vt 0.181291 0.439375
vt 0.114247 0.470438
vt 0.045626 0.509216
vt 0.023874 0.599637
vt 0.114247 0.470438
vt 0.045626 0.509216
vt 0.220249 0.253813
vt 0.232643 0.240268
vt 0.240903 0.228444
vt 0.236522 0.213171
vt 0.184497 0.251094
vt 0.220070 0.253679
vt 0.184337 0.251042
vt 0.236242 0.213035
vt 0.240650 0.228287
vt 0.232423 0.240117
vt 0.168452 0.213027
vt 0.152496 0.223764
vt 0.141620 0.234085
vt 0.168217 0.213037
vt 0.141451 0.234142
vt 0.152297 0.223803
vt 0.140514 0.243720
vt 0.144294 0.253018
vt 0.144165 0.253057
vt 0.140367 0.243773
vt 0.240816 0.219978
vt 0.240546 0.219828
vt 0.021479 0.240169
vt 0.066412 0.236564
vt 0.079424 0.199531
vt 0.014915 0.221420
vt 0.015661 0.231391
vt 0.021417 0.239947
vt 0.079317 0.199333
vt 0.066319 0.236340
vt 0.015602 0.231176
vt 0.014856 0.221210
vt 0.024664 0.208833
vt 0.039119 0.194811
vt 0.024597 0.208632
vt 0.039042 0.194619
vt 0.122725 0.219102
vt 0.122383 0.204915
vt 0.122247 0.204711
vt 0.122589 0.218889
vt 0.120181 0.234818
vt 0.120046 0.234594
vt 0.245337 0.182523
vt 0.292839 0.184268
vt 0.397860 0.095707
vt 0.348428 0.096165
vt 0.197305 0.172831
vt 0.246338 0.182864
vt 0.198347 0.173112
vt 0.349460 0.096692
vt 0.398843 0.096284
vt 0.293811 0.184668
vt 0.179655 0.117849
vt 0.142088 0.141400
vt 0.060279 0.053514
vt 0.180784 0.118139
vt 0.143204 0.141618
vt 0.061580 0.053638
vt 0.020955 0.055131
vt 0.100533 0.047973
vt 0.101826 0.048174
vt 0.022267 0.055180
vt 0.291347 0.084272
vt 0.195733 0.047757
vt 0.292439 0.084740
vt 0.196961 0.048117
vt 0.421373 0.050410
vt 0.422370 0.051048
vt 0.412110 0.076614
vt 0.413098 0.077219
vn 0.6289 -0.7599 -0.1645
vn 0.6351 -0.7446 -0.2056
vn 0.6552 -0.7274 -0.2039
vn 0.6608 -0.7242 -0.1971
vn 0.6732 -0.7217 -0.1611
vn 0.6258 -0.7622 0.1654
vn 0.6744 -0.7199 0.1641
vn 0.6608 -0.7242 0.1971
vn 0.6552 -0.7274 0.2039
vn 0.6331 -0.7455 0.2085
vn 0.6405 -0.7643 -0.0740
vn 0.6838 -0.7175 -0.1326
vn 0.6990 -0.7110 -0.0769
vn 0.6643 -0.7414 0.0954
vn 0.7019 -0.7084 0.0742
vn 0.6891 -0.7123 0.1334
vn 0.6840 -0.7295 0.0016
vn 0.7084 -0.7050 -0.0344
vn 0.7120 -0.7017 0.0253
vn 0.6131 -0.7880 0.0565
vn 0.5906 -0.7872 -0.1776
vn 0.5906 -0.7870 0.1783
vn 0.5789 -0.8065 -0.1199
vn 0.5835 -0.8035 0.1183
vn 0.5828 -0.8126 -0.0030
vn -0.4516 -0.8863 -0.1029
vn -0.4506 -0.8810 -0.1445
vn -0.4342 -0.8907 -0.1349
vn -0.4387 -0.8944 -0.0872
vn -0.4769 -0.8723 0.1080
vn -0.4434 -0.8920 0.0884
vn -0.4371 -0.8896 0.1324
vn -0.4457 -0.8831 0.1463
vn -0.4775 -0.8777 -0.0401
vn -0.4476 -0.8936 -0.0323
vn -0.4476 -0.8942 -0.0011
vn -0.4785 -0.8778 0.0218
vn -0.4480 -0.8934 0.0346
vn -0.4934 -0.8619 -0.1168
vn -0.5032 -0.8621 -0.0600
vn -0.4960 -0.8683 -0.0013
vn -0.5100 -0.8516 -0.1214
vn -0.5062 -0.8598 0.0666
vn -0.5062 -0.8539 0.1210
vn -0.4836 -0.8601 -0.1621
vn -0.4868 -0.8577 0.1652
vn -0.5116 -0.8358 -0.1992
vn -0.5252 -0.8160 -0.2415
vn -0.5165 -0.8169 -0.2568
vn -0.5084 -0.8155 -0.2767
vn -0.5136 -0.8345 0.1996
vn -0.5165 -0.8169 0.2568
vn -0.5252 -0.8159 0.2416
vn -0.5084 -0.8155 0.2767
vn -0.5096 -0.8400 -0.1861
vn -0.5068 -0.8424 0.1829
vn -0.0206 -0.4402 -0.8977
vn -0.0402 -0.4441 -0.8951
vn -0.0413 -0.4435 -0.8953
vn -0.0113 -0.4349 -0.9004
vn -0.0198 -0.4402 0.8977
vn -0.0413 -0.4453 0.8944
vn -0.0402 -0.4441 0.8951
vn -0.0124 -0.4359 0.8999
vn 0.2164 -0.1314 -0.9674
vn 0.1258 -0.2797 -0.9518
vn 0.1316 -0.2684 -0.9543
vn 0.2288 -0.1491 -0.9620
vn 0.2176 -0.1314 0.9671
vn 0.2288 -0.1491 0.9620
vn 0.1027 -0.2578 0.9607
vn 0.1217 -0.2845 0.9509
vn 0.0164 -0.4115 -0.9112
vn 0.0398 -0.3900 -0.9200
vn 0.0297 -0.3779 -0.9254
vn 0.0168 -0.4106 0.9117
vn 0.0297 -0.3779 0.9254
vn 0.0411 -0.3910 0.9195
vn -0.0741 -0.0162 -0.9971
vn -0.0695 -0.0159 0.9975
vn 0.0102 -0.4238 -0.9057
vn -0.0061 -0.4248 -0.9053
vn 0.0210 -0.4397 -0.8979
vn 0.0238 -0.3968 -0.9176
vn -0.0004 -0.3984 -0.9172
vn 0.0227 -0.4330 0.9011
vn 0.0014 -0.4152 0.9097
vn 0.0185 -0.4327 0.9014
vn 0.0210 -0.4347 0.9003
vn 0.0217 -0.3968 -0.9177
vn 0.0125 -0.3952 -0.9185
vn 0.0025 -0.4028 0.9153
vn 0.0076 -0.3776 0.9260
vn 0.0308 -0.3491 0.9366
vn 0.0007 -0.3759 -0.9267
vn 0.0387 -0.3563 -0.9336
vn -0.0058 -0.3652 -0.9309
vn 0.0334 -0.3478 0.9370
vn 0.0296 -0.3702 0.9285
vn -0.8642 0.0476 -0.5008
vn -0.9240 -0.0125 -0.3821
vn -0.9636 -0.0501 -0.2627
vn -0.9061 0.0106 -0.4228
vn -0.7905 0.0396 -0.6112
vn -0.8657 0.0492 0.4982
vn -0.7905 0.0397 0.6112
vn -0.9072 0.0089 0.4206
vn -0.9636 -0.0501 0.2627
vn -0.9240 -0.0123 0.3822
vn -0.7534 0.0134 -0.6575
vn -0.5877 0.1275 -0.7990
vn -0.6157 0.0337 -0.7873
vn -0.7466 0.0138 0.6651
vn -0.6156 0.0338 0.7873
vn -0.5877 0.1274 0.7990
vn -0.6239 0.0107 -0.7814
vn -0.6658 -0.0240 -0.7457
vn -0.6658 -0.0240 0.7457
vn -0.6240 0.0107 0.7813
vn -0.9838 -0.0006 -0.1790
vn -0.9838 -0.0006 0.1790
vn -0.7627 0.0801 -0.6418
vn -0.6760 0.0911 -0.7312
vn -0.6273 0.1226 -0.7691
vn -0.8825 0.0983 -0.4599
vn -0.8266 0.0954 -0.5546
vn -0.7627 0.0801 0.6417
vn -0.6273 0.1227 0.7691
vn -0.6760 0.0911 0.7312
vn -0.8266 0.0954 0.5546
vn -0.8825 0.0983 0.4599
vn -0.7276 0.1478 -0.6699
vn -0.6866 0.2829 -0.6698
vn -0.7265 0.1470 0.6713
vn -0.6866 0.2829 0.6698
vn -0.5368 0.0561 -0.8418
vn -0.5541 0.0354 -0.8317
vn -0.5541 0.0354 0.8317
vn -0.5368 0.0560 0.8418
vn -0.5659 0.0782 -0.8208
vn -0.5673 0.0818 0.8194
vn -0.5179 -0.6645 -0.5388
vn -0.4408 -0.5109 -0.7381
vn -0.3641 -0.6642 -0.6529
vn -0.4063 -0.7504 -0.5214
vn -0.5999 -0.7444 -0.2934
vn -0.5177 -0.6647 0.5387
vn -0.6054 -0.7412 0.2899
vn -0.4138 -0.7540 0.5101
vn -0.3868 -0.6442 0.6599
vn -0.4407 -0.5109 0.7381
vn -0.6430 -0.7301 -0.2313
vn -0.6702 -0.7236 -0.1648
vn -0.8792 -0.4413 -0.1794
vn -0.6368 -0.7380 0.2234
vn -0.7164 -0.6826 0.1441
vn -0.8785 -0.4421 0.1809
vn -0.9406 -0.3104 -0.1375
vn -0.7900 -0.5471 -0.2767
vn -0.7900 -0.5471 0.2767
vn -0.9406 -0.3104 0.1375
vn -0.4530 -0.8487 -0.2730
vn -0.6052 -0.7578 -0.2437
vn -0.4523 -0.8525 0.2621
vn -0.6052 -0.7578 0.2437
vn -0.3611 -0.8698 -0.3363
vn -0.3611 -0.8702 0.3351
vn -0.2996 -0.8614 -0.4101
vn -0.2996 -0.8614 0.4101
g FN_glass_FN_glass_DefaultMaterial
usemtl DefaultMaterial
s 1
f 1/1/1 2/2/2 3/3/3
f 1/1/1 3/3/3 4/4/4
f 1/1/1 4/4/4 5/5/5
f 6/6/6 7/7/7 8/8/8
f 6/6/6 8/8/8 9/9/9
f 6/6/6 9/9/9 10/10/10
f 11/11/11 12/12/12 13/13/13
f 11/11/11 1/1/1 5/5/5
f 11/11/11 5/5/5 12/12/12
f 14/14/14 15/15/15 16/16/16
f 14/14/14 16/16/16 7/7/7
f 14/14/14 7/7/7 6/6/6
f 17/17/17 11/11/11 13/13/13
f 17/17/17 13/13/13 18/18/18
f 17/17/17 18/18/18 19/19/19
f 17/17/17 19/19/19 15/15/15
f 17/17/17 15/15/15 14/14/14
f 20/20/20 11/11/11 17/17/17
f 20/20/20 17/17/17 14/14/14
f 14/14/14 6/6/6 20/20/20
f 1/1/1 21/21/21 2/2/2
f 6/6/6 10/10/10 22/22/22
f 21/21/21 1/1/1 23/23/23
f 22/22/22 24/24/24 6/6/6
f 11/11/11 25/25/25 23/23/23
f 11/11/11 23/23/23 1/1/1
f 20/20/20 6/6/6 24/24/24
f 20/20/20 24/24/24 25/25/25
f 11/11/11 20/20/20 25/25/25
f 30/26/26 26/27/27 27/28/28
f 30/26/26 27/28/28 31/29/29
f 32/30/30 33/31/31 29/32/32
f 32/30/30 29/32/32 28/33/33
f 34/34/34 35/35/35 36/36/36
f 34/34/34 36/36/36 37/37/37
f 34/34/34 30/26/26 31/29/29
f 34/34/34 31/29/29 35/35/35
f 37/37/37 36/36/36 38/38/38
f 37/37/37 38/38/38 33/31/31
f 37/37/37 33/31/31 32/30/30
f 34/34/34 39/39/39 30/26/26
f 40/40/40 34/34/34 37/37/37
f 40/40/40 37/37/37 41/41/41
f 40/40/40 42/42/42 39/39/39
f 40/40/40 39/39/39 34/34/34
f 43/43/43 32/30/30 44/44/44
f 43/43/43 41/41/41 37/37/37
f 43/43/43 37/37/37 32/30/30
f 39/39/39 45/45/45 26/27/27
f 39/39/39 26/27/27 30/26/26
f 32/30/30 28/33/33 46/46/46
f 47/47/47 49/48/48 50/49/49
f 47/47/47 50/49/49 51/50/50
f 48/51/51 52/52/52 53/53/53
f 48/51/51 54/54/54 52/52/52
f 55/55/55 39/39/39 42/42/42
f 55/55/55 49/48/48 47/47/47
f 55/55/55 47/47/47 45/45/45
f 55/55/55 45/45/45 39/39/39
f 56/56/56 48/51/51 53/53/53
f 56/56/56 44/44/44 32/30/30
f 56/56/56 32/30/30 46/46/46
f 56/56/56 46/46/46 48/51/51
f 66/57/57 67/58/58 58/59/59
f 66/57/57 58/59/59 57/60/60
f 68/61/61 60/62/62 69/63/63
f 68/61/61 59/64/64 60/62/62
f 77/65/65 75/66/66 63/67/67
f 77/65/65 63/67/67 78/68/68
f 79/69/69 80/70/70 64/71/71
f 79/69/69 64/71/71 65/72/72
f 70/73/73 61/74/74 71/75/75
f 70/73/73 66/57/57 57/60/60
f 70/73/73 57/60/60 61/74/74
f 72/76/76 73/77/77 62/78/78
f 72/76/76 62/78/78 59/64/64
f 72/76/76 59/64/64 68/61/61
f 75/66/66 61/74/74 63/67/67
f 75/66/66 74/79/79 71/75/75
f 75/66/66 71/75/75 61/74/74
f 65/72/72 64/71/71 62/78/78
f 65/72/72 62/78/78 73/77/77
f 65/72/72 73/77/77 76/80/80
f 81/81/81 84/82/82 82/83/83
f 81/81/81 83/84/84 91/85/85
f 81/81/81 91/85/85 84/82/82
f 85/86/86 86/87/87 87/88/88
f 85/86/86 88/89/89 86/87/87
f 89/90/90 90/91/91 91/85/85
f 89/90/90 91/85/85 83/84/84
f 92/92/92 86/87/87 93/93/93
f 92/92/92 93/93/93 94/94/94
f 92/92/92 87/88/88 86/87/87
f 95/95/95 96/96/96 97/97/97
f 95/95/95 97/97/97 91/85/85
f 95/95/95 91/85/85 90/91/91
f 98/98/98 94/94/94 93/93/93
f 98/98/98 93/93/93 99/99/99
f 100/100/100 101/101/101 102/102/102
f 100/100/100 102/102/102 103/103/103
f 100/100/100 103/103/103 104/104/104
f 105/105/105 106/106/106 107/107/107
f 105/105/105 107/107/107 108/108/108
f 105/105/105 108/108/108 109/109/109
f 110/110/110 111/111/111 112/112/112
f 113/113/113 114/114/114 115/115/115
f 110/110/110 116/116/116 117/117/117
f 110/110/110 117/117/117 104/104/104
f 110/110/110 112/112/112 116/116/116
f 113/113/113 106/106/106 118/118/118
f 113/113/113 118/118/118 119/119/119
f 113/113/113 119/119/119 114/114/114
f 103/103/103 102/102/102 120/120/120
f 103/103/103 110/110/110 104/104/104
f 107/107/107 121/121/121 108/108/108
f 107/107/107 106/106/106 113/113/113
f 122/122/122 124/123/123 125/124/124
f 122/122/122 126/125/125 123/126/126
f 127/127/127 128/128/128 129/129/129
f 127/127/127 130/130/130 131/131/131
f 132/132/132 126/125/125 122/122/122
f 132/132/132 122/122/122 125/124/124
f 132/132/132 125/124/124 133/133/133
f 134/134/134 128/128/128 127/127/127
f 134/134/134 127/127/127 131/131/131
f 134/134/134 135/135/135 128/128/128
f 125/124/124 136/136/136 137/137/137
f 128/128/128 138/138/138 139/139/139
f 140/140/140 136/136/136 125/124/124
f 140/140/140 125/124/124 124/123/123
f 141/141/141 129/129/129 128/128/128
f 141/141/141 128/128/128 139/139/139
f 142/142/142 143/143/143 144/144/144
f 142/142/142 144/144/144 145/145/145
f 142/142/142 145/145/145 146/146/146
f 147/147/147 148/148/148 149/149/149
f 147/147/147 149/149/149 151/150/150
f 147/147/147 151/150/150 150/151/151
f 152/152/152 153/153/153 146/146/146
f 152/152/152 154/154/154 153/153/153
f 155/155/155 148/148/148 157/156/156
f 155/155/155 157/156/156 156/157/157
f 154/154/154 158/158/158 153/153/153
f 154/154/154 152/152/152 159/159/159
f 156/157/157 160/160/160 155/155/155
f 156/157/157 157/156/156 161/161/161
f 162/162/162 152/152/152 146/146/146
f 162/162/162 146/146/146 145/145/145
f 162/162/162 163/163/163 152/152/152
f 164/164/164 149/149/149 148/148/148
f 164/164/164 148/148/148 155/155/155
f 164/164/164 155/155/155 165/165/165
f 163/163/163 159/159/159 152/152/152
f 165/165/165 155/155/155 160/160/160
f 166/166/166 163/163/163 162/162/162
f 168/167/167 164/164/164 165/165/165
f 145/145/145 167/168/168 166/166/166
f 145/145/145 166/166/166 162/162/162
f 145/145/145 144/144/144 167/168/168
f 149/149/149 164/164/164 168/167/167
f 149/149/149 168/167/167 169/169/169
f 149/149/149 169/169/169 151/150/150
