# Blender v3.2.0 OBJ File: ''
# www.blender.org
o street
v -0.375000 -1.000000 0.056100
v -0.500000 -0.375000 0.064200
v -0.625000 -0.125000 -0.000000
v -0.750000 -0.250000 -0.000000
v -0.625000 -0.250000 0.064200
v -0.250000 -0.375000 -0.060200
v -0.125000 -0.500000 -0.060200
v -0.500000 -0.125000 -0.000000
v -0.375000 -0.250000 -0.000000
v -0.125000 -1.000000 -0.000000
v -0.250000 -0.625000 0.056100
v -0.125000 -0.625000 -0.000000
v -0.500000 -0.625000 -0.000000
v -0.375000 -0.625000 0.056100
v -0.625000 -1.000000 -0.000000
v -0.750000 -0.625000 -0.148900
v -0.625000 -0.625000 -0.000000
v -0.625000 -0.500000 0.064200
v -0.500000 -0.500000 0.064200
v -0.500000 -1.000000 -0.000000
v 0.000000 -0.500000 -0.014400
v -0.500000 -0.250000 0.064200
v -0.625000 -0.375000 0.064200
v -0.250000 -1.000000 0.056100
v -0.750000 -1.000000 -0.148900
v 0.375000 -1.000000 0.056100
v 0.500000 -0.375000 0.064200
v 0.625000 -0.125000 -0.000000
v 0.750000 -0.250000 -0.000000
v 0.125000 -0.500000 -0.060200
v 0.250000 -0.375000 -0.060200
v 0.375000 -0.250000 -0.000000
v 0.500000 -0.125000 -0.000000
v 0.125000 -1.000000 -0.000000
v 0.250000 -0.625000 0.056100
v 0.125000 -0.625000 -0.000000
v 0.500000 -0.625000 -0.000000
v 0.375000 -0.625000 0.056100
v 0.625000 -1.000000 -0.000000
v 0.750000 -0.625000 -0.148900
v 0.625000 -0.625000 -0.000000
v 0.625000 -0.500000 0.064200
v 0.500000 -0.500000 0.064200
v 0.500000 -1.000000 -0.000000
v 0.500000 -0.250000 0.064200
v 0.625000 -0.375000 0.064200
v 0.625000 -0.250000 0.064200
v 0.250000 -1.000000 0.056100
v 0.750000 -1.000000 -0.148900
v -0.500000 0.375000 0.064200
v -0.625000 0.125000 0.000000
v -0.750000 0.250000 0.000000
v -0.125000 0.500000 -0.060200
v -0.250000 0.375000 -0.060200
v -0.375000 0.250000 0.000000
v -0.500000 0.125000 0.000000
v -0.125000 0.750000 0.000000
v -0.250000 0.625000 0.056100
v -0.125000 0.625000 0.000000
v -0.375000 0.750000 0.056100
v -0.500000 0.625000 0.000000
v -0.375000 0.625000 0.056100
v -0.625000 0.750000 0.000000
v -0.750000 0.625000 -0.148900
v -0.625000 0.625000 0.000000
v -1.000000 -1.000000 -0.000000
v -0.500000 0.750000 0.000000
v -0.625000 0.500000 0.064200
v -0.500000 0.500000 0.064200
v -0.250000 0.750000 0.056100
v 0.000000 0.750000 -0.014400
v 0.000000 0.500000 -0.014400
v -0.500000 0.250000 0.064200
v -0.625000 0.375000 0.064200
v -0.625000 0.250000 0.064200
v 0.500000 0.375000 0.064200
v 0.625000 0.125000 0.000000
v 0.750000 0.250000 0.000000
v 0.625000 0.250000 0.064200
v 0.250000 0.375000 -0.060200
v 0.125000 0.500000 -0.060200
v 0.500000 0.125000 0.000000
v 0.375000 0.250000 0.000000
v 0.250000 0.625000 0.056100
v 0.125000 0.750000 0.000000
v 0.125000 0.625000 0.000000
v 0.500000 0.625000 0.000000
v 0.375000 0.750000 0.056100
v 0.375000 0.625000 0.056100
v 0.750000 0.625000 -0.148900
v 0.625000 0.750000 0.000000
v 0.625000 0.625000 0.000000
v 1.000000 -1.000000 -0.000000
v 0.500000 0.750000 0.000000
v 0.625000 0.500000 0.064200
v 0.500000 0.500000 0.064200
v 0.250000 0.750000 0.056100
v 0.500000 0.250000 0.064200
v 0.625000 0.375000 0.064200
v -0.875000 -1.000000 -0.000000
v 0.875000 -1.000000 -0.000000
v -0.750000 0.750000 -0.148900
v 0.750000 0.750000 -0.148900
v -1.000000 1.000000 0.000000
v 1.000000 1.000000 0.000000
vt 0.220688 0.459027
vt 0.147642 0.400945
vt 0.222407 0.395878
vt 0.225066 0.343879
vt 0.180821 0.635703
vt -0.002603 0.113418
vt 0.497307 0.295559
vt 0.554268 0.240343
vt 0.553139 0.299915
vt 0.849191 0.234985
vt 0.948899 0.105805
vt 0.846973 0.400943
vt 0.769548 0.343877
vt 0.772207 0.395877
vt 0.813795 0.635702
vt 0.997216 0.113415
vt 0.497308 0.702329
vt 0.445618 0.753005
vt 0.446509 0.698522
vt 0.254139 0.671956
vt 0.244701 0.627666
vt 0.762300 0.570823
vt 0.749914 0.627665
vt 0.593718 0.653361
vt 0.400897 0.653361
vt 0.740477 0.671955
vt 0.278539 0.455914
vt 0.274580 0.396580
vt 0.333175 0.401143
vt 0.276542 0.292373
vt 0.327121 0.237639
vt 0.380430 0.237206
vt 0.270434 0.235560
vt 0.441474 0.299915
vt 0.440345 0.240343
vt 0.773926 0.459026
vt 0.661440 0.401143
vt 0.720034 0.396578
vt 0.716076 0.455913
vt 0.667492 0.237638
vt 0.724179 0.235559
vt 0.718072 0.292372
vt 0.205009 0.767082
vt 0.132505 0.895654
vt 0.232315 0.570824
vt 0.343616 0.610231
vt 0.290817 0.620076
vt 0.286690 0.564836
vt 0.347627 0.754084
vt 0.301203 0.757451
vt 0.302557 0.710371
vt 0.145423 0.234986
vt 0.045714 0.105808
vt 0.125980 0.091536
vt 0.392436 0.350405
vt 0.707925 0.564835
vt 0.703798 0.620076
vt 0.650999 0.610231
vt 0.692059 0.710371
vt 0.693413 0.757450
vt 0.646988 0.754084
vt 0.548106 0.698522
vt 0.548998 0.753005
vt 0.602177 0.350405
vt 0.218575 0.239836
vt 0.227558 0.293721
vt 0.548854 0.805951
vt 0.603102 0.797999
vt 0.862111 0.895653
vt 0.732222 0.799250
vt 0.785343 0.796540
vt 0.645784 0.799166
vt 0.692886 0.797125
vt 0.497308 0.806090
vt 0.789607 0.767081
vt 0.391513 0.798000
vt 0.445762 0.805951
vt 0.209273 0.796540
vt 0.301730 0.797125
vt 0.348832 0.799166
vt 0.262394 0.799250
vt 0.601764 0.753976
vt 0.776039 0.239835
vt 0.767056 0.293719
vt 0.614372 0.073498
vt 0.670029 0.074754
vt 0.614184 0.237205
vt 0.717959 0.344548
vt 0.553101 0.073097
vt 0.785344 0.081599
vt 0.868633 0.091534
vt 0.696353 0.665845
vt 0.732848 0.713403
vt 0.392851 0.753976
vt 0.730694 0.077463
vt 0.259403 0.757490
vt 0.261768 0.713404
vt 0.380240 0.073498
vt 0.441511 0.073097
vt 0.735213 0.757489
vt 0.263918 0.077464
vt 0.324584 0.074755
vt 0.276655 0.344549
vt 0.298262 0.665845
vt 0.209269 0.081601
vn -0.0801 0.2355 0.9686
vn -0.2222 0.0023 0.9750
vn -0.2216 0.2216 0.9496
vn -0.3408 -0.0665 0.9378
vn -0.1911 -0.0590 0.9798
vn 0.0000 -0.0000 1.0000
vn 0.0000 0.1355 0.9908
vn -0.1758 0.1730 0.9691
vn -0.0818 0.2612 0.9618
vn -0.0990 -0.1702 0.9804
vn -0.4606 -0.0512 0.8862
vn 0.2607 0.0917 0.9611
vn 0.3634 -0.0763 0.9285
vn 0.2216 0.2216 0.9496
vn 0.1960 0.0301 0.9801
vn -0.0000 -0.1309 0.9914
vn 0.1761 -0.1668 0.9701
vn 0.0818 -0.2612 0.9618
vn -0.3343 0.1110 0.9359
vn -0.2219 -0.2108 0.9520
vn 0.0801 -0.2355 0.9686
vn 0.2219 -0.2108 0.9520
vn -0.2687 -0.1478 0.9518
vn 0.2687 -0.1478 0.9518
vn 0.3813 0.0641 0.9222
vn 0.0801 0.2355 0.9686
vn 0.2192 0.2211 0.9503
vn 0.3394 0.1184 0.9332
vn -0.0670 -0.2378 0.9690
vn -0.2073 -0.0843 0.9746
vn 0.2629 0.1467 0.9536
vn -0.1989 -0.2245 0.9540
vn 0.0818 0.2611 0.9618
vn 0.1758 0.1730 0.9691
vn -0.3394 0.1184 0.9332
vn -0.2192 0.2211 0.9503
vn 0.2074 -0.0843 0.9746
vn 0.1989 -0.2245 0.9540
vn 0.0670 -0.2378 0.9690
vn -0.0146 0.2550 0.9668
vn 0.1113 -0.1516 0.9821
vn -0.0801 -0.2355 0.9686
vn 0.3394 -0.1184 0.9332
vn 0.2200 -0.2104 0.9525
vn -0.2066 0.1052 0.9728
vn -0.1989 0.2245 0.9540
vn -0.0662 0.2579 0.9639
vn 0.0631 -0.1497 0.9867
vn 0.4606 -0.0512 0.8862
vn 0.0990 -0.1702 0.9804
vn 0.2687 0.1478 0.9518
vn -0.2200 -0.2104 0.9525
vn -0.3394 -0.1184 0.9332
vn 0.0662 0.2578 0.9639
vn 0.1989 0.2245 0.9540
vn 0.2066 0.1052 0.9728
vn -0.0818 -0.2612 0.9618
vn -0.1761 -0.1668 0.9701
vn -0.2688 0.1478 0.9518
vn -0.3863 -0.1894 0.9027
vn -0.3849 -0.1910 0.9030
vn -0.1725 0.2382 0.9558
vn -0.2367 0.4127 0.8796
vn -0.1113 -0.1516 0.9821
vn 0.4178 -0.1274 0.8996
vn 0.2169 -0.2618 0.9404
vn 0.2066 -0.0589 0.9766
vn 0.2543 -0.2819 0.9251
vn 0.0000 0.0071 1.0000
vn 0.0146 0.2550 0.9668
vn 0.2367 0.4127 0.8796
vn 0.1725 0.2382 0.9558
vn -0.2169 -0.2618 0.9404
vn -0.2543 -0.2819 0.9251
vn -0.2066 -0.0589 0.9767
vn -0.4178 -0.1274 0.8996
vn -0.2640 -0.1306 0.9556
vn 0.3863 -0.1894 0.9027
vn 0.3849 -0.1918 0.9028
vn -0.2118 -0.0026 0.9773
vn 0.2069 -0.0025 0.9784
vn -0.2629 0.1467 0.9536
vn -0.2273 0.0707 0.9713
vn -0.2094 0.0084 0.9778
vn 0.4152 -0.0554 0.9081
vn -0.2282 -0.0496 0.9724
vn 0.3767 0.2315 0.8969
vn 0.2640 -0.1306 0.9556
vn 0.2094 -0.0000 0.9778
vn -0.3793 0.2180 0.8992
vn -0.3767 0.2315 0.8969
vn 0.2118 -0.0026 0.9773
vn 0.2094 0.0084 0.9778
vn 0.3793 0.2180 0.8992
vn -0.2094 -0.0000 0.9778
vn -0.2069 -0.0025 0.9784
vn 0.2273 0.0707 0.9712
vn 0.2282 -0.0496 0.9724
vn -0.4151 -0.0554 0.9081
s 1
f 3/1/1 4/2/2 5/3/3
f 4/2/2 23/4/4 5/3/3
f 52/5/5 66/6/6 4/2/2
f 21/7/7 36/8/8 30/9/9
f 40/10/10 101/11/11 29/12/12
f 46/13/13 29/12/12 47/14/14
f 78/15/15 29/12/12 93/16/6
f 72/17/16 59/18/17 53/19/18
f 74/20/19 52/5/5 75/21/20
f 77/22/21 78/15/15 79/23/22
f 80/24/23 72/17/16 54/25/24
f 78/15/15 99/26/25 79/23/22
f 8/27/26 22/28/27 9/29/28
f 19/30/29 14/31/30 11/32/31
f 19/30/29 13/33/32 14/31/30
f 21/7/7 7/34/33 12/35/34
f 28/36/26 47/14/14 29/12/12
f 32/37/35 45/38/36 33/39/1
f 38/40/37 37/41/38 43/42/39
f 52/5/5 64/43/40 104/44/41
f 51/45/42 75/21/20 52/5/5
f 55/46/43 73/47/44 56/48/21
f 62/49/45 61/50/46 69/51/47
f 16/52/48 100/53/49 25/54/50
f 54/25/24 9/29/28 6/55/51
f 82/56/42 98/57/52 83/58/53
f 96/59/54 87/60/55 89/61/56
f 72/17/16 81/62/57 86/63/58
f 83/58/53 80/24/23 31/64/59
f 17/65/60 18/66/61 16/52/48
f 85/67/62 97/68/63 105/69/64
f 91/70/65 103/71/66 105/69/64
f 88/72/67 94/73/68 105/69/64
f 71/74/69 85/67/62 105/69/64
f 103/71/66 90/75/70 105/69/64
f 70/76/71 57/77/72 104/44/41
f 57/77/72 71/74/69 104/44/41
f 78/15/15 105/69/64 90/75/70
f 64/43/40 102/78/73 104/44/41
f 105/69/64 104/44/41 71/74/69
f 67/79/74 60/80/75 104/44/41
f 102/78/73 63/81/76 104/44/41
f 80/24/23 84/82/77 86/63/58 81/62/57
f 62/49/45 60/80/75 67/79/74 61/50/46
f 43/42/39 37/41/38 41/83/78 42/84/79
f 19/30/29 18/66/61 17/65/60 13/33/32
f 33/39/1 45/38/36 47/14/14 28/36/26
f 56/48/21 51/45/42 3/1/1 8/27/26
f 8/27/26 9/29/28 55/46/43
f 8/27/26 55/46/43 56/48/21
f 82/56/42 77/22/21 79/23/22 98/57/52
f 66/6/6 100/53/49 4/2/2
f 4/2/2 3/1/1 51/45/42
f 52/5/5 104/44/41 66/6/6
f 4/2/2 51/45/42 52/5/5
f 48/85/80 26/86/81 38/40/37 35/87/82
f 46/13/13 47/14/14 45/38/36 27/88/83
f 27/88/83 43/42/39 42/84/79 46/13/13
f 27/88/83 35/87/82 38/40/37
f 48/85/80 35/87/82 36/8/8 34/89/84
f 27/88/83 38/40/37 43/42/39
f 41/83/78 39/90/85 49/91/10 40/10/10
f 89/61/56 88/72/67 97/68/63 84/82/77
f 40/10/10 29/12/12 46/13/13
f 41/83/78 40/10/10 42/84/79
f 46/13/13 42/84/79 40/10/10
f 88/72/67 105/69/64 97/68/63
f 79/23/22 99/26/25 76/92/86 98/57/52
f 27/88/83 32/37/35 31/64/59 35/87/82
f 89/61/56 84/82/77 96/59/54
f 96/59/54 76/92/86 99/26/25 95/93/87
f 59/18/17 57/77/72 70/76/71 58/94/88
f 8/27/26 3/1/1 5/3/3 22/28/27
f 33/39/1 28/36/26 77/22/21 82/56/42
f 40/10/10 49/91/10 101/11/11
f 82/56/42 83/58/53 32/37/35
f 82/56/42 32/37/35 33/39/1
f 26/86/81 44/95/89 37/41/38 38/40/37
f 93/16/6 105/69/64 78/15/15
f 78/15/15 77/22/21 28/36/26
f 29/12/12 101/11/11 93/16/6
f 78/15/15 28/36/26 29/12/12
f 69/51/47 61/50/46 65/96/90 68/97/91
f 12/35/34 11/32/31 24/98/92 10/99/93
f 58/94/88 54/25/24 53/19/18 59/18/17
f 56/48/21 73/47/44 75/21/20 51/45/42
f 54/25/24 6/55/51 31/64/59 80/24/23
f 7/34/33 21/7/7 6/55/51
f 21/7/7 30/9/9 31/64/59
f 96/59/54 95/93/87 92/100/94 87/60/55
f 21/7/7 31/64/59 6/55/51
f 80/24/23 81/62/57 72/17/16
f 72/17/16 53/19/18 54/25/24
f 13/33/32 20/101/95 1/102/96 14/31/30
f 24/98/92 11/32/31 14/31/30 1/102/96
f 5/3/3 23/4/4 2/103/97 22/28/27
f 19/30/29 2/103/97 23/4/4 18/66/61
f 10/99/93 34/89/84 36/8/8 12/35/34
f 58/94/88 69/51/47 50/104/98 54/25/24
f 21/7/7 12/35/34 36/8/8
f 65/96/90 63/81/76 102/78/73 64/43/40
f 86/63/58 84/82/77 97/68/63 85/67/62
f 64/43/40 52/5/5 74/20/19
f 65/96/90 64/43/40 68/97/91
f 74/20/19 68/97/91 64/43/40
f 91/70/65 94/73/68 87/60/55 92/100/94
f 91/70/65 105/69/64 94/73/68
f 44/95/89 39/90/85 41/83/78 37/41/38
f 61/50/46 67/79/74 63/81/76 65/96/90
f 13/33/32 17/65/60 15/105/99 20/101/95
f 67/79/74 104/44/41 63/81/76
f 91/70/65 92/100/94 90/75/70 103/71/66
f 16/52/48 4/2/2 100/53/49
f 54/25/24 50/104/98 55/46/43
f 50/104/98 73/47/44 55/46/43
f 22/28/27 2/103/97 9/29/28
f 2/103/97 6/55/51 9/29/28
f 54/25/24 55/46/43 9/29/28
f 99/26/25 78/15/15 90/75/70
f 15/105/99 17/65/60 16/52/48 25/54/50
f 92/100/94 95/93/87 90/75/70
f 95/93/87 99/26/25 90/75/70
f 83/58/53 98/57/52 76/92/86
f 27/88/83 45/38/36 32/37/35
f 83/58/53 76/92/86 80/24/23
f 31/64/59 32/37/35 83/58/53
f 4/2/2 16/52/48 23/4/4
f 70/76/71 60/80/75 62/49/45 58/94/88
f 23/4/4 16/52/48 18/66/61
f 6/55/51 11/32/31 12/35/34 7/34/33
f 84/82/77 80/24/23 76/92/86 96/59/54
f 74/20/19 75/21/20 73/47/44 50/104/98
f 70/76/71 104/44/41 60/80/75
f 50/104/98 69/51/47 68/97/91 74/20/19
f 58/94/88 62/49/45 69/51/47
f 72/17/16 86/63/58 71/74/69 59/18/17
f 11/32/31 6/55/51 2/103/97 19/30/29
f 85/67/62 71/74/69 86/63/58
f 71/74/69 57/77/72 59/18/17
f 35/87/82 31/64/59 30/9/9 36/8/8
f 89/61/56 87/60/55 94/73/68 88/72/67
