# Blender v3.2.0 OBJ File: ''
# www.blender.org
o street
v -0.375000 -1.000000 0.056100
v -0.500000 -0.375000 0.064200
v -0.625000 -0.125000 -0.000000
v -0.750000 -0.250000 -0.000000
v -0.625000 -0.250000 0.064200
v -0.250000 -0.375000 -0.060200
v -0.125000 -0.500000 -0.060200
v -0.500000 -0.125000 -0.000000
v -0.375000 -0.250000 -0.000000
v -0.125000 -1.000000 -0.000000
v -0.250000 -0.625000 0.056100
v -0.125000 -0.625000 -0.000000
v -0.500000 -0.625000 -0.000000
v -0.375000 -0.625000 0.056100
v -0.625000 -1.000000 -0.000000
v -0.750000 -0.625000 -0.148900
v -0.625000 -0.625000 -0.000000
v -0.625000 -0.500000 0.064200
v -0.500000 -1.000000 -0.000000
v 0.000000 -0.500000 -0.014400
v -0.500000 -0.250000 0.064200
v -0.625000 -0.375000 0.064200
v -0.250000 -1.000000 0.056100
v -0.750000 -1.000000 -0.148900
v 0.375000 -1.000000 0.056100
v 0.500000 -0.375000 0.064200
v 0.625000 -0.125000 -0.000000
v 0.750000 -0.250000 -0.000000
v 0.125000 -0.500000 -0.060200
v 0.250000 -0.375000 -0.060200
v 0.375000 -0.250000 -0.000000
v 0.500000 -0.125000 -0.000000
v 0.125000 -1.000000 -0.000000
v 0.250000 -0.625000 0.056100
v 0.125000 -0.625000 -0.000000
v 0.500000 -0.625000 -0.000000
v 0.375000 -0.625000 0.056100
v 0.625000 -1.000000 -0.000000
v 0.750000 -0.625000 -0.148900
v 0.625000 -0.625000 -0.000000
v 0.625000 -0.500000 0.064200
v 0.500000 -1.000000 -0.000000
v 0.500000 -0.250000 0.064200
v 0.625000 -0.375000 0.064200
v 0.625000 -0.250000 0.064200
v 0.250000 -1.000000 0.056100
v 0.750000 -1.000000 -0.148900
v -0.375000 1.000000 0.056100
v -0.500000 0.375000 0.064200
v -0.625000 0.125000 0.000000
v -0.750000 0.250000 0.000000
v -0.125000 0.500000 -0.060200
v -0.250000 0.375000 -0.060200
v -0.375000 0.250000 0.000000
v -0.500000 0.125000 0.000000
v -0.125000 1.000000 0.000000
v -0.250000 0.625000 0.056100
v -0.125000 0.625000 0.000000
v -0.500000 0.625000 0.000000
v -0.375000 0.625000 0.056100
v -0.625000 1.000000 0.000000
v -0.750000 0.625000 -0.148900
v -0.625000 0.625000 0.000000
v -1.000000 -1.000000 -0.000000
v -0.625000 0.500000 0.064200
v -0.500000 1.000000 0.000000
v 0.000000 0.500000 -0.014400
v -0.500000 0.250000 0.064200
v -0.625000 0.375000 0.064200
v -0.625000 0.250000 0.064200
v -0.250000 1.000000 0.056100
v -0.750000 1.000000 -0.148900
v 0.375000 1.000000 0.056100
v 0.500000 0.375000 0.064200
v 0.625000 0.125000 0.000000
v 0.750000 0.250000 0.000000
v 0.625000 0.250000 0.064200
v 0.250000 0.375000 -0.060200
v 0.125000 0.500000 -0.060200
v 0.500000 0.125000 0.000000
v 0.375000 0.250000 0.000000
v 0.125000 1.000000 0.000000
v 0.250000 0.625000 0.056100
v 0.125000 0.625000 0.000000
v 0.500000 0.625000 0.000000
v 0.375000 0.625000 0.056100
v 0.625000 1.000000 0.000000
v 0.750000 0.625000 -0.148900
v 0.625000 0.625000 0.000000
v 1.000000 -1.000000 -0.000000
v 0.625000 0.500000 0.064200
v 0.500000 1.000000 0.000000
v 0.500000 0.250000 0.064200
v 0.625000 0.375000 0.064200
v 0.250000 1.000000 0.056100
v 0.750000 1.000000 -0.148900
v -0.875000 -1.000000 -0.000000
v 0.875000 -1.000000 -0.000000
v -0.875000 1.000000 0.000000
v 0.875000 1.000000 0.000000
v -1.000000 1.000000 0.000000
v 1.000000 1.000000 0.000000
vt 0.794818 0.576103
vt 0.865397 0.652644
vt 0.786219 0.649378
vt 0.379490 0.201817
vt 0.267013 0.313290
vt 0.326282 0.199035
vt 0.386883 0.688024
vt 0.322111 0.382255
vt 0.386883 0.327602
vt 0.846757 0.838454
vt 0.928831 0.992183
vt 0.847900 0.994961
vt 0.778065 0.708289
vt 0.928832 0.023444
vt 0.846758 0.177173
vt 0.847901 0.020665
vt 0.144915 0.177172
vt 0.062841 0.023442
vt 0.143773 0.020664
vt 0.217530 0.191464
vt 0.221240 0.251616
vt 0.495837 0.747000
vt 0.439081 0.808148
vt 0.438918 0.742960
vt 0.495837 0.268626
vt 0.604791 0.327602
vt 0.213608 0.708289
vt 0.126276 0.652644
vt 0.205455 0.649378
vt 0.552593 0.207478
vt 0.552756 0.272666
vt 0.269850 0.823530
vt 0.221240 0.764010
vt 0.326282 0.816591
vt 0.778066 0.307338
vt 0.865398 0.362982
vt 0.786219 0.366248
vt 0.196855 0.439523
vt 0.126275 0.362983
vt 0.205454 0.366248
vt 0.213608 0.307337
vt 0.732044 0.573801
vt 0.731198 0.643243
vt 0.669562 0.633371
vt 0.721824 0.192097
vt 0.770433 0.251616
vt 0.665392 0.199035
vt 0.552756 0.742960
vt 0.552592 0.808148
vt 0.604791 0.688024
vt 0.196856 0.576103
vt 0.322111 0.633371
vt 0.260475 0.643243
vt 0.259629 0.573801
vt 0.269849 0.192096
vt 0.978585 0.024110
vt 0.794818 0.439523
vt 0.669562 0.382255
vt 0.731198 0.372383
vt 0.732044 0.441825
vt 0.612183 0.813809
vt 0.724660 0.702336
vt 0.665392 0.816591
vt 0.259629 0.441825
vt 0.260475 0.372383
vt 0.770433 0.764011
vt 0.721824 0.823530
vt 0.438918 0.272666
vt 0.439081 0.207478
vt 0.774143 0.824162
vt 0.144916 0.838454
vt 0.062842 0.992183
vt 0.277891 0.991473
vt 0.225441 0.993721
vt 0.217530 0.824162
vt 0.267013 0.702336
vt 0.766232 0.993721
vt 0.713782 0.991473
vt 0.604257 0.030096
vt 0.612184 0.201817
vt 0.547343 0.032553
vt 0.387416 0.985530
vt 0.379490 0.813809
vt 0.444331 0.983073
vt 0.225441 0.021905
vt 0.604257 0.985530
vt 0.547342 0.983073
vt 0.387416 0.030096
vt 0.444331 0.032553
vt 0.656372 0.027298
vt 0.724660 0.313290
vt 0.335301 0.988328
vt 0.713782 0.024153
vt 0.766233 0.021905
vt 0.774144 0.191464
vt 0.013089 0.991516
vt 0.013088 0.024109
vt 0.277892 0.024152
vt 0.335301 0.027298
vt 0.656372 0.988327
vt 0.978584 0.991516
vt 0.143773 0.994961
vn -0.0801 0.2355 0.9686
vn -0.2222 0.0023 0.9750
vn -0.2217 0.2205 0.9499
vn -0.2629 -0.1451 0.9539
vn -0.2272 -0.0685 0.9714
vn 0.1839 0.0963 0.9782
vn -0.2688 0.1478 0.9518
vn -0.3394 -0.1184 0.9332
vn -0.2687 -0.1478 0.9518
vn 0.0631 -0.1497 0.9867
vn 0.4606 -0.0512 0.8862
vn 0.0990 -0.1702 0.9804
vn -0.3409 -0.0688 0.9376
vn 0.4606 0.0512 0.8862
vn 0.0819 0.1327 0.9878
vn 0.0990 0.1702 0.9804
vn -0.0631 0.1497 0.9867
vn -0.4606 0.0512 0.8862
vn -0.0990 0.1702 0.9804
vn 0.4381 0.2269 0.8698
vn 0.4195 0.1822 0.8893
vn 0.0000 0.1355 0.9908
vn -0.1758 0.1730 0.9691
vn -0.0818 0.2612 0.9618
vn -0.0000 -0.1355 0.9908
vn 0.2688 -0.1478 0.9518
vn 0.3400 -0.0679 0.9380
vn 0.2837 0.0597 0.9571
vn 0.2217 0.2205 0.9498
vn 0.1758 -0.1730 0.9691
vn 0.0818 -0.2612 0.9618
vn 0.2043 -0.2883 0.9355
vn 0.4195 -0.1822 0.8893
vn 0.1839 -0.0963 0.9782
vn -0.3635 0.0786 0.9283
vn -0.2387 -0.0895 0.9670
vn -0.2217 -0.2205 0.9499
vn 0.0801 -0.2355 0.9686
vn 0.2535 -0.0735 0.9645
vn 0.2217 -0.2205 0.9499
vn 0.3858 0.0211 0.9223
vn 0.0801 0.2355 0.9686
vn 0.2192 0.2201 0.9505
vn 0.3394 0.1184 0.9332
vn -0.2043 0.2883 0.9355
vn -0.4195 0.1822 0.8893
vn -0.1839 0.0963 0.9782
vn 0.0818 0.2611 0.9618
vn 0.1758 0.1730 0.9691
vn 0.2687 0.1478 0.9518
vn -0.3394 0.1184 0.9332
vn -0.2192 0.2201 0.9505
vn 0.2043 0.2883 0.9355
vn -0.0000 -0.0000 1.0000
vn -0.0801 -0.2355 0.9686
vn 0.3394 -0.1184 0.9332
vn 0.2192 -0.2201 0.9505
vn 0.2629 0.1451 0.9539
vn 0.2272 0.0685 0.9714
vn -0.1839 -0.0963 0.9782
vn -0.2192 -0.2201 0.9505
vn -0.4195 -0.1822 0.8893
vn -0.2043 -0.2883 0.9355
vn -0.0818 -0.2612 0.9618
vn -0.1758 -0.1729 0.9691
vn -0.4382 -0.2269 0.8698
vn -0.0990 -0.1702 0.9804
vn -0.4606 -0.0512 0.8862
vn 0.2094 -0.0000 0.9778
vn 0.4152 -0.0554 0.9081
vn 0.4382 -0.2269 0.8698
vn -0.2272 0.0685 0.9714
vn -0.4151 -0.0554 0.9081
vn -0.2094 -0.0000 0.9778
vn 0.2116 0.0047 0.9773
vn 0.2629 -0.1451 0.9539
vn 0.2094 -0.0084 0.9778
vn -0.2116 -0.0047 0.9773
vn -0.2629 0.1451 0.9539
vn -0.2094 0.0084 0.9778
vn 0.4151 0.0554 0.9081
vn 0.2116 -0.0047 0.9773
vn 0.2094 0.0084 0.9778
vn -0.2116 0.0047 0.9773
vn -0.2094 -0.0084 0.9778
vn -0.2071 0.0047 0.9783
vn 0.2272 -0.0685 0.9714
vn 0.2071 -0.0047 0.9783
vn -0.4151 0.0554 0.9081
vn -0.4382 0.2269 0.8698
vn 0.2071 0.0047 0.9783
vn -0.2071 -0.0047 0.9783
s 1
f 3/1/1 4/2/2 5/3/3
f 83/4/4 74/5/5 86/6/6
f 30/7/7 81/8/8 78/9/9
f 16/10/10 97/11/11 24/12/12
f 4/2/2 22/13/13 5/3/3
f 99/14/14 62/15/15 72/16/16
f 88/17/17 100/18/18 96/19/19
f 89/20/20 91/21/21 88/17/17
f 20/22/22 35/23/23 29/24/24
f 78/9/9 67/25/25 53/26/26
f 44/27/27 28/28/28 45/29/29
f 67/25/25 58/30/30 52/31/31
f 36/32/32 41/33/33 37/34/34
f 69/35/35 51/36/36 70/37/37
f 75/38/38 76/39/39 77/40/40
f 76/39/39 94/41/41 77/40/40
f 8/42/42 21/43/43 9/44/44
f 59/45/45 65/46/46 60/47/47
f 20/22/22 7/48/48 12/49/49
f 53/26/26 9/44/44 6/50/50
f 27/51/42 45/29/29 28/28/28
f 31/52/51 43/53/52 32/54/1
f 91/21/21 85/55/53 86/6/6
f 51/36/36 101/56/54 4/2/2
f 50/57/55 70/37/37 51/36/36
f 54/58/56 68/59/57 55/60/38
f 11/61/58 2/62/59 14/63/60
f 80/64/55 93/65/61 81/8/8
f 18/66/62 13/67/63 14/63/60
f 67/25/25 79/68/64 84/69/65
f 17/70/66 18/66/62 16/10/10
f 39/71/67 98/72/68 28/28/28
f 77/40/40 94/41/41 74/5/5 93/65/61
f 80/64/55 75/38/38 77/40/40 93/65/61
f 94/41/41 91/21/21 74/5/5
f 91/21/21 86/6/6 74/5/5
f 36/32/32 42/73/69 38/74/70 40/75/71
f 74/5/5 83/4/4 78/9/9 81/8/8
f 26/76/72 43/53/52 31/52/51
f 93/65/61 74/5/5 81/8/8
f 2/62/59 11/61/58 6/50/50 9/44/44
f 30/7/7 31/52/51 81/8/8
f 16/10/10 4/2/2 97/11/11
f 13/67/63 17/70/66 15/77/73 19/78/74
f 71/79/75 57/80/76 58/30/30 56/81/77
f 99/14/14 51/36/36 62/15/15
f 88/17/17 76/39/39 100/18/18
f 46/82/78 34/83/79 35/23/23 33/84/80
f 78/9/9 83/4/4 84/69/65 79/68/64
f 34/83/79 26/76/72 31/52/51 30/7/7
f 87/85/81 89/20/20 88/17/17 96/19/19
f 76/39/39 88/17/17 94/41/41
f 6/50/50 30/7/7 78/9/9 53/26/26
f 94/41/41 88/17/17 91/21/21
f 78/9/9 79/68/64 67/25/25
f 67/25/25 52/31/31 53/26/26
f 12/49/49 11/61/58 23/86/82 10/87/83
f 6/50/50 7/48/48 20/22/22
f 20/22/22 29/24/24 30/7/7
f 6/50/50 20/22/22 30/7/7
f 34/83/79 30/7/7 29/24/24 35/23/23
f 83/4/4 95/88/84 82/89/85 84/69/65
f 35/23/23 12/49/49 10/87/83 33/84/80
f 71/79/75 48/90/86 60/47/47 57/80/76
f 35/23/23 20/22/22 12/49/49
f 69/35/35 70/37/37 68/59/57 49/91/87
f 60/47/47 65/46/46 49/91/87
f 65/46/46 69/35/35 49/91/87
f 46/82/78 25/92/88 37/34/34 34/83/79
f 49/91/87 57/80/76 60/47/47
f 36/32/32 40/75/71 41/33/33
f 44/27/27 45/29/29 43/53/52 26/76/72
f 37/34/34 41/33/33 26/76/72
f 41/33/33 44/27/27 26/76/72
f 59/45/45 66/93/74 61/94/89 63/95/90
f 26/76/72 34/83/79 37/34/34
f 80/64/55 32/54/1 27/51/42 75/38/38
f 98/72/68 90/96/54 28/28/28
f 90/96/54 102/97/54 76/39/39
f 102/97/54 100/18/18 76/39/39
f 90/96/54 76/39/39 28/28/28
f 28/28/28 76/39/39 75/38/38
f 27/51/42 28/28/28 75/38/38
f 80/64/55 81/8/8 31/52/51
f 86/6/6 85/55/53 92/98/69 73/99/91
f 80/64/55 31/52/51 32/54/1
f 8/42/42 3/1/1 5/3/3 21/43/43
f 63/95/90 61/94/89 72/16/16 62/15/15
f 14/63/60 13/67/63 19/78/74 1/100/92
f 62/15/15 51/36/36 69/35/35
f 63/95/90 62/15/15 65/46/46
f 69/35/35 65/46/46 62/15/15
f 66/93/74 59/45/45 60/47/47 48/90/86
f 59/45/45 63/95/90 65/46/46
f 49/91/87 68/59/57 54/58/56
f 21/43/43 2/62/59 9/44/44
f 53/26/26 54/58/56 9/44/44
f 25/92/88 42/73/69 36/32/32 37/34/34
f 91/21/21 89/20/20 85/55/53
f 55/60/38 50/57/55 3/1/1 8/42/42
f 8/42/42 9/44/44 54/58/56
f 8/42/42 54/58/56 55/60/38
f 55/60/38 68/59/57 70/37/37 50/57/55
f 64/101/54 97/11/11 4/2/2
f 4/2/2 3/1/1 50/57/55
f 51/36/36 99/14/14 101/56/54
f 4/2/2 50/57/55 51/36/36
f 101/56/54 64/101/54 4/2/2
f 23/86/82 11/61/58 14/63/60 1/100/92
f 22/13/13 18/66/62 2/62/59
f 18/66/62 14/63/60 2/62/59
f 5/3/3 22/13/13 2/62/59 21/43/43
f 82/89/85 56/81/77 58/30/30 84/69/65
f 18/66/62 17/70/66 13/67/63
f 67/25/25 84/69/65 58/30/30
f 89/20/20 87/85/81 92/98/69 85/55/53
f 40/75/71 38/74/70 47/102/67 39/71/67
f 32/54/1 43/53/52 45/29/29 27/51/42
f 39/71/67 28/28/28 44/27/27
f 40/75/71 39/71/67 41/33/33
f 44/27/27 41/33/33 39/71/67
f 6/50/50 11/61/58 12/49/49 7/48/48
f 15/77/73 17/70/66 16/10/10 24/12/12
f 49/91/87 54/58/56 53/26/26 57/80/76
f 4/2/2 16/10/10 22/13/13
f 57/80/76 53/26/26 52/31/31 58/30/30
f 22/13/13 16/10/10 18/66/62
f 39/71/67 47/102/67 98/72/68
f 95/88/84 83/4/4 86/6/6 73/99/91
