# Blender v2.93.1 OBJ File: ''
# www.blender.org
mtllib central1.mtl
o central.005
v 0.750000 1.000000 -0.120670
v 1.000000 1.000000 0.000000
v 1.000000 -1.000000 -0.000000
v 0.750000 -1.000000 -0.120670
v -0.125000 1.000000 -0.139536
v 0.000000 1.000000 -0.144730
v 0.000000 -1.000000 -0.144730
v -0.125000 -1.000000 -0.139536
v -0.750000 1.000000 -0.120670
v -0.567665 1.000000 -0.145208
v -0.567665 -1.000000 -0.145208
v -0.750000 -1.000000 -0.120670
v 0.375000 1.000000 -0.112123
v 0.567665 1.000000 -0.145208
v 0.567665 -1.000000 -0.145208
v 0.375000 -1.000000 -0.112123
v 0.125000 1.000000 -0.139536
v 0.250000 1.000000 -0.110206
v 0.250000 -1.000000 -0.110206
v 0.125000 -1.000000 -0.139536
v -0.375000 1.000000 -0.112123
v -0.250000 1.000000 -0.110206
v -0.250000 -1.000000 -0.110206
v -0.375000 -1.000000 -0.112123
v -1.000000 1.000000 0.000000
v -1.000000 -1.000000 -0.000000
vt 0.875000 0.000000
vt 0.875000 1.000000
vt 1.000000 1.000000
vt 1.000000 0.000000
vt 0.437500 0.000000
vt 0.437500 1.000000
vt 0.500000 1.000000
vt 0.500000 0.000000
vt 0.125000 0.000000
vt 0.125000 1.000000
vt 0.250000 1.000000
vt 0.250000 0.000000
vt 0.687500 0.000000
vt 0.687500 1.000000
vt 0.750000 1.000000
vt 0.750000 0.000000
vt 0.562500 0.000000
vt 0.562500 1.000000
vt 0.625000 1.000000
vt 0.625000 0.000000
vt 0.312500 0.000000
vt 0.312500 1.000000
vt 0.375000 1.000000
vt 0.375000 0.000000
vt 0.000000 0.000000
vt 0.000000 1.000000
vn -0.1892 -0.1681 0.9674
vn -0.0962 -0.0000 0.9954
vn -0.2635 0.0000 0.9647
vn 0.0313 -0.0000 0.9995
vn 0.0831 0.0905 0.9924
vn -0.0591 -0.0000 0.9983
vn 0.0962 -0.0000 0.9954
vn 0.1892 0.1681 0.9674
vn -0.0493 -0.0000 0.9988
vn 0.1405 -0.0841 0.9865
vn 0.1889 -0.0000 0.9820
vn 0.2674 0.0000 0.9636
vn -0.0831 -0.0905 0.9924
vn -0.0313 -0.0000 0.9995
vn -0.0122 -0.0000 0.9999
vn -0.0595 -0.0825 0.9948
vn -0.1889 -0.0000 0.9820
vn -0.1405 0.0841 0.9865
vn 0.0595 0.0825 0.9948
vn 0.0122 -0.0000 0.9999
vn 0.0493 -0.0000 0.9988
vn 0.2635 -0.0000 0.9647
vn 0.0591 -0.0000 0.9983
vn -0.2674 -0.0000 0.9636
usemtl None.002
s 1
f 1/1/1 4/2/2 3/3/3 2/4/3
f 5/5/4 8/6/5 7/7/6 6/8/6
f 9/9/7 12/10/8 11/11/9 10/12/9
f 13/13/10 16/14/11 15/15/12 14/16/12
f 17/17/13 20/18/14 19/19/15 18/20/16
f 21/21/17 24/22/18 23/23/19 22/24/20
f 14/16/21 15/15/21 4/2/2 1/1/1
f 25/25/22 26/26/22 12/10/8 9/9/7
f 6/8/23 7/7/23 20/18/14 17/17/13
f 22/24/20 23/23/19 8/6/5 5/5/4
f 18/20/16 19/19/15 16/14/11 13/13/10
f 10/12/24 11/11/24 24/22/18 21/21/17
