# Blender v2.93.1 OBJ File: ''
# www.blender.org
mtllib central1.mtl
o central.001
v 0.750000 1.000000 0.199553
v 0.750000 -1.000000 0.199553
v 1.000000 -1.000000 -0.000000
v 1.000000 1.000000 0.000000
v -0.125000 1.000000 0.230751
v -0.125000 -1.000000 0.230751
v 0.000000 -1.000000 0.239341
v 0.000000 1.000000 0.239341
v -0.750000 1.000000 0.199553
v -0.750000 -1.000000 0.199553
v -0.567665 -1.000000 0.240131
v -0.567665 1.000000 0.240131
v 0.375000 1.000000 0.185418
v 0.375000 -1.000000 0.185418
v 0.567665 -1.000000 0.240131
v 0.567665 1.000000 0.240131
v 0.125000 1.000000 0.230751
v 0.125000 -1.000000 0.230751
v 0.250000 -1.000000 0.182248
v 0.250000 1.000000 0.182248
v -0.375000 1.000000 0.185418
v -0.375000 -1.000000 0.185418
v -0.250000 -1.000000 0.182248
v -0.250000 1.000000 0.182248
v -1.000000 1.000000 0.000000
v -1.000000 -1.000000 -0.000000
vt 0.875000 0.000000
vt 0.875000 1.000000
vt 1.000000 1.000000
vt 1.000000 0.000000
vt 0.437500 0.000000
vt 0.437500 1.000000
vt 0.500000 1.000000
vt 0.500000 0.000000
vt 0.125000 0.000000
vt 0.125000 1.000000
vt 0.250000 1.000000
vt 0.250000 0.000000
vt 0.687500 0.000000
vt 0.687500 1.000000
vt 0.750000 1.000000
vt 0.750000 0.000000
vt 0.562500 0.000000
vt 0.562500 1.000000
vt 0.625000 1.000000
vt 0.625000 0.000000
vt 0.312500 0.000000
vt 0.312500 1.000000
vt 0.375000 1.000000
vt 0.375000 0.000000
vt 0.000000 0.000000
vt 0.000000 1.000000
vn 0.5129 0.1727 0.8409
vn 0.6029 -0.0000 0.7978
vn 0.6134 0.1821 0.7685
vn 0.6134 -0.1821 0.7685
vn -0.3207 -0.0000 0.9472
vn -0.2685 -0.0926 0.9588
vn -0.0682 -0.1005 0.9926
vn -0.0682 0.1005 0.9926
vn -0.6029 -0.0000 0.7978
vn -0.5129 -0.1727 0.8409
vn -0.2136 -0.1821 0.9598
vn -0.2137 0.1821 0.9598
vn -0.1028 0.0823 0.9913
vn -0.0557 -0.0000 0.9984
vn -0.2718 0.1005 0.9571
vn -0.2718 -0.1005 0.9571
vn 0.2685 0.0925 0.9588
vn 0.3207 -0.0000 0.9472
vn 0.2615 -0.0000 0.9652
vn 0.2161 0.0797 0.9731
vn 0.0557 -0.0000 0.9984
vn 0.1028 -0.0823 0.9913
vn -0.2161 -0.0797 0.9731
vn -0.2615 -0.0000 0.9652
vn 0.2136 0.1821 0.9598
vn 0.2137 -0.1821 0.9598
vn -0.6134 -0.1821 0.7685
vn -0.6134 0.1821 0.7685
vn 0.0682 0.1005 0.9926
vn 0.0682 -0.1005 0.9926
vn 0.2718 -0.1005 0.9571
vn 0.2718 0.1005 0.9571
usemtl None.001
s 1
f 1/1/1 2/2/2 3/3/3 4/4/4
f 5/5/5 6/6/6 7/7/7 8/8/8
f 9/9/9 10/10/10 11/11/11 12/12/12
f 13/13/13 14/14/14 15/15/15 16/16/16
f 17/17/17 18/18/18 19/19/19 20/20/20
f 21/21/21 22/22/22 23/23/23 24/24/24
f 16/16/25 15/15/26 2/2/2 1/1/1
f 25/25/27 26/26/28 10/10/10 9/9/9
f 8/8/29 7/7/30 18/18/18 17/17/17
f 24/24/24 23/23/23 6/6/6 5/5/5
f 20/20/20 19/19/19 14/14/14 13/13/13
f 12/12/31 11/11/32 22/22/22 21/21/21
