# Blender 3.2.0 Alpha
# www.blender.org
o cylinder_central.001
v 1.000000 -1.000000 -0.000000
v 1.000000 1.000000 0.000000
v 0.879010 1.000000 0.060320
v 0.879010 -1.000000 0.060320
v 0.738754 1.000000 0.087354
v 0.738754 -1.000000 0.087354
v -0.738754 1.000000 0.087354
v -0.738754 -1.000000 0.087354
v -0.879010 1.000000 0.060320
v -0.879010 -1.000000 0.060320
v -1.000000 1.000000 0.000000
v -1.000000 -1.000000 -0.000000
vn 0.9987 -0.0000 -0.0506
vn 0.9978 -0.0003 0.0670
vn 0.9978 -0.0000 0.0670
vn 0.8757 0.0007 0.4828
vn 0.8757 -0.0000 0.4829
vn -0.7698 -0.0000 0.6383
vn -0.6963 -0.0003 0.7178
vn -0.9978 -0.0000 0.0670
vn -0.9978 0.0006 0.0670
vn -0.9987 -0.0000 -0.0506
vt 1 0
vt 1 1
vt 0.931040 1
vt 0.931040 0
vt 0.860814 1
vt 0.860814 0
vt 0.134400 1
vt 0.134400 0
vt 0.064174 1
vt 0.064173 0
vt 0 1
vt 0 0
s 1
g street
f 1/1/1 2/2/1 3/3/2 4/4/3
f 4/4/3 3/3/2 5/5/4 6/6/5
f 6/6/5 5/5/4 7/7/6 8/8/7
f 8/8/7 7/7/6 9/9/8 10/10/9
f 10/10/9 9/9/8 11/11/10 12/12/10
