# Blender 3.2.0 Alpha
# www.blender.org
v 1.000000 -1.000000 -0.000000
v 1.000000 1.000000 0.000000
v 0.742644 1.000000 0.060320
v 0.742644 -1.000000 0.060320
v 0.395153 1.000000 0.104227
v 0.395153 -1.000000 0.104227
v 0.000000 1.000000 0.119476
v 0.000000 -1.000000 0.119476
v -0.395153 1.000000 0.104227
v -0.395153 -1.000000 0.104227
v -0.742644 1.000000 0.060320
v -0.742644 -1.000000 0.060320
v -1.000000 1.000000 0.000000
v -1.000000 -1.000000 -0.000000
vn 0.9836 -0.0000 0.1806
vn 0.9676 -0.0000 0.2524
vn 0.8570 -0.0000 0.5153
vn -0.0000 -0.0000 1.0000
vn -0.8570 -0.0000 0.5153
vn -0.9676 -0.0000 0.2524
vn -0.9836 -0.0000 0.1806
vt 1 0
vt 1 1
vt 0.864109 1
vt 0.864109 0
vt 0.690756 1
vt 0.690756 0
vt 0.495035 1
vt 0.495035 0
vt 0.299314 1
vt 0.299314 0
vt 0.125961 1
vt 0.125961 0
vt 0 1
vt 0 0
s 1
g street
f 1/1/1 2/2/1 3/3/2 4/4/2
f 4/4/2 3/3/2 5/5/3 6/6/3
f 6/6/3 5/5/3 7/7/4 8/8/4
f 8/8/4 7/7/4 9/9/5 10/10/5
f 10/10/5 9/9/5 11/11/6 12/12/6
f 12/12/6 11/11/6 13/13/7 14/14/7
