# Blender v2.93.1 OBJ File: ''
# www.blender.org
mtllib ditch_endpoint.mtl
o central.004
v 1.000000 1.000000 0.000000
v 0.807086 -1.000000 -0.501883
v 1.000000 -1.000000 -0.000000
v -1.000000 1.000000 0.000000
v -0.807086 -1.000000 -0.501883
v -0.667665 -1.000000 -0.015153
v 0.667665 -1.000000 -0.015153
v -1.000000 -1.000000 -0.000000
vt 1.000000 1.000000
vt 0.892886 0.000000
vt 1.000000 0.000000
vt 0.000000 1.000000
vt 0.106379 0.000000
vt 0.216009 0.000000
vt 0.783256 0.000000
vt 0.000000 0.000000
vt 0.000000 0.000000
vt 1.000000 0.000000
vn 0.1790 -0.0179 0.9837
vn 0.0992 -0.0000 0.9951
vn -0.6766 0.1821 0.7135
vn -0.4437 -0.3227 0.8360
vn -0.0363 -0.1090 0.9934
vn -0.2929 -0.2977 0.9086
vn 0.4571 -0.0817 0.8857
vn 0.6766 0.1821 0.7135
usemtl Default_OBJ
s 1
g ditch
f 1/1/1 2/2/2 3/3/3
f 4/4/4 5/5/5 6/6/6
f 1/1/1 7/7/7 2/2/2
f 4/4/4 8/8/8 5/5/5
g street
f 4/4/4 6/9/6 7/10/7 1/1/1
