# Blender v2.93.1 OBJ File: ''
# www.blender.org
o central.001
v 1.000000 1.000000 0.000000
v 0.750000 -1.000000 0.199553
v 1.000000 -1.000000 -0.000000
v -1.000000 1.000000 0.000000
v -0.125000 -1.000000 0.230751
v 0.000000 -1.000000 0.239341
v -0.750000 -1.000000 0.199553
v -0.567665 -1.000000 0.240131
v 0.375000 -1.000000 0.185418
v 0.567665 -1.000000 0.240131
v 0.125000 -1.000000 0.230751
v 0.250000 -1.000000 0.182248
v -0.375000 -1.000000 0.185418
v -0.250000 -1.000000 0.182248
v -1.000000 -1.000000 -0.000000
vt 0.993174 1.000000
vt 0.869685 0.001979
vt 0.993174 0.010050
vt 0.000000 0.999467
vt 0.435275 0.000494
vt 0.497376 0.000183
vt 0.124805 0.001579
vt 0.215484 0.000000
vt 0.683419 0.002446
vt 0.779274 0.000302
vt 0.559421 0.000561
vt 0.621335 0.002540
vt 0.310978 0.002246
vt 0.373041 0.002406
vt 0.000000 0.009517
vn 0.3310 0.2223 0.9171
vn 0.6029 0.0000 0.7978
vn 0.6134 0.1821 0.7685
vn -0.2500 -0.0515 0.9669
vn -0.2685 -0.0926 0.9588
vn -0.0682 -0.1005 0.9926
vn -0.6230 -0.1043 0.7752
vn -0.5129 -0.1727 0.8409
vn -0.2136 -0.1821 0.9598
vn 0.2235 0.0779 0.9716
vn -0.0557 0.0000 0.9984
vn -0.2718 0.1005 0.9571
vn 0.3207 0.0000 0.9472
vn 0.2615 -0.0000 0.9652
vn 0.1028 -0.0823 0.9913
vn -0.2161 -0.0797 0.9731
vn 0.2137 -0.1821 0.9598
vn -0.6134 0.1821 0.7685
vn 0.0682 0.1005 0.9926
vn 0.0682 -0.1005 0.9926
vn 0.2718 0.1005 0.9571
s 1
f 1/1/1 2/2/2 3/3/3
f 4/4/4 5/5/5 6/6/6
f 4/4/7 7/7/8 8/8/9
f 1/1/10 9/9/11 10/10/12
f 1/1/10 11/11/13 12/12/14
f 4/4/4 13/13/15 14/14/16
f 1/1/1 10/10/17 2/2/2
f 4/4/7 15/15/18 7/7/8
f 4/4/19 6/6/20 11/11/13 1/1/10
f 4/4/4 14/14/16 5/5/5
f 1/1/10 12/12/14 9/9/11
f 4/4/4 8/8/21 13/13/15
