# Blender v2.93.1 OBJ File: ''
# www.blender.org
mtllib endpoint.mtl
v -1.000000 0.000000 1.000000
v 1.000000 0.000000 1.000000
v -1.000000 0.000000 -1.000000
v 1.000000 0.000000 -1.000000
v 0.000000 0.236088 -1.000000
v 0.500000 0.170819 -1.000000
v -0.500000 0.170819 -1.000000
vt 1.000000 0.000000
vt 1.000000 1.000000
vt 0.750000 1.000000
vt 0.000000 1.000000
vt 0.000000 0.000000
vt 0.250000 1.000000
vt 0.500000 1.000000
vn 0.3233 0.9463 0.0000
vn -0.3233 0.9463 0.0000
vn -0.1293 0.9902 0.0523
vn 0.0000 0.9931 0.1172
vn 0.1293 0.9902 0.0523
g Plane_Plane_None
usemtl None
s off
f 2/1/1 4/2/1 6/3/1
f 3/4/2 1/5/2 7/6/2
f 7/6/3 1/5/3 5/7/3
f 1/5/4 2/1/4 5/7/4
f 5/7/5 2/1/5 6/3/5
