# Blender v3.1.0 Alpha OBJ File: ''
# www.blender.org
v -1.000000 -1.000000 0.000000
v 1.000000 -1.000000 0.000000
v -1.000000 1.000000 -0.000000
v 1.000000 1.000000 -0.000000
v 0.850000 -1.000000 0.000000
v -0.850000 1.000000 -0.000000
v -0.850000 -1.000000 0.000000
v 0.850000 1.000000 -0.000000
vt 0.000000 0.000000
vt 1.000000 0.000000
vt 1.000000 1.000000
vt 0.000000 1.000000
vt 0.575000 0.000000
vt 0.650000 0.000000
vt 0.650000 1.000000
vt 0.575000 1.000000
vt 0.350000 0.000000
vt 0.425000 0.000000
vt 0.425000 1.000000
vt 0.350000 1.000000
vn 0.0000 0.0000 1.0000
g street
s off
f 7/1/1 5/2/1 8/3/1 6/4/1
g curb
f 5/5/1 2/6/1 4/7/1 8/8/1
f 1/9/1 7/10/1 6/11/1 3/12/1
