# Blender v2.93.1 OBJ File: ''
# www.blender.org
mtllib low_central2.mtl
v 0.750000 1.000000 -0.121627
v 0.750000 -1.000000 -0.121627
v 1.000000 -1.000000 -0.000000
v 1.000000 1.000000 0.000000
v -0.750000 1.000000 -0.121627
v -0.750000 -1.000000 -0.121627
v -0.567665 -1.000000 -0.142760
v -0.567665 1.000000 -0.142760
v 0.567665 -1.000000 -0.142760
v 0.567665 1.000000 -0.142760
v -1.000000 1.000000 0.000000
v -1.000000 -1.000000 -0.000000
vt 0.125000 0.000000
vt 0.125000 1.000000
vt 0.000000 1.000000
vt 0.000000 0.000000
vt 0.875000 0.000000
vt 0.875000 1.000000
vt 0.783832 1.000000
vt 0.783832 0.000000
vt 0.216168 1.000000
vt 0.216168 0.000000
vt 1.000000 0.000000
vt 1.000000 1.000000
vn -0.1951 0.1465 0.9698
vn -0.1138 -0.0000 0.9935
vn -0.4302 0.1821 0.8842
vn -0.4302 -0.1821 0.8842
vn 0.1138 -0.0000 0.9935
vn 0.1950 -0.1465 0.9698
vn 0.0888 -0.2537 0.9632
vn -0.1806 0.0981 0.9786
vn 0.0472 -0.0694 0.9965
vn -0.1927 -0.0695 0.9788
vn 0.4302 -0.1821 0.8842
vn 0.4302 0.1821 0.8842
g street
usemtl None.004
s 1
f 1/1/1 2/2/2 3/3/3 4/4/4
f 5/5/5 6/6/6 7/7/7 8/8/8
f 8/8/8 7/7/7 9/9/9 10/10/10
f 10/10/10 9/9/9 2/2/2 1/1/1
f 11/11/11 12/12/12 6/6/6 5/5/5
