# Blender v2.93.1 OBJ File: ''
# www.blender.org
v 1.000000 1.000000 0.000000
v 0.750000 -1.000000 -0.121627
v 1.000000 -1.000000 -0.000000
v -1.000000 1.000000 0.000000
v -0.750000 -1.000000 -0.121627
v -0.567665 -1.000000 -0.142760
v 0.567665 -1.000000 -0.142760
v -1.000000 -1.000000 -0.000000
vt 0.998151 1.000000
vt 0.873382 0.000360
vt 0.998151 0.002430
vt 0.000000 1.000000
vt 0.124769 0.000360
vt 0.215768 0.000000
vt 0.782383 0.000000
vt 0.000000 0.002430
vn -0.2202 0.0138 0.9754
vn -0.1138 -0.0000 0.9935
vn -0.4302 0.1821 0.8842
vn -0.1354 0.1471 0.9798
vn 0.1950 -0.1465 0.9698
vn 0.2086 -0.2013 0.9571
vn 0.0472 -0.0694 0.9965
vn 0.4302 0.1821 0.8842
g street
s 1
f 1/1/1 2/2/2 3/3/3
f 4/4/4 5/5/5 6/6/6
f 4/4/4 6/6/6 7/7/7 1/1/1
f 1/1/1 7/7/7 2/2/2
f 4/4/4 8/8/8 5/5/5
