# Blender v2.93.1 OBJ File: ''
# www.blender.org
o central.001
v 1.000000 1.000000 0.000000
v 0.750000 -1.000000 -0.121627
v 1.000000 -1.000000 -0.000000
v -1.000000 1.000000 0.000000
v -0.125000 -1.000000 -0.090429
v 0.000000 -1.000000 -0.081839
v -0.750000 -1.000000 -0.121627
v -0.567665 -1.000000 -0.081049
v 0.375000 -1.000000 -0.135762
v 0.567665 -1.000000 -0.081049
v 0.125000 -1.000000 -0.090429
v 0.250000 -1.000000 -0.138932
v -0.375000 -1.000000 -0.135762
v -0.250000 -1.000000 -0.138932
v -1.000000 -1.000000 -0.000000
vt 0.000000 0.000000
vt 0.124330 0.999243
vt 0.000000 0.995178
vt 0.997354 0.000370
vt 0.560759 0.998374
vt 0.498448 0.998067
vt 0.872345 0.999521
vt 0.781532 0.998146
vt 0.311294 0.999780
vt 0.215369 0.997936
vt 0.436090 0.998328
vt 0.373620 0.999907
vt 0.685302 0.999918
vt 0.622958 1.000000
vt 0.997354 0.995548
vn 0.0822 0.1214 0.9892
vn 0.0401 -0.0000 0.9992
vn -0.4302 0.1821 0.8842
vn -0.2264 0.0548 0.9725
vn -0.2685 -0.0926 0.9588
vn -0.0000 -0.1034 0.9946
vn 0.0376 -0.1354 0.9901
vn 0.1637 0.0781 0.9834
vn -0.0557 -0.0000 0.9984
vn 0.1067 -0.0781 0.9912
vn 0.3207 -0.0000 0.9472
vn 0.2615 0.0000 0.9652
vn 0.1028 -0.0823 0.9913
vn -0.2161 -0.0797 0.9731
vn 0.4302 0.1821 0.8842
s 1
f 1/1/1 2/2/2 3/3/3
f 4/4/4 5/5/5 6/6/6 1/1/1
f 4/4/4 7/7/7 8/8/8
f 1/1/1 9/9/9 10/10/10
f 1/1/1 11/11/11 12/12/12
f 4/4/4 13/13/13 14/14/14
f 1/1/1 10/10/10 2/2/2
f 4/4/4 15/15/15 7/7/7
f 1/1/1 6/6/6 11/11/11
f 4/4/4 14/14/14 5/5/5
f 1/1/1 12/12/12 9/9/9
f 4/4/4 8/8/8 13/13/13
