# Blender v2.93.1 OBJ File: ''
# www.blender.org
mtllib low_endpoint3.mtl
v 1.000000 1.000000 0.000000
v 0.899990 -1.000000 -0.011232
v 1.000000 -1.000000 -0.000000
v -1.000000 1.000000 0.000000
v -0.819964 -1.000000 -0.213750
v -0.738024 -1.000000 -0.285520
v 0.738024 -1.000000 -0.285520
v 0.819964 -1.000000 -0.213750
v -1.000000 -1.000000 -0.000000
v -0.899990 -1.000000 -0.011232
vt 0.998999 0.001001
vt 0.001001 0.001001
vt 0.001001 0.998999
vt 0.998999 0.998999
vt 0.998834 0.992326
vt 1.212867 0.015736
vt 1.279675 0.019289
vt 0.009257 0.992326
vt -0.059957 0.010538
vt 0.012463 0.007674
vt 1.068048 0.010538
vt -0.271584 0.019290
vt -0.204777 0.015736
vt 0.995627 0.007674
vn 0.3141 -0.0179 0.9492
vn 0.3480 -0.2707 0.8976
vn -0.2436 -0.1094 0.9637
vn -0.4520 -0.0010 0.8920
vn -0.4163 0.0058 0.9092
vn -0.1097 0.1821 0.9771
vn 0.7559 -0.1438 0.6387
vn -0.7532 -0.0659 0.6545
vn 0.1098 0.1821 0.9771
vn 0.5051 -0.1887 0.8422
g street
usemtl street
s 1
f 4/2/1 6/3/2 7/4/3 1/1/4
g ditch
usemtl ditch
f 1/5/4 2/6/5 3/7/6
f 4/8/1 5/9/7 6/10/2
f 1/5/4 8/11/8 2/6/5
f 4/8/1 9/12/9 10/13/10
f 1/5/4 7/14/3 8/11/8
f 4/8/1 10/13/10 5/9/7
