# Blender v3.1.0 Alpha OBJ File: ''
# www.blender.org
mtllib parking_edge.mtl
v -1.000000 -1.000000 0.000000
v 1.000000 -1.000000 0.000000
v -1.000000 1.000000 -0.000000
v 1.000000 1.000000 -0.000000
v 2.000000 -1.000000 0.000000
v 2.000000 1.000000 -0.000000
vt 0.000000 0.000000
vt 1.000000 0.000000
vt 1.000000 1.000000
vt 0.000000 1.000000
vt 0.000000 0.000000
vt 1.000000 0.500000
vt 0.000000 0.500000
vn 0.0000 0.0000 1.0000
g street
usemtl street
s off
f 1/1/1 2/2/1 4/3/1 3/4/1
g curb
usemtl curb
f 4/5/1 2/2/1 5/6/1 6/7/1
