# Blender v3.1.0 Alpha OBJ File: ''
# www.blender.org
mtllib parking.mtl
v -1.000000 -1.000000 0.000000
v 1.000000 -1.000000 0.000000
v -1.000000 1.000000 -0.000000
v 1.000000 1.000000 -0.000000
v 1.500035 -1.000000 0.000000
v 2.000000 -0.500035 0.000000
v 1.654533 -0.975530 0.000000
v 1.793907 -0.904515 0.000000
v 1.904515 -0.793907 0.000000
v 1.975530 -0.654532 0.000000
v 1.500035 1.000000 -0.000000
v 2.000000 0.500035 -0.000000
v 1.654533 0.975530 -0.000000
v 1.793907 0.904515 -0.000000
v 1.904515 0.793907 -0.000000
v 1.975530 0.654532 -0.000000
vt 0.000000 0.000000
vt 1.000000 0.000000
vt 1.000000 1.000000
vt 0.000000 1.000000
vt 0.000000 1.000000
vt 0.000000 0.000000
vt 0.250017 0.000000
vt 0.327266 0.012235
vt 0.396954 0.047742
vt 0.452258 0.103047
vt 0.487765 0.172733
vt 0.500000 0.249983
vt 0.500000 0.750017
vt 0.487765 0.827266
vt 0.452258 0.896953
vt 0.396954 0.952258
vt 0.327266 0.987765
vt 0.250017 1.000000
vn 0.0000 0.0000 1.0000
g street
usemtl street
s off
f 1/1/1 2/2/1 4/3/1 3/4/1
g curb
usemtl curb
f 4/5/1 2/6/1 5/7/1 7/8/1 8/9/1 9/10/1 10/11/1 6/12/1 12/13/1 16/14/1 15/15/1 14/16/1 13/17/1 11/18/1
