# Blender v2.78 (sub 0) OBJ File: 'Mailbox.blend'
# www.blender.org
mtllib Mailbox.mtl
o Mailbox
v -0.800000 0.000000 -0.000000
v -0.799999 0.000000 -0.765466
v 0.000000 1.700000 0.000000
v -0.800000 1.700000 -0.000000
v -0.800000 1.700000 -0.765466
v -0.800000 0.162842 -0.000000
v -0.800000 0.189096 -0.000000
v -0.800000 0.162842 -0.765466
v -0.800000 0.189096 -0.765466
v -0.077835 1.625932 -0.765466
v -0.724635 1.625932 -0.765466
v -0.077835 1.498018 -0.765466
v -0.724635 1.498018 -0.767663
v -0.724635 1.498018 -0.765466
v -0.009824 0.175969 -0.009400
v -0.009824 0.175969 -0.756066
v -0.790176 0.175969 -0.009400
v 0.000000 0.000000 0.000000
v 0.000000 0.000000 -0.765466
v 0.000000 1.700000 -0.765466
v -0.790176 0.175969 -0.756066
v 0.000000 0.162842 -0.765466
v 0.000000 0.189096 -0.765466
v 0.000000 0.162842 0.000000
v 0.000000 0.189096 0.000000
v -0.077835 1.625932 -0.740508
v -0.724635 1.498018 -0.740508
v -0.042912 1.678354 -0.054690
v -0.757176 1.678354 -0.054690
v -0.757176 1.678354 -0.738121
v -0.077835 1.520147 -0.800000
v -0.077835 1.498018 -0.767663
v -0.724635 1.625932 -0.738121
v -0.077835 1.498018 -0.740508
v -0.042912 1.678353 -0.738121
v -0.724635 1.625932 -0.767663
v -0.077835 1.625932 -0.767662
v -0.042912 0.329373 -0.054690
v -0.757176 0.329373 -0.054690
v -0.757176 0.329373 -0.738121
v -0.042912 0.329373 -0.738121
v -0.724635 1.520147 -0.800000
v -0.088688 1.623785 -0.761998
v -0.088688 1.500164 -0.761998
v -0.713782 1.500164 -0.761998
v -0.713782 1.623785 -0.761998
vt 0.4188 0.0055
vt 0.5762 0.0055
vt 0.5762 0.0965
vt 0.4188 0.0965
vt 0.9583 0.2541
vt 0.9583 0.6591
vt 0.5533 0.6591
vt 0.5533 0.2541
vt 0.0000 0.0958
vt 0.0000 0.0000
vt 0.4931 0.0000
vt 0.4931 0.0958
vt 1.0000 0.0000
vt 1.0000 0.0958
vt 0.5020 0.0958
vt 0.5020 0.0000
vt 1.0000 0.0000
vt 1.0000 0.0958
vt 0.5020 0.0958
vt 0.5020 0.0000
vt 1.0000 0.1112
vt 1.0000 1.0000
vt 0.5020 1.0000
vt 0.5020 0.1112
vt 1.0000 0.1112
vt 1.0000 1.0000
vt 0.5020 1.0000
vt 0.5020 0.1112
vt 1.0000 0.1035
vt 0.5020 0.1035
vt 0.0000 0.1035
vt 0.4931 0.1035
vt 0.4931 0.1112
vt 0.0000 0.1112
vt 1.0000 0.1035
vt 0.5020 0.1035
vt 1.0000 0.1035
vt 0.5020 0.1035
vt 0.5020 0.0958
vt 1.0000 0.0958
vt 1.0000 0.1112
vt 1.0000 1.0000
vt 0.5020 1.0000
vt 0.5020 0.1112
vt 1.0000 0.0000
vt 0.5020 0.0000
vt 0.4931 1.0000
vt 0.0000 1.0000
vt 0.0470 0.9564
vt 0.4511 0.9558
vt 0.0456 0.8820
vt 0.4515 0.8812
vt 0.0490 0.9561
vt 0.4493 0.9527
vt 0.4493 0.8953
vt 0.0490 0.8987
vt 0.6342 0.6363
vt 0.8691 0.6363
vt 0.8691 0.5489
vt 0.6342 0.5489
vt 0.9628 0.2316
vt 0.8664 0.2316
vt 0.8664 0.2692
vt 0.9628 0.2692
vt 0.8664 0.2316
vt 0.7608 0.2316
vt 0.7701 0.2692
vt 0.8664 0.2692
vt 0.6645 0.2316
vt 0.5681 0.2316
vt 0.5589 0.6355
vt 0.6645 0.6355
vt 0.7608 0.2316
vt 0.6645 0.2316
vt 0.6645 0.6355
vt 0.7608 0.6355
vt 0.9583 0.2541
vt 0.5533 0.2541
vt 0.5533 0.6591
vt 0.9583 0.6591
vt 1.0000 0.1112
vt 0.5020 0.1112
vt 0.5020 1.0000
vt 1.0000 1.0000
vt 1.0000 0.1112
vt 0.5020 0.1112
vt 0.5020 1.0000
vt 1.0000 1.0000
vt 1.0000 0.1112
vt 0.5020 0.1112
vt 0.5020 1.0000
vt 1.0000 1.0000
vt 0.9975 1.0000
vt 0.9575 0.9564
vt 0.5515 0.9564
vt 0.5045 1.0000
vt 0.5045 0.1112
vt 0.5515 0.8812
vt 0.9975 0.1112
vt 0.9575 0.8812
vt 0.9583 0.2541
vt 0.9583 0.6591
vt 0.5533 0.6591
vt 0.5533 0.2541
vt 0.7166 0.6445
vt 0.7166 0.2895
vt 0.7599 0.2954
vt 0.0490 0.9561
vt 0.0490 0.8987
vt 0.4493 0.8953
vt 0.4493 0.9527
vt 0.0593 0.9018
vt 0.4413 0.9018
vt 0.4413 0.9511
vt 0.0593 0.9511
vt 0.7323 0.3369
vt 0.7831 0.3443
vt 0.7323 0.5431
vt 0.6515 0.7876
vt 0.7313 0.7876
vt 0.7313 0.4683
vt 0.6515 0.4683
vt 0.5717 0.7876
vt 0.6515 0.7876
vt 0.6515 0.4683
vt 0.5717 0.4683
vt 0.8111 0.4981
vt 0.8909 0.4981
vt 0.8909 0.4683
vt 0.8111 0.4683
vn 0.0000 -1.0000 0.0000
vn 0.5773 0.5773 -0.5773
vn -0.5773 0.5773 -0.5773
vn -0.5773 0.5773 0.5773
vn 0.5773 0.5773 0.5773
vn 0.7071 0.0000 -0.7071
vn -0.7071 0.0000 -0.7071
vn 0.7071 0.0000 0.7071
vn -0.7071 0.0000 0.7071
vn 0.6972 0.0000 -0.7168
vn 0.6972 0.0000 0.7168
vn 0.4936 0.7194 0.4888
vn 0.4936 0.7194 -0.4888
vn -0.6972 0.0000 -0.7168
vn -0.4936 -0.7194 -0.4888
vn 0.4936 -0.7194 -0.4888
vn -0.6972 0.0000 0.7168
vn -0.4936 0.7194 -0.4888
vn -0.4936 0.7194 0.4888
vn 0.0000 0.0000 -1.0000
vn 0.1679 0.5120 0.8424
vn -0.1679 0.5120 0.8424
vn -0.1679 -0.5120 0.8424
vn 0.1679 -0.5120 0.8424
vn -0.6580 -0.7212 0.2164
vn -0.7087 0.7027 -0.0624
vn 0.4936 -0.7194 0.4888
vn -0.4936 -0.7194 0.4888
vn -0.7071 0.7071 0.0000
vn -0.7063 -0.7079 0.0000
vn -0.7071 -0.7071 0.0000
vn 0.7071 -0.7071 0.0000
vn 0.7037 -0.7105 0.0000
vn 0.7113 0.7029 0.0000
vn 0.7071 0.7071 0.0000
vn -0.5839 -0.5781 0.5699
vn -0.5773 -0.5773 -0.5773
vn 0.5773 -0.5773 -0.5773
vn 0.5836 -0.5788 0.5695
vn -0.5774 0.5779 0.5767
vn 0.5774 0.5779 0.5767
vn 0.0361 -0.0112 0.9993
vn -0.0362 -0.0105 0.9993
vn -0.0451 0.0007 0.9990
vn 0.0425 -0.0004 0.9991
vn 0.7087 0.7027 -0.0624
vn 0.6580 -0.7212 0.2164
vn 0.5950 -0.2658 -0.7585
vn -0.5950 -0.2658 -0.7585
usemtl Mailbox
s 1
f 19/1/1 18/2/1 1/3/1 2/4/1
f 20/5/2 5/6/3 4/7/4 3/8/5
f 22/9/6 19/10/6 2/11/7 8/12/7
f 19/13/6 22/14/6 24/15/8 18/16/8
f 1/17/9 6/18/9 8/19/7 2/20/7
f 23/21/6 20/22/2 3/23/5 25/24/8
f 7/25/9 4/26/4 5/27/3 9/28/7
f 16/29/10 15/30/11 24/15/12 22/14/13
f 16/31/10 21/32/14 9/33/15 23/34/16
f 17/35/17 21/36/14 8/19/18 6/18/19
f 15/37/11 17/38/17 6/39/19 24/40/12
f 25/41/8 3/42/5 4/43/4 7/44/9
f 18/45/8 24/40/8 6/39/9 1/46/9
f 5/47/3 20/48/2 10/49/20 11/50/20
f 23/34/6 12/51/20 10/49/20 20/48/2
f 9/33/7 5/47/3 11/50/20 14/52/20
f 23/34/6 9/33/7 14/52/20 12/51/20
f 43/53/21 46/54/22 45/55/23 44/56/24
f 13/57/25 45/58/23 46/59/22 36/60/26
f 25/41/27 7/44/28 17/38/17 15/37/11
f 7/25/28 9/28/15 21/36/14 17/35/17
f 22/9/13 8/12/18 21/32/14 16/31/10
f 23/21/16 25/24/27 15/30/11 16/29/10
f 12/61/29 34/62/29 26/63/30 10/64/31
f 11/65/32 33/66/33 27/67/34 14/68/35
f 10/69/31 26/70/30 33/71/33 11/72/32
f 14/73/35 27/74/34 34/75/29 12/76/29
f 35/77/36 28/78/37 29/79/38 30/80/39
f 41/81/40 38/82/3 28/83/37 35/84/36
f 39/85/2 40/86/41 30/87/39 29/88/38
f 38/89/3 39/90/2 29/91/38 28/92/37
f 30/93/39 33/94/42 26/95/43 35/96/36
f 41/97/40 35/96/36 26/95/43 34/98/44
f 40/99/41 27/100/45 33/94/42 30/93/39
f 41/97/40 34/98/44 27/100/45 40/99/41
f 41/101/40 40/102/41 39/103/2 38/104/3
f 37/105/46 32/106/47 31/107/48
f 37/108/46 31/109/48 42/110/49 36/111/26
f 42/112/49 31/113/48 32/114/47 13/115/25
f 42/116/49 13/117/25 36/118/26
f 36/119/26 46/120/22 43/121/21 37/122/46
f 32/123/47 44/124/24 45/125/23 13/126/25
f 37/127/46 43/128/21 44/129/24 32/130/47
