# Blender v2.82 (sub 7) OBJ File: 'arrow.blend'
# www.blender.org
mtllib arrow.mtl
o Cube
v 0.364746 4.256821 -0.721792
v 0.364746 1.445098 -0.469421
v 0.364746 4.256821 0.749596
v 0.364746 1.445098 0.509738
v -0.338383 4.256821 -0.721792
v -0.338383 1.445098 -0.469421
v -0.338383 4.256821 0.749596
v -0.338383 1.445098 0.509738
vt 0.625000 0.500000
vt 0.875000 0.500000
vt 0.875000 0.750000
vt 0.625000 0.750000
vt 0.375000 0.750000
vt 0.625000 1.000000
vt 0.375000 1.000000
vt 0.375000 0.000000
vt 0.625000 0.000000
vt 0.625000 0.250000
vt 0.375000 0.250000
vt 0.125000 0.500000
vt 0.375000 0.500000
vt 0.125000 0.750000
vn 0.0000 1.0000 0.0000
vn 0.0000 -0.0850 0.9964
vn -1.0000 0.0000 0.0000
vn 0.0000 -1.0000 0.0000
vn 1.0000 0.0000 0.0000
vn 0.0000 -0.0894 -0.9960
usemtl Material
s off
f 1/1/1 5/2/1 7/3/1 3/4/1
f 4/5/2 3/4/2 7/6/2 8/7/2
f 8/8/3 7/9/3 5/10/3 6/11/3
f 6/12/4 2/13/4 4/5/4 8/14/4
f 2/13/5 1/1/5 3/4/5 4/5/5
f 6/11/6 5/10/6 1/1/6 2/13/6
o Cube.001
v -0.325501 -0.043398 0.020158
v -0.325501 1.431131 0.841167
v -0.325501 1.431131 -0.784404
v 0.358896 -0.043398 0.020158
v 0.358896 1.431131 0.841167
v 0.358896 1.431131 -0.784404
vt 0.375000 0.000000
vt 0.625000 0.000000
vt 0.625000 0.250000
vt 0.375000 0.250000
vt 0.625000 0.500000
vt 0.375000 0.500000
vt 0.625000 0.750000
vt 0.375000 0.750000
vt 0.625000 1.000000
vt 0.375000 1.000000
vt 0.875000 0.500000
vt 0.875000 0.750000
vn -1.0000 0.0000 0.0000
vn 0.0000 -0.4790 -0.8778
vn 1.0000 0.0000 0.0000
vn 0.0000 -0.4865 0.8737
vn 0.0000 1.0000 0.0000
usemtl None
s off
f 9/15/7 10/16/7 11/17/7
f 9/18/8 11/17/8 14/19/8 12/20/8
f 12/20/9 14/19/9 13/21/9
f 12/22/10 13/21/10 10/23/10 9/24/10
f 14/19/11 11/25/11 10/26/11 13/21/11
