# Blender v2.91.2 OBJ File: ''
# www.blender.org
mtllib M3_body_lowpoly.mtl
o Cube_Cube.001
v -0.189254 -0.538298 -0.561805
v 1.210876 -0.538298 -0.561805
v 1.210876 -0.538298 0.561805
v -0.189254 -0.538298 0.561805
v -1.966441 0.555559 -0.801603
v -2.004105 0.022354 -0.801603
v -2.004105 0.022354 0.801603
v -1.966441 0.555559 0.801603
v 2.144068 0.503009 0.801603
v 2.169089 -0.151755 0.801603
v 2.169089 -0.151755 -0.801603
v 2.144068 0.503009 -0.801603
v 1.600645 -0.188720 0.681704
v 1.600645 -0.188720 -0.681704
v -0.662021 -0.152490 -0.681704
v -0.662021 -0.152490 0.681704
vt 0.627608 0.505419
vt 0.872392 0.505419
vt 0.872392 0.744581
vt 0.627608 0.744581
vt 0.375000 0.500000
vt 0.602950 0.500000
vt 0.602950 0.750000
vt 0.375000 0.750000
vt 0.375000 0.000000
vt 0.602950 0.000000
vt 0.602950 0.250000
vt 0.375000 0.250000
vt 0.125000 0.500000
vt 0.125000 0.750000
vt 0.873696 0.747291
vt 0.873696 0.502709
vt 0.875000 0.500000
vt 0.875000 0.750000
vt 0.626304 0.502709
vt 0.625000 0.500000
vt 0.615279 0.502709
vt 0.615279 0.747291
vt 0.626304 0.747291
vt 0.625000 0.750000
vt 0.602950 1.000000
vt 0.375000 1.000000
vn -0.0000 -1.0000 0.0000
vn -0.9975 0.0705 -0.0000
vn 0.9993 0.0382 -0.0000
vn 0.0128 0.9999 -0.0000
vn 0.0000 -0.0000 -1.0000
vn 0.0649 -0.9979 0.0000
vn -0.0258 -0.7891 -0.6138
vn -0.1292 -0.9916 0.0000
vn -0.0258 -0.7891 0.6138
vn -0.0000 0.0000 1.0000
vn -0.6323 -0.7748 0.0000
vn 0.6677 -0.7444 0.0000
vn -0.0031 -0.3103 -0.9506
vn -0.0031 -0.3103 0.9506
usemtl None
s 1
f 1/1/1 2/2/1 3/3/1 4/4/1
f 5/5/2 6/6/2 7/7/2 8/8/2
f 9/9/3 10/10/3 11/11/3 12/12/3
f 12/13/4 5/5/4 8/8/4 9/14/4
f 12/12/5 11/11/5 6/6/5 5/5/5
f 13/15/6 14/16/6 11/17/6 10/18/6
f 14/16/7 15/19/7 6/20/7 11/17/7
f 15/21/8 16/22/8 7/7/8 6/6/8
f 16/23/9 13/15/9 10/18/9 7/24/9
f 8/8/10 7/7/10 10/25/10 9/26/10
f 1/1/11 4/4/11 16/22/11 15/21/11
f 3/3/12 2/2/12 14/16/12 13/15/12
f 2/2/13 1/1/13 15/19/13 14/16/13
f 4/4/14 3/3/14 13/15/14 16/23/14
