# File produced by Open Asset Import Library (http://www.assimp.sf.net)
# (assimp v4.1.0)

mtllib M3_glass.mtl

# 62 vertex positions
v  -0.6362839937210083 -0.1227760016918182 0.6940609812736511
v  -0.2380429953336716 -0.4863060116767883 0.5642349720001221
v  -0.207057997584343 -0.5024449825286865 0.5579680204391479
v  -0.1549679934978485 -0.5126050114631653 0.5553669929504395
v  0.41457799077034 -0.5355920195579529 0.5512830018997192
v  0.3148530125617981 -0.1557620018720627 0.6991410255432129
v  -0.6362770199775696 -0.1227800026535988 -0.6936290264129639
v  -0.207052007317543 -0.5024470090866089 -0.5575360059738159
v  -0.2380370050668716 -0.4863080084323883 -0.5638030171394348
v  -0.1549630016088486 -0.5126069784164429 -0.5549349784851074
v  0.4145840108394623 -0.5355939865112305 -0.5508509874343872
v  0.314859002828598 -0.1557659953832626 -0.6987090110778809
v  1.265890002250671 -0.2241690009832382 0.6524369716644287
v  1.262599945068359 -0.1965620070695877 0.6635800004005432
v  1.000779986381531 -0.5006930232048035 0.564191997051239
v  1.224799990653992 -0.1748549938201904 0.6717420220375061
v  0.9544079899787903 -0.5267580151557922 0.5585240125656128
v  0.924347996711731 -0.1697909981012344 0.6869649887084961
v  0.9188669919967651 -0.5269579887390137 0.5585240125656128
v  0.5310459733009338 -0.5342620015144348 0.5585240125656128
v  0.5020049810409546 -0.1632850021123886 0.7014570236206055
v  1.265890002250671 -0.2241690009832382 -0.6679279804229736
v  1.000779986381531 -0.5006930232048035 -0.5796819925308228
v  1.262599945068359 -0.1965620070695877 -0.679069995880127
v  0.9544079899787903 -0.5267580151557922 -0.5740150213241577
v  1.224799990653992 -0.1748549938201904 -0.6872320175170898
v  0.9188669919967651 -0.5269579887390137 -0.5740150213241577
v  0.924347996711731 -0.1697909981012344 -0.7024549841880798
v  1.605640053749084 -0.2153220027685165 0.60725998878479
v  1.181710004806519 -0.534775972366333 0.5118340253829956
v  1.162569999694824 -0.5837060213088989 0.4052729904651642
v  1.158439993858337 -0.5631049871444702 0.4828279912471771
v  1.684659957885742 -0.2166420072317123 0.2806020081043243
v  1.166360020637512 -0.588916003704071 0.2212730050086975
v  1.16635000705719 -0.5891540050506592 -0.003395430045202374
v  1.700350046157837 -0.2167569994926453 -0.003395460080355406
v  1.158439993858337 -0.5631049871444702 -0.4896189868450165
v  1.181710004806519 -0.534775972366333 -0.518625020980835
v  1.162569999694824 -0.5837060213088989 -0.4120639860630035
v  1.605640053749084 -0.2153220027685165 -0.6140509843826294
v  1.166360020637512 -0.588916003704071 -0.2280630022287369
v  1.68464994430542 -0.2166420072317123 -0.2873930037021637
v  0.5020049810409546 -0.1632850021123886 -0.7169479727745056
v  0.5310459733009338 -0.5342620015144348 -0.5740150213241577
v  -0.3198919892311096 -0.5513730049133301 -0.003395420033484697
v  -0.8356170058250427 -0.1673280000686646 -0.003395420033484697
v  -0.3175579905509949 -0.551410973072052 -0.2284529954195023
v  -0.8298829793930054 -0.1643970012664795 -0.3046669960021973
v  -0.3041320145130157 -0.5482959747314453 -0.4124599993228912
v  -0.8017200231552124 -0.1564480066299438 -0.511231005191803
v  -0.2834979891777039 -0.5339549779891968 -0.5137040019035339
v  -0.7148979902267456 -0.1364369988441467 -0.6708539724349976
v  -0.2868820130825043 -0.5167989730834961 -0.5335130095481873
v  -0.7029399871826172 -0.1398279964923859 -0.6772140264511108
v  -0.8298860192298889 -0.1643970012664795 0.2978770136833191
v  -0.3175599873065948 -0.551410973072052 0.2216619998216629
v  -0.8017249703407288 -0.1564480066299438 0.5044410228729248
v  -0.3041349947452545 -0.5482959747314453 0.4056690037250519
v  -0.7149029970169067 -0.1364289969205856 0.6640629768371582
v  -0.283502995967865 -0.5339549779891968 0.5069130063056946
v  -0.7029460072517395 -0.1398279964923859 0.6704229712486267
v  -0.286886990070343 -0.5167909860610962 0.5267230272293091

# 62 UV coordinates
vt 0.7891299724578857 0.889631986618042 0
vt 0.742920994758606 0.7478840351104736 0
vt 0.7406899929046631 0.7368559837341309 0
vt 0.7397639751434326 0.7183150053024292 0
vt 0.7383099794387817 0.5155940055847168 0
vt 0.7909380197525024 0.5510900020599365 0
vt 0.2952030003070831 0.8896300196647644 0
vt 0.343643993139267 0.7368539571762085 0
vt 0.3414129912853241 0.7478820085525513 0
vt 0.3445689976215363 0.7183129787445068 0
vt 0.3460229933261871 0.5155919790267944 0
vt 0.2933950126171112 0.5510870218276978 0
vt 0.7743149995803833 0.2125830054283142 0
vt 0.7782809734344482 0.2137539982795715 0
vt 0.7429050207138062 0.3069450259208679 0
vt 0.7811859846115112 0.2272070050239563 0
vt 0.7408879995346069 0.3234500288963318 0
vt 0.7866039872169495 0.3341490030288696 0
vt 0.7408879995346069 0.3360999822616577 0
vt 0.7408879995346069 0.4741389751434326 0
vt 0.7917630076408386 0.4844759702682495 0
vt 0.3043510019779205 0.2125830054283142 0
vt 0.3357610106468201 0.3069450259208679 0
vt 0.3003849983215332 0.2137529850006104 0
vt 0.3377780020236969 0.3234500288963318 0
vt 0.2974799871444702 0.2272070050239563 0
vt 0.3377780020236969 0.3360999822616577 0
vt 0.2920620143413544 0.3341490030288696 0
vt 0.758234977722168 0.09165501594543457 0
vt 0.7242689728736877 0.242546021938324 0
vt 0.6863399744033813 0.2493579983711243 0
vt 0.7139449715614319 0.2508270144462585 0
vt 0.6419659852981567 0.06353002786636353 0
vt 0.6208480000495911 0.248009979724884 0
vt 0.5408809781074524 0.2480109930038452 0
vt 0.5408809781074524 0.05794399976730347 0
vt 0.3678170144557953 0.2508270144462585 0
vt 0.3574930131435394 0.242546021938324 0
vt 0.3954220116138458 0.2493579983711243 0
vt 0.323527991771698 0.09165501594543457 0
vt 0.4609139859676361 0.248009979724884 0
vt 0.4397970139980316 0.06353002786636353 0
vt 0.2869029939174652 0.4844759702682495 0
vt 0.3377780020236969 0.4741389751434326 0
vt 0.5408809781074524 0.7770169973373413 0
vt 0.5408809781074524 0.9605814814567566 0
vt 0.4607760012149811 0.776187002658844 0
vt 0.4336479902267456 0.9585404992103577 0
vt 0.3952809870243073 0.7714080214500427 0
vt 0.3601250052452087 0.9485164880752563 0
vt 0.3592450022697449 0.7640630006790161 0
vt 0.3033100068569183 0.9176133871078491 0
vt 0.3521940112113953 0.7652679681777954 0
vt 0.3010460138320923 0.9133573174476624 0
vt 0.648114025592804 0.9585415720939636 0
vt 0.6209869980812073 0.776187002658844 0
vt 0.721638023853302 0.9485180974006653 0
vt 0.6864809989929199 0.7714090347290039 0
vt 0.77845299243927 0.9176152944564819 0
vt 0.7225180268287659 0.7640650272369385 0
vt 0.7807160019874573 0.9133594036102295 0
vt 0.7295690178871155 0.7652699947357178 0

# 62 vertex normals
vn -0.00314340996555984 -0.3431200087070465 0.9392679929733276
vn 0.03607289865612984 -0.3008210062980652 0.9529709815979004
vn 0.006073180120438337 -0.3313089907169342 0.9434800148010254
vn -0.01550340000540018 -0.3520919978618622 0.9358199834823608
vn -0.0123904999345541 -0.35486900806427 0.9348120093345642
vn -0.01767019927501678 -0.3667100071907043 0.9301429986953735
vn -0.00314340996555984 -0.3431200087070465 -0.9392679929733276
vn 0.006073180120438337 -0.3313089907169342 -0.9434800148010254
vn 0.03604239970445633 -0.3008210062980652 -0.9529709815979004
vn -0.01550340000540018 -0.3520919978618622 -0.9358199834823608
vn -0.0123904999345541 -0.35486900806427 -0.9348120093345642
vn -0.01767019927501678 -0.3667100071907043 -0.9301429986953735
vn 0.07272560149431229 -0.3657949864864349 0.9278240203857422
vn 0.06741540133953094 -0.3599050045013428 0.9305400252342224
vn 0.09079259634017944 -0.3791010081768036 0.920864999294281
vn 0.02136299945414066 -0.3222450017929077 0.9463790059089661
vn 0.04373300075531006 -0.3406780064105988 0.9391459822654724
vn 0.03448589891195297 -0.3386330008506775 0.9402750134468079
vn 0.01934869959950447 -0.3360390067100525 0.941618025302887
vn 0.006744590122252703 -0.3590500056743622 0.9332870244979858
vn 0.01690730080008507 -0.3488569855690002 0.9370099902153015
vn 0.07269509881734848 -0.3657949864864349 -0.9278240203857422
vn 0.09079259634017944 -0.3791010081768036 -0.920864999294281
vn 0.06741540133953094 -0.3599050045013428 -0.9305400252342224
vn 0.04373300075531006 -0.3406780064105988 -0.9391459822654724
vn 0.02136299945414066 -0.3222450017929077 -0.9463790059089661
vn 0.01934869959950447 -0.3360390067100525 -0.941618025302887
vn 0.03448589891195297 -0.3386330008506775 -0.9402750134468079
vn 0.5820180177688599 -0.7994019985198975 0.1489299982786179
vn 0.5818049907684326 -0.7736750245094299 0.2507399916648865
vn 0.600970983505249 -0.7787709832191467 0.1797239929437637
vn 0.621845006942749 -0.7480090260505676 0.2317879945039749
vn 0.5750300288200378 -0.8160650134086609 0.05783259868621826
vn 0.5945619940757751 -0.8018739819526672 0.05883970111608505
vn 0.5776540040969849 -0.8162479996681213 0
vn 0.5720080137252808 -0.8202149868011475 0
vn 0.621845006942749 -0.7480090260505676 -0.2317879945039749
vn 0.5818049907684326 -0.7736750245094299 -0.2507399916648865
vn 0.600970983505249 -0.7787709832191467 -0.1797239929437637
vn 0.5820180177688599 -0.7994019985198975 -0.1489299982786179
vn 0.5945619940757751 -0.8018739819526672 -0.05883970111608505
vn 0.5750300288200378 -0.8160650134086609 -0.05783259868621826
vn 0.01690730080008507 -0.3488569855690002 -0.9370099902153015
vn 0.006744590122252703 -0.3590500056743622 -0.9332870244979858
vn -0.5972470045089722 -0.8020259737968445 0
vn -0.5990779995918274 -0.8006529808044434 0
vn -0.5997800230979919 -0.7986689805984497 -0.04858550056815147
vn -0.5952640175819397 -0.8008670210838318 -0.06518749892711639
vn -0.5879999995231628 -0.7766960263252258 -0.2256540060043335
vn -0.580706000328064 -0.7927489876747131 -0.1852169930934906
vn -0.5211650133132935 -0.736411988735199 -0.4313490092754364
vn -0.5415809750556946 -0.751151978969574 -0.3773919939994812
vn -0.4575029909610748 -0.7093420028686523 -0.5361800193786621
vn -0.4662010073661804 -0.7132480144500732 -0.5233309864997864
vn -0.5952640175819397 -0.8008670210838318 0.06518749892711639
vn -0.5997800230979919 -0.7986689805984497 0.04858550056815147
vn -0.580706000328064 -0.7927489876747131 0.1852169930934906
vn -0.5879999995231628 -0.7766960263252258 0.2256540060043335
vn -0.5416420102119446 -0.751151978969574 0.3772700130939484
vn -0.5211949944496155 -0.736411988735199 0.4312880039215088
vn -0.466262012720108 -0.7132790088653564 0.5232089757919312
vn -0.4573499858379364 -0.7092499732971191 0.5364239811897278

# Mesh '' with 50 faces
usemtl DefaultMaterial
f  1/1/1 2/2/2 3/3/3
f  1/1/1 3/3/3 4/4/4
f  1/1/1 4/4/4 5/5/5
f  1/1/1 5/5/5 6/6/6
f  7/7/7 8/8/8 9/9/9
f  7/7/7 10/10/10 8/8/8
f  7/7/7 11/11/11 10/10/10
f  7/7/7 12/12/12 11/11/11
f  13/13/13 14/14/14 15/15/15
f  16/16/16 17/17/17 14/14/14
f  15/15/15 14/14/14 17/17/17
f  18/18/18 19/19/19 16/16/16
f  17/17/17 16/16/16 19/19/19
f  20/20/20 19/19/19 21/21/21
f  18/18/18 21/21/21 19/19/19
f  22/22/22 23/23/23 24/24/24
f  23/23/23 25/25/25 24/24/24
f  26/26/26 24/24/24 25/25/25
f  25/25/25 27/27/27 26/26/26
f  28/28/28 26/26/26 27/27/27
f  29/29/29 30/30/30 31/31/31
f  32/32/32 31/31/31 30/30/30
f  33/33/33 29/29/29 34/34/34
f  31/31/31 34/34/34 29/29/29
f  34/34/34 35/35/35 33/33/33
f  36/36/36 33/33/33 35/35/35
f  37/37/37 38/38/38 39/39/39
f  40/40/40 39/39/39 38/38/38
f  39/39/39 40/40/40 41/41/41
f  42/42/42 41/41/41 40/40/40
f  36/36/36 35/35/35 42/42/42
f  41/41/41 42/42/42 35/35/35
f  28/28/28 27/27/27 43/43/43
f  44/44/44 43/43/43 27/27/27
f  45/45/45 46/46/46 47/47/47
f  48/48/48 47/47/47 46/46/46
f  49/49/49 47/47/47 50/50/50
f  48/48/48 50/50/50 47/47/47
f  51/51/51 49/49/49 52/52/52
f  50/50/50 52/52/52 49/49/49
f  53/53/53 51/51/51 54/54/54
f  52/52/52 54/54/54 51/51/51
f  55/55/55 46/46/46 56/56/56
f  45/45/45 56/56/56 46/46/46
f  55/55/55 56/56/56 57/57/57
f  58/58/58 57/57/57 56/56/56
f  57/57/57 58/58/58 59/59/59
f  60/60/60 59/59/59 58/58/58
f  59/59/59 60/60/60 61/61/61
f  62/62/62 61/61/61 60/60/60

