# Blender v2.90.0 OBJ File: ''
# www.blender.org
mtllib M3_glass.mtl
v -0.636284 -0.122776 0.694061
v -0.210310 -0.504623 0.558642
v 0.414578 -0.535592 0.551283
v 0.314853 -0.155762 0.699141
v -0.636277 -0.122780 -0.693629
v -0.210304 -0.504625 -0.558210
v 0.414584 -0.535594 -0.550851
v 0.314859 -0.155766 -0.698709
v 1.265746 -0.184129 0.659301
v 0.969822 -0.527179 0.565173
v 0.531046 -0.534262 0.558524
v 0.502005 -0.163285 0.701457
v 1.265747 -0.184132 -0.674800
v 0.969824 -0.527182 -0.580671
v 1.622688 -0.210623 0.606913
v 1.152601 -0.563669 0.489760
v 1.696500 -0.212902 -0.194918
v 1.149161 -0.556977 -0.495742
v 1.605640 -0.215322 -0.614051
v 0.502005 -0.163285 -0.716948
v 0.531046 -0.534262 -0.574015
v -0.298219 -0.531138 0.534001
v -0.821904 -0.158992 0.444890
v -0.810313 -0.154433 -0.478557
v -0.285581 -0.533071 -0.531368
v -0.708776 -0.137811 -0.676860
v -0.708762 -0.137768 0.670039
vt 0.789130 0.889632
vt 0.741310 0.737088
vt 0.738310 0.515594
vt 0.790938 0.551090
vt 0.295203 0.889630
vt 0.346023 0.515592
vt 0.343024 0.737086
vt 0.293395 0.551087
vt 0.740888 0.474139
vt 0.741404 0.319172
vt 0.791763 0.484476
vt 0.777797 0.217416
vt 0.472844 0.061704
vt 0.756738 0.091293
vt 0.713822 0.248755
vt 0.367571 0.248799
vt 0.323528 0.091655
vt 0.300869 0.217416
vt 0.337262 0.319172
vt 0.286903 0.484476
vt 0.337778 0.474139
vt 0.371908 0.950123
vt 0.729227 0.764448
vt 0.699861 0.951111
vt 0.355513 0.764633
vt 0.301962 0.915079
vt 0.779799 0.915084
vn -0.0025 -0.3415 0.9399
vn -0.0133 -0.3436 0.9390
vn -0.0121 -0.3542 0.9351
vn -0.0177 -0.3667 0.9302
vn -0.0025 -0.3415 -0.9399
vn -0.0121 -0.3542 -0.9351
vn -0.0133 -0.3436 -0.9390
vn -0.0177 -0.3667 -0.9302
vn -0.0083 -0.3601 0.9329
vn 0.0293 -0.3190 0.9473
vn 0.0152 -0.3334 0.9426
vn 0.0444 -0.2998 0.9530
vn 0.5628 -0.8265 -0.0131
vn 0.5947 -0.8033 0.0331
vn 0.5653 -0.8243 0.0313
vn 0.5706 -0.8194 -0.0549
vn 0.5815 -0.8028 -0.1317
vn 0.0444 -0.2998 -0.9530
vn 0.0294 -0.3190 -0.9473
vn 0.0154 -0.3332 -0.9427
vn -0.0083 -0.3601 -0.9329
vn -0.5933 -0.7968 -0.1144
vn -0.5613 -0.8243 0.0739
vn -0.5762 -0.8090 0.1159
vn -0.6402 -0.7613 -0.1027
vn -0.5954 -0.7397 -0.3135
vn -0.6050 -0.7293 0.3196
g M3_glass_M3_glass_DefaultMaterial
usemtl DefaultMaterial
s 1
f 1/1/1 2/2/2 3/3/3
f 1/1/1 3/3/3 4/4/4
f 5/5/5 7/6/6 6/7/7
f 5/5/5 8/8/8 7/6/6
f 11/9/9 10/10/10 12/11/11
f 9/12/12 12/11/11 10/10/10
f 17/13/13 15/14/14 16/15/15
f 17/13/13 18/16/16 19/17/17
f 18/16/16 17/13/13 16/15/15
f 13/18/18 14/19/19 20/20/20
f 21/21/21 20/20/20 14/19/19
f 24/22/22 22/23/23 23/24/24
f 25/25/25 22/23/23 24/22/22
f 24/22/22 26/26/26 25/25/25
f 23/24/24 22/23/23 27/27/27
