# Blender v2.90.0 OBJ File: ''
# www.blender.org
mtllib M3_glass.mtl
o M3_glass
v -0.636284 -0.122776 0.694061
v -0.210310 -0.504623 0.558642
v 0.414578 -0.535592 0.551283
v 0.314853 -0.155762 0.699141
v -0.636277 -0.122780 -0.693629
v -0.210304 -0.504625 -0.558210
v 0.414584 -0.535594 -0.550851
v 0.314859 -0.155766 -0.698709
v 1.265746 -0.184129 0.659301
v 0.696945 -0.506357 0.336429
v 0.502005 -0.163285 0.701457
v 1.265747 -0.184132 -0.674800
v 0.696946 -0.506364 -0.351945
v 1.622688 -0.210623 0.606913
v 1.152601 -0.563669 0.489760
v 1.149161 -0.556977 -0.495742
v 1.634789 -0.184601 -0.601123
v 0.502005 -0.163285 -0.716948
v -0.298219 -0.531138 0.534001
v -0.744038 -0.097595 0.632527
v -0.730073 -0.101655 -0.646174
v -0.285581 -0.533071 -0.531368
vt 0.789130 0.889632
vt 0.741310 0.737088
vt 0.738310 0.515594
vt 0.790938 0.551090
vt 0.295203 0.889630
vt 0.346023 0.515592
vt 0.343024 0.737086
vt 0.293395 0.551087
vt 0.777797 0.217416
vt 0.791763 0.484476
vt 0.741080 0.416604
vt 0.330137 0.090329
vt 0.756738 0.091293
vt 0.713822 0.248755
vt 0.367571 0.248799
vt 0.300869 0.217416
vt 0.337586 0.416606
vt 0.286903 0.484476
vt 0.312678 0.920448
vt 0.729227 0.764448
vt 0.765317 0.921610
vt 0.355513 0.764633
vn -0.0025 -0.3415 0.9399
vn -0.0133 -0.3436 0.9390
vn -0.0121 -0.3542 0.9351
vn -0.0177 -0.3667 0.9302
vn -0.0025 -0.3415 -0.9399
vn -0.0121 -0.3542 -0.9351
vn -0.0133 -0.3436 -0.9390
vn -0.0177 -0.3667 -0.9302
vn 0.0183 -0.7237 0.6899
vn 0.0195 -0.7241 0.6894
vn 0.6060 -0.7955 0.0032
vn 0.6045 -0.7958 -0.0349
vn 0.6018 -0.7986 -0.0081
vn 0.6265 -0.7793 -0.0131
vn 0.0183 -0.7236 -0.6899
vn 0.0195 -0.7241 -0.6894
vn 0.0185 -0.7234 -0.6901
vn -0.6993 -0.7145 0.0209
vn -0.6947 -0.7191 -0.0166
vn -0.6971 -0.7169 -0.0064
vn -0.7420 -0.6697 -0.0312
g M3_glass_M3_glass_DefaultMaterial
usemtl DefaultMaterial
s 1
f 1/1/1 2/2/2 3/3/3
f 1/1/1 3/3/3 4/4/4
f 5/5/5 7/6/6 6/7/7
f 5/5/5 8/8/8 7/6/6
f 9/9/9 11/10/9 10/11/10
f 17/12/11 14/13/12 15/14/13
f 16/15/14 17/12/11 15/14/13
f 12/16/15 13/17/16 18/18/17
f 21/19/18 19/20/19 20/21/20
f 22/22/21 19/20/19 21/19/18
