# Blender v3.2.0 OBJ File: ''
# www.blender.org
o Cube_Cube.002
v -0.397494 2.336704 -7.915134
v -0.357216 1.325512 -8.981033
v -0.377355 4.788413 -9.179854
v 0.112449 2.336704 -7.915134
v 0.152033 4.788413 -9.179854
v -0.357216 4.767416 -10.027783
v 0.357216 4.767416 -10.027783
v 0.357216 1.325512 -8.981033
vt 0.625000 0.625000
vt 0.625000 0.125000
vt 0.375000 0.250000
vt 0.375000 0.500000
vt 0.875000 0.562500
vt 0.875000 0.625000
vt 0.625000 0.562500
vt 0.875000 0.500000
vt 0.625000 0.500000
vt 0.625000 0.250000
vt 0.625000 0.187500
vn -0.0691 -0.7755 0.6276
vn -0.0763 -0.8033 0.5907
vn 0.0381 -0.6999 0.7132
vn 0.1012 -0.7319 0.6739
vn 0.0000 0.4584 0.8887
vn 0.0000 0.9997 -0.0248
vn -0.9935 0.1080 -0.0351
vn -0.9990 0.0427 -0.0126
vn -0.9902 0.1384 -0.0180
vn 0.9932 0.1162 0.0014
vn 0.9924 0.0852 0.0891
vn 0.9931 0.0027 0.1176
vn 0.0000 -0.2910 -0.9567
s off
f 4/1/1 1/2/2 2/3/3 8/4/4
s 1
f 3/5/5 1/6/5 4/1/5 5/7/5
f 6/8/6 3/5/6 5/7/6 7/9/6
f 6/10/7 2/3/8 1/2/9 3/11/7
f 7/9/10 5/7/10 4/1/11 8/4/12
f 6/10/13 7/9/13 8/4/13 2/3/13
