# Blender v3.1.0 Alpha OBJ File: ''
# www.blender.org
mtllib tail_rotor_spinning.mtl
o Cylinder
v 0.000000 0.000000 -1.358888
v 0.000000 -0.734670 -1.143169
v 0.000000 -1.236088 -0.564502
v 0.000000 -1.345056 0.193390
v 0.000000 -1.026979 0.889882
v 0.000000 -0.382843 1.303843
v 0.000000 0.382843 1.303843
v -0.000000 1.026979 0.889882
v -0.000000 1.345056 0.193390
v -0.000000 1.236088 -0.564502
v 0.000000 0.734670 -1.143169
vt 0.068620 0.092833
vt 0.317616 0.019722
vt 0.487557 0.215844
vt 0.468312 0.349700
vt 0.379754 0.451901
vt 0.250000 0.490000
vt 0.120246 0.451901
vt 0.031688 0.349700
vt 0.012443 0.215844
vt 0.182384 0.019722
vt 0.431380 0.092833
vn 1.0000 0.0000 0.0000
usemtl phong1
s off
f 8/1/1 6/2/1 4/3/1
f 3/4/1 2/5/1 1/6/1
f 1/6/1 11/7/1 10/8/1
f 10/8/1 9/9/1 1/6/1
f 9/9/1 8/1/1 1/6/1
f 8/1/1 7/10/1 6/2/1
f 6/2/1 5/11/1 4/3/1
f 4/3/1 3/4/1 8/1/1
f 3/4/1 1/6/1 8/1/1
