# Blender 4.4.1
# www.blender.org
mtllib street_light2.mtl
o Cylinder
v 0.000000 0.000000 -0.090000
v 0.000000 8.090824 2.145167
v 0.085595 0.000000 -0.027812
v 0.085595 8.028636 2.145167
v 0.052901 0.000000 0.072812
v 0.052901 7.928013 2.145167
v -0.052901 0.000000 0.072812
v -0.052901 7.928013 2.145167
v -0.085595 0.000000 -0.027812
v -0.085595 8.028636 2.145167
v 0.000000 7.783186 0.750212
v 0.085595 7.739212 0.794186
v 0.052901 7.668061 0.865337
v -0.052901 7.668061 0.865337
v -0.085595 7.739212 0.794186
v 0.085595 6.312355 -0.027812
v 0.052901 6.312355 0.072812
v -0.052901 6.312355 0.072812
v -0.085595 6.313429 -0.024887
v 0.000000 6.312355 -0.090000
v 0.000000 7.068564 0.092381
v 0.085595 7.037470 0.146238
v 0.052901 6.987159 0.233380
v -0.052901 6.987159 0.233380
v -0.085595 7.037470 0.146238
vn -0.0055 0.0001 -1.0000
vn -0.0000 0.9772 -0.2125
vn 0.9511 -0.0000 -0.3090
vn 0.9193 0.3842 -0.0851
vn 0.5878 -0.0000 0.8090
vn 0.6082 -0.7777 0.1592
vn -0.5860 -0.0000 0.8103
vn -0.6082 -0.7777 0.1592
vn -0.9534 0.0001 -0.3018
vn -0.9193 0.3842 -0.0851
vn -0.0000 0.8528 -0.5223
vn 0.9133 0.3653 -0.1798
vn 0.6473 -0.6701 0.3633
vn -0.6473 -0.6701 0.3633
vn -0.9133 0.3653 -0.1798
vn 0.9370 0.0456 -0.3462
vn 0.6080 -0.0945 0.7883
vn -0.6061 -0.0944 0.7897
vn -0.9398 0.0447 -0.3388
vn -0.0049 0.1123 -0.9937
vn -0.0026 0.4733 -0.8809
vn 0.9213 0.1807 -0.3442
vn 0.6389 -0.3613 0.6791
vn -0.6380 -0.3612 0.6800
vn -0.9226 0.1796 -0.3415
vt 1.000000 0.750000
vt 1.000000 1.000000
vt 0.800000 1.000000
vt 0.800000 0.750000
vt 0.600000 1.000000
vt 0.600000 0.750000
vt 0.400000 1.000000
vt 0.400000 0.750000
vt 0.200000 1.000000
vt 0.200000 0.750000
vt 0.000000 1.000000
vt 0.000000 0.750000
vt 0.200000 0.687500
vt 0.000000 0.687500
vt 0.400000 0.687500
vt 0.600000 0.687500
vt 0.800000 0.687500
vt 1.000000 0.687500
vt 1.000000 0.500000
vt 1.000000 0.625000
vt 0.800000 0.625000
vt 0.800000 0.500000
vt 0.600000 0.625000
vt 0.600000 0.500000
vt 0.400000 0.625000
vt 0.400000 0.500000
vt 0.200000 0.625000
vt 0.200000 0.500000
vt 0.000000 0.625000
vt 0.000000 0.500000
vt 0.200000 0.674064
s 1
g Cylinder_Gray
usemtl Gray
f 11/1/11 2/2/2 4/3/4 12/4/12
f 12/4/12 4/3/4 6/5/6 13/6/13
f 13/6/13 6/5/6 8/7/8 14/8/14
f 14/8/14 8/7/8 10/9/10 15/10/15
f 15/10/15 10/9/10 2/11/2 11/12/11
f 25/13/25 15/10/15 11/12/11 21/14/21
f 24/15/24 14/8/14 15/10/15 25/13/25
f 23/16/23 13/6/13 14/8/14 24/15/24
f 22/17/22 12/4/12 13/6/13 23/16/23
f 21/18/21 11/1/11 12/4/12 22/17/22
f 1/19/1 20/20/20 16/21/16 3/22/3
f 3/22/3 16/21/16 17/23/17 5/24/5
f 5/24/5 17/23/17 18/25/18 7/26/7
f 7/26/7 18/25/18 19/27/19 9/28/9
f 9/28/9 19/27/19 20/29/20 1/30/1
f 20/20/20 21/18/21 22/17/22 16/21/16
f 16/21/16 22/17/22 23/16/23 17/23/17
f 17/23/17 23/16/23 24/15/24 18/25/18
f 18/25/18 24/15/24 25/13/25 19/31/19
f 19/31/19 25/13/25 21/14/21 20/29/20
o Cube
v -0.122511 7.867743 2.448940
v -0.122511 7.900804 2.482000
v -0.169098 7.900804 2.448940
v -0.122511 8.074683 2.482000
v -0.122511 8.107743 2.448940
v -0.169098 8.074683 2.448940
v -0.122511 7.867743 2.086287
v -0.169098 7.900804 2.086287
v -0.122511 7.900804 2.053227
v -0.122511 8.107743 2.086287
v -0.122511 8.074683 2.053227
v -0.169098 8.074683 2.086287
v 0.122511 7.867743 2.448940
v 0.169098 7.900804 2.448940
v 0.122511 7.900804 2.482000
v 0.122511 8.107743 2.448940
v 0.122511 8.074683 2.482000
v 0.169098 8.074683 2.448940
v 0.122511 7.867743 2.086287
v 0.122511 7.900804 2.053227
v 0.169098 7.900804 2.086287
v 0.122511 8.107743 2.086287
v 0.169098 8.074683 2.086287
v 0.122511 8.074683 2.053227
vn -0.2497 -0.9021 0.3519
vn -0.2497 -0.3519 0.9021
vn -0.7895 -0.4340 0.4340
vn -0.2497 0.3519 0.9021
vn -0.2497 0.9021 0.3519
vn -0.7895 0.4340 0.4340
vn -0.2497 -0.9021 -0.3519
vn -0.7895 -0.4340 -0.4340
vn -0.2497 -0.3519 -0.9021
vn -0.2497 0.9021 -0.3519
vn -0.2497 0.3519 -0.9021
vn -0.7895 0.4340 -0.4340
vn 0.2497 -0.9021 0.3519
vn 0.7895 -0.4340 0.4340
vn 0.2497 -0.3519 0.9021
vn 0.2497 0.9021 0.3519
vn 0.2497 0.3519 0.9021
vn 0.7895 0.4340 0.4340
vn 0.2497 -0.9021 -0.3519
vn 0.2497 -0.3519 -0.9021
vn 0.7895 -0.4340 -0.4340
vn 0.2497 0.9021 -0.3519
vn 0.7895 0.4340 -0.4340
vn 0.2497 0.3519 -0.9021
vt 0.409438 0.784438
vt 0.590562 0.784438
vt 0.590562 0.965562
vt 0.409438 0.965563
vt 0.409438 0.519276
vt 0.590562 0.519276
vt 0.590562 0.730724
vt 0.409438 0.730724
vt 0.659438 0.519276
vt 0.840562 0.519276
vt 0.840562 0.730724
vt 0.659438 0.730724
vt 0.409438 0.019276
vt 0.590562 0.019276
vt 0.590562 0.230724
vt 0.409438 0.230724
vt 0.409438 0.284438
vt 0.590562 0.284438
vt 0.590562 0.465562
vt 0.409438 0.465562
vt 0.159438 0.730724
vt 0.159438 0.750000
vt 0.125000 0.730724
vt 0.590562 0.000000
vt 0.625000 0.019276
vt 0.159438 0.519276
vt 0.125000 0.519276
vt 0.159438 0.500000
vt 0.625000 0.230724
vt 0.590562 0.250000
vt 0.340562 0.730724
vt 0.375000 0.730724
vt 0.340562 0.750000
vt 0.625000 0.784438
vt 0.590562 0.750000
vt 0.340562 0.519276
vt 0.340562 0.500000
vt 0.375000 0.519276
vt 0.625000 0.465562
vt 0.590562 0.500000
vt 0.409438 0.000000
vt 0.625000 0.284438
vt 0.625000 0.965562
s 1
g Cube_White
usemtl White
f 40/32/40 42/33/42 29/34/29 27/35/27
f 46/36/46 48/37/48 43/38/43 39/39/39
f 47/40/47 35/41/35 30/42/30 41/43/41
f 28/44/28 31/45/31 37/46/37 33/47/33
f 34/48/34 36/49/36 49/50/49 45/51/45
f 26/52/26 27/53/27 28/54/28
f 29/55/29 30/56/30 31/45/31
f 32/57/32 33/58/33 34/59/34
f 35/60/35 36/61/36 37/46/37
f 38/62/38 39/63/39 40/64/40
f 41/65/41 42/33/42 43/66/43
f 44/67/44 45/68/45 46/69/46
f 47/70/47 48/71/48 49/50/49
f 32/57/32 26/52/26 28/54/28 33/58/33
f 27/72/27 29/55/29 31/45/31 28/44/28
f 30/56/30 35/60/35 37/46/37 31/45/31
f 36/49/36 34/48/34 33/47/33 37/46/37
f 44/67/44 32/57/32 34/59/34 45/68/45
f 35/73/35 47/70/47 49/50/49 36/49/36
f 48/37/48 46/36/46 45/51/45 49/50/49
f 38/62/38 44/67/44 46/36/46 39/39/39
f 47/40/47 41/43/41 43/38/43 48/37/48
f 42/33/42 40/32/40 39/39/39 43/38/43
f 26/52/26 38/62/38 40/64/40 27/53/27
f 41/65/41 30/74/30 29/34/29 42/33/42
f 32/57/32 44/67/44 38/62/38 26/52/26
