# Blender 4.0.2
# www.blender.org
mtllib missile0.mtl
usemtl Missile0
o Cylinder
v 0.007202 1.500057 -0.031301
v 0.028919 1.500004 -0.009489
v 0.023507 1.500051 0.021888
v -0.011972 1.500029 0.028749
v -0.030886 1.500016 0.004007
v -0.022677 1.500003 -0.020300
v 0.000000 -1.463625 -0.063500
v 0.030367 -1.463625 -0.056715
v 0.054993 -1.463625 -0.031750
v 0.064300 -1.463625 -0.002059
v 0.054993 -1.463625 0.031750
v 0.033933 -1.463625 0.054656
v 0.000000 -1.463625 0.063500
v -0.030367 -1.463625 0.056715
v -0.054993 -1.463625 0.031750
v -0.064300 -1.463625 0.002059
v -0.054993 -1.463625 -0.031750
v -0.033933 -1.463625 -0.054656
v 0.000000 1.308747 -0.063500
v 0.032255 1.309497 -0.055684
v 0.060502 1.309497 -0.021924
v 0.060439 1.309497 0.022096
v 0.032097 1.309497 0.055776
v -0.012050 1.311381 0.063164
v -0.050059 1.307519 0.040371
v -0.062535 1.308747 0.011027
v -0.059992 1.307519 -0.023167
v -0.032097 1.309497 -0.055776
vn 0.1936 0.6795 -0.7077
vn 0.5113 0.0849 -0.8552
vn -0.0209 0.0839 -0.9963
vn 0.5370 0.6884 0.4876
vn 0.4976 0.0840 0.8633
vn 0.9192 0.0834 0.3848
vn -0.1979 0.0925 0.9759
vn -0.2930 0.6933 0.6584
vn -0.7653 0.0819 0.6384
vn -0.7322 0.6694 0.1254
vn -0.5230 0.7094 -0.4726
vn -0.9015 0.0817 -0.4249
vn -0.9870 0.0936 0.1310
vn -0.6029 -0.6622 0.4449
vn -0.3241 -0.6421 0.6947
vn -0.5284 0.0885 -0.8444
vn -0.6760 -0.6614 -0.3250
vn -0.7600 -0.6463 0.0685
vn 0.6962 0.6778 -0.2363
vn 0.9454 0.0933 -0.3121
vn -0.0052 -0.6558 0.7549
vn 0.7637 -0.6418 -0.0697
vn 0.6554 -0.6560 -0.3743
vn 0.6830 -0.6639 0.3046
vn -0.3952 -0.6504 -0.6487
vn 0.3823 -0.6530 0.6538
vn -0.0000 -1.0000 -0.0000
vn 0.3860 -0.6507 -0.6539
vn -0.0063 -0.6578 -0.7532
vt 0.953063 1.000000
vt 0.916436 0.875000
vt 1.000000 0.875000
vt 0.630342 1.000000
vt 0.583103 0.875000
vt 0.694214 0.875000
vt 0.469959 0.875000
vt 0.437479 1.000000
vt 0.357959 0.875000
vt 0.270813 1.000000
vt 0.133701 1.000000
vt 0.191292 0.875000
vt 0.277778 0.875000
vt 0.333333 0.750000
vt 0.421854 0.750000
vt 0.083103 0.875000
vt 0.166666 0.750000
vt 0.255187 0.750000
vt 0.800368 1.000000
vt 0.805325 0.875000
vt 0.474762 0.323524
vt 0.073945 0.407887
vt 0.161752 0.037629
vt 0.412172 0.097993
vt 0.500000 0.750000
vt 0.755187 0.750000
vt 0.833333 0.750000
vt 0.666667 0.750000
vt 0.088521 0.750000
vt 0.588521 0.750000
vt 1.000000 0.750000
vt 0.300556 0.466448
vt 0.021958 0.220239
vt 0.022590 1.000000
vt -0.000000 0.875000
vt 0.921854 0.750000
vt -0.000000 0.750000
s 1
f 1/1/1 20/2/2 19/3/3
f 3/4/4 23/5/5 22/6/6
f 24/7/7 4/8/8 25/9/9
f 5/10/10 6/11/11 27/12/12 26/13/13
f 24/7/7 25/9/9 15/14/14 14/15/15
f 6/11/11 28/16/16 27/12/12
f 26/13/13 27/12/12 17/17/17 16/18/18
f 2/19/19 3/4/4 22/6/6 21/20/20
f 2/21/19 6/22/11 4/23/8 3/24/4
f 24/7/7 14/15/15 13/25/21
f 4/8/8 5/10/10 26/13/13 25/9/9
f 21/20/20 10/26/22 9/27/23
f 21/20/20 22/6/6 11/28/24 10/26/22
f 27/12/12 28/16/16 18/29/25 17/17/17
f 23/5/5 12/30/26 11/28/24 22/6/6
s 0
f 9/27/27 13/25/27 17/17/27 7/31/27
s 1
f 2/21/19 1/32/1 6/22/11
f 6/22/11 5/33/10 4/23/8
f 6/11/11 1/34/1 19/35/3 28/16/16
f 20/2/2 21/20/20 9/27/23 8/36/28
f 2/19/19 21/20/20 20/2/2 1/1/1
f 25/9/9 26/13/13 16/18/18 15/14/14
f 3/4/4 4/8/8 24/7/7 23/5/5
f 23/5/5 24/7/7 13/25/21 12/30/26
f 19/35/3 7/37/29 18/29/25 28/16/16
s 0
f 13/25/27 14/15/27 15/14/27
f 15/14/27 16/18/27 17/17/27
f 17/17/27 18/29/27 7/31/27
f 7/31/27 8/36/27 9/27/27
f 9/27/27 10/26/27 11/28/27
f 11/28/27 12/30/27 13/25/27
f 13/25/27 15/14/27 17/17/27
f 9/27/27 11/28/27 13/25/27
s 1
f 19/3/3 20/2/2 8/36/28 7/31/29
