# Blender v3.2.0 OBJ File: ''
# www.blender.org
mtllib fence_stick.mtl
o Cube.001
v 0.124587 4.346810 -0.108808
v -0.116399 4.346810 -0.116399
v -0.106315 4.360277 0.116399
v 0.100529 4.346810 0.117499
v 0.121546 3.055546 0.127086
v -0.115198 3.055546 0.123691
v -0.106618 3.055546 -0.124149
v 0.116154 3.055546 -0.127037
v -0.116399 -0.190655 -0.116399
v -0.126459 1.415508 -0.101141
v 0.116399 1.415508 -0.116399
v 0.116399 -0.190655 -0.116399
v 0.119068 1.415508 0.122514
v 0.116399 -0.190655 0.116399
v -0.116399 -0.190655 0.116399
v -0.115808 1.415508 0.134559
vt 0.402417 0.665177
vt 0.396147 0.807111
vt 0.231123 0.792011
vt 0.240356 0.670399
vt 0.123163 0.717479
vt 0.173887 0.636147
vt 0.532513 0.639781
vt 0.547659 0.722487
vt 0.513539 0.256950
vt 0.503822 0.329767
vt 0.143726 0.329820
vt 0.104308 0.257906
vt 0.104401 0.137037
vt 0.132527 0.057375
vt 0.482935 0.061402
vt 0.523581 0.143318
vt 0.119470 0.714940
vt 0.133391 0.634019
vt 0.550976 0.638449
vt 0.537472 0.720179
vt 0.135406 0.929831
vt 0.116796 0.826925
vt 0.538309 0.828462
vt 0.539021 0.933173
vt 0.120257 0.339240
vt 0.120540 0.239310
vt 0.463263 0.243504
vt 0.479936 0.344222
vt 0.499566 0.076559
vt 0.528953 0.165742
vt 0.164356 0.166538
vt 0.140025 0.077678
vt 0.144912 0.922344
vt 0.173045 0.821082
vt 0.548434 0.826243
vt 0.548558 0.927410
vn 0.0306 0.9991 -0.0284
vn -0.0099 0.0065 0.9999
vn -1.0000 0.0030 0.0037
vn -1.0000 -0.0003 0.0031
vn 0.9992 0.0047 0.0388
vn 0.0101 0.0101 -0.9999
vn -0.0321 0.0046 -0.9995
vn 1.0000 -0.0008 -0.0057
vn -0.9997 -0.0032 0.0227
vn 0.0257 -0.0076 0.9996
vn -0.0389 -0.0100 -0.9992
vn 0.9999 -0.0007 -0.0163
vn -1.0000 0.0063 0.0043
vn 0.0183 0.0019 0.9998
usemtl Material.001
s 1
f 1/1/1 2/2/1 3/3/1 4/4/1
f 5/5/2 4/6/2 3/7/2 6/8/2
f 6/9/3 3/10/4 2/11/4 7/12/3
f 8/13/5 1/14/5 4/15/5 5/16/5
f 7/17/6 2/18/6 1/19/6 8/20/6
f 9/21/7 10/22/7 11/23/7 12/24/7
f 12/25/8 11/26/8 13/27/8 14/28/8
f 15/29/9 16/30/9 10/31/9 9/32/9
f 14/33/10 13/34/10 16/35/10 15/36/10
f 10/22/11 7/17/11 8/20/11 11/23/11
f 11/26/12 8/13/12 5/16/12 13/27/12
f 16/30/13 6/9/3 7/12/3 10/31/13
f 13/34/14 5/5/14 6/8/14 16/35/14
