# Blender v2.90.0 OBJ File: ''
# www.blender.org
mtllib OT_glass.mtl
v -0.166809 1.030451 0.687040
v 0.566051 1.358401 0.578733
v 0.670929 0.990747 0.691221
v 0.688445 1.242224 0.632289
v 0.775849 1.014311 -0.208137
v 0.775214 1.001825 0.229980
v 0.763519 1.361855 -0.205935
v 0.755716 1.346548 0.221877
v 0.819381 1.008544 0.568338
v 0.747026 1.305881 0.497544
v 0.774123 1.002323 0.286450
v 0.756255 1.343407 0.281407
v 0.187290 1.187869 -0.348053
v 0.229871 1.383122 -0.352215
v -0.612798 1.335638 0.564759
v -0.678873 0.984442 0.676021
v -0.775834 1.014311 -0.208137
v -0.775199 1.001825 0.229980
v -0.763502 1.361855 -0.205935
v -0.755701 1.346548 0.221877
v -0.819368 1.008544 0.568338
v -0.747010 1.305881 0.497544
v -0.756239 1.343407 0.281407
v -0.774107 1.002323 0.286450
v -0.186887 1.184732 -0.346704
v -0.229240 1.378811 -0.346271
vn -0.0177 0.3325 0.9429
vn -0.0338 0.2875 0.9572
vn -0.0444 0.2927 0.9552
vn -0.1813 0.2499 0.9511
vn 0.9987 0.0499 -0.0093
vn 0.9987 0.0510 0.0050
vn 0.9990 0.0436 0.0134
vn 0.9986 0.0495 0.0184
vn 0.9918 0.1211 -0.0420
vn 0.9874 0.1387 -0.0755
vn 0.9973 0.0523 0.0516
vn 0.9674 0.1918 -0.1657
vn -0.0362 0.3230 0.9457
vn -0.0534 0.3132 0.9482
vn -0.9987 0.0499 -0.0093
vn -0.9986 0.0495 0.0184
vn -0.9990 0.0436 0.0134
vn -0.9987 0.0510 0.0050
vn -0.9918 0.1211 -0.0420
vn -0.9973 0.0523 0.0516
vn -0.9874 0.1387 -0.0755
vn -0.9674 0.1918 -0.1657
vn -0.0106 -0.0055 -0.9999
vn -0.0050 -0.0081 -1.0000
vn -0.0061 -0.0138 -0.9999
vn -0.0091 -0.0136 -0.9999
g OT_glass_OT_glass_DefaultMaterial
usemtl DefaultMaterial
s 1
f 1//1 3//2 2//3
f 4//4 2//3 3//2
f 6//5 5//6 7//7
f 6//5 7//7 8//8
f 10//9 11//10 12//11
f 9//12 11//10 10//9
f 1//1 2//3 15//13
f 16//14 1//1 15//13
f 18//15 20//16 19//17
f 18//15 19//17 17//18
f 22//19 23//20 24//21
f 21//22 22//19 24//21
f 25//23 26//24 14//25
f 25//23 14//25 13//26
