# Blender v2.90.0 OBJ File: ''
# www.blender.org
mtllib OT_glass.mtl
o OT_glass
v -0.678065 1.014148 0.681163
v 0.661202 1.332106 0.579398
v 0.670929 0.990747 0.691221
v 0.775849 1.014311 -0.208137
v 0.775214 1.001825 0.229980
v 0.763519 1.361855 -0.205935
v 0.755716 1.346548 0.221877
v 0.819381 1.008544 0.568338
v 0.838760 1.364927 0.327540
v 0.774123 1.002323 0.286450
v 0.187290 1.187869 -0.348053
v 0.229871 1.383122 -0.352215
v -0.612798 1.335638 0.564759
v -0.775834 1.014311 -0.208137
v -0.775199 1.001825 0.229980
v -0.763502 1.361855 -0.205935
v -0.755701 1.346548 0.221877
v -0.819368 1.008544 0.568338
v -0.838755 1.364928 0.327541
v -0.774107 1.002323 0.286450
v -0.206498 1.282583 -0.292334
vn -0.0089 0.3336 0.9427
vn -0.0028 0.3131 0.9497
vn -0.0052 0.3165 0.9486
vn 0.9987 0.0499 -0.0093
vn 0.9987 0.0510 0.0050
vn 0.9990 0.0436 0.0134
vn 0.9986 0.0495 0.0184
vn 0.9739 -0.1625 -0.1587
vn 0.9755 -0.1600 -0.1511
vn 0.9744 -0.1584 -0.1595
vn -0.0095 0.3401 0.9404
vn -0.9987 0.0499 -0.0093
vn -0.9986 0.0495 0.0184
vn -0.9990 0.0436 0.0134
vn -0.9987 0.0510 0.0050
vn -0.9739 -0.1625 -0.1587
vn -0.9744 -0.1584 -0.1595
vn -0.9755 -0.1600 -0.1511
vn -0.1380 0.0090 -0.9904
vn -0.1376 0.0093 -0.9904
vn -0.1427 0.0166 -0.9896
g OT_glass_OT_glass_DefaultMaterial
usemtl DefaultMaterial
s 1
f 1//1 3//2 2//3
f 5//4 4//5 6//6
f 5//4 6//6 7//7
f 8//8 10//9 9//10
f 1//1 2//3 13//11
f 15//12 17//13 16//14
f 15//12 16//14 14//15
f 18//16 19//17 20//18
f 21//19 12//20 11//21
