# Blender v2.90.0 OBJ File: ''
# www.blender.org
mtllib OT_glass.mtl
o OT_glass
v -0.678065 1.014148 0.681163
v 0.661202 1.332106 0.579398
v 0.670929 0.990747 0.691221
v 0.752527 1.188012 -0.207036
v 0.747927 1.174190 0.224893
v 0.819381 1.008544 0.568338
v 0.838760 1.364927 0.327540
v 0.774123 1.002323 0.286450
v 0.206980 1.286220 -0.295248
v -0.612798 1.335638 0.564759
v -0.752492 1.188012 -0.207036
v -0.747892 1.174190 0.224892
v -0.819368 1.008544 0.568338
v -0.838755 1.364928 0.327541
v -0.774107 1.002323 0.286450
v -0.206498 1.282583 -0.292334
vn -0.0089 0.3336 0.9427
vn -0.0028 0.3131 0.9497
vn -0.0052 0.3165 0.9486
vn 0.9739 -0.1625 -0.1587
vn 0.9755 -0.1600 -0.1511
vn 0.9744 -0.1584 -0.1595
vn -0.0095 0.3401 0.9404
vn -0.9739 -0.1625 -0.1587
vn -0.9744 -0.1584 -0.1595
vn -0.9755 -0.1600 -0.1511
g OT_glass_OT_glass_DefaultMaterial
usemtl DefaultMaterial
s 1
f 1//1 3//2 2//3
f 6//4 8//5 7//6
f 1//1 2//3 10//7
f 13//8 14//9 15//10
l 4 5
l 11 12
l 9 16
