# Blender v3.2.0 OBJ File: ''
# www.blender.org
mtllib rock01.mtl
v 0.629191 1.070392 -0.696189
v -0.607401 0.356829 0.200361
v 0.759619 0.228257 0.568662
v -0.619665 0.940514 -0.575105
v -0.351847 -0.068839 -1.188209
v 0.695239 -0.176160 -0.591754
v -0.007445 0.687583 0.521886
v -0.266479 -0.391698 -0.086698
vt 0.040030 0.764201
vt 0.115919 0.443154
vt 0.214983 0.543453
vt 0.949702 0.539559
vt 0.831896 0.962339
vt 0.777869 0.587566
vt 0.011141 0.450075
vt 0.090500 0.213200
vt 0.555815 0.643199
vt 0.509555 0.342826
vt 0.599865 0.237081
vt 0.375598 0.575442
vt 0.912796 0.256724
vt 0.791253 0.196063
vt 0.193201 0.149647
vt 0.372970 0.190221
vt 0.463182 0.028709
vn -0.3718 -0.4309 -0.8222
vn -0.7230 0.6437 -0.2509
vn 0.5555 0.7575 -0.3430
vn 0.7135 -0.6563 -0.2455
vn -0.8106 -0.0665 0.5818
vn -0.3530 -0.8786 0.3218
vn 0.6045 -0.1499 0.7824
vn -0.1517 0.5197 0.8408
g Mesh_rock_low.002_Group583_Mesh_rock_low.002_Group583_rock01
usemtl rock01
s 1
f 5/1/1 4/2/2 1/3/3
f 6/4/4 5/5/1 1/6/3
f 4/2/2 5/7/1 2/8/5
f 5/9/1 8/10/6 2/11/5
f 8/10/6 5/9/1 6/12/4
f 3/13/7 1/6/3 7/14/8
f 1/3/3 4/2/2 7/15/8
f 8/10/6 6/12/4 3/16/7
f 4/2/2 2/8/5 7/15/8
f 2/11/5 8/10/6 3/16/7
f 2/11/5 3/16/7 7/17/8
f 1/6/3 3/13/7 6/4/4
