# Blender v3.2.0 OBJ File: ''
# www.blender.org
mtllib rock01.mtl
v 0.446776 1.063556 -0.265447
v 0.645522 1.015691 -0.513622
v -0.625092 0.662978 -0.757174
v 0.942274 0.502470 -0.088765
v -0.548935 0.040947 0.209904
v 0.480814 -0.056629 -0.810026
v 0.247036 0.169997 -1.311374
v -0.479908 0.302379 0.234606
v 0.340688 -0.201153 -0.443319
v 0.581141 0.888763 -0.897144
v 0.227215 1.009126 -0.521685
v 1.075192 0.376626 -0.700013
v -0.055729 0.678674 0.474756
v 0.259153 0.181624 0.579820
v 0.882960 0.916398 -0.645333
v -0.721574 0.447355 0.065400
v -0.355947 -0.246981 0.033687
v 0.830893 -0.104489 -0.302339
v -0.397066 1.021584 -0.357932
v -0.616447 0.865582 -0.290697
v -0.394342 0.574919 0.340533
v -0.656032 0.776712 -0.541244
v 0.103826 -0.128358 -1.018401
v -0.404503 0.079721 -1.109812
v 0.813286 0.920350 -0.237218
v 0.813082 0.562761 0.385398
v 0.201876 0.692349 0.613095
v 0.323201 -0.070955 -1.040549
v 0.031454 -0.199342 -0.730907
v -0.057985 0.392945 0.602605
v -0.468394 0.715517 0.100655
v -0.188342 0.895745 0.277107
v -0.596689 0.582932 -0.002959
v -0.520791 0.980604 -0.599383
v 0.480314 -0.151235 0.390990
v -0.666045 -0.049630 -0.744955
v -0.239975 0.215938 0.421192
v 0.784849 -0.086690 0.140381
v -0.419052 0.441723 0.167851
v -0.315238 -0.371682 -0.329840
v 0.017072 -0.328703 0.115219
v -0.181170 0.923691 -0.787766
v 0.332182 0.745815 -1.141950
v -0.701534 0.203208 0.019355
v -0.181660 1.100531 -0.147724
v 0.948267 0.041956 -0.388909
v 0.321357 -0.245444 -0.700860
v 0.000880 0.908628 -0.896506
v 0.389504 0.585410 0.474049
v -0.408153 0.954185 0.114759
v 0.149781 0.850062 0.137924
vt 0.752283 0.465656
vt 0.818590 0.475587
vt 0.784321 0.545925
vt 0.018431 0.663107
vt 0.085570 0.505526
vt 0.202828 0.651771
vt 0.873046 0.312376
vt 0.983677 0.315313
vt 0.892500 0.435585
vt 0.406335 0.635382
vt 0.452774 0.679030
vt 0.482657 0.792177
vt 0.573434 0.224380
vt 0.524870 0.314678
vt 0.532145 0.107764
vt 0.786258 0.675467
vt 0.711030 0.528659
vt 0.284874 0.708382
vt 0.300434 0.557757
vt 0.907377 0.637192
vt 0.831896 0.962339
vt 0.823549 0.576048
vt 0.184324 0.233909
vt 0.185762 0.137935
vt 0.236122 0.243265
vt 0.140041 0.185540
vt 0.102056 0.439160
vt 0.011141 0.450075
vt 0.036650 0.256199
vt 0.908704 0.137970
vt 0.804797 0.125970
vt 0.861533 0.039790
vt 0.489268 0.653404
vt 0.584436 0.627755
vt 0.737619 0.280818
vt 0.831648 0.196633
vt 0.599968 0.514519
vt 0.618418 0.285328
vt 0.525486 0.413387
vt 0.490934 0.544579
vt 0.202911 0.363312
vt 0.165348 0.409918
vt 0.440108 0.573578
vt 0.408928 0.097484
vt 0.364181 0.212888
vt 0.100842 0.281086
vt 0.077562 0.271279
vt 0.127488 0.384600
vt 0.135726 0.469128
vt 0.074942 0.193833
vt 0.963950 0.540094
vt 0.111369 0.210049
vt 0.173248 0.570827
vt 0.148882 0.059611
vt 0.134529 0.267480
vt 0.163422 0.296923
vt 0.462952 0.305786
vt 0.309059 0.354413
vt 0.673567 0.376622
vt 0.100072 0.116864
vt 0.417213 0.492780
vt 0.601517 0.170152
vt 0.237550 0.151256
vt 0.223100 0.087942
vt 0.250425 0.454211
vt 0.330627 0.487684
vt 0.966710 0.194731
vt 0.082998 0.965313
vt 0.204173 0.827530
vt 0.463182 0.028709
vt 0.700171 0.720225
vt 0.753370 0.798930
vt 0.650639 0.614429
vn 0.1352 0.9680 0.2116
vn 0.6404 0.6967 0.3234
vn 0.1392 0.9817 -0.1297
vn -0.4656 -0.3532 -0.8115
vn -0.7645 0.2913 -0.5750
vn -0.1761 0.7949 -0.5807
vn 0.6642 0.3983 0.6326
vn 0.6354 -0.6594 0.4018
vn 0.9726 0.1114 0.2042
vn 0.5914 -0.7155 -0.3719
vn 0.5678 -0.6343 -0.5246
vn 0.0991 -0.1942 -0.9759
vn -0.6519 -0.3618 0.6664
vn -0.4466 -0.8120 0.3757
vn -0.4573 -0.3039 0.8358
vn 0.3508 0.6222 -0.6999
vn -0.0169 0.9758 -0.2179
vn 0.8797 -0.0525 -0.4726
vn 0.8680 -0.4954 -0.0341
vn 0.6993 0.6678 -0.2549
vn -0.1665 0.7837 0.5984
vn -0.2144 0.5824 0.7841
vn 0.2561 0.8134 0.5223
vn -0.8035 0.0987 0.5870
vn -0.9285 0.3492 -0.1259
vn -0.7815 -0.5093 -0.3605
vn -0.8996 -0.2743 0.3398
vn 0.0865 -0.3738 0.9235
vn 0.3108 0.7604 0.5703
vn -0.3146 -0.0643 0.9470
vn 0.0304 -0.8499 -0.5261
vn 0.3344 0.5514 0.7643
vn -0.3224 -0.9459 -0.0358
vn -0.0204 -0.9637 -0.2661
vn -0.2042 0.9466 0.2493
vn -0.3220 0.9448 -0.0597
vn 0.2349 -0.9578 -0.1659
vn 0.3085 -0.7141 0.6284
vn -0.6163 0.4766 0.6269
vn -0.8226 0.1978 0.5331
vn -0.8476 0.4841 0.2176
vn -0.4305 0.7932 -0.4308
vn -0.4468 0.3085 0.8398
vn -0.7525 0.0812 0.6535
vn -0.1482 0.8346 -0.5305
vn -0.6791 0.2441 0.6923
vn -0.4584 0.7663 0.4501
vn -0.0807 -0.9263 0.3681
vn 0.3554 -0.9326 -0.0625
vn 0.5524 -0.8308 -0.0674
vn -0.0278 0.4926 -0.8698
g Mesh_rock_low.002_Group583_Mesh_rock_low.002_Group583_rock01
usemtl rock01
s 1
f 1/1/1 25/2/2 2/3/3
f 24/4/4 3/5/5 48/6/6
f 26/7/7 38/8/8 4/9/9
f 6/10/10 28/11/11 7/12/12
f 5/13/13 17/14/14 37/15/15
f 2/3/3 10/16/16 11/17/17
f 12/18/18 46/19/19 7/12/12
f 12/20/18 7/21/12 10/16/16
f 12/20/18 10/16/16 15/22/20
f 32/23/21 13/24/22 51/25/23
f 32/23/21 21/26/24 13/24/22
f 22/27/25 36/28/26 44/29/27
f 14/30/28 27/31/29 30/32/30
f 23/33/31 24/34/4 7/12/12
f 4/9/9 25/2/2 26/7/7
f 25/2/2 51/35/23 49/36/32
f 36/37/26 17/14/14 44/38/27
f 40/39/33 24/34/4 29/40/34
f 26/7/7 25/2/2 49/36/32
f 36/37/26 24/34/4 40/39/33
f 3/5/5 36/28/26 22/27/25
f 29/40/34 24/34/4 23/33/31
f 45/41/35 19/42/36 32/23/21
f 28/11/11 6/10/10 47/43/37
f 14/44/28 37/15/15 35/45/38
f 33/46/39 22/27/25 16/47/40
f 20/48/41 34/49/42 22/27/25
f 33/46/39 16/47/40 8/50/43
f 46/51/19 4/9/9 38/8/8
f 8/50/43 39/52/44 33/46/39
f 42/53/45 34/49/42 19/42/36
f 13/24/22 21/26/24 30/54/30
f 21/26/24 32/23/21 31/55/46
f 50/56/47 31/55/46 32/23/21
f 14/30/28 26/7/7 49/36/32
f 41/57/48 38/58/8 35/45/38
f 8/50/43 16/47/40 44/29/27
f 11/17/17 45/59/35 1/1/1
f 39/52/44 37/60/15 21/26/24
f 21/26/24 37/60/15 30/54/30
f 32/23/21 51/25/23 45/41/35
f 1/1/1 45/59/35 51/35/23
f 9/61/49 29/40/34 47/43/37
f 8/62/43 44/38/27 5/13/13
f 12/20/18 4/9/9 46/51/19
f 15/22/20 25/2/2 12/20/18
f 29/40/34 23/33/31 47/43/37
f 42/53/45 48/6/6 3/5/5
f 20/48/41 33/46/39 50/56/47
f 40/39/33 9/61/49 41/57/48
f 13/24/22 49/63/32 51/25/23
f 17/14/14 36/37/26 40/39/33
f 13/24/22 30/54/30 27/64/29
f 6/10/10 7/12/12 46/19/19
f 1/1/1 51/35/23 25/2/2
f 19/42/36 20/48/41 50/56/47
f 32/23/21 19/42/36 50/56/47
f 2/3/3 25/2/2 15/22/20
f 7/12/12 28/11/11 23/33/31
f 5/13/13 44/38/27 17/14/14
f 19/42/36 45/41/35 11/65/17
f 37/15/15 41/57/48 35/45/38
f 11/65/17 48/6/6 19/42/36
f 40/39/33 41/57/48 17/14/14
f 31/55/46 33/46/39 39/52/44
f 19/42/36 34/49/42 20/48/41
f 18/66/50 6/10/10 46/19/19
f 14/30/28 35/67/38 26/7/7
f 3/5/5 34/49/42 42/53/45
f 34/49/42 3/5/5 22/27/25
f 18/66/50 46/19/19 38/58/8
f 41/57/48 9/61/49 38/58/8
f 20/48/41 22/27/25 33/46/39
f 24/4/4 48/6/6 7/68/12
f 7/68/12 48/6/6 43/69/51
f 9/61/49 6/10/10 18/66/50
f 49/63/32 13/24/22 27/64/29
f 21/26/24 31/55/46 39/52/44
f 15/22/20 10/16/16 2/3/3
f 17/14/14 41/57/48 37/15/15
f 48/6/6 42/53/45 19/42/36
f 37/15/15 14/44/28 30/70/30
f 10/16/16 48/71/6 11/17/17
f 10/16/16 43/72/51 48/71/6
f 50/56/47 33/46/39 31/55/46
f 37/15/15 8/62/43 5/13/13
f 39/52/44 8/50/43 37/60/15
f 22/27/25 44/29/27 16/47/40
f 28/11/11 47/43/37 23/33/31
f 14/30/28 49/36/32 27/31/29
f 2/3/3 11/17/17 1/1/1
f 43/72/51 10/16/16 7/21/12
f 29/40/34 9/61/49 40/39/33
f 47/43/37 6/10/10 9/61/49
f 35/67/38 38/8/8 26/7/7
f 24/34/4 36/37/26 3/73/5
f 25/2/2 4/9/9 12/20/18
f 18/66/50 38/58/8 9/61/49
