# Blender v3.2.0 OBJ File: ''
# www.blender.org
mtllib tno2.mtl
v 0.083920 -0.313230 -0.161450
v 0.229305 0.229292 -0.161450
v 0.334592 -0.000008 -0.161467
v 0.229292 -0.229305 -0.161450
v -0.083938 -0.313225 -0.161450
v -0.229305 -0.229292 -0.161450
v -0.083920 0.313229 -0.161450
v 0.083938 0.313224 -0.161450
v -0.000009 -0.324277 0.161450
v 0.000009 0.324277 0.161450
v -0.236586 0.236600 0.161464
v -0.162146 -0.280827 0.161450
v -0.313230 -0.083921 -0.161450
v -0.229292 0.229304 -0.161450
v -0.313225 0.083938 -0.161450
v -0.280837 -0.162131 0.161450
v -0.324277 0.000009 0.161450
v 0.162130 -0.280836 0.161450
v 0.236599 0.236586 0.161464
v 0.280827 -0.162146 0.161450
v 0.324277 -0.000009 0.161450
vt 0.612347 0.695947
vt 0.653799 0.695950
vt 0.633073 0.701503
vt 0.653799 0.695950
vt 0.604760 0.688360
vt 0.633073 0.701503
vt 0.668973 0.680779
vt 0.604760 0.688360
vt 0.653799 0.695950
vt 0.633073 0.701503
vt 0.714122 0.941790
vt 0.692695 0.941790
vt 0.714148 0.982894
vt 0.735585 0.982894
vt 0.735707 0.941790
vt 0.757048 0.982894
vt 0.757045 0.941790
vt 0.778509 0.982894
vt 0.778396 0.941790
vt 0.799969 0.982894
vt 0.799972 0.941790
vt 0.821401 0.982894
vt 0.821401 0.941790
vt 0.714122 0.941790
vt 0.692695 0.941790
vt 0.703422 0.982894
vt 0.735585 0.982894
vt 0.735707 0.941790
vt 0.767778 0.982894
vt 0.757045 0.941790
vt 0.622710 0.698724
vt 0.653799 0.695950
vt 0.668973 0.680778
vt 0.597174 0.680774
vt 0.789184 0.941790
vt 0.799969 0.982894
vt 0.821401 0.982894
vt 0.821401 0.941790
vt 0.692695 0.982894
vt 0.597174 0.680774
vt 0.591622 0.660047
vt 0.674529 0.660052
vt 0.668973 0.680779
vt 0.674529 0.660052
vt 0.591622 0.660047
vt 0.668973 0.680779
vn 0.0000 0.0000 -1.0000
vn -0.0000 -0.0000 1.0000
vn -0.0001 -0.0000 1.0000
vn 0.0001 -0.0000 1.0000
vn 0.2588 -0.9659 -0.0117
vn 0.5567 -0.5028 -0.6613
vn 0.4999 -0.8660 0.0117
vn -0.0000 -0.9999 0.0117
vn -0.2588 -0.9659 -0.0117
vn -0.5000 -0.8660 0.0117
vn -0.7071 -0.7070 -0.0117
vn -0.8660 -0.4999 0.0117
vn -0.9659 -0.2588 -0.0117
vn -0.9990 0.0390 0.0223
vn -0.9652 0.2614 0.0004
vn -0.7069 0.7070 0.0207
vn -0.7069 0.7070 -0.0197
vn -0.2614 0.9652 0.0004
vn -0.0000 0.9995 0.0331
vn 0.2614 0.9652 0.0004
vn 0.7140 0.7001 0.0065
vn 0.7394 0.6730 -0.0194
vn 0.7828 0.0002 -0.6222
vn 0.9987 0.0468 0.0194
vn 0.8674 -0.4977 -0.0004
g global_props_woodtrailer2_Mesh.001_global_props_woodtrailer2_Mesh.001_Material.001
usemtl Material.001
s 1
f 14/1/1 13/2/1 15/3/1
f 16/4/2 11/5/2 17/6/3
f 12/7/2 11/5/2 16/4/2
f 19/8/2 20/9/2 21/10/4
f 1/11/5 4/12/6 18/13/7
f 1/11/5 18/13/7 9/14/8
f 5/15/9 1/11/5 9/14/8
f 5/15/9 9/14/8 12/16/10
f 6/17/11 5/15/9 12/16/10
f 6/17/11 12/16/10 16/18/12
f 13/19/13 6/17/11 16/18/12
f 13/19/13 16/18/12 17/20/14
f 15/21/15 13/19/13 17/20/14
f 15/21/15 17/20/14 11/22/16
f 14/23/17 15/21/15 11/22/16
f 7/24/18 14/25/17 11/26/16
f 7/24/18 11/26/16 10/27/19
f 8/28/20 7/24/18 10/27/19
f 8/28/20 10/27/19 19/29/21
f 2/30/22 8/28/20 19/29/21
f 3/31/23 4/32/6 1/33/1 2/34/1
f 3/35/23 2/30/22 19/29/21
f 3/35/23 19/29/21 21/36/24
f 3/35/23 21/36/24 20/37/25
f 4/38/6 3/35/23 20/37/25
f 4/12/6 20/39/25 18/13/7
f 7/40/1 8/41/1 5/42/1 6/43/1
f 12/7/2 9/44/2 10/45/2 11/5/2
f 14/1/1 7/40/1 6/43/1 13/2/1
f 10/45/2 9/44/2 18/46/2 19/8/2
f 1/33/1 5/42/1 8/41/1 2/34/1
f 18/46/2 20/9/2 19/8/2
