# Blender v2.91.2 OBJ File: ''
# www.blender.org
mtllib door0.mtl
v -0.821766 -0.030187 -0.090546
v 0.790739 -0.030138 0.193482
v 0.790739 -0.030138 0.477511
v -0.821766 -0.031446 0.193483
v 0.790739 -0.008721 -0.090546
v -0.821766 -0.031446 0.477511
v -0.193813 1.276897 0.092825
v -0.193813 1.426897 0.092825
v -0.293813 1.426897 0.092825
v -0.293813 1.276897 0.092825
v -0.193813 1.276897 0.070025
v -0.193813 1.426897 0.070025
v -0.293813 1.276897 0.070025
v -0.293813 1.426897 0.070025
v 0.364709 0.342356 0.075664
v 0.364709 2.342356 0.075664
v -0.335290 2.342356 0.075664
v -0.335290 0.342356 0.075664
v 0.364709 0.342356 -0.061136
v 0.364709 2.342356 -0.061136
v -0.335290 0.342356 -0.061136
v -0.335290 2.342356 -0.061136
v -0.521232 2.268513 0.121251
v 0.568768 2.268513 0.121251
v 0.568768 2.468513 0.121251
v -0.521232 2.468513 0.121251
v -0.521232 2.268513 -0.106749
v 0.568768 2.268513 -0.106749
v -0.521232 2.468513 -0.106749
v 0.568768 2.468513 -0.106749
v 0.566623 0.335452 0.114000
v 0.566623 2.335452 0.114000
v 0.366623 2.335452 0.114000
v 0.366623 0.335452 0.114000
v 0.566623 0.335452 -0.114000
v 0.566623 2.335452 -0.114000
v 0.366623 0.335452 -0.114000
v 0.366623 2.335452 -0.114000
v -0.325650 0.335452 0.114000
v -0.325650 2.335452 0.114000
v -0.525650 2.335452 0.114000
v -0.525650 0.335452 0.114000
v -0.325650 0.335452 -0.114000
v -0.325650 2.335452 -0.114000
v -0.525650 0.335452 -0.114000
v -0.525650 2.335452 -0.114000
v -0.821766 0.134917 0.477511
v -0.821766 0.338510 -0.090546
v 0.790739 0.338510 -0.090546
v 0.790739 0.338510 0.477511
v 0.790739 0.137532 0.477511
v -0.821766 -0.031446 0.749636
v -0.821766 0.338510 0.477511
v 0.790739 0.137532 0.749636
v 0.790739 -0.030138 0.749636
v -0.821766 0.134917 0.749636
vt 1.000000 0.000000
vt 1.000000 1.000000
vt 0.000000 1.000000
vt 0.000000 0.000000
vt 1.000000 0.000000
vt 1.000000 1.000000
vt 0.000000 1.000000
vt 0.000000 0.000000
vt 1.000000 0.000000
vt 1.000000 1.000000
vt 0.000000 1.000000
vt 0.000000 0.000000
vt 1.000000 0.000000
vt 1.000000 1.000000
vt 0.000000 1.000000
vt 0.000000 0.000000
vt 1.000000 0.000000
vt 0.000000 0.000000
vt 1.000000 1.000000
vt 0.000000 1.000000
vt 1.000000 0.000000
vt 1.000000 1.000000
vt 0.000000 1.000000
vt 0.000000 0.000000
vt 1.000000 0.000000
vt 1.000000 1.000000
vt 0.000000 1.000000
vt 0.000000 0.000000
vt 1.000000 0.000000
vt 1.000000 1.000000
vt 0.000000 1.000000
vt 0.000000 0.000000
vt 1.000000 0.000000
vt 1.000000 1.000000
vt 0.000000 1.000000
vt 0.000000 0.000000
vt 1.000000 0.000000
vt 0.000000 0.000000
vt 1.000000 1.000000
vt 0.000000 1.000000
vt 1.000000 0.000000
vt 1.000000 1.000000
vt 0.000000 1.000000
vt 0.000000 0.000000
vt 1.000000 0.000000
vt 1.000000 1.000000
vt 0.000000 1.000000
vt 0.000000 0.000000
vt 1.000000 0.000000
vt 1.000000 1.000000
vt 0.000000 1.000000
vt 0.000000 0.000000
vt 1.000000 0.000000
vt 1.000000 1.000000
vt 0.000000 1.000000
vt 0.000000 0.000000
vt 1.000000 0.000000
vt 0.000000 0.000000
vt 1.000000 1.000000
vt 0.000000 1.000000
vt 1.000000 0.000000
vt 1.000000 1.000000
vt 0.000000 1.000000
vt 0.000000 0.000000
vt 1.000000 0.000000
vt 1.000000 1.000000
vt 0.000000 1.000000
vt 0.000000 0.000000
vt 1.000000 0.000000
vt 1.000000 1.000000
vt 0.000000 1.000000
vt 0.000000 0.000000
vt 1.000000 0.000000
vt 1.000000 1.000000
vt 0.000000 1.000000
vt 0.000000 0.000000
vt 1.000000 0.000000
vt 0.000000 0.000000
vt 1.000000 1.000000
vt 0.000000 1.000000
vt 1.000000 0.000000
vt 1.000000 1.000000
vt 0.000000 1.000000
vt 0.000000 0.000000
vt 1.000000 0.000000
vt 1.000000 1.000000
vt 0.000000 1.000000
vt 0.000000 0.000000
vt 1.000000 0.000000
vt 1.000000 1.000000
vt 0.000000 1.000000
vt 0.000000 0.000000
vt 1.000000 0.000000
vt 1.000000 1.000000
vt 0.000000 1.000000
vt 0.000000 0.000000
vt 1.000000 0.000000
vt 0.000000 0.000000
vt 1.000000 1.000000
vt 0.000000 1.000000
vt 0.394657 0.733249
vt 0.371733 0.999924
vt 0.000076 0.999924
vt 0.215192 0.466575
vt 0.394657 0.466575
vt 0.463141 0.500000
vt 0.453135 0.250000
vt 0.625000 0.250000
vt 0.625000 0.500000
vt 0.266750 0.178142
vt 0.533425 0.178142
vt 0.533425 0.356207
vt 0.000076 0.574123
vt 0.000076 0.179489
vt 0.000076 0.466575
vt 0.875000 0.500000
vt 0.875000 0.750000
vt 0.625000 0.750000
vt 0.514774 1.000000
vt 0.515993 0.750000
vt 0.625000 1.000000
vt 0.215192 0.211077
vt 0.394657 0.211077
vt 0.999962 0.148061
vt 0.000038 0.148061
vt 0.000038 0.000039
vt 0.999962 0.000038
vt 0.444887 1.000000
vt 0.445497 0.750000
vt 0.515993 0.750000
vt 0.514774 1.000000
vt 0.533425 0.574123
vt 0.788923 0.356207
vt 0.788923 0.178142
vn 0.0000 -0.0000 1.0000
vn 1.0000 -0.0000 0.0000
vn 0.0000 0.0000 -1.0000
vn -1.0000 0.0000 0.0000
vn 0.0000 1.0000 0.0000
vn 0.0000 -1.0000 0.0000
vn -0.0016 1.0000 0.0000
g sign2_sign2_Nuovo
usemtl Nuovo
s 1
f 7/1/1 8/2/1 9/3/1 10/4/1
f 11/5/2 12/6/2 8/7/2 7/8/2
f 13/9/3 14/10/3 12/11/3 11/12/3
f 10/13/4 9/14/4 14/15/4 13/16/4
f 8/17/5 12/6/5 14/15/5 9/18/5
f 11/5/6 7/19/6 10/20/6 13/16/6
g sign2_sign2_Nuovo.1
usemtl Nuovo.1
f 15/21/1 16/22/1 17/23/1 18/24/1
f 19/25/2 20/26/2 16/27/2 15/28/2
f 21/29/3 22/30/3 20/31/3 19/32/3
f 18/33/4 17/34/4 22/35/4 21/36/4
f 16/37/5 20/26/5 22/35/5 17/38/5
f 19/25/6 15/39/6 18/40/6 21/36/6
f 23/41/1 24/42/1 25/43/1 26/44/1
f 27/45/6 28/46/6 24/47/6 23/48/6
f 29/49/3 30/50/3 28/51/3 27/52/3
f 26/53/5 25/54/5 30/55/5 29/56/5
f 24/57/2 28/46/2 30/55/2 25/58/2
f 27/45/4 23/59/4 26/60/4 29/56/4
f 31/61/1 32/62/1 33/63/1 34/64/1
f 35/65/2 36/66/2 32/67/2 31/68/2
f 37/69/3 38/70/3 36/71/3 35/72/3
f 34/73/4 33/74/4 38/75/4 37/76/4
f 32/77/5 36/66/5 38/75/5 33/78/5
f 35/65/6 31/79/6 34/80/6 37/76/6
f 39/81/1 40/82/1 41/83/1 42/84/1
f 43/85/2 44/86/2 40/87/2 39/88/2
f 45/89/3 46/90/3 44/91/3 43/92/3
f 42/93/4 41/94/4 46/95/4 45/96/4
f 40/97/5 44/86/5 46/95/5 41/98/5
f 43/85/6 39/99/6 42/100/6 45/96/6
g sign2_sign2_None
usemtl None
s off
f 2/101/2 5/102/2 49/103/2 51/104/2
f 3/105/2 2/101/2 51/104/2
f 5/106/3 1/107/3 48/108/3 49/109/3
f 4/110/4 6/111/4 47/112/4
f 47/112/4 48/113/4 1/114/4 4/110/4
f 49/103/2 50/115/2 51/104/2
f 49/109/5 48/116/5 53/117/5 50/118/5
f 47/119/1 51/120/1 50/118/1 53/121/1
f 51/104/2 54/122/2 55/123/2
f 51/124/7 47/125/7 56/126/7 54/127/7
f 52/128/1 55/129/1 54/130/1 56/131/1
f 47/112/4 53/132/4 48/113/4
f 56/133/4 47/112/4 52/134/4
f 47/112/4 6/111/4 52/134/4
f 55/123/2 3/105/2 51/104/2
