# Blender v2.91.2 OBJ File: ''
# www.blender.org
mtllib door1.mtl
v -0.193813 1.085556 0.092825
v -0.193813 1.235556 0.092825
v -0.293813 1.235556 0.092825
v -0.293813 1.085556 0.092825
v -0.193813 1.085556 0.070025
v -0.193813 1.235556 0.070025
v -0.293813 1.085556 0.070025
v -0.293813 1.235556 0.070025
v 0.364709 0.151015 0.075664
v 0.364709 2.151015 0.075664
v -0.335290 2.151015 0.075664
v -0.335290 0.151015 0.075664
v 0.364709 0.151015 -0.061136
v 0.364709 2.151015 -0.061136
v -0.335290 0.151015 -0.061136
v -0.335290 2.151015 -0.061136
v -0.521232 2.077172 0.121251
v 0.568768 2.077172 0.121251
v 0.568768 2.277172 0.121251
v -0.521232 2.277172 0.121251
v -0.521232 2.077172 -0.106749
v 0.568768 2.077172 -0.106749
v -0.521232 2.277172 -0.106749
v 0.568768 2.277172 -0.106749
v 0.566623 0.144111 0.114000
v 0.566623 2.144111 0.114000
v 0.366623 2.144111 0.114000
v 0.366623 0.144111 0.114000
v 0.566623 0.144111 -0.114000
v 0.566623 2.144111 -0.114000
v 0.366623 0.144111 -0.114000
v 0.366623 2.144111 -0.114000
v -0.325650 0.144111 0.114000
v -0.325650 2.144111 0.114000
v -0.525650 2.144111 0.114000
v -0.525650 0.144111 0.114000
v -0.325650 0.144111 -0.114000
v -0.325650 2.144111 -0.114000
v -0.525650 0.144111 -0.114000
v -0.525650 2.144111 -0.114000
vt 1.000000 0.000000
vt 1.000000 1.000000
vt 0.000000 1.000000
vt 0.000000 0.000000
vt 1.000000 0.000000
vt 1.000000 1.000000
vt 0.000000 1.000000
vt 0.000000 0.000000
vt 1.000000 0.000000
vt 1.000000 1.000000
vt 0.000000 1.000000
vt 0.000000 0.000000
vt 1.000000 0.000000
vt 1.000000 1.000000
vt 0.000000 1.000000
vt 0.000000 0.000000
vt 1.000000 0.000000
vt 0.000000 0.000000
vt 1.000000 1.000000
vt 0.000000 1.000000
vt 1.000000 0.000000
vt 1.000000 1.000000
vt 0.000000 1.000000
vt 0.000000 0.000000
vt 1.000000 0.000000
vt 1.000000 1.000000
vt 0.000000 1.000000
vt 0.000000 0.000000
vt 1.000000 0.000000
vt 1.000000 1.000000
vt 0.000000 1.000000
vt 0.000000 0.000000
vt 1.000000 0.000000
vt 1.000000 1.000000
vt 0.000000 1.000000
vt 0.000000 0.000000
vt 1.000000 0.000000
vt 0.000000 0.000000
vt 1.000000 1.000000
vt 0.000000 1.000000
vt 1.000000 0.000000
vt 1.000000 1.000000
vt 0.000000 1.000000
vt 0.000000 0.000000
vt 1.000000 0.000000
vt 1.000000 1.000000
vt 0.000000 1.000000
vt 0.000000 0.000000
vt 1.000000 0.000000
vt 1.000000 1.000000
vt 0.000000 1.000000
vt 0.000000 0.000000
vt 1.000000 0.000000
vt 1.000000 1.000000
vt 0.000000 1.000000
vt 0.000000 0.000000
vt 1.000000 0.000000
vt 0.000000 0.000000
vt 1.000000 1.000000
vt 0.000000 1.000000
vt 1.000000 0.000000
vt 1.000000 1.000000
vt 0.000000 1.000000
vt 0.000000 0.000000
vt 1.000000 0.000000
vt 1.000000 1.000000
vt 0.000000 1.000000
vt 0.000000 0.000000
vt 1.000000 0.000000
vt 1.000000 1.000000
vt 0.000000 1.000000
vt 0.000000 0.000000
vt 1.000000 0.000000
vt 1.000000 1.000000
vt 0.000000 1.000000
vt 0.000000 0.000000
vt 1.000000 0.000000
vt 0.000000 0.000000
vt 1.000000 1.000000
vt 0.000000 1.000000
vt 1.000000 0.000000
vt 1.000000 1.000000
vt 0.000000 1.000000
vt 0.000000 0.000000
vt 1.000000 0.000000
vt 1.000000 1.000000
vt 0.000000 1.000000
vt 0.000000 0.000000
vt 1.000000 0.000000
vt 1.000000 1.000000
vt 0.000000 1.000000
vt 0.000000 0.000000
vt 1.000000 0.000000
vt 1.000000 1.000000
vt 0.000000 1.000000
vt 0.000000 0.000000
vt 1.000000 0.000000
vt 0.000000 0.000000
vt 1.000000 1.000000
vt 0.000000 1.000000
vn 0.0000 -0.0000 1.0000
vn 1.0000 -0.0000 0.0000
vn 0.0000 0.0000 -1.0000
vn -1.0000 0.0000 0.0000
vn 0.0000 1.0000 0.0000
vn 0.0000 -1.0000 0.0000
g sign2_sign2_Nuovo
usemtl Nuovo
s 1
f 1/1/1 2/2/1 3/3/1 4/4/1
f 5/5/2 6/6/2 2/7/2 1/8/2
f 7/9/3 8/10/3 6/11/3 5/12/3
f 4/13/4 3/14/4 8/15/4 7/16/4
f 2/17/5 6/6/5 8/15/5 3/18/5
f 5/5/6 1/19/6 4/20/6 7/16/6
g sign2_sign2_Nuovo.1
usemtl Nuovo.1
f 9/21/1 10/22/1 11/23/1 12/24/1
f 13/25/2 14/26/2 10/27/2 9/28/2
f 15/29/3 16/30/3 14/31/3 13/32/3
f 12/33/4 11/34/4 16/35/4 15/36/4
f 10/37/5 14/26/5 16/35/5 11/38/5
f 13/25/6 9/39/6 12/40/6 15/36/6
f 17/41/1 18/42/1 19/43/1 20/44/1
f 21/45/6 22/46/6 18/47/6 17/48/6
f 23/49/3 24/50/3 22/51/3 21/52/3
f 20/53/5 19/54/5 24/55/5 23/56/5
f 18/57/2 22/46/2 24/55/2 19/58/2
f 21/45/4 17/59/4 20/60/4 23/56/4
f 25/61/1 26/62/1 27/63/1 28/64/1
f 29/65/2 30/66/2 26/67/2 25/68/2
f 31/69/3 32/70/3 30/71/3 29/72/3
f 28/73/4 27/74/4 32/75/4 31/76/4
f 26/77/5 30/66/5 32/75/5 27/78/5
f 29/65/6 25/79/6 28/80/6 31/76/6
f 33/81/1 34/82/1 35/83/1 36/84/1
f 37/85/2 38/86/2 34/87/2 33/88/2
f 39/89/3 40/90/3 38/91/3 37/92/3
f 36/93/4 35/94/4 40/95/4 39/96/4
f 34/97/5 38/86/5 40/95/5 35/98/5
f 37/85/6 33/99/6 36/100/6 39/96/6
v 0.889347 1.085556 0.092825
v 0.889347 1.235556 0.092825
v 0.789347 1.235556 0.092825
v 0.789347 1.085556 0.092825
v 0.889347 1.085556 0.070025
v 0.889347 1.235556 0.070025
v 0.789347 1.085556 0.070025
v 0.789347 1.235556 0.070025
v 1.447869 0.151015 0.075664
v 1.447869 2.151015 0.075664
v 0.747870 2.151015 0.075664
v 0.747870 0.151015 0.075664
v 1.447869 0.151015 -0.061136
v 1.447869 2.151015 -0.061136
v 0.747870 0.151015 -0.061136
v 0.747870 2.151015 -0.061136
v 0.561928 2.077172 0.121251
v 1.651928 2.077172 0.121251
v 1.651928 2.277172 0.121251
v 0.561928 2.277172 0.121251
v 0.561928 2.077172 -0.106749
v 1.651928 2.077172 -0.106749
v 0.561928 2.277172 -0.106749
v 1.651928 2.277172 -0.106749
v 1.649783 0.144111 0.114000
v 1.649783 2.144111 0.114000
v 1.449783 2.144111 0.114000
v 1.449783 0.144111 0.114000
v 1.649783 0.144111 -0.114000
v 1.649783 2.144111 -0.114000
v 1.449783 0.144111 -0.114000
v 1.449783 2.144111 -0.114000
v 0.757510 0.144111 0.114000
v 0.757510 2.144111 0.114000
v 0.557510 2.144111 0.114000
v 0.557510 0.144111 0.114000
v 0.757510 0.144111 -0.114000
v 0.757510 2.144111 -0.114000
v 0.557510 0.144111 -0.114000
v 0.557510 2.144111 -0.114000
vt 1.000000 0.000000
vt 1.000000 1.000000
vt 0.000000 1.000000
vt 0.000000 0.000000
vt 1.000000 0.000000
vt 1.000000 1.000000
vt 0.000000 1.000000
vt 0.000000 0.000000
vt 1.000000 0.000000
vt 1.000000 1.000000
vt 0.000000 1.000000
vt 0.000000 0.000000
vt 1.000000 0.000000
vt 1.000000 1.000000
vt 0.000000 1.000000
vt 0.000000 0.000000
vt 1.000000 0.000000
vt 0.000000 0.000000
vt 1.000000 1.000000
vt 0.000000 1.000000
vt 1.000000 0.000000
vt 1.000000 1.000000
vt 0.000000 1.000000
vt 0.000000 0.000000
vt 1.000000 0.000000
vt 1.000000 1.000000
vt 0.000000 1.000000
vt 0.000000 0.000000
vt 1.000000 0.000000
vt 1.000000 1.000000
vt 0.000000 1.000000
vt 0.000000 0.000000
vt 1.000000 0.000000
vt 1.000000 1.000000
vt 0.000000 1.000000
vt 0.000000 0.000000
vt 1.000000 0.000000
vt 0.000000 0.000000
vt 1.000000 1.000000
vt 0.000000 1.000000
vt 1.000000 0.000000
vt 1.000000 1.000000
vt 0.000000 1.000000
vt 0.000000 0.000000
vt 1.000000 0.000000
vt 1.000000 1.000000
vt 0.000000 1.000000
vt 0.000000 0.000000
vt 1.000000 0.000000
vt 1.000000 1.000000
vt 0.000000 1.000000
vt 0.000000 0.000000
vt 1.000000 0.000000
vt 1.000000 1.000000
vt 0.000000 1.000000
vt 0.000000 0.000000
vt 1.000000 0.000000
vt 0.000000 0.000000
vt 1.000000 1.000000
vt 0.000000 1.000000
vt 1.000000 0.000000
vt 1.000000 1.000000
vt 0.000000 1.000000
vt 0.000000 0.000000
vt 1.000000 0.000000
vt 1.000000 1.000000
vt 0.000000 1.000000
vt 0.000000 0.000000
vt 1.000000 0.000000
vt 1.000000 1.000000
vt 0.000000 1.000000
vt 0.000000 0.000000
vt 1.000000 0.000000
vt 1.000000 1.000000
vt 0.000000 1.000000
vt 0.000000 0.000000
vt 1.000000 0.000000
vt 0.000000 0.000000
vt 1.000000 1.000000
vt 0.000000 1.000000
vt 1.000000 0.000000
vt 1.000000 1.000000
vt 0.000000 1.000000
vt 0.000000 0.000000
vt 1.000000 0.000000
vt 1.000000 1.000000
vt 0.000000 1.000000
vt 0.000000 0.000000
vt 1.000000 0.000000
vt 1.000000 1.000000
vt 0.000000 1.000000
vt 0.000000 0.000000
vt 1.000000 0.000000
vt 1.000000 1.000000
vt 0.000000 1.000000
vt 0.000000 0.000000
vt 1.000000 0.000000
vt 0.000000 0.000000
vt 1.000000 1.000000
vt 0.000000 1.000000
vn 0.0000 -0.0000 1.0000
vn 1.0000 -0.0000 0.0000
vn 0.0000 0.0000 -1.0000
vn -1.0000 0.0000 0.0000
vn 0.0000 1.0000 0.0000
vn 0.0000 -1.0000 0.0000
g sign2.001_sign2.001_Nuovo
usemtl Nuovo
s 1
f 41/101/7 42/102/7 43/103/7 44/104/7
f 45/105/8 46/106/8 42/107/8 41/108/8
f 47/109/9 48/110/9 46/111/9 45/112/9
f 44/113/10 43/114/10 48/115/10 47/116/10
f 42/117/11 46/106/11 48/115/11 43/118/11
f 45/105/12 41/119/12 44/120/12 47/116/12
g sign2.001_sign2.001_Nuovo.1
usemtl Nuovo.1
f 49/121/7 50/122/7 51/123/7 52/124/7
f 53/125/8 54/126/8 50/127/8 49/128/8
f 55/129/9 56/130/9 54/131/9 53/132/9
f 52/133/10 51/134/10 56/135/10 55/136/10
f 50/137/11 54/126/11 56/135/11 51/138/11
f 53/125/12 49/139/12 52/140/12 55/136/12
f 57/141/7 58/142/7 59/143/7 60/144/7
f 61/145/12 62/146/12 58/147/12 57/148/12
f 63/149/9 64/150/9 62/151/9 61/152/9
f 60/153/11 59/154/11 64/155/11 63/156/11
f 58/157/8 62/146/8 64/155/8 59/158/8
f 61/145/10 57/159/10 60/160/10 63/156/10
f 65/161/7 66/162/7 67/163/7 68/164/7
f 69/165/8 70/166/8 66/167/8 65/168/8
f 71/169/9 72/170/9 70/171/9 69/172/9
f 68/173/10 67/174/10 72/175/10 71/176/10
f 66/177/11 70/166/11 72/175/11 67/178/11
f 69/165/12 65/179/12 68/180/12 71/176/12
f 73/181/7 74/182/7 75/183/7 76/184/7
f 77/185/8 78/186/8 74/187/8 73/188/8
f 79/189/9 80/190/9 78/191/9 77/192/9
f 76/193/10 75/194/10 80/195/10 79/196/10
f 74/197/11 78/186/11 80/195/11 75/198/11
f 77/185/12 73/199/12 76/200/12 79/196/12
v -0.868490 -0.007872 0.613790
v -0.868490 0.165155 0.613790
v -0.868490 -0.007872 -0.141872
v -0.868490 0.165155 -0.141872
v 2.051078 -0.007872 0.613790
v 2.051078 0.165155 0.613790
v 2.051078 -0.007872 -0.141872
v 2.051078 0.165155 -0.141872
vt 0.375000 0.000000
vt 0.625000 0.000000
vt 0.625000 0.250000
vt 0.375000 0.250000
vt 0.625000 0.500000
vt 0.375000 0.500000
vt 0.625000 0.750000
vt 0.375000 0.750000
vt 0.625000 1.000000
vt 0.375000 1.000000
vt 0.125000 0.500000
vt 0.125000 0.750000
vt 0.875000 0.500000
vt 0.875000 0.750000
vn -1.0000 0.0000 0.0000
vn 0.0000 0.0000 -1.0000
vn 1.0000 0.0000 0.0000
vn 0.0000 0.0000 1.0000
vn 0.0000 -1.0000 0.0000
vn 0.0000 1.0000 0.0000
g Cube_Cube.001_None
usemtl None
s off
f 81/201/13 82/202/13 84/203/13 83/204/13
f 83/204/14 84/203/14 88/205/14 87/206/14
f 87/206/15 88/205/15 86/207/15 85/208/15
f 85/208/16 86/207/16 82/209/16 81/210/16
f 83/211/17 87/206/17 85/208/17 81/212/17
f 88/205/18 84/213/18 82/214/18 86/207/18
