# Blender v2.91.2 OBJ File: ''
# www.blender.org
mtllib entrance1.mtl
v -1.800000 2.004607 1.622479
v -1.800000 2.257485 1.622479
v -1.800000 2.004607 0.279060
v -1.800000 3.257485 0.279060
v 1.800000 2.004607 1.622479
v 1.800000 2.257485 1.622479
v 1.800000 2.004607 0.279060
v 1.800000 3.257485 0.279060
v -1.800000 3.257485 -0.002684
v -1.800000 2.004607 -0.002684
v 1.800000 2.004607 -0.002684
v 1.800000 3.257485 -0.002684
vt 0.375000 0.000000
vt 0.625000 0.000000
vt 0.625000 0.250000
vt 0.375000 0.250000
vt 0.062552 0.721927
vt 0.062552 0.999975
vt 0.000025 0.999975
vt 0.000025 0.721927
vt 0.375000 0.500000
vt 0.625000 0.500000
vt 0.625000 0.750000
vt 0.375000 0.750000
vt 0.625000 1.000000
vt 0.375000 1.000000
vt 0.875000 0.500000
vt 0.875000 0.750000
vt 0.375000 0.250000
vt 0.625000 0.250000
vt 0.625000 0.500000
vt 0.375000 0.500000
vt 0.062552 0.278073
vt 0.000025 0.278073
vt 0.062552 0.000025
vt 0.000025 0.000025
vn -1.0000 0.0000 0.0000
vn 1.0000 0.0000 0.0000
vn 0.0000 0.0000 1.0000
vn 0.0000 0.8022 0.5971
vn 0.0000 0.0000 -1.0000
vn 0.0000 1.0000 0.0000
g Cube_Cube.001_Material.Fabric.NoCullFaces
usemtl Material.Fabric.NoCullFaces
s off
f 1/1/1 2/2/1 4/3/1 3/4/1
f 8/5/2 7/6/2 11/7/2 12/8/2
f 7/9/2 8/10/2 6/11/2 5/12/2
f 5/12/3 6/11/3 2/13/3 1/14/3
f 8/10/4 4/15/4 2/16/4 6/11/4
f 10/17/5 9/18/5 12/19/5 11/20/5
f 4/21/6 8/5/6 12/8/6 9/22/6
f 3/23/1 4/21/1 9/22/1 10/24/1
