# Blender v2.91.2 OBJ File: ''
# www.blender.org
mtllib sign4.mtl
v -4.020078 3.500000 -0.065104
v -4.020078 3.500000 0.016268
v -4.020078 4.500000 0.016268
v -4.020078 4.500000 -0.065104
v 4.020078 3.500000 0.016268
v 4.020078 4.500000 0.016268
v 4.020078 3.500000 -0.065104
v 4.020078 4.500000 -0.065104
vt 0.375000 -0.090000
vt 0.375000 0.160000
vt 0.625000 0.160000
vt 0.625000 -0.090000
vt 0.000100 0.000100
vt 0.999900 0.000100
vt 0.999900 0.999900
vt 0.000100 0.999900
vt 0.375000 0.820000
vt 0.375000 1.070000
vt 0.625000 1.070000
vt 0.625000 0.820000
vt 0.375000 0.860000
vt 0.375000 1.110000
vt 0.625000 1.110000
vt 0.625000 0.860000
vt 0.125000 0.790000
vt 0.125000 1.040000
vt 0.375000 1.040000
vt 0.375000 0.790000
vt 0.495000 0.800000
vt 0.495000 1.050000
vt 0.745000 1.050000
vt 0.745000 0.800000
vn -1.0000 -0.0000 0.0000
vn 0.0000 -0.0000 1.0000
vn 1.0000 -0.0000 0.0000
vn 0.0000 0.0000 -1.0000
vn 0.0000 -1.0000 0.0000
vn 0.0000 1.0000 0.0000
g sign2_sign2_Material.001
usemtl Material.001
s off
f 1/1/1 2/2/1 3/3/1 4/4/1
f 2/5/2 5/6/2 6/7/2 3/8/2
f 5/9/3 7/10/3 8/11/3 6/12/3
f 7/13/4 1/14/4 4/15/4 8/16/4
f 2/17/5 1/18/5 7/19/5 5/20/5
f 6/21/6 8/22/6 4/23/6 3/24/6
v -0.193813 1.085556 0.092825
v -0.193813 1.235556 0.092825
v -0.293813 1.235556 0.092825
v -0.293813 1.085556 0.092825
v -0.193813 1.085556 0.070025
v -0.193813 1.235556 0.070025
v -0.293813 1.085556 0.070025
v -0.293813 1.235556 0.070025
v 0.364709 0.151015 0.075664
v 0.364709 2.151015 0.075664
v -0.335290 2.151015 0.075664
v -0.335290 0.151015 0.075664
v 0.364709 0.151015 -0.061136
v 0.364709 2.151015 -0.061136
v -0.335290 0.151015 -0.061136
v -0.335290 2.151015 -0.061136
v -0.521232 2.077172 0.121251
v 0.568768 2.077172 0.121251
v 0.568768 2.277172 0.121251
v -0.521232 2.277172 0.121251
v -0.521232 2.077172 -0.106749
v 0.568768 2.077172 -0.106749
v -0.521232 2.277172 -0.106749
v 0.568768 2.277172 -0.106749
v 0.566623 0.144111 0.114000
v 0.566623 2.144111 0.114000
v 0.366623 2.144111 0.114000
v 0.366623 0.144111 0.114000
v 0.566623 0.144111 -0.114000
v 0.566623 2.144111 -0.114000
v 0.366623 0.144111 -0.114000
v 0.366623 2.144111 -0.114000
v -0.325650 0.144111 0.114000
v -0.325650 2.144111 0.114000
v -0.525650 2.144111 0.114000
v -0.525650 0.144111 0.114000
v -0.325650 0.144111 -0.114000
v -0.325650 2.144111 -0.114000
v -0.525650 0.144111 -0.114000
v -0.525650 2.144111 -0.114000
v 0.889347 1.085556 0.092825
v 0.889347 1.235556 0.092825
v 0.789347 1.235556 0.092825
v 0.789347 1.085556 0.092825
v 0.889347 1.085556 0.070025
v 0.889347 1.235556 0.070025
v 0.789347 1.085556 0.070025
v 0.789347 1.235556 0.070025
v 1.447869 0.151015 0.075664
v 1.447869 2.151015 0.075664
v 0.747870 2.151015 0.075664
v 0.747870 0.151015 0.075664
v 1.447869 0.151015 -0.061136
v 1.447869 2.151015 -0.061136
v 0.747870 0.151015 -0.061136
v 0.747870 2.151015 -0.061136
v 0.561928 2.077172 0.121251
v 1.651928 2.077172 0.121251
v 1.651928 2.277172 0.121251
v 0.561928 2.277172 0.121251
v 0.561928 2.077172 -0.106749
v 1.651928 2.077172 -0.106749
v 0.561928 2.277172 -0.106749
v 1.651928 2.277172 -0.106749
v 1.649783 0.144111 0.114000
v 1.649783 2.144111 0.114000
v 1.449783 2.144111 0.114000
v 1.449783 0.144111 0.114000
v 1.649783 0.144111 -0.114000
v 1.649783 2.144111 -0.114000
v 1.449783 0.144111 -0.114000
v 1.449783 2.144111 -0.114000
v 0.757510 0.144111 0.114000
v 0.757510 2.144111 0.114000
v 0.557510 2.144111 0.114000
v 0.557510 0.144111 0.114000
v 0.757510 0.144111 -0.114000
v 0.757510 2.144111 -0.114000
v 0.557510 0.144111 -0.114000
v 0.557510 2.144111 -0.114000
v -0.868490 -0.007872 0.613790
v -0.868490 0.165155 0.613790
v -0.868490 0.165155 -0.141872
v -0.868490 -0.007872 -0.141872
v 2.051078 0.165155 -0.141872
v 2.051078 -0.007872 -0.141872
v 2.051078 0.165155 0.613790
v 2.051078 -0.007872 0.613790
vt 1.000000 0.000000
vt 1.000000 1.000000
vt 0.000000 1.000000
vt 0.000000 0.000000
vt 1.000000 0.000000
vt 1.000000 1.000000
vt 0.000000 1.000000
vt 0.000000 0.000000
vt 1.000000 0.000000
vt 1.000000 1.000000
vt 0.000000 1.000000
vt 0.000000 0.000000
vt 1.000000 0.000000
vt 1.000000 1.000000
vt 0.000000 1.000000
vt 0.000000 0.000000
vt 1.000000 0.000000
vt 0.000000 0.000000
vt 1.000000 1.000000
vt 0.000000 1.000000
vt 1.000000 0.000000
vt 1.000000 1.000000
vt 0.000000 1.000000
vt 0.000000 0.000000
vt 1.000000 0.000000
vt 1.000000 1.000000
vt 0.000000 1.000000
vt 0.000000 0.000000
vt 1.000000 0.000000
vt 1.000000 1.000000
vt 0.000000 1.000000
vt 0.000000 0.000000
vt 1.000000 0.000000
vt 1.000000 1.000000
vt 0.000000 1.000000
vt 0.000000 0.000000
vt 1.000000 0.000000
vt 0.000000 0.000000
vt 1.000000 1.000000
vt 0.000000 1.000000
vt 1.000000 0.000000
vt 1.000000 1.000000
vt 0.000000 1.000000
vt 0.000000 0.000000
vt 1.000000 0.000000
vt 1.000000 1.000000
vt 0.000000 1.000000
vt 0.000000 0.000000
vt 1.000000 0.000000
vt 1.000000 1.000000
vt 0.000000 1.000000
vt 0.000000 0.000000
vt 1.000000 0.000000
vt 1.000000 1.000000
vt 0.000000 1.000000
vt 0.000000 0.000000
vt 1.000000 0.000000
vt 0.000000 0.000000
vt 1.000000 1.000000
vt 0.000000 1.000000
vt 1.000000 0.000000
vt 1.000000 1.000000
vt 0.000000 1.000000
vt 0.000000 0.000000
vt 1.000000 0.000000
vt 1.000000 1.000000
vt 0.000000 1.000000
vt 0.000000 0.000000
vt 1.000000 0.000000
vt 1.000000 1.000000
vt 0.000000 1.000000
vt 0.000000 0.000000
vt 1.000000 0.000000
vt 1.000000 1.000000
vt 0.000000 1.000000
vt 0.000000 0.000000
vt 1.000000 0.000000
vt 0.000000 0.000000
vt 1.000000 1.000000
vt 0.000000 1.000000
vt 1.000000 0.000000
vt 1.000000 1.000000
vt 0.000000 1.000000
vt 0.000000 0.000000
vt 1.000000 0.000000
vt 1.000000 1.000000
vt 0.000000 1.000000
vt 0.000000 0.000000
vt 1.000000 0.000000
vt 1.000000 1.000000
vt 0.000000 1.000000
vt 0.000000 0.000000
vt 1.000000 0.000000
vt 1.000000 1.000000
vt 0.000000 1.000000
vt 0.000000 0.000000
vt 1.000000 0.000000
vt 0.000000 0.000000
vt 1.000000 1.000000
vt 0.000000 1.000000
vt 1.000000 0.000000
vt 1.000000 1.000000
vt 0.000000 1.000000
vt 0.000000 0.000000
vt 1.000000 0.000000
vt 1.000000 1.000000
vt 0.000000 1.000000
vt 0.000000 0.000000
vt 1.000000 0.000000
vt 1.000000 1.000000
vt 0.000000 1.000000
vt 0.000000 0.000000
vt 1.000000 0.000000
vt 1.000000 1.000000
vt 0.000000 1.000000
vt 0.000000 0.000000
vt 1.000000 0.000000
vt 0.000000 0.000000
vt 1.000000 1.000000
vt 0.000000 1.000000
vt 1.000000 0.000000
vt 1.000000 1.000000
vt 0.000000 1.000000
vt 0.000000 0.000000
vt 1.000000 0.000000
vt 1.000000 1.000000
vt 0.000000 1.000000
vt 0.000000 0.000000
vt 1.000000 0.000000
vt 1.000000 1.000000
vt 0.000000 1.000000
vt 0.000000 0.000000
vt 1.000000 0.000000
vt 1.000000 1.000000
vt 0.000000 1.000000
vt 0.000000 0.000000
vt 1.000000 0.000000
vt 0.000000 0.000000
vt 1.000000 1.000000
vt 0.000000 1.000000
vt 1.000000 0.000000
vt 1.000000 1.000000
vt 0.000000 1.000000
vt 0.000000 0.000000
vt 1.000000 0.000000
vt 1.000000 1.000000
vt 0.000000 1.000000
vt 0.000000 0.000000
vt 1.000000 0.000000
vt 1.000000 1.000000
vt 0.000000 1.000000
vt 0.000000 0.000000
vt 1.000000 0.000000
vt 1.000000 1.000000
vt 0.000000 1.000000
vt 0.000000 0.000000
vt 1.000000 0.000000
vt 0.000000 0.000000
vt 1.000000 1.000000
vt 0.000000 1.000000
vt 1.000000 0.000000
vt 1.000000 1.000000
vt 0.000000 1.000000
vt 0.000000 0.000000
vt 1.000000 0.000000
vt 1.000000 1.000000
vt 0.000000 1.000000
vt 0.000000 0.000000
vt 1.000000 0.000000
vt 1.000000 1.000000
vt 0.000000 1.000000
vt 0.000000 0.000000
vt 1.000000 0.000000
vt 1.000000 1.000000
vt 0.000000 1.000000
vt 0.000000 0.000000
vt 1.000000 0.000000
vt 0.000000 0.000000
vt 1.000000 1.000000
vt 0.000000 1.000000
vt 1.000000 0.000000
vt 1.000000 1.000000
vt 0.000000 1.000000
vt 0.000000 0.000000
vt 1.000000 0.000000
vt 1.000000 1.000000
vt 0.000000 1.000000
vt 0.000000 0.000000
vt 1.000000 0.000000
vt 1.000000 1.000000
vt 0.000000 1.000000
vt 0.000000 0.000000
vt 1.000000 0.000000
vt 1.000000 1.000000
vt 0.000000 1.000000
vt 0.000000 0.000000
vt 1.000000 0.000000
vt 0.000000 0.000000
vt 1.000000 1.000000
vt 0.000000 1.000000
vt 0.375000 0.000000
vt 0.625000 0.000000
vt 0.625000 0.250000
vt 0.375000 0.250000
vt 0.625000 0.500000
vt 0.375000 0.500000
vt 0.625000 0.750000
vt 0.375000 0.750000
vt 0.625000 1.000000
vt 0.375000 1.000000
vt 0.125000 0.500000
vt 0.125000 0.750000
vt 0.875000 0.500000
vt 0.875000 0.750000
vn 0.0000 -0.0000 1.0000
vn 1.0000 -0.0000 0.0000
vn 0.0000 0.0000 -1.0000
vn -1.0000 0.0000 0.0000
vn 0.0000 1.0000 0.0000
vn 0.0000 -1.0000 0.0000
g door1_door1_Nuovo.002
usemtl Nuovo.002
s 1
f 9/25/7 10/26/7 11/27/7 12/28/7
f 13/29/8 14/30/8 10/31/8 9/32/8
f 15/33/9 16/34/9 14/35/9 13/36/9
f 12/37/10 11/38/10 16/39/10 15/40/10
f 10/41/11 14/30/11 16/39/11 11/42/11
f 13/29/12 9/43/12 12/44/12 15/40/12
f 49/45/7 50/46/7 51/47/7 52/48/7
f 53/49/8 54/50/8 50/51/8 49/52/8
f 55/53/9 56/54/9 54/55/9 53/56/9
f 52/57/10 51/58/10 56/59/10 55/60/10
f 50/61/11 54/50/11 56/59/11 51/62/11
f 53/49/12 49/63/12 52/64/12 55/60/12
g door1_door1_Nuovo.003
usemtl Nuovo.003
f 17/65/7 18/66/7 19/67/7 20/68/7
f 21/69/8 22/70/8 18/71/8 17/72/8
f 23/73/9 24/74/9 22/75/9 21/76/9
f 20/77/10 19/78/10 24/79/10 23/80/10
f 18/81/11 22/70/11 24/79/11 19/82/11
f 21/69/12 17/83/12 20/84/12 23/80/12
f 25/85/7 26/86/7 27/87/7 28/88/7
f 29/89/12 30/90/12 26/91/12 25/92/12
f 31/93/9 32/94/9 30/95/9 29/96/9
f 28/97/11 27/98/11 32/99/11 31/100/11
f 26/101/8 30/90/8 32/99/8 27/102/8
f 29/89/10 25/103/10 28/104/10 31/100/10
f 33/105/7 34/106/7 35/107/7 36/108/7
f 37/109/8 38/110/8 34/111/8 33/112/8
f 39/113/9 40/114/9 38/115/9 37/116/9
f 36/117/10 35/118/10 40/119/10 39/120/10
f 34/121/11 38/110/11 40/119/11 35/122/11
f 37/109/12 33/123/12 36/124/12 39/120/12
f 41/125/7 42/126/7 43/127/7 44/128/7
f 45/129/8 46/130/8 42/131/8 41/132/8
f 47/133/9 48/134/9 46/135/9 45/136/9
f 44/137/10 43/138/10 48/139/10 47/140/10
f 42/141/11 46/130/11 48/139/11 43/142/11
f 45/129/12 41/143/12 44/144/12 47/140/12
f 57/145/7 58/146/7 59/147/7 60/148/7
f 61/149/8 62/150/8 58/151/8 57/152/8
f 63/153/9 64/154/9 62/155/9 61/156/9
f 60/157/10 59/158/10 64/159/10 63/160/10
f 58/161/11 62/150/11 64/159/11 59/162/11
f 61/149/12 57/163/12 60/164/12 63/160/12
f 65/165/7 66/166/7 67/167/7 68/168/7
f 69/169/12 70/170/12 66/171/12 65/172/12
f 71/173/9 72/174/9 70/175/9 69/176/9
f 68/177/11 67/178/11 72/179/11 71/180/11
f 66/181/8 70/170/8 72/179/8 67/182/8
f 69/169/10 65/183/10 68/184/10 71/180/10
f 73/185/7 74/186/7 75/187/7 76/188/7
f 77/189/8 78/190/8 74/191/8 73/192/8
f 79/193/9 80/194/9 78/195/9 77/196/9
f 76/197/10 75/198/10 80/199/10 79/200/10
f 74/201/11 78/190/11 80/199/11 75/202/11
f 77/189/12 73/203/12 76/204/12 79/200/12
f 81/205/7 82/206/7 83/207/7 84/208/7
f 85/209/8 86/210/8 82/211/8 81/212/8
f 87/213/9 88/214/9 86/215/9 85/216/9
f 84/217/10 83/218/10 88/219/10 87/220/10
f 82/221/11 86/210/11 88/219/11 83/222/11
f 85/209/12 81/223/12 84/224/12 87/220/12
g door1_door1_None.002
usemtl None.002
s off
f 89/225/10 90/226/10 91/227/10 92/228/10
f 92/228/9 91/227/9 93/229/9 94/230/9
f 94/230/8 93/229/8 95/231/8 96/232/8
f 96/232/7 95/231/7 90/233/7 89/234/7
f 92/235/12 94/230/12 96/232/12 89/236/12
f 93/229/11 91/237/11 90/238/11 95/231/11
