# Blender v2.91.2 OBJ File: ''
# www.blender.org
mtllib sign1.mtl
v -4.020078 2.500000 -0.065104
v -4.020078 3.500000 -0.065104
v -4.020078 2.500000 0.016268
v -4.020078 3.500000 0.016268
v 4.020078 2.500000 -0.065104
v 4.020078 3.500000 -0.065104
v 4.020078 2.500000 0.016268
v 4.020078 3.500000 0.016268
vt 0.375000 -0.090000
vt 0.375000 0.160000
vt 0.625000 0.160000
vt 0.625000 -0.090000
vt 0.000100 0.000100
vt 0.999900 0.000100
vt 0.999900 0.999900
vt 0.000100 0.999900
vt 0.375000 0.820000
vt 0.375000 1.070000
vt 0.625000 1.070000
vt 0.625000 0.820000
vt 0.375000 0.860000
vt 0.375000 1.110000
vt 0.625000 1.110000
vt 0.625000 0.860000
vt 0.125000 0.790000
vt 0.125000 1.040000
vt 0.375000 1.040000
vt 0.375000 0.790000
vt 0.495000 0.800000
vt 0.495000 1.050000
vt 0.745000 1.050000
vt 0.745000 0.800000
vn -1.0000 0.0000 0.0000
vn 0.0000 0.0000 1.0000
vn 1.0000 0.0000 0.0000
vn 0.0000 0.0000 -1.0000
vn 0.0000 -1.0000 0.0000
vn 0.0000 1.0000 0.0000
g Cube.001_Cube.002_None
usemtl None
s off
f 1/1/1 3/2/1 4/3/1 2/4/1
f 3/5/2 7/6/2 8/7/2 4/8/2
f 7/9/3 5/10/3 6/11/3 8/12/3
f 5/13/4 1/14/4 2/15/4 6/16/4
f 3/17/5 1/18/5 5/19/5 7/20/5
f 8/21/6 6/22/6 2/23/6 4/24/6
