# Blender v2.91.2 OBJ File: ''
# www.blender.org
mtllib sign3.mtl
v -4.020078 3.500000 -0.065104
v -4.020078 4.500000 -0.065104
v -4.020078 3.500000 0.016268
v -4.020078 4.500000 0.016268
v 4.020078 3.500000 -0.065104
v 4.020078 4.500000 -0.065104
v 4.020078 3.500000 0.016268
v 4.020078 4.500000 0.016268
vt 0.375000 -0.090000
vt 0.375000 0.160000
vt 0.625000 0.160000
vt 0.625000 -0.090000
vt 0.000100 0.000100
vt 0.999900 0.000100
vt 0.999900 0.999900
vt 0.000100 0.999900
vt 0.375000 0.820000
vt 0.375000 1.070000
vt 0.625000 1.070000
vt 0.625000 0.820000
vt 0.375000 0.860000
vt 0.375000 1.110000
vt 0.625000 1.110000
vt 0.625000 0.860000
vt 0.125000 0.790000
vt 0.125000 1.040000
vt 0.375000 1.040000
vt 0.375000 0.790000
vt 0.495000 0.800000
vt 0.495000 1.050000
vt 0.745000 1.050000
vt 0.745000 0.800000
vn -1.0000 0.0000 0.0000
vn 0.0000 0.0000 1.0000
vn 1.0000 0.0000 0.0000
vn 0.0000 0.0000 -1.0000
vn 0.0000 -1.0000 0.0000
vn 0.0000 1.0000 0.0000
g Cube.001_Cube.002_Material.001
usemtl Material.001
s off
f 1/1/1 3/2/1 4/3/1 2/4/1
f 3/5/2 7/6/2 8/7/2 4/8/2
f 7/9/3 5/10/3 6/11/3 8/12/3
f 5/13/4 1/14/4 2/15/4 6/16/4
f 3/17/5 1/18/5 5/19/5 7/20/5
f 8/21/6 6/22/6 2/23/6 4/24/6
v -0.293813 1.469631 0.081425
v -0.293813 1.619631 0.081425
v -0.193813 1.469631 0.081425
v -0.193813 1.619631 0.081425
v -0.193813 1.469631 0.061425
v -0.193813 1.619631 0.061425
v -0.293813 1.469631 0.061425
v -0.293813 1.619631 0.061425
vt 1.000000 0.000000
vt 1.000000 1.000000
vt 0.000000 1.000000
vt 0.000000 0.000000
vt 1.000000 0.000000
vt 1.000000 1.000000
vt 0.000000 1.000000
vt 0.000000 0.000000
vt 1.000000 0.000000
vt 1.000000 1.000000
vt 0.000000 1.000000
vt 0.000000 0.000000
vt 1.000000 0.000000
vt 1.000000 1.000000
vt 0.000000 1.000000
vt 0.000000 0.000000
vt 1.000000 0.000000
vt 0.000000 0.000000
vt 1.000000 1.000000
vt 0.000000 1.000000
vn 0.0000 -0.0000 1.0000
vn 1.0000 -0.0000 0.0000
vn 0.0000 0.0000 -1.0000
vn -1.0000 0.0000 0.0000
vn 0.0000 1.0000 0.0000
vn 0.0000 -1.0000 0.0000
g maniglia2_Mesh.002_Nuovo
usemtl Nuovo
s 1
f 11/25/7 12/26/7 10/27/7 9/28/7
f 13/29/8 14/30/8 12/31/8 11/32/8
f 15/33/9 16/34/9 14/35/9 13/36/9
f 9/37/10 10/38/10 16/39/10 15/40/10
f 12/41/11 14/30/11 16/39/11 10/42/11
f 13/29/12 11/43/12 9/44/12 15/40/12
v -0.335290 0.535090 0.066372
v -0.335290 2.535090 0.066372
v 0.364709 0.535090 0.066372
v 0.364709 2.535090 0.066372
v 0.364709 0.535090 -0.053628
v 0.364709 2.535090 -0.053628
v -0.335290 0.535090 -0.053628
v -0.335290 2.535090 -0.053628
vt 1.000000 0.000000
vt 1.000000 1.000000
vt 0.000000 1.000000
vt 0.000000 0.000000
vt 1.000000 0.000000
vt 1.000000 1.000000
vt 0.000000 1.000000
vt 0.000000 0.000000
vt 1.000000 0.000000
vt 1.000000 1.000000
vt 0.000000 1.000000
vt 0.000000 0.000000
vt 1.000000 0.000000
vt 1.000000 1.000000
vt 0.000000 1.000000
vt 0.000000 0.000000
vt 1.000000 0.000000
vt 0.000000 0.000000
vt 1.000000 1.000000
vt 0.000000 1.000000
vn 0.0000 -0.0000 1.0000
vn 1.0000 -0.0000 0.0000
vn 0.0000 0.0000 -1.0000
vn -1.0000 -0.0000 0.0000
vn 0.0000 1.0000 0.0000
vn 0.0000 -1.0000 0.0000
g porta_Mesh_Nuovo.1
usemtl Nuovo.1
s 1
f 19/45/13 20/46/13 18/47/13 17/48/13
f 21/49/14 22/50/14 20/51/14 19/52/14
f 23/53/15 24/54/15 22/55/15 21/56/15
f 17/57/16 18/58/16 24/59/16 23/60/16
f 20/61/17 22/50/17 24/59/17 18/62/17
f 21/49/18 19/63/18 17/64/18 23/60/18
v -0.521232 2.661247 0.106360
v 0.568768 2.661247 0.106360
v -0.521232 2.461247 0.106360
v 0.568768 2.461247 0.106360
v -0.521232 2.461247 -0.093640
v 0.568768 2.461247 -0.093640
v -0.521232 2.661247 -0.093640
v 0.568768 2.661247 -0.093640
vt 1.000000 0.000000
vt 1.000000 1.000000
vt 0.000000 1.000000
vt 0.000000 0.000000
vt 1.000000 0.000000
vt 1.000000 1.000000
vt 0.000000 1.000000
vt 0.000000 0.000000
vt 1.000000 0.000000
vt 1.000000 1.000000
vt 0.000000 1.000000
vt 0.000000 0.000000
vt 1.000000 0.000000
vt 1.000000 1.000000
vt 0.000000 1.000000
vt 0.000000 0.000000
vt 1.000000 0.000000
vt 0.000000 0.000000
vt 1.000000 1.000000
vt 0.000000 1.000000
vn 0.0000 -0.0000 1.0000
vn -0.0000 -1.0000 -0.0000
vn 0.0000 0.0000 -1.0000
vn 0.0000 1.0000 0.0000
vn 1.0000 0.0000 0.0000
vn -1.0000 0.0000 0.0000
g Cubo_2_Mesh.003_Nuovo.1
usemtl Nuovo.1
s 1
f 27/65/19 28/66/19 26/67/19 25/68/19
f 29/69/20 30/70/20 28/71/20 27/72/20
f 31/73/21 32/74/21 30/75/21 29/76/21
f 25/77/22 26/78/22 32/79/22 31/80/22
f 28/81/23 30/70/23 32/79/23 26/82/23
f 29/69/24 27/83/24 25/84/24 31/80/24
v 0.366623 0.528186 0.100000
v 0.366623 2.528186 0.100000
v 0.566623 0.528186 0.100000
v 0.566623 2.528186 0.100000
v 0.566623 0.528186 -0.100000
v 0.566623 2.528186 -0.100000
v 0.366623 0.528186 -0.100000
v 0.366623 2.528186 -0.100000
vt 1.000000 0.000000
vt 1.000000 1.000000
vt 0.000000 1.000000
vt 0.000000 0.000000
vt 1.000000 0.000000
vt 1.000000 1.000000
vt 0.000000 1.000000
vt 0.000000 0.000000
vt 1.000000 0.000000
vt 1.000000 1.000000
vt 0.000000 1.000000
vt 0.000000 0.000000
vt 1.000000 0.000000
vt 1.000000 1.000000
vt 0.000000 1.000000
vt 0.000000 0.000000
vt 1.000000 0.000000
vt 0.000000 0.000000
vt 1.000000 1.000000
vt 0.000000 1.000000
vn 0.0000 -0.0000 1.0000
vn 1.0000 -0.0000 0.0000
vn 0.0000 0.0000 -1.0000
vn -1.0000 0.0000 0.0000
vn 0.0000 1.0000 0.0000
vn 0.0000 -1.0000 0.0000
g Cubo_1_Mesh.004_Nuovo.1
usemtl Nuovo.1
s 1
f 35/85/25 36/86/25 34/87/25 33/88/25
f 37/89/26 38/90/26 36/91/26 35/92/26
f 39/93/27 40/94/27 38/95/27 37/96/27
f 33/97/28 34/98/28 40/99/28 39/100/28
f 36/101/29 38/90/29 40/99/29 34/102/29
f 37/89/30 35/103/30 33/104/30 39/100/30
v -0.525650 0.528186 0.100000
v -0.525650 2.528186 0.100000
v -0.325650 0.528186 0.100000
v -0.325650 2.528186 0.100000
v -0.325650 0.528186 -0.100000
v -0.325650 2.528186 -0.100000
v -0.525650 0.528186 -0.100000
v -0.525650 2.528186 -0.100000
vt 1.000000 0.000000
vt 1.000000 1.000000
vt 0.000000 1.000000
vt 0.000000 0.000000
vt 1.000000 0.000000
vt 1.000000 1.000000
vt 0.000000 1.000000
vt 0.000000 0.000000
vt 1.000000 0.000000
vt 1.000000 1.000000
vt 0.000000 1.000000
vt 0.000000 0.000000
vt 1.000000 0.000000
vt 1.000000 1.000000
vt 0.000000 1.000000
vt 0.000000 0.000000
vt 1.000000 0.000000
vt 0.000000 0.000000
vt 1.000000 1.000000
vt 0.000000 1.000000
vn 0.0000 -0.0000 1.0000
vn 1.0000 0.0000 0.0000
vn 0.0000 0.0000 -1.0000
vn -1.0000 -0.0000 0.0000
vn 0.0000 1.0000 0.0000
vn 0.0000 -1.0000 0.0000
g Cubo_Mesh.005_Nuovo.1
usemtl Nuovo.1
s 1
f 43/105/31 44/106/31 42/107/31 41/108/31
f 45/109/32 46/110/32 44/111/32 43/112/32
f 47/113/33 48/114/33 46/115/33 45/116/33
f 41/117/34 42/118/34 48/119/34 47/120/34
f 44/121/35 46/110/35 48/119/35 42/122/35
f 45/109/36 43/123/36 41/124/36 47/120/36
v -0.821766 -0.005074 0.418869
v -0.821766 0.531244 0.418869
v -0.821766 -0.005074 -0.079426
v -0.821766 0.531244 -0.079426
v 0.790739 -0.005074 0.418869
v 0.790739 0.531244 0.418869
v 0.790739 -0.005074 -0.079426
v 0.790739 0.531244 -0.079426
v -0.821766 0.327651 0.418869
v 0.790739 0.330266 0.418869
v 0.790739 0.330266 0.657575
v 0.790739 -0.005074 0.657575
v -0.821766 -0.005074 0.657575
v -0.821766 0.327651 0.657575
v -0.821766 0.161288 0.657575
v 0.790739 0.162596 0.657575
v 0.790739 0.162596 0.854708
v 0.790739 -0.005074 0.854708
v -0.821766 -0.005074 0.854708
v -0.821766 0.161288 0.854708
vt 0.533425 0.356207
vt 0.000076 0.574123
vt 0.000076 0.000076
vt 0.375000 0.250000
vt 0.625000 0.250000
vt 0.625000 0.500000
vt 0.375000 0.500000
vt 0.000076 0.999924
vt 0.000076 0.466575
vt 0.215192 0.466575
vt 0.533425 0.000076
vt 0.788923 0.000076
vt 0.788923 0.178142
vt 0.579295 0.000076
vt 0.579295 0.999924
vt 0.270322 0.999924
vt 0.270323 0.000076
vt 0.875000 0.500000
vt 0.875000 0.750000
vt 0.625000 0.750000
vt 0.514774 1.000000
vt 0.515993 0.750000
vt 0.625000 1.000000
vt 0.122311 0.000076
vt 0.122311 0.999924
vt 0.000077 0.999924
vt 0.000076 0.000076
vt 0.215192 0.211077
vt 0.394657 0.211077
vt 0.999962 0.148061
vt 0.000038 0.148061
vt 0.000038 0.000039
vt 0.999962 0.000038
vt 0.375000 0.750000
vt 0.445497 0.750000
vt 0.444887 1.000000
vt 0.375000 1.000000
vt 0.444887 1.000000
vt 0.445497 0.750000
vt 0.515993 0.750000
vt 0.514774 1.000000
vt 0.000035 0.000035
vt 0.999965 0.000035
vt 0.999965 0.122279
vt 0.000035 0.122279
vt 0.999924 0.178141
vt 0.574122 0.000076
vt 0.574123 0.211077
vt 0.533425 0.574123
vt 0.574122 0.466575
vt 0.574122 0.999924
vt 0.788923 0.356207
vt 0.999924 0.000076
vt 0.394657 0.000076
vn -1.0000 0.0000 0.0000
vn 0.0000 0.0000 -1.0000
vn 1.0000 0.0000 0.0000
vn 0.0000 -1.0000 0.0000
vn 0.0000 1.0000 0.0000
vn 0.0000 0.0000 1.0000
vn -0.0016 1.0000 0.0000
vn -0.0008 1.0000 0.0000
g Cube_Cube.003_None
usemtl None
s off
f 57/125/37 52/126/37 51/127/37
f 51/128/38 52/129/38 56/130/38 55/131/38
f 56/132/39 54/133/39 58/134/39
f 49/135/37 61/136/37 63/137/37
f 51/138/40 55/139/40 53/140/40 49/141/40
f 56/130/41 52/142/41 50/143/41 54/144/41
f 57/145/42 58/146/42 54/144/42 50/147/42
f 61/148/40 60/149/40 66/150/40 67/151/40
f 49/141/40 53/140/40 60/149/40 61/148/40
f 58/134/39 59/152/39 64/153/39
f 58/154/43 57/155/43 62/156/43 59/157/43
f 66/158/42 65/159/42 68/160/42 67/161/42
f 63/162/42 64/163/42 59/164/42 62/165/42
f 64/166/44 63/167/44 68/168/44 65/169/44
f 61/136/37 68/170/37 63/137/37
f 64/153/39 66/171/39 60/172/39
f 51/127/37 49/135/37 57/125/37
f 57/125/37 50/173/37 52/126/37
f 53/174/39 55/175/39 58/134/39
f 55/175/39 56/132/39 58/134/39
f 62/176/37 57/125/37 63/137/37
f 57/125/37 49/135/37 63/137/37
f 60/172/39 53/174/39 64/153/39
f 53/174/39 58/134/39 64/153/39
f 61/136/37 67/177/37 68/170/37
f 64/153/39 65/178/39 66/171/39
