# Blender v2.91.2 OBJ File: ''
# www.blender.org
mtllib sign5.mtl
v -2.448270 3.948824 -0.065104
v -2.448270 3.948824 1.023345
v -2.448270 4.500000 1.023345
v -2.448270 4.500000 -0.065104
v 2.260445 3.948824 1.023345
v 2.260445 4.500000 1.023345
v 2.260445 3.948824 -0.065104
v 2.260445 4.500000 -0.065104
v -0.706377 1.085556 0.092825
v -0.706377 1.235556 0.092825
v -0.806377 1.235556 0.092825
v -0.806377 1.085556 0.092825
v -0.706377 1.085556 0.070025
v -0.706377 1.235556 0.070025
v -0.806377 1.085556 0.070025
v -0.806377 1.235556 0.070025
v 0.376783 1.085556 0.092825
v 0.376783 1.235556 0.092825
v 0.276783 1.235556 0.092825
v 0.276783 1.085556 0.092825
v 0.376783 1.085556 0.070025
v 0.376783 1.235556 0.070025
v 0.276783 1.085556 0.070025
v 0.276783 1.235556 0.070025
v -0.147855 0.151015 0.075664
v -0.147855 2.151015 0.075664
v -0.847854 2.151015 0.075664
v -0.847854 0.151015 0.075664
v -0.147855 0.151015 -0.061136
v -0.147855 2.151015 -0.061136
v -0.847854 0.151015 -0.061136
v -0.847854 2.151015 -0.061136
v -1.033796 2.077172 0.121251
v 0.056204 2.077172 0.121251
v 0.056204 2.277172 0.121251
v -1.033796 2.277172 0.121251
v -1.033796 2.077172 -0.106749
v 0.056204 2.077172 -0.106749
v -1.033796 2.277172 -0.106749
v 0.056204 2.277172 -0.106749
v 0.054059 0.144111 0.114000
v 0.054059 2.144111 0.114000
v -0.145941 2.144111 0.114000
v -0.145941 0.144111 0.114000
v 0.054059 0.144111 -0.114000
v 0.054059 2.144111 -0.114000
v -0.145941 0.144111 -0.114000
v -0.145941 2.144111 -0.114000
v -0.838214 0.144111 0.114000
v -0.838214 2.144111 0.114000
v -1.038214 2.144111 0.114000
v -1.038214 0.144111 0.114000
v -0.838214 0.144111 -0.114000
v -0.838214 2.144111 -0.114000
v -1.038214 0.144111 -0.114000
v -1.038214 2.144111 -0.114000
v 0.935305 0.151015 0.075664
v 0.935305 2.151015 0.075664
v 0.235306 2.151015 0.075664
v 0.235306 0.151015 0.075664
v 0.935305 0.151015 -0.061136
v 0.935305 2.151015 -0.061136
v 0.235306 0.151015 -0.061136
v 0.235306 2.151015 -0.061136
v 0.049364 2.077172 0.121251
v 1.139364 2.077172 0.121251
v 1.139364 2.277172 0.121251
v 0.049364 2.277172 0.121251
v 0.049364 2.077172 -0.106749
v 1.139364 2.077172 -0.106749
v 0.049364 2.277172 -0.106749
v 1.139364 2.277172 -0.106749
v 1.137219 0.144111 0.114000
v 1.137219 2.144111 0.114000
v 0.937219 2.144111 0.114000
v 0.937219 0.144111 0.114000
v 1.137219 0.144111 -0.114000
v 1.137219 2.144111 -0.114000
v 0.937219 0.144111 -0.114000
v 0.937219 2.144111 -0.114000
v 0.244946 0.144111 0.114000
v 0.244946 2.144111 0.114000
v 0.044946 2.144111 0.114000
v 0.044946 0.144111 0.114000
v 0.244946 0.144111 -0.114000
v 0.244946 2.144111 -0.114000
v 0.044946 0.144111 -0.114000
v 0.044946 2.144111 -0.114000
v -1.381054 -0.007872 0.613790
v -1.381054 0.165155 0.613790
v -1.381054 0.165155 -0.141872
v -1.381054 -0.007872 -0.141872
v 1.538514 0.165155 -0.141872
v 1.538514 -0.007872 -0.141872
v 1.538514 0.165155 0.613790
v 1.538514 -0.007872 0.613790
vt 0.375000 -0.090000
vt 0.375000 0.160000
vt 0.625000 0.160000
vt 0.625000 -0.090000
vt 0.000100 0.000100
vt 0.999900 0.000100
vt 0.999900 0.999900
vt 0.000100 0.999900
vt 0.375000 0.820000
vt 0.375000 1.070000
vt 0.625000 1.070000
vt 0.625000 0.820000
vt 0.375000 0.860000
vt 0.375000 1.110000
vt 0.625000 1.110000
vt 0.625000 0.860000
vt 0.125000 0.790000
vt 0.125000 1.040000
vt 0.375000 1.040000
vt 0.375000 0.790000
vt 0.495000 0.800000
vt 0.495000 1.050000
vt 0.745000 1.050000
vt 0.745000 0.800000
vt 1.000000 0.000000
vt 1.000000 1.000000
vt 0.000000 1.000000
vt 0.000000 0.000000
vt 1.000000 0.000000
vt 1.000000 1.000000
vt 0.000000 1.000000
vt 0.000000 0.000000
vt 1.000000 0.000000
vt 1.000000 1.000000
vt 0.000000 1.000000
vt 0.000000 0.000000
vt 1.000000 0.000000
vt 1.000000 1.000000
vt 0.000000 1.000000
vt 0.000000 0.000000
vt 1.000000 0.000000
vt 0.000000 0.000000
vt 1.000000 1.000000
vt 0.000000 1.000000
vt 1.000000 0.000000
vt 1.000000 1.000000
vt 0.000000 1.000000
vt 0.000000 0.000000
vt 1.000000 0.000000
vt 1.000000 1.000000
vt 0.000000 1.000000
vt 0.000000 0.000000
vt 1.000000 0.000000
vt 1.000000 1.000000
vt 0.000000 1.000000
vt 0.000000 0.000000
vt 1.000000 0.000000
vt 1.000000 1.000000
vt 0.000000 1.000000
vt 0.000000 0.000000
vt 1.000000 0.000000
vt 0.000000 0.000000
vt 1.000000 1.000000
vt 0.000000 1.000000
vt 1.000000 0.000000
vt 1.000000 1.000000
vt 0.000000 1.000000
vt 0.000000 0.000000
vt 1.000000 0.000000
vt 1.000000 1.000000
vt 0.000000 1.000000
vt 0.000000 0.000000
vt 1.000000 0.000000
vt 1.000000 1.000000
vt 0.000000 1.000000
vt 0.000000 0.000000
vt 1.000000 0.000000
vt 1.000000 1.000000
vt 0.000000 1.000000
vt 0.000000 0.000000
vt 1.000000 0.000000
vt 0.000000 0.000000
vt 1.000000 1.000000
vt 0.000000 1.000000
vt 1.000000 0.000000
vt 1.000000 1.000000
vt 0.000000 1.000000
vt 0.000000 0.000000
vt 1.000000 0.000000
vt 1.000000 1.000000
vt 0.000000 1.000000
vt 0.000000 0.000000
vt 1.000000 0.000000
vt 1.000000 1.000000
vt 0.000000 1.000000
vt 0.000000 0.000000
vt 1.000000 0.000000
vt 1.000000 1.000000
vt 0.000000 1.000000
vt 0.000000 0.000000
vt 1.000000 0.000000
vt 0.000000 0.000000
vt 1.000000 1.000000
vt 0.000000 1.000000
vt 1.000000 0.000000
vt 1.000000 1.000000
vt 0.000000 1.000000
vt 0.000000 0.000000
vt 1.000000 0.000000
vt 1.000000 1.000000
vt 0.000000 1.000000
vt 0.000000 0.000000
vt 1.000000 0.000000
vt 1.000000 1.000000
vt 0.000000 1.000000
vt 0.000000 0.000000
vt 1.000000 0.000000
vt 1.000000 1.000000
vt 0.000000 1.000000
vt 0.000000 0.000000
vt 1.000000 0.000000
vt 0.000000 0.000000
vt 1.000000 1.000000
vt 0.000000 1.000000
vt 1.000000 0.000000
vt 1.000000 1.000000
vt 0.000000 1.000000
vt 0.000000 0.000000
vt 1.000000 0.000000
vt 1.000000 1.000000
vt 0.000000 1.000000
vt 0.000000 0.000000
vt 1.000000 0.000000
vt 1.000000 1.000000
vt 0.000000 1.000000
vt 0.000000 0.000000
vt 1.000000 0.000000
vt 1.000000 1.000000
vt 0.000000 1.000000
vt 0.000000 0.000000
vt 1.000000 0.000000
vt 0.000000 0.000000
vt 1.000000 1.000000
vt 0.000000 1.000000
vt 1.000000 0.000000
vt 1.000000 1.000000
vt 0.000000 1.000000
vt 0.000000 0.000000
vt 1.000000 0.000000
vt 1.000000 1.000000
vt 0.000000 1.000000
vt 0.000000 0.000000
vt 1.000000 0.000000
vt 1.000000 1.000000
vt 0.000000 1.000000
vt 0.000000 0.000000
vt 1.000000 0.000000
vt 1.000000 1.000000
vt 0.000000 1.000000
vt 0.000000 0.000000
vt 1.000000 0.000000
vt 0.000000 0.000000
vt 1.000000 1.000000
vt 0.000000 1.000000
vt 1.000000 0.000000
vt 1.000000 1.000000
vt 0.000000 1.000000
vt 0.000000 0.000000
vt 1.000000 0.000000
vt 1.000000 1.000000
vt 0.000000 1.000000
vt 0.000000 0.000000
vt 1.000000 0.000000
vt 1.000000 1.000000
vt 0.000000 1.000000
vt 0.000000 0.000000
vt 1.000000 0.000000
vt 1.000000 1.000000
vt 0.000000 1.000000
vt 0.000000 0.000000
vt 1.000000 0.000000
vt 0.000000 0.000000
vt 1.000000 1.000000
vt 0.000000 1.000000
vt 1.000000 0.000000
vt 1.000000 1.000000
vt 0.000000 1.000000
vt 0.000000 0.000000
vt 1.000000 0.000000
vt 1.000000 1.000000
vt 0.000000 1.000000
vt 0.000000 0.000000
vt 1.000000 0.000000
vt 1.000000 1.000000
vt 0.000000 1.000000
vt 0.000000 0.000000
vt 1.000000 0.000000
vt 1.000000 1.000000
vt 0.000000 1.000000
vt 0.000000 0.000000
vt 1.000000 0.000000
vt 0.000000 0.000000
vt 1.000000 1.000000
vt 0.000000 1.000000
vt 1.000000 0.000000
vt 1.000000 1.000000
vt 0.000000 1.000000
vt 0.000000 0.000000
vt 1.000000 0.000000
vt 1.000000 1.000000
vt 0.000000 1.000000
vt 0.000000 0.000000
vt 1.000000 0.000000
vt 1.000000 1.000000
vt 0.000000 1.000000
vt 0.000000 0.000000
vt 1.000000 0.000000
vt 1.000000 1.000000
vt 0.000000 1.000000
vt 0.000000 0.000000
vt 1.000000 0.000000
vt 0.000000 0.000000
vt 1.000000 1.000000
vt 0.000000 1.000000
vt 0.375000 0.000000
vt 0.625000 0.000000
vt 0.625000 0.250000
vt 0.375000 0.250000
vt 0.625000 0.500000
vt 0.375000 0.500000
vt 0.625000 0.750000
vt 0.375000 0.750000
vt 0.625000 1.000000
vt 0.375000 1.000000
vt 0.125000 0.500000
vt 0.125000 0.750000
vt 0.875000 0.500000
vt 0.875000 0.750000
vn -1.0000 0.0000 0.0000
vn 0.0000 -0.0000 1.0000
vn 1.0000 0.0000 0.0000
vn 0.0000 0.0000 -1.0000
vn 0.0000 -1.0000 0.0000
vn 0.0000 1.0000 0.0000
g sign5_sign5_Material.001
usemtl Material.001
s off
f 1/1/1 2/2/1 3/3/1 4/4/1
f 2/5/2 5/6/2 6/7/2 3/8/2
f 5/9/3 7/10/3 8/11/3 6/12/3
f 7/13/4 1/14/4 4/15/4 8/16/4
f 2/17/5 1/18/5 7/19/5 5/20/5
f 6/21/6 8/22/6 4/23/6 3/24/6
g sign5_sign5_Nuovo
usemtl Nuovo
s 1
f 9/25/2 10/26/2 11/27/2 12/28/2
f 13/29/3 14/30/3 10/31/3 9/32/3
f 15/33/4 16/34/4 14/35/4 13/36/4
f 12/37/1 11/38/1 16/39/1 15/40/1
f 10/41/6 14/30/6 16/39/6 11/42/6
f 13/29/5 9/43/5 12/44/5 15/40/5
f 17/45/2 18/46/2 19/47/2 20/48/2
f 21/49/3 22/50/3 18/51/3 17/52/3
f 23/53/4 24/54/4 22/55/4 21/56/4
f 20/57/1 19/58/1 24/59/1 23/60/1
f 18/61/6 22/50/6 24/59/6 19/62/6
f 21/49/5 17/63/5 20/64/5 23/60/5
g sign5_sign5_Nuovo.1
usemtl Nuovo.1
f 25/65/2 26/66/2 27/67/2 28/68/2
f 29/69/3 30/70/3 26/71/3 25/72/3
f 31/73/4 32/74/4 30/75/4 29/76/4
f 28/77/1 27/78/1 32/79/1 31/80/1
f 26/81/6 30/70/6 32/79/6 27/82/6
f 29/69/5 25/83/5 28/84/5 31/80/5
f 33/85/2 34/86/2 35/87/2 36/88/2
f 37/89/5 38/90/5 34/91/5 33/92/5
f 39/93/4 40/94/4 38/95/4 37/96/4
f 36/97/6 35/98/6 40/99/6 39/100/6
f 34/101/3 38/90/3 40/99/3 35/102/3
f 37/89/1 33/103/1 36/104/1 39/100/1
f 41/105/2 42/106/2 43/107/2 44/108/2
f 45/109/3 46/110/3 42/111/3 41/112/3
f 47/113/4 48/114/4 46/115/4 45/116/4
f 44/117/1 43/118/1 48/119/1 47/120/1
f 42/121/6 46/110/6 48/119/6 43/122/6
f 45/109/5 41/123/5 44/124/5 47/120/5
f 49/125/2 50/126/2 51/127/2 52/128/2
f 53/129/3 54/130/3 50/131/3 49/132/3
f 55/133/4 56/134/4 54/135/4 53/136/4
f 52/137/1 51/138/1 56/139/1 55/140/1
f 50/141/6 54/130/6 56/139/6 51/142/6
f 53/129/5 49/143/5 52/144/5 55/140/5
f 57/145/2 58/146/2 59/147/2 60/148/2
f 61/149/3 62/150/3 58/151/3 57/152/3
f 63/153/4 64/154/4 62/155/4 61/156/4
f 60/157/1 59/158/1 64/159/1 63/160/1
f 58/161/6 62/150/6 64/159/6 59/162/6
f 61/149/5 57/163/5 60/164/5 63/160/5
f 65/165/2 66/166/2 67/167/2 68/168/2
f 69/169/5 70/170/5 66/171/5 65/172/5
f 71/173/4 72/174/4 70/175/4 69/176/4
f 68/177/6 67/178/6 72/179/6 71/180/6
f 66/181/3 70/170/3 72/179/3 67/182/3
f 69/169/1 65/183/1 68/184/1 71/180/1
f 73/185/2 74/186/2 75/187/2 76/188/2
f 77/189/3 78/190/3 74/191/3 73/192/3
f 79/193/4 80/194/4 78/195/4 77/196/4
f 76/197/1 75/198/1 80/199/1 79/200/1
f 74/201/6 78/190/6 80/199/6 75/202/6
f 77/189/5 73/203/5 76/204/5 79/200/5
f 81/205/2 82/206/2 83/207/2 84/208/2
f 85/209/3 86/210/3 82/211/3 81/212/3
f 87/213/4 88/214/4 86/215/4 85/216/4
f 84/217/1 83/218/1 88/219/1 87/220/1
f 82/221/6 86/210/6 88/219/6 83/222/6
f 85/209/5 81/223/5 84/224/5 87/220/5
g sign5_sign5_None
usemtl None
s off
f 89/225/1 90/226/1 91/227/1 92/228/1
f 92/228/4 91/227/4 93/229/4 94/230/4
f 94/230/3 93/229/3 95/231/3 96/232/3
f 96/232/2 95/231/2 90/233/2 89/234/2
f 92/235/5 94/230/5 96/232/5 89/236/5
f 93/229/6 91/237/6 90/238/6 95/231/6
