# Blender v3.2.0 OBJ File: ''
# www.blender.org
mtllib stone.mtl
v -0.862227 -0.096190 0.095875
v -0.645100 -0.239000 0.789700
v -0.329055 0.506574 0.705252
v -0.456452 0.411741 -0.520358
v -0.758603 0.176373 -0.454902
v -0.408732 -0.334788 -0.904487
v 0.212262 -0.563332 -0.843869
v 0.620908 0.385334 -0.522627
v 0.410365 0.673761 -0.002971
v 0.890988 0.188515 0.074996
v -0.112562 -0.612824 0.751288
v -0.204233 -0.664233 -0.757774
v 0.471073 -0.631136 0.451991
v 0.099400 0.215500 0.871200
v -0.416351 -0.412125 0.950212
v -0.626524 -0.542459 0.472312
v -0.651728 -0.194049 -0.571860
v 0.646527 -0.573683 -0.697826
v 0.903860 -0.297078 -0.619130
v 0.638250 0.147934 0.493422
v 0.338800 -0.326400 0.874900
v 0.854088 -0.353914 0.333051
v 0.810025 -0.437836 -0.053850
v 0.074735 0.623009 0.519297
v -0.495505 0.368598 0.304227
v -0.604349 -0.591616 -0.527137
v -0.578567 0.088881 -0.476541
v -0.422314 0.689184 0.052166
v 0.022554 0.870417 -0.075930
v -0.022493 0.559149 -0.690891
v 0.259900 0.518200 0.069300
vt 0.171454 0.762677
vt 0.366900 0.745900
vt 0.343708 0.964903
vt 0.832285 0.455716
vt 0.758412 0.529413
vt 0.723344 0.333063
vt 0.275500 0.403200
vt 0.397262 0.510237
vt 0.238102 0.537738
vt 0.093166 0.393775
vt 0.215091 0.006967
vt 0.273878 0.376148
vt 0.569800 0.244100
vt 0.432138 0.235162
vt 0.584300 0.008482
vt 0.634100 0.671300
vt 0.533180 0.641215
vt 0.583413 0.457776
vt 0.420480 0.410817
vt 0.651851 0.359046
vt 0.408183 0.110596
vt 0.052978 0.412467
vt 0.681300 0.317900
vt 0.725100 0.172300
vt 0.846700 0.247400
vt 0.275607 0.683117
vt 0.436743 0.681247
vt 0.487500 0.312400
vt 0.049400 0.843900
vt 0.236718 0.911554
vt 0.171630 0.994702
vt 0.697500 0.481700
vt 0.506883 0.462253
vt 0.797192 0.860440
vt 0.916602 0.738503
vt 0.878993 0.961645
vt 0.940089 0.405233
vt 0.844125 0.275170
vt 0.827500 0.155800
vt 0.395660 0.279650
vt 0.345300 0.401500
vt 0.976600 0.800500
vt 0.374400 0.551200
vt 0.453383 0.539336
vt 0.687167 0.030648
vt 0.980400 0.715600
vt 0.888427 0.624974
vt 0.980900 0.549700
vt 0.439966 0.937201
vt 0.483540 0.702937
vt 0.591081 0.982196
vt 0.061900 0.703200
vt 0.003297 0.681772
vt 0.041599 0.596659
vt 0.689950 0.629470
vt 0.821557 0.559781
vt 0.725300 0.747300
vt 0.012744 0.282090
vt 0.090731 0.023722
vt 0.816978 0.025144
vt 0.929459 0.068624
vt 0.851000 0.147100
vt 0.072320 0.977344
vt 0.014900 0.974600
vt 0.027400 0.837900
vt 0.435500 0.495600
vt 0.346522 0.447877
vt 0.367800 0.422500
vt 0.061713 0.576021
vt 0.314424 0.017466
vt 0.503400 0.006500
vt 0.911600 0.489100
vt 0.420700 0.325200
vt 0.114719 0.677905
vt 0.841500 0.496300
vt 0.870000 0.711500
vt 0.658649 0.692091
vt 0.766110 0.868685
vt 0.712200 0.951600
vt 0.003607 0.426889
vt 0.886200 0.221600
vt 0.018400 0.811400
vn -0.9351 0.3059 0.1790
vn -0.7960 -0.0080 0.6052
vn -0.8588 0.4398 0.2628
vn -0.5502 0.5936 -0.5873
vn -0.8071 0.0001 -0.5904
vn -0.4176 0.9068 -0.0581
vn 0.5888 0.5555 -0.5871
vn 0.4468 0.7657 0.4627
vn 0.8961 0.4102 0.1694
vn 0.0005 -0.8862 0.4633
vn -0.1485 -0.8572 -0.4932
vn 0.3636 -0.8795 0.3070
vn 0.2363 0.3807 0.8940
vn -0.1086 0.6580 0.7452
vn -0.3318 -0.3754 0.8654
vn -0.4474 -0.8943 -0.0100
vn -0.8785 -0.4269 -0.2144
vn -0.9071 0.0580 -0.4170
vn -0.4095 -0.0850 -0.9083
vn 0.4628 -0.6822 -0.5661
vn 0.8292 -0.1124 -0.5476
vn 0.6863 0.4051 0.6041
vn 0.4412 -0.2477 0.8625
vn 0.8778 -0.3301 0.3472
vn 0.3142 0.8235 0.4723
vn -0.8551 0.4855 0.1819
vn -0.8975 0.3803 0.2233
vn -0.7125 -0.6621 -0.2323
vn -0.8203 0.0548 -0.5693
vn 0.0821 0.9962 -0.0280
vn -0.1746 0.7985 -0.5761
vn 0.8231 -0.5664 0.0408
vn 0.4640 0.7123 0.5266
vn -0.7757 -0.5301 0.3425
vn 0.2482 0.1816 -0.9515
vn 0.1830 -0.4296 -0.8843
g stone_stone_stone
usemtl stone
s 1
f 1/1/1 2/2/2 3/3/3
f 4/4/4 5/5/5 28/6/6
f 8/7/7 9/8/8 10/9/9
f 11/10/10 12/11/11 13/12/12
f 14/13/13 3/14/14 15/15/15
f 16/16/16 1/17/17 17/18/18
f 4/19/4 6/20/19 17/18/18
f 13/12/12 12/11/11 18/21/20
f 19/22/21 8/7/7 10/9/9
f 20/23/22 21/24/23 22/25/24
f 20/26/22 10/9/9 24/27/25
f 14/13/13 24/28/25 3/14/14
f 5/29/5 25/30/26 28/31/27
f 6/20/19 26/32/28 17/18/18
f 1/1/1 25/30/26 5/29/5
f 27/33/29 17/18/18 1/17/17
f 28/34/6 3/35/14 29/36/30
f 30/37/31 28/6/6 29/38/30
f 21/24/23 13/39/12 22/25/24
f 13/12/12 23/40/32 22/41/24
f 3/35/14 24/42/25 29/36/30
f 24/27/25 31/43/33 29/44/30
f 11/45/10 13/39/12 21/24/23
f 15/15/15 21/24/23 14/13/13
f 1/46/1 16/47/34 2/48/2
f 15/15/15 11/45/10 21/24/23
f 6/49/19 30/50/35 7/51/36
f 31/52/33 9/53/8 29/54/30
f 9/55/8 8/56/7 29/57/30
f 16/58/16 26/59/28 12/11/11
f 26/60/28 6/61/19 12/62/11
f 24/27/25 10/9/9 31/43/33
f 5/63/5 27/64/29 1/65/1
f 4/66/4 27/67/29 5/68/5
f 19/22/21 10/9/9 23/69/32
f 4/19/4 17/18/18 27/33/29
f 20/23/22 14/13/13 21/24/23
f 20/23/22 24/28/25 14/13/13
f 7/70/36 18/21/20 12/11/11
f 16/16/16 17/18/18 26/32/28
f 13/12/12 18/21/20 23/40/32
f 3/14/14 2/71/2 15/15/15
f 2/48/2 16/47/34 15/72/15
f 30/37/31 4/4/4 28/6/6
f 4/19/4 30/73/31 6/20/19
f 23/69/32 10/9/9 22/74/24
f 15/72/15 16/47/34 11/75/10
f 12/11/11 11/10/10 16/58/16
f 22/74/24 10/9/9 20/26/22
f 3/3/3 28/31/27 25/30/26
f 1/1/1 3/3/3 25/30/26
f 8/56/7 30/76/31 29/57/30
f 30/50/35 8/77/7 7/51/36
f 7/51/36 8/77/7 19/78/21
f 18/79/20 7/51/36 19/78/21
f 23/69/32 18/80/20 19/22/21
f 7/81/36 12/62/11 6/61/19
f 31/52/33 10/82/9 9/53/8
