# Blender v3.2.0 OBJ File: ''
# www.blender.org
mtllib stone_dune.mtl
v -0.255505 0.748695 0.490507
v -0.809338 0.151043 -0.357657
v -0.536677 -0.578979 -0.839545
v 0.754778 -0.531928 -0.711751
v 0.205494 0.655624 -0.633958
v 0.073066 0.862685 -0.014409
v 0.891319 0.164392 0.149678
v -0.427419 -0.432759 1.060175
v 0.682792 -0.584890 0.509906
vt 0.084935 0.820252
vt 0.366900 0.745900
vt 0.286522 0.971007
vt 0.275500 0.403200
vt 0.397262 0.510237
vt 0.243113 0.557161
vt 0.634100 0.671300
vt 0.483195 0.495698
vt 0.672901 0.442823
vt 0.290422 0.387324
vt 0.130092 0.018419
vt 0.398731 0.101207
vt 0.023823 0.420984
vt 0.681300 0.317900
vt 0.580675 0.040619
vt 0.817979 0.189467
vt 0.940089 0.405233
vt 0.723344 0.333063
vt 0.844125 0.275170
vt 0.439966 0.937201
vt 0.535240 0.699735
vt 0.719839 0.924156
vt 0.436743 0.681247
vt 0.450695 0.539740
vt 0.110310 0.669432
vt 0.450412 0.260658
vt 0.795489 0.492424
vt 0.420700 0.325200
vt 0.012744 0.282090
vn -0.9161 0.2915 -0.2752
vn -0.3707 -0.3585 0.8568
vn -0.2676 0.7995 0.5377
vn 0.1665 0.7238 -0.6696
vn -0.0243 0.9985 -0.0495
vn 0.8950 0.3620 0.2605
vn -0.4992 -0.5469 -0.6721
vn 0.5865 -0.5922 0.5525
vn 0.6284 -0.4767 -0.6146
g stone_stone_stone
usemtl stone
s 1
f 2/1/1 8/2/2 1/3/3
f 5/4/4 6/5/5 7/6/6
f 8/7/2 2/8/1 3/9/7
f 9/10/8 3/11/7 4/12/9
f 4/13/9 5/4/4 7/6/6
f 7/14/6 8/15/2 9/16/8
f 5/17/4 1/18/3 6/19/5
f 3/20/7 5/21/4 4/22/9
f 1/23/3 7/6/6 6/24/5
f 4/13/9 7/6/6 9/25/8
f 7/14/6 1/26/3 8/15/2
f 5/17/4 2/27/1 1/18/3
f 2/8/1 5/28/4 3/9/7
f 3/11/7 9/10/8 8/29/2
