<?xml version="1.0" encoding="UTF-8" standalone="no"?>
<!-- Created with Inkscape (http://www.inkscape.org/) -->

<svg
   width="64mm"
   height="64mm"
   viewBox="0 0 64 64"
   version="1.1"
   id="svg5"
   inkscape:version="1.1.2 (0a00cf5339, 2022-02-04)"
   sodipodi:docname="laps.svg"
   xmlns:inkscape="http://www.inkscape.org/namespaces/inkscape"
   xmlns:sodipodi="http://sodipodi.sourceforge.net/DTD/sodipodi-0.dtd"
   xmlns="http://www.w3.org/2000/svg"
   xmlns:svg="http://www.w3.org/2000/svg">
  <sodipodi:namedview
     id="namedview7"
     pagecolor="#ffffff"
     bordercolor="#666666"
     borderopacity="1.0"
     inkscape:pageshadow="2"
     inkscape:pageopacity="0.0"
     inkscape:pagecheckerboard="0"
     inkscape:document-units="mm"
     showgrid="false"
     fit-margin-top="0"
     fit-margin-left="0"
     fit-margin-right="0"
     fit-margin-bottom="0"
     inkscape:zoom="2.1064798"
     inkscape:cx="62.901149"
     inkscape:cy="126.98911"
     inkscape:window-width="1920"
     inkscape:window-height="1011"
     inkscape:window-x="0"
     inkscape:window-y="32"
     inkscape:window-maximized="1"
     inkscape:current-layer="layer1" />
  <defs
     id="defs2" />
  <g
     inkscape:label="Layer 1"
     inkscape:groupmode="layer"
     id="layer1"
     transform="translate(-42.908457,-91.652516)">
    <text
       xml:space="preserve"
       style="font-style:normal;font-weight:normal;font-size:10.5833px;line-height:1.25;font-family:sans-serif;letter-spacing:0px;word-spacing:0px;fill:#ffffff;fill-opacity:1;stroke:none;stroke-width:0.264583"
       x="73.957336"
       y="100.56217"
       id="text4026"><tspan
         sodipodi:role="line"
         style="text-align:center;text-anchor:middle;fill:#ffffff;fill-opacity:1;stroke-width:0.264583"
         x="73.957336"
         y="100.56217"
         id="tspan1436">Laps</tspan></text>
    <path
       sodipodi:type="spiral"
       style="fill:none;fill-rule:evenodd;stroke:#ffffff;stroke-width:11.33858282;stroke-miterlimit:4;stroke-dasharray:none;stroke-linecap:round;stroke-opacity:1"
       id="path847"
       sodipodi:cx="107.35018"
       sodipodi:cy="112.68945"
       sodipodi:expansion="1"
       sodipodi:revolution="3"
       sodipodi:radius="103.03402"
       sodipodi:argument="-18.325956"
       sodipodi:t0="0"
       d="m 107.35018,112.68945 c 4.47385,2.58299 -1.27457,7.30502 -4.29309,7.43584 -8.18,0.35451 -12.070948,-9.20215 -10.578581,-16.02202 2.669494,-12.199144 16.720511,-17.309423 27.750941,-13.721326 16.1876,5.265677 22.66732,24.327926 16.86408,39.479866 -7.73481,20.19517 -31.96524,28.07394 -51.208799,20.00683 C 61.668675,139.717 52.379413,110.25224 62.735163,86.930913 75.277363,58.685657 110.01042,47.979948 137.40181,60.638598 169.68162,75.55638 181.80737,115.57752 166.83687,147.03417 149.55285,183.35212 104.23108,196.90028 68.712371,179.61198 28.353751,159.96792 13.381533,109.33708 32.991817,69.758552 54.991592,25.35743 110.93749,8.95995 154.57417,30.895253 c 48.445,24.352343 66.26864,85.617667 42.00605,133.311277"
       transform="matrix(0.26458333,0,0,0.26458333,44.395638,100.23296)" />
  </g>
</svg>
