<?xml version="1.0" encoding="UTF-8" standalone="no"?>
<!-- Created with Inkscape (http://www.inkscape.org/) -->

<svg
   width="64mm"
   height="64mm"
   viewBox="0 0 64 64"
   version="1.1"
   id="svg5"
   inkscape:version="1.2.2 (b0a8486541, 2022-12-01)"
   sodipodi:docname="laps.svg"
   inkscape:export-filename="laps.png"
   inkscape:export-xdpi="203.2"
   inkscape:export-ydpi="203.2"
   xmlns:inkscape="http://www.inkscape.org/namespaces/inkscape"
   xmlns:sodipodi="http://sodipodi.sourceforge.net/DTD/sodipodi-0.dtd"
   xmlns="http://www.w3.org/2000/svg"
   xmlns:svg="http://www.w3.org/2000/svg">
  <sodipodi:namedview
     id="namedview7"
     pagecolor="#ffffff"
     bordercolor="#666666"
     borderopacity="1.0"
     inkscape:pageshadow="2"
     inkscape:pageopacity="0.0"
     inkscape:pagecheckerboard="0"
     inkscape:document-units="mm"
     showgrid="false"
     fit-margin-top="0"
     fit-margin-left="0"
     fit-margin-right="0"
     fit-margin-bottom="0"
     inkscape:zoom="2.1064798"
     inkscape:cx="27.059362"
     inkscape:cy="127.93856"
     inkscape:window-width="1854"
     inkscape:window-height="1011"
     inkscape:window-x="66"
     inkscape:window-y="32"
     inkscape:window-maximized="1"
     inkscape:current-layer="layer1"
     inkscape:showpageshadow="2"
     inkscape:deskcolor="#d1d1d1" />
  <defs
     id="defs2" />
  <g
     inkscape:label="Layer 1"
     inkscape:groupmode="layer"
     id="layer1"
     transform="translate(-42.908457,-91.652516)">
    <path
       sodipodi:type="spiral"
       style="fill:none;fill-rule:evenodd;stroke:#ffffff;stroke-width:11.3386;stroke-linecap:round;stroke-miterlimit:4;stroke-dasharray:none;stroke-opacity:1"
       id="path847"
       sodipodi:cx="107.35018"
       sodipodi:cy="112.68945"
       sodipodi:expansion="1"
       sodipodi:revolution="3"
       sodipodi:radius="103.03402"
       sodipodi:argument="-18.325956"
       sodipodi:t0="0"
       d="m 107.35018,112.68945 c 4.47385,2.58299 -1.27457,7.30502 -4.29309,7.43584 -8.18,0.35451 -12.070948,-9.20215 -10.578581,-16.02202 2.669494,-12.199144 16.720511,-17.309423 27.750941,-13.721326 16.1876,5.265677 22.66732,24.327926 16.86408,39.479866 -7.73481,20.19517 -31.96524,28.07394 -51.208799,20.00683 C 61.668675,139.717 52.379413,110.25224 62.735163,86.930913 75.277363,58.685657 110.01042,47.979948 137.40181,60.638598 169.68162,75.55638 181.80737,115.57752 166.83687,147.03417 149.55285,183.35212 104.23108,196.90028 68.712371,179.61198 28.353751,159.96792 13.381533,109.33708 32.991817,69.758552 54.991592,25.35743 110.93749,8.95995 154.57417,30.895253 c 48.445,24.352343 66.26864,85.617667 42.00605,133.311277"
       transform="matrix(0.32507631,0,0,0.32507631,37.384722,90.228657)" />
  </g>
</svg>
