# Blender 4.5.3 LTS
# www.blender.org
mtllib sports_car0.mtl
o sports_car0_Plastic
v -1.824610 0.565506 0.708119
v -1.835596 0.611673 0.688288
v -2.066282 0.428098 -0.000000
v -2.068773 0.234637 -0.000000
v -1.993402 0.420301 0.407535
v -1.991938 0.249809 0.424423
v -1.830490 0.613288 -0.699347
v -1.776417 0.651086 -0.596760
v -1.803453 0.644273 -0.664535
v -1.993402 0.420308 -0.407530
v -1.991938 0.249809 -0.424423
v -1.999273 0.231412 -0.364122
v -1.940709 0.527930 0.537873
v -1.776417 0.651086 0.596760
v -1.875284 0.596993 0.530977
v -1.824610 0.565506 -0.708119
v -1.940709 0.527930 -0.537873
v -1.939219 0.550445 -0.522051
v -1.810859 0.634334 -0.558393
v -1.939219 0.550445 0.522051
v -1.810859 0.634334 0.558393
v -1.782970 0.566223 0.687560
v -1.892881 0.499961 0.508784
v -1.775080 0.595506 0.526825
v -1.731173 0.623478 0.603811
v -1.875284 0.596993 -0.530977
v -1.781706 0.566658 -0.686632
v -1.893139 0.499977 -0.508981
v -1.774221 0.594775 -0.526421
v -1.730799 0.624387 -0.602455
v -1.999273 0.231412 0.364122
v -2.035270 0.234590 -0.000000
v -1.958068 0.414403 0.409003
v -1.958018 0.242158 0.415082
v -1.958353 0.414410 -0.409053
v -1.956738 0.242019 -0.414976
vn -0.6039 0.3839 -0.6985
vn -0.6353 0.0420 0.7711
vn -0.0377 0.7801 0.6245
vn -0.2142 0.4282 -0.8779
vn 0.4705 0.8590 0.2017
vn 0.3303 0.0525 0.9424
vn -0.2073 -0.6926 -0.6909
vn -0.6340 0.0477 -0.7719
vn 0.0330 -0.3148 -0.9486
vn -0.6144 -0.4810 0.6254
vn -0.6150 0.4654 0.6365
vn -0.9790 -0.1990 -0.0435
vn -0.4724 -0.8581 -0.2010
vn -0.0391 0.7803 -0.6242
vn 0.4670 0.8606 -0.2033
vn 0.3301 0.0526 -0.9425
vn -0.2002 -0.7905 -0.5788
vn -0.1651 -0.9862 0.0107
vn -0.7080 -0.5247 -0.4727
vn -0.1038 0.9939 0.0360
vn -0.6337 0.5601 0.5335
vn -0.0180 0.4795 0.8773
vn -0.2165 -0.6916 0.6891
vn 0.0330 -0.3155 0.9484
vn -0.4361 -0.5560 -0.7076
vn -0.1554 0.9878 0.0002
vn -0.1089 0.9935 -0.0339
vn -0.6295 0.5629 -0.5357
vn -0.0181 0.4772 -0.8786
vn -0.2007 -0.7910 0.5780
vn -0.7065 -0.5254 0.4742
vn -0.1664 -0.9860 -0.0109
vn -0.9732 -0.2283 -0.0261
vn -0.5659 -0.3206 0.7596
vn -0.2219 0.5284 0.8195
vn -0.4751 -0.8778 0.0618
vn -0.1554 0.9879 0.0002
vn -0.9965 -0.0831 -0.0005
vn -0.9965 -0.0831 -0.0006
vt 0.875000 0.712442
vt 0.872974 0.670923
vt 0.875000 0.649354
vt 0.599706 0.034147
vt 0.616593 0.036424
vt 0.619555 0.095508
vt 0.617339 0.097483
vt 0.625000 0.100646
vt 0.872668 0.675211
vt 0.872971 0.670972
vt 0.873792 0.660395
vt 0.873612 0.699942
vt 0.872732 0.692021
vt 0.872224 0.687442
vt 0.619495 0.095457
vt 0.560679 0.145361
vt 0.595999 0.250000
vt 0.557684 0.143525
vt 0.435018 0.151554
vt 0.450697 0.143207
vt 0.453181 0.141884
vt 0.625000 0.037558
vt 0.431488 0.250000
vt 0.450718 0.143196
vt 0.560679 0.145363
vt 0.557683 0.143526
vt 0.872760 0.692273
vt 0.616820 0.036455
vt 0.874906 0.711594
s 1
g sports_car0_Plastic_Plastic
usemtl Plastic
f 22/1/1 24/2/2 23/3/3
f 1/4/4 22/5/1 23/6/3 13/7/5
f 13/7/5 23/6/3 20/8/6
f 19/9/7 29/10/8 26/11/9
f 9/12/10 27/1/11 30/13/12 8/14/13
f 28/15/14 17/7/15 18/8/16
f 5/16/17 3/17/18 33/18/19
f 12/19/20 36/20/21 11/21/22
f 21/9/23 15/11/24 24/2/2
f 1/4/4 2/22/25 22/5/1
f 23/3/3 15/11/24 20/3/6
f 27/1/11 29/10/8 30/13/12
f 28/3/14 26/11/9 29/10/8
f 32/23/26 31/19/27 34/24/28
f 31/19/27 6/21/29 34/24/28
f 12/19/20 32/23/26 36/20/21
f 10/25/30 35/26/31 3/17/32
f 22/1/1 25/27/33 24/2/2
f 9/12/10 7/22/34 16/4/35 27/1/11
f 23/3/3 24/2/2 15/11/24
f 28/15/14 27/28/11 16/4/35 17/7/15
f 27/1/11 28/3/14 29/10/8
f 14/14/36 21/9/23 24/2/2 25/27/33
f 28/3/14 18/3/16 26/11/9
f 6/21/29 5/16/17 33/18/19 34/24/28
f 25/27/33 22/1/1 2/29/25 14/14/36
f 32/23/26 4/23/37 31/19/27
f 11/21/22 36/20/21 35/26/31 10/25/30
f 33/18/19 3/17/38 32/23/39 34/24/28
f 12/19/20 4/23/37 32/23/26
f 8/14/13 30/13/12 29/10/8 19/9/7
f 35/26/31 36/20/21 32/23/39 3/17/38
