# Blender 4.5.3 LTS
# www.blender.org
mtllib sports_car0.mtl
o sports_car0_Glass
v 0.661429 0.870918 0.713210
v 0.119652 1.053037 0.587895
v -0.314872 0.847986 0.734725
v 0.622272 1.120207 0.552182
v -0.508242 0.878597 -0.364595
v 0.075206 1.232360 -0.000000
v -0.499294 0.869734 0.376662
v -0.394496 0.919057 0.612698
v 0.118180 1.167797 0.468595
v 0.879868 1.131745 0.383969
v 1.458005 0.921618 -0.084645
v 0.907344 1.122515 0.433494
v 1.396374 0.948218 0.294208
v -1.791561 0.572694 0.690591
v 2.036909 0.711530 0.695812
v -0.318686 0.843526 -0.732379
v 0.100010 1.045186 -0.591789
v -0.394496 0.919057 -0.612698
v 0.118180 1.167797 -0.468595
v 0.890712 1.124435 -0.429527
v 1.396511 0.948593 -0.294202
v -1.776297 0.574804 -0.679842
v -1.776417 0.651086 -0.596760
v 2.018690 0.697221 -0.673943
v -1.918486 0.523696 0.520831
v -1.776417 0.651086 0.596760
v -1.824949 0.621183 0.545765
v -1.918766 0.521271 -0.521366
v -1.834185 0.640420 -0.547045
v 1.253353 1.002420 0.425435
v 1.452939 0.924298 0.113753
v 1.253353 1.002420 -0.425435
v 0.660889 0.875684 -0.716315
v 0.620072 1.123797 -0.548702
v 2.030084 0.834303 0.430723
v 2.084952 0.716661 0.439133
v 1.936617 0.825143 -0.682962
v 2.030084 0.834303 -0.430723
v 2.005472 0.749487 -0.700852
v 2.084952 0.716661 -0.439133
v 1.936617 0.825143 0.682962
vn -0.7059 0.4626 -0.5363
vn -0.7058 0.4627 -0.5364
vn -0.4796 0.8752 0.0630
vn -0.4620 0.8869 -0.0019
vn -0.4808 0.8749 0.0583
vn -0.4799 0.8753 0.0599
vn -0.4494 0.8921 -0.0465
vn -0.4240 0.8971 -0.1243
vn -0.4246 0.8972 -0.1214
vn 0.3553 0.9347 -0.0121
vn 0.3560 0.9345 -0.0042
vn 0.3545 0.9350 -0.0138
vn 0.5033 0.3324 -0.7976
vn -0.0680 0.7476 -0.6607
vn 0.1539 0.7769 -0.6105
vn -0.2651 0.6575 0.7052
vn 0.1690 0.4455 0.8792
vn -0.0783 0.7629 0.6418
vn 0.1537 0.7520 0.6410
vn 0.7965 0.5562 0.2371
vn -0.7222 0.5885 0.3635
vn -0.7223 0.5883 0.3635
vn -0.7221 0.5886 0.3635
vn 0.8424 0.4749 -0.2546
vn 0.8423 0.4751 -0.2545
vn 0.8425 0.4748 -0.2546
vn -0.7060 0.4626 -0.5363
vn 0.3550 0.9348 -0.0112
vn 0.3554 0.9346 -0.0128
vn 0.3546 0.9350 -0.0085
vn 0.3560 0.9345 0.0054
vn 0.3560 0.9345 0.0023
vn -0.1513 0.5393 -0.8284
vn 0.8425 0.4747 -0.2546
vn 0.3555 0.9347 0.0001
vt 0.873824 0.701855
vt 0.872945 0.671266
vt 0.872224 0.687442
vt 0.754376 0.726576
vt 0.753884 0.582919
vt 0.806083 0.631610
vt 0.799255 0.719087
vt 0.806187 0.627088
vt 0.691195 0.543131
vt 0.691141 0.532007
vt 0.716420 0.697849
vt 0.566567 0.852943
vt 0.593052 0.881535
vt 0.608170 0.853692
vt 0.604731 0.923471
vt 0.566592 0.852926
vt 0.593792 0.880870
vt 0.608495 0.853952
vt 0.590789 0.718214
vt 0.619753 0.645223
vt 0.636224 0.640212
vt 0.621246 0.733472
vt 0.873910 0.702623
vt 0.872971 0.670919
vt 0.875000 0.649354
vt 0.597778 0.726725
vt 0.621246 0.733471
vt 0.714927 0.718328
vt 0.699881 0.673910
vt 0.693882 0.611369
vt 0.605274 0.923847
vt 0.587769 0.714537
vt 0.715193 0.713997
s 1
g sports_car0_Glass_Glass
usemtl Glass
f 22/1/1 29/2/1 23/3/2
f 9/4/3 6/5/4 7/6/5 8/7/6
f 5/8/7 6/5/4 19/4/8 18/7/9
f 31/9/10 11/10/11 10/11/12
f 33/12/13 17/13/14 34/14/15
f 3/15/16 1/16/17 2/17/18
f 1/16/17 4/18/19 2/17/18
f 15/19/20 36/20/20 35/21/20 41/22/20
f 14/23/21 27/24/22 25/25/23
f 39/26/24 37/27/25 38/21/26
f 22/1/1 28/25/27 29/2/1
f 5/8/7 7/6/5 6/5/4
f 12/28/28 30/29/29 10/11/12
f 30/29/29 13/30/30 31/9/10
f 10/11/12 30/29/29 31/9/10
f 11/10/11 21/30/31 32/29/32
f 33/12/13 16/31/33 17/13/14
f 14/23/21 26/3/23 27/24/22
f 38/21/26 40/20/26 24/32/34 39/26/24
f 11/10/11 32/29/32 20/33/35 10/11/12
