# Blender v2.93.1 OBJ File: ''
# www.blender.org
mtllib shop42_ad.mtl
v 1.980000 0.000000 0.105000
v -1.980000 -0.000000 0.105000
v 1.980000 2.000000 0.105000
v -1.980000 2.000000 0.105000
v 1.980000 0.000000 -0.105000
v -1.980000 -0.000000 -0.105000
v 1.980000 2.000000 -0.105000
v -1.980000 2.000000 -0.105000
vt 0.962891 0.066406
vt 0.988281 0.066406
vt 0.988281 0.972656
vt 0.962891 0.972656
vt 0.058594 0.972656
vt 0.962891 1.000000
vt 0.058594 1.000000
vt 0.058594 0.000000
vt 0.962891 0.000000
vt 0.962891 0.046875
vt 0.058594 0.046875
vt 0.011719 0.066406
vt 0.058594 0.066406
vt 0.011719 0.972656
vn 1.0000 0.0000 0.0000
vn 0.0000 1.0000 0.0000
vn -0.0000 -0.0000 -1.0000
vn -1.0000 -0.0000 0.0000
vn 0.0000 0.0000 1.0000
vn 0.0000 -1.0000 0.0000
g Cube_Cube_Material
usemtl Material
s off
f 1/1/1 5/2/1 7/3/1 3/4/1
f 4/5/2 3/4/2 7/6/2 8/7/2
f 8/8/3 7/9/3 5/10/3 6/11/3
f 6/12/4 2/13/4 4/5/4 8/14/4
f 2/13/5 1/1/5 3/4/5 4/5/5
f 6/11/6 5/10/6 1/1/6 2/13/6
