# Blender v2.90.0 OBJ File: ''
# www.blender.org
mtllib TW_glass.mtl
v 0.840224 0.018617 0.739890
v 0.817556 0.301300 0.365196
v 0.716977 0.379055 0.299783
v 0.310278 0.131897 0.655277
v 0.356188 -0.010493 0.823136
v 0.348624 0.416677 0.319558
v 0.307756 0.274287 0.487418
v -0.210705 -0.051044 1.301095
v -0.210705 -0.620885 2.005418
v 0.210124 -0.620885 2.005418
v 0.210124 -0.051044 1.301095
v -0.717559 0.379055 0.299783
v -0.818137 0.301300 0.365196
v -0.840805 0.018617 0.739886
v -0.310859 0.131897 0.655277
v -0.356770 -0.010493 0.823136
v -0.349205 0.416677 0.319558
v -0.308338 0.274287 0.487418
v 1.171079 0.116022 0.373855
v 1.260666 -0.096881 0.309107
v 1.210917 0.046157 -0.133682
v 1.244761 0.020084 -0.380252
v 1.102387 0.346145 -0.520705
v 1.071434 0.408178 -0.435643
v 1.115078 0.344797 0.364687
v 1.154509 0.236989 0.387189
v 1.213864 0.008167 -0.520450
v 1.044246 0.455340 -0.313005
v 1.083155 0.381662 0.214033
v -1.171660 0.116022 0.373855
v -1.208807 0.045104 -0.133991
v -1.261247 -0.096881 0.309107
v -1.245342 0.020084 -0.380253
v -1.100665 0.345841 -0.520442
v -1.089542 0.394350 0.042233
v -1.155090 0.236989 0.387189
v -1.113352 0.349532 0.362869
v -1.214445 0.008167 -0.520450
v -1.077677 0.420361 -0.483925
v -1.054259 0.447968 -0.349901
v -1.067219 0.457565 -0.212220
vn 0.0881 0.7837 0.6149
vn 0.2196 0.7780 0.5887
vn 0.1177 0.7714 0.6254
vn 0.0782 0.7765 0.6252
vn 0.0664 0.7749 0.6285
vn 0.1157 0.7491 0.6523
vn 0.1104 0.7625 0.6375
vn 0.0000 0.7774 0.6290
vn -0.1168 0.7725 0.6242
vn -0.2196 0.7780 0.5887
vn -0.0881 0.7837 0.6149
vn -0.0782 0.7765 0.6252
vn -0.0664 0.7749 0.6285
vn -0.1157 0.7491 0.6523
vn -0.1104 0.7625 0.6375
vn 0.9642 0.2647 -0.0135
vn 0.9231 0.3839 0.0213
vn 0.9275 0.3726 0.0293
vn 0.9139 0.4031 -0.0488
vn 0.9193 0.3936 0.0026
vn 0.8934 0.4492 0.0075
vn 0.9275 0.3721 -0.0342
vn 0.9710 0.2360 -0.0387
vn 0.9203 0.3315 -0.2079
vn 0.9242 0.3763 0.0645
vn 0.6432 0.7647 0.0392
vn -0.9558 0.2928 -0.0286
vn -0.9350 0.3529 0.0353
vn -0.9226 0.3855 0.0153
vn -0.9543 0.2983 -0.0156
vn -0.9734 0.2116 -0.0884
vn -0.9344 0.3557 -0.0174
vn -0.9290 0.3684 0.0342
vn -0.9181 0.3375 -0.2079
vn -0.9113 0.4085 -0.0505
vn -0.9599 0.2496 0.1280
vn -0.9292 0.3688 -0.0247
vn -0.9971 0.0571 -0.0504
g TW_glass_TW_glass_DefaultMaterial
usemtl DefaultMaterial
s 1
f 1//1 2//2 3//3
f 4//4 5//5 1//1
f 4//4 1//1 3//3
f 6//6 7//7 3//3
f 7//7 4//4 3//3
f 8//8 9//8 10//8
f 8//8 10//8 11//8
f 12//9 13//10 14//11
f 15//12 12//9 14//11
f 15//12 14//11 16//13
f 17//14 12//9 18//15
f 18//15 12//9 15//12
f 19//16 20//17 21//18
f 22//19 23//20 21//18
f 28//21 25//22 26//23
f 28//21 26//23 23//20
f 23//20 19//16 21//18
f 23//20 26//23 19//16
f 23//20 22//19 27//24
f 28//21 23//20 24//25
f 29//26 25//22 28//21
f 30//27 31//28 32//29
f 35//30 36//31 37//32
f 35//30 31//28 30//27
f 35//30 30//27 36//31
f 34//33 38//34 33//35
f 34//33 33//35 31//28
f 34//33 31//28 35//30
f 39//36 34//33 40//37
f 40//37 34//33 35//30
f 40//37 35//30 41//38
