# Blender v2.90.0 OBJ File: ''
# www.blender.org
mtllib TW_glass.mtl
o TW_glass
v 0.840224 0.018617 0.739890
v 0.807731 0.339932 0.342674
v 0.356188 -0.010493 0.823136
v 0.301910 0.370133 0.318870
v -0.210705 -0.051044 1.301095
v -0.210705 -0.620885 2.005418
v 0.210124 -0.620885 2.005418
v 0.210124 -0.051044 1.301095
v -0.808312 0.339932 0.342672
v -0.840805 0.018617 0.739886
v -0.356770 -0.010493 0.823136
v -0.302491 0.370133 0.318871
v 1.330900 0.001637 0.254638
v 1.240402 0.009801 -0.523662
v 1.047204 0.420858 -0.491947
v 1.096696 0.324676 0.393848
v -1.132504 0.336601 0.392426
v -1.283704 -0.018501 0.255440
v -1.240984 0.009801 -0.523662
v -1.067392 0.444358 -0.502633
vn 0.0445 0.7871 0.6152
vn 0.0588 0.8047 0.5908
vn 0.0424 0.7960 0.6038
vn 0.0133 0.7772 0.6291
vn 0.0000 0.7774 0.6290
vn -0.0445 0.7871 0.6152
vn -0.0131 0.7782 0.6279
vn -0.0424 0.7960 0.6039
vn -0.0588 0.8047 0.5908
vn 0.8861 0.4565 -0.0800
vn 0.8769 0.4776 -0.0542
vn 0.8478 0.5300 -0.0174
vn 0.8137 0.5812 0.0108
vn -0.9331 0.3595 -0.0026
vn -0.9141 0.4044 -0.0309
vn -0.9166 0.3991 -0.0242
vn -0.9239 0.3811 -0.0335
g TW_glass_TW_glass_DefaultMaterial
usemtl DefaultMaterial
s 1
f 4//1 3//2 1//3
f 4//1 1//3 2//4
f 5//5 6//5 7//5
f 5//5 7//5 8//5
f 12//6 9//7 10//8
f 12//6 10//8 11//9
f 14//10 15//11 13//12
f 15//11 16//13 13//12
f 20//14 19//15 18//16
f 20//14 18//16 17//17
