# File produced by Open Asset Import Library (http://www.assimp.sf.net)
# (assimp v4.1.0)

mtllib TW_glass.mtl

# 88 vertex positions
v  0.8403189778327942 0.01926399953663349 0.7403960227966309
v  0.8326069712638855 0.112746000289917 0.6149899959564209
v  0.7271389961242676 0.1324719935655594 0.6081609725952148
v  0.7280200123786926 0.01236199960112572 0.7595890164375305
v  0.3102779984474182 0.1318970024585724 0.6552770137786865
v  0.3561879992485046 -0.01049300003796816 0.8231359720230103
v  0.717848002910614 0.01173700019717216 0.7613270282745361
v  0.717585027217865 0.1342580020427704 0.6075429916381836
v  0.8248950242996216 0.2062270045280457 0.4895850121974945
v  0.7262570261955261 0.252581000328064 0.4567340016365051
v  0.7253760099411011 0.3726910054683685 0.305307000875473
v  0.8171830177307129 0.2997080087661743 0.3641789853572845
v  0.3486239910125732 0.4166769981384277 0.3195579946041107
v  0.3077560067176819 0.2742869853973389 0.487417995929718
v  0.7173230051994324 0.2567799985408783 0.4537590146064758
v  0.7170609831809998 0.3793019950389862 0.2999750077724457
v  -0.0004910000134259462 -0.05104399845004082 1.301095008850098
v  -0.0004910000134259462 -0.6208850145339966 2.005418062210083
v  0.2101240009069443 -0.6208850145339966 2.005418062210083
v  0.2101240009069443 -0.05104399845004082 1.301095008850098
v  -0.7277200222015381 0.1324719935655594 0.6081609725952148
v  -0.833187997341156 0.112746000289917 0.6149899959564209
v  -0.8409000039100647 0.01926399953663349 0.7403960227966309
v  -0.7286009788513184 0.01236199960112572 0.7595880031585693
v  -0.3108589947223663 0.1318970024585724 0.6552770137786865
v  -0.7181670069694519 0.1342580020427704 0.6075429916381836
v  -0.7184290289878845 0.01173700019717216 0.7613270282745361
v  -0.3567700088024139 -0.01049300003796816 0.8231359720230103
v  -0.726839005947113 0.252581000328064 0.4567340016365051
v  -0.8254759907722473 0.2062270045280457 0.4895850121974945
v  -0.725957989692688 0.3726910054683685 0.305307000875473
v  -0.8177639842033386 0.2997080087661743 0.3641789853572845
v  -0.3492049872875214 0.4166769981384277 0.3195579946041107
v  -0.7176420092582703 0.3793019950389862 0.2999750077724457
v  -0.7179039716720581 0.2567799985408783 0.4537590146064758
v  -0.3083379864692688 0.2742869853973389 0.487417995929718
v  -0.2107049971818924 -0.05104399845004082 1.301095008850098
v  -0.2107049971818924 -0.6208850145339966 2.005418062210083
v  1.165701985359192 0.1168280020356178 0.07485999912023544
v  1.178292989730835 0.122807003557682 0.3742910027503967
v  1.260666012763977 -0.09688100218772888 0.3091070055961609
v  1.220623016357422 -0.01455499976873398 0.05871099978685379
v  1.19895601272583 0.1295849978923798 -0.3822570145130157
v  1.176275014877319 0.1208840012550354 -0.1536989957094193
v  1.208863973617554 0.04437499865889549 -0.1521089971065521
v  1.2414710521698 0.01875700056552887 -0.3822570145130157
v  1.099943995475769 0.345876008272171 -0.3822570145130157
v  1.099943995475769 0.345876008272171 -0.1536989957094193
v  1.142459034919739 0.2350489944219589 -0.1536989957094193
v  1.142459034919739 0.2350489944219589 -0.3822570145130157
v  1.099943995475769 0.345876008272171 0.07485999912023544
v  1.115077972412109 0.3447969853878021 0.3646869957447052
v  1.154508948326111 0.2369890064001083 0.3871890008449554
v  1.142459034919739 0.2350489944219589 0.07485999912023544
v  1.177397012710571 0.1213139966130257 -0.5204499959945679
v  1.213863968849182 0.00816699955612421 -0.5204499959945679
v  1.137161016464233 0.2330169975757599 -0.5204499959945679
v  1.103330016136169 0.3471759855747223 -0.5204499959945679
v  1.06701397895813 0.4062449932098389 -0.4351379871368408
v  1.057757019996643 0.4591180086135864 -0.3204230070114136
v  1.059831023216248 0.440542995929718 -0.1569949984550476
v  1.065752029418945 0.4007050096988678 0.06327500194311142
v  1.081856966018677 0.3779470026493073 0.2172060012817383
v  -1.166283011436462 0.1168280020356178 0.07485999912023544
v  -1.221204042434692 -0.01455499976873398 0.05871099978685379
v  -1.261247038841248 -0.09688100218772888 0.3091070055961609
v  -1.178874015808105 0.122807003557682 0.3742910027503967
v  -1.199537038803101 0.1295849978923798 -0.3822579979896545
v  -1.242051959037781 0.01875700056552887 -0.3822579979896545
v  -1.209444999694824 0.04437499865889549 -0.1521089971065521
v  -1.17685604095459 0.1208840012550354 -0.1536989957094193
v  -1.10052502155304 0.345876008272171 -0.3822579979896545
v  -1.14303994178772 0.2350489944219589 -0.3822579979896545
v  -1.14303994178772 0.2350489944219589 -0.1536989957094193
v  -1.10052502155304 0.345876008272171 -0.1536989957094193
v  -1.10052502155304 0.345876008272171 0.07485999912023544
v  -1.14303994178772 0.2350489944219589 0.07485999912023544
v  -1.155089974403381 0.2369890064001083 0.3871890008449554
v  -1.11565899848938 0.3447969853878021 0.3646869957447052
v  -1.177978992462158 0.1213139966130257 -0.5204499959945679
v  -1.214444994926453 0.00816699955612421 -0.5204499959945679
v  -1.137742042541504 0.2330169975757599 -0.5204499959945679
v  -1.10391104221344 0.3471759855747223 -0.5204499959945679
v  -1.077677011489868 0.4203610122203827 -0.4839250147342682
v  -1.054258942604065 0.4479680061340332 -0.3499009907245636
v  -1.067219018936157 0.4575650095939636 -0.2122199982404709
v  -1.089074969291687 0.3944739997386932 0.04167399927973747
v  -1.10233199596405 0.375324010848999 0.211901992559433

# 0 UV coordinates

# 83 vertex normals
vn 0.08099599927663803 0.7903379797935486 0.6072570085525513
vn 0.1054719984531403 0.788873016834259 0.6053959727287292
vn 0.107974000275135 0.7835929989814758 0.6117740273475647
vn 0.08108799904584885 0.7848449945449829 0.6143379807472229
vn 0.07113900035619736 0.7723320126533508 0.6311839818954468
vn 0.0647910013794899 0.7748039960861206 0.6288340091705322
vn 0.07208500057458878 0.7773060202598572 0.6249279975891113
vn 0.09024299681186676 0.775413990020752 0.6249279975891113
vn 0.1584829986095428 0.7840819954872131 0.6000239849090576
vn 0.1652580052614212 0.7779170274734497 0.6061890125274658
vn 0.1912900060415268 0.7715690135955811 0.6066470146179199
vn 0.201544001698494 0.7784969806671143 0.5943779945373535
vn 0.09753700345754623 0.7621080279350281 0.6400039792060852
vn 0.08664199709892273 0.7663810253143311 0.636493980884552
vn 0.1282999962568283 0.7696160078048706 0.6254770159721375
vn 0.1277810037136078 0.7652519941329956 0.6308789849281311
vn 0 0.7774209976196289 0.6289809942245483
vn -0.107974000275135 0.7835929989814758 0.6117740273475647
vn -0.1054719984531403 0.788873016834259 0.6053959727287292
vn -0.08099599927663803 0.7903379797935486 0.6072570085525513
vn -0.08108799904584885 0.7848449945449829 0.6143379807472229
vn -0.07113900035619736 0.7723320126533508 0.6311839818954468
vn -0.09024299681186676 0.775413990020752 0.6249279975891113
vn -0.07208500057458878 0.7773060202598572 0.6249279975891113
vn -0.0647910013794899 0.7748039960861206 0.6288340091705322
vn -0.1652580052614212 0.7779170274734497 0.6061890125274658
vn -0.1584829986095428 0.7840819954872131 0.6000239849090576
vn -0.1912900060415268 0.7715690135955811 0.6066470146179199
vn -0.201544001698494 0.7784969806671143 0.5943779945373535
vn -0.09753700345754623 0.7621080279350281 0.6400039792060852
vn -0.1277810037136078 0.7652519941329956 0.6308789849281311
vn -0.1282999962568283 0.7696160078048706 0.6254770159721375
vn -0.08664199709892273 0.7663810253143311 0.636493980884552
vn 0.9539170265197754 0.2999660074710846 -0.002105999970808625
vn 0.9603869915008545 0.275642991065979 -0.04007099941372871
vn 0.927702009677887 0.3714100122451782 -0.03723299875855446
vn 0.926023006439209 0.3774529993534088 0.002135999966412783
vn 0.9271219968795776 0.3730579912662506 -0.03515699878334999
vn 0.937192976474762 0.3440349996089935 0.05719200149178505
vn 0.9227880239486694 0.3780629932880402 0.07416000217199326
vn 0.9347209930419922 0.35139000415802 -0.05255300179123878
vn 0.9250159859657288 0.3795889914035797 -0.01480100024491549
vn 0.9237340092658997 0.3828850090503693 0.01013199985027313
vn 0.9422590136528015 0.3342689871788025 0.01944000087678432
vn 0.9301739931106567 0.3668020069599152 -0.01452699955552816
vn 0.8980069756507874 0.4398019909858704 -0.01187200006097555
vn 0.9246500134468079 0.3786129951477051 -0.04077300056815147
vn 0.9613329768180847 0.2719810009002686 -0.04251199960708618
vn 0.9578229784965515 0.2868430018424988 -0.01510700024664402
vn 0.919064998626709 0.3661609888076782 -0.1456339955329895
vn 0.9264199733734131 0.3266699910163879 -0.1870779991149902
vn 0.9297770261764526 0.3638719916343689 -0.05554400011897087
vn 0.9327679872512817 0.3599050045013428 -0.01919599995017052
vn 0.8934599757194519 0.4466989934444427 -0.04641899839043617
vn 0.9222689867019653 0.3864560127258301 -0.002746999962255359
vn 0.9154940247535706 0.4018369913101196 0.01925699971616268
vn 0.8663899898529053 0.4992829859256744 0.006806000135838985
vn 0.8159729838371277 0.5774710178375244 -0.02639899961650372
vn -0.9539170265197754 0.2999660074710846 -0.002105999970808625
vn -0.926023006439209 0.3774529993534088 0.002135999966412783
vn -0.927702009677887 0.3714100122451782 -0.03723299875855446
vn -0.9603869915008545 0.275642991065979 -0.04007099941372871
vn -0.9271219968795776 0.3730579912662506 -0.03515699878334999
vn -0.9347209930419922 0.35139000415802 -0.05255300179123878
vn -0.9227880239486694 0.3780629932880402 0.07416000217199326
vn -0.937192976474762 0.3440349996089935 0.05719200149178505
vn -0.9375900030136108 0.3476060032844543 0.006165000144392252
vn -0.9301739931106567 0.3668020069599152 -0.01452699955552816
vn -0.9422590136528015 0.3342689871788025 0.01944000087678432
vn -0.9454630017280579 0.3255099952220917 -0.01037599984556437
vn -0.9591360092163086 0.2812590003013611 -0.03024400025606155
vn -0.9578229784965515 0.2868430018424988 -0.01510700024664402
vn -0.9613329768180847 0.2719810009002686 -0.04251199960708618
vn -0.9425640106201172 0.3310950100421906 -0.04379399865865707
vn -0.919064998626709 0.3661609888076782 -0.1456339955329895
vn -0.9264199733734131 0.3266699910163879 -0.1870779991149902
vn -0.9297770261764526 0.3638719916343689 -0.05554400011897087
vn -0.9406110048294067 0.3388470113277435 0.01940999925136566
vn -0.9302350282669067 0.3625290095806122 0.0565509982407093
vn -0.9363380074501038 0.3509930074214935 -0.007019000127911568
vn -0.9467149972915649 0.3203830122947693 -0.03234999999403954
vn -0.969726026058197 0.2432329952716827 -0.02053900063037872
vn -0.9815059900283813 0.1839960068464279 -0.05246099829673767

# Mesh '' with 104 faces
usemtl DefaultMaterial
f  1//1 2//2 3//3
f  1//1 3//3 4//4
f  5//5 6//6 7//7
f  5//5 7//7 8//8
f  2//2 9//9 10//10
f  2//2 10//10 3//3
f  11//11 10//10 9//9
f  11//11 9//9 12//12
f  13//13 14//14 15//15
f  13//13 15//15 16//16
f  14//14 5//5 8//8
f  14//14 8//8 15//15
f  16//16 15//15 10//10
f  16//16 10//10 11//11
f  8//8 7//7 4//4
f  8//8 4//4 3//3
f  15//15 8//8 3//3
f  15//15 3//3 10//10
f  17//17 18//17 19//17
f  17//17 19//17 20//17
f  21//18 22//19 23//20
f  21//18 23//20 24//21
f  25//22 26//23 27//24
f  25//22 27//24 28//25
f  29//26 30//27 22//19
f  29//26 22//19 21//18
f  31//28 32//29 30//27
f  31//28 30//27 29//26
f  33//30 34//31 35//32
f  33//30 35//32 36//33
f  36//33 35//32 26//23
f  36//33 26//23 25//22
f  34//31 31//28 29//26
f  34//31 29//26 35//32
f  26//23 21//18 24//21
f  26//23 24//21 27//24
f  35//32 29//26 21//18
f  35//32 21//18 26//23
f  17//17 37//17 38//17
f  17//17 38//17 18//17
f  39//34 40//35 41//36
f  39//34 41//36 42//37
f  43//38 44//39 45//40
f  43//38 45//40 46//41
f  47//42 48//43 49//44
f  47//42 49//44 50//45
f  51//46 52//47 53//48
f  51//46 53//48 54//49
f  44//39 39//34 42//37
f  44//39 42//37 45//40
f  49//44 54//49 39//34
f  49//44 39//34 44//39
f  54//49 53//48 40//35
f  54//49 40//35 39//34
f  55//50 43//38 46//41
f  55//50 46//41 56//51
f  57//52 50//45 43//38
f  57//52 43//38 55//50
f  50//45 49//44 44//39
f  50//45 44//39 43//38
f  58//53 47//42 50//45
f  58//53 50//45 57//52
f  59//54 60//55 47//42
f  59//54 47//42 58//53
f  60//55 61//56 48//43
f  60//55 48//43 47//42
f  48//43 51//46 54//49
f  48//43 54//49 49//44
f  61//56 62//57 51//46
f  61//56 51//46 48//43
f  62//57 63//58 52//47
f  62//57 52//47 51//46
f  64//59 65//60 66//61
f  64//59 66//61 67//62
f  68//63 69//64 70//65
f  68//63 70//65 71//66
f  72//67 73//68 74//69
f  72//67 74//69 75//70
f  76//71 77//72 78//73
f  76//71 78//73 79//74
f  71//66 70//65 65//60
f  71//66 65//60 64//59
f  74//69 71//66 64//59
f  74//69 64//59 77//72
f  77//72 64//59 67//62
f  77//72 67//62 78//73
f  80//75 81//76 69//64
f  80//75 69//64 68//63
f  82//77 80//75 68//63
f  82//77 68//63 73//68
f  73//68 68//63 71//66
f  73//68 71//66 74//69
f  83//78 82//77 73//68
f  83//78 73//68 72//67
f  84//79 83//78 72//67
f  84//79 72//67 85//80
f  85//80 72//67 75//70
f  85//80 75//70 86//81
f  75//70 74//69 77//72
f  75//70 77//72 76//71
f  86//81 75//70 76//71
f  86//81 76//71 87//82
f  87//82 76//71 79//74
f  87//82 79//74 88//83

