# File produced by Open Asset Import Library (http://www.assimp.sf.net)
# (assimp v4.1.0)

mtllib XZ_brake.mtl

# 56 vertex positions
v  -0.06031600013375282 0.08087799698114395 -0.1538639962673187
v  -0.0899680033326149 0.08087799698114395 -0.1538639962673187
v  -0.0899680033326149 0.05114499852061272 -0.1325930058956146
v  -0.06031600013375282 0.05114499852061272 -0.1325930058956146
v  -0.0899680033326149 0.05479200184345245 -0.1703729927539825
v  -0.06031600013375282 0.05479200184345245 -0.1703729927539825
v  -0.06031600013375282 0.003311000065878034 -0.1823060065507889
v  -0.0899680033326149 0.003311000065878034 -0.1823060065507889
v  -0.06031600013375282 -0.1310479938983917 -0.05869600176811218
v  -0.0899680033326149 -0.1310479938983917 -0.05869600176811218
v  -0.0899680033326149 -0.1652089953422546 -0.0540510006248951
v  -0.06031600013375282 -0.1652089953422546 -0.0540510006248951
v  -0.0899680033326149 -0.1313589960336685 -0.1276829987764359
v  -0.06031600013375282 -0.1313589960336685 -0.1276829987764359
v  -0.06031600013375282 -0.1579930037260056 -0.0840660035610199
v  -0.0899680033326149 -0.1579930037260056 -0.0840660035610199
v  -0.0899680033326149 0.0376960001885891 -0.1271380037069321
v  -0.06031600013375282 0.0376960001885891 -0.1271380037069321
v  -0.06031600013375282 -0.008595000021159649 -0.1774770021438599
v  -0.0899680033326149 -0.008595000021159649 -0.1774770021438599
v  -0.0899680033326149 -0.117917999625206 -0.06402099877595901
v  -0.06031600013375282 -0.117917999625206 -0.06402099877595901
v  -0.06031600013375282 -0.1196890026330948 -0.1324169933795929
v  -0.0899680033326149 -0.1196890026330948 -0.1324169933795929
v  -0.0899680033326149 -0.1042250022292137 -0.1651699990034103
v  -0.06031600013375282 -0.1042250022292137 -0.1651699990034103
v  -0.0899680033326149 -0.04250599816441536 -0.190203994512558
v  -0.06031600013375282 -0.04250599816441536 -0.190203994512558
v  -0.0899680033326149 0.07695099711418152 -0.1570940017700195
v  -0.06031600013375282 0.07695099711418152 -0.1570940017700195
v  -0.06031600013375282 0.04468699917197227 -0.1393049955368042
v  -0.0899680033326149 0.04468699917197227 -0.1393049955368042
v  -0.06031600013375282 -0.1310900002717972 -0.06800899654626846
v  -0.06031600013375282 -0.1646409928798676 -0.05910399928689003
v  -0.0899680033326149 -0.1310900002717972 -0.06800899654626846
v  -0.0899680033326149 -0.1646409928798676 -0.05910399928689003
v  -0.09405999630689621 0.01204700022935867 -0.1560010015964508
v  -0.05622399970889091 0.01204700022935867 -0.1560010015964508
v  -0.09405999630689621 -0.119609996676445 -0.1026009991765022
v  -0.05622399970889091 -0.119609996676445 -0.1026009991765022
v  -0.04909000173211098 -0.119609996676445 -0.1026009991765022
v  -0.04909000173211098 -0.1310900002717972 -0.06800899654626846
v  -0.04909000173211098 0.01204700022935867 -0.1560010015964508
v  -0.1011940017342567 -0.1310900002717972 -0.06800899654626846
v  -0.1011940017342567 -0.119609996676445 -0.1026009991765022
v  -0.1011940017342567 0.01204700022935867 -0.1560010015964508
v  -0.04909000173211098 0.04468699917197227 -0.1393049955368042
v  -0.1011940017342567 0.04468699917197227 -0.1393049955368042
v  -0.04909000173211098 -0.1310479938983917 -0.05869600176811218
v  -0.1011940017342567 -0.1310479938983917 -0.05869600176811218
v  -0.1011940017342567 0.05114499852061272 -0.1325930058956146
v  -0.04909000173211098 0.05114499852061272 -0.1325930058956146
v  -0.04324499890208244 -0.117917999625206 -0.06402099877595901
v  -0.04324499890208244 0.0376960001885891 -0.1271380037069321
v  -0.1070389971137047 -0.117917999625206 -0.06402099877595901
v  -0.1070389971137047 0.0376960001885891 -0.1271380037069321

# 96 UV coordinates
vt 0.5239139795303345 0.424763023853302 0
vt 0.5239139795303345 0.4065399765968323 0
vt 0.5382930040359497 0.4065399765968323 0
vt 0.5382930040359497 0.424763023853302 0
vt 0.4443869888782501 0.2960519790649414 0
vt 0.4443860054016113 0.3085600137710571 0
vt 0.3898130059242249 0.3085590004920959 0
vt 0.3898139894008636 0.296051025390625 0
vt 0.6156219840049744 0.424763023853302 0
vt 0.6156219840049744 0.4065399765968323 0
vt 0.6291810274124146 0.4065399765968323 0
vt 0.629181981086731 0.424763023853302 0
vt 0.2199440002441406 0.2960500121116638 0
vt 0.2199430018663406 0.3085590004920959 0
vt 0.1671629995107651 0.3085590004920959 0
vt 0.1671639978885651 0.2960500121116638 0
vt 0.5440009832382202 0.4065399765968323 0
vt 0.5440009832382202 0.424763023853302 0
vt 0.3765439987182617 0.3085590004920959 0
vt 0.3765450119972229 0.296051025390625 0
vt 0.6100490093231201 0.4065399765968323 0
vt 0.6100490093231201 0.424763023853302 0
vt 0.2329500019550323 0.3085590004920959 0
vt 0.2329500019550323 0.2960500121116638 0
vt 0.2703570127487183 0.2960500121116638 0
vt 0.2703559994697571 0.3085590004920959 0
vt 0.6255319714546204 0.4018359780311584 0
vt 0.794655978679657 0.4018499851226807 0
vt 0.757070004940033 0.4341970086097717 0
vt 0.6631119847297668 0.4341890215873718 0
vt 0.2516019940376282 0.4031329751014709 0
vt 0.410957008600235 0.4031329751014709 0
vt 0.3755449950695038 0.4317820072174072 0
vt 0.2870140075683594 0.4317820072174072 0
vt 0.3391390144824982 0.3085590004920959 0
vt 0.3391390144824982 0.296051025390625 0
vt 0.4710640013217926 0.2960529923439026 0
vt 0.4710629880428314 0.3085600137710571 0
vt 0.4763160049915314 0.2960529923439026 0
vt 0.4763140082359314 0.3085610270500183 0
vt 0.1726820021867752 0.3736540079116821 0
vt 0.1483179926872253 0.3514429926872253 0
vt 0.1973160058259964 0.3411669731140137 0
vt 0.2352859973907471 0.4037690162658691 0
vt 0.1441559940576553 0.3465120196342468 0
vt 0.1907030045986176 0.3316239714622498 0
vt 0.9086949825286865 0.3379250168800354 0
vt 0.9042779803276062 0.3434929847717285 0
vt 0.8522779941558838 0.3318830132484436 0
vt 0.8592979907989502 0.3211079835891724 0
vt 0.8784170150756836 0.3685700297355652 0
vt 0.811972975730896 0.4025689959526062 0
vt 0.4269140064716339 0.403734028339386 0
vt 0.464915007352829 0.3411769866943359 0
vt 0.5109779834747314 0.3511989712715149 0
vt 0.486609011888504 0.3733850121498108 0
vt 0.4715259969234467 0.3316360116004944 0
vt 0.5151439905166626 0.3462759852409363 0
vt 0.5612589716911316 0.3210960030555725 0
vt 0.5682740211486816 0.3318700194358826 0
vt 0.5193870067596436 0.3431820273399353 0
vt 0.5149649977684021 0.3376219868659973 0
vt 0.608597993850708 0.4025130271911621 0
vt 0.5452460050582886 0.3682360053062439 0
vt 0.135232999920845 0.2960500121116638 0
vt 0.1404840052127838 0.2960500121116638 0
vt 0.1404840052127838 0.3085590004920959 0
vt 0.135232999920845 0.3085590004920959 0
vt 0.8113759756088257 0.3648970127105713 0
vt 0.2358510047197342 0.3704069852828979 0
vt 0.6087560057640076 0.3648800253868103 0
vt 0.4267680048942566 0.3704069852828979 0
vt 0.423007994890213 0.3634359836578369 0
vt 0.4534820020198822 0.333204984664917 0
vt 0.2395880073308945 0.3634139895439148 0
vt 0.5804089903831482 0.3228690028190613 0
vt 0.6127470135688782 0.3570079803466797 0
vt 0.8074110150337219 0.3569999933242798 0
vt 0.2087190002202988 0.3331680297851562 0
vt 0.840175986289978 0.3228499889373779 0
vt 0.4593969881534576 0.3243849873542786 0
vt 0.5741320252418518 0.3129090070724487 0
vt 0.8464440107345581 0.3129019737243652 0
vt 0.2028149962425232 0.3243579864501953 0
vt 0.6156219840049744 0.4316610097885132 0
vt 0.6100490093231201 0.4352539777755737 0
vt 0.5440009832382202 0.4352539777755737 0
vt 0.6100490093231201 0.3960490226745605 0
vt 0.6156219840049744 0.3996409773826599 0
vt 0.5440009832382202 0.3960490226745605 0
vt 0.5382930040359497 0.4316610097885132 0
vt 0.5382930040359497 0.3996409773826599 0
vt 0.4395470023155212 0.3219670057296753 0
vt 0.2230799943208694 0.3219500184059143 0
vt 0.5951989889144897 0.3101800084114075 0
vt 0.8249359726905823 0.3101810216903687 0

# 53 vertex normals
vn 0.5648059844970703 0.8247320055961609 0.02771100029349327
vn -0.5648059844970703 0.8247320055961609 0.02771100029349327
vn -0.3580740094184875 0.6733300089836121 0.6468089818954468
vn 0.3580740094184875 0.6733300089836121 0.6468089818954468
vn -0.6737269759178162 0.2767109870910645 -0.6851710081100464
vn 0.6737269759178162 0.2767109870910645 -0.6851710081100464
vn 0.5908079743385315 0.009827000088989735 -0.8067259788513184
vn -0.5908079743385315 0.009827000088989735 -0.8067259788513184
vn 0.3551439940929413 -0.03720200061798096 0.9340490102767944
vn -0.3551439940929413 -0.03720200061798096 0.9340490102767944
vn -0.5654469728469849 -0.576403021812439 0.5899230241775513
vn 0.5654469728469849 -0.576403021812439 0.5899230241775513
vn -0.5867490172386169 -0.5785390138626099 -0.5665150284767151
vn 0.5867490172386169 -0.5785390138626099 -0.5665150284767151
vn 0.6761680245399475 -0.6773279905319214 -0.2897430062294006
vn -0.6761680245399475 -0.6773279905319214 -0.2897430062294006
vn 0 0.3758350014686584 0.9266639947891235
vn 0.745140016078949 0.004608000162988901 -0.6668599843978882
vn -0.745140016078949 0.004608000162988901 -0.6668599843978882
vn 0.7445909976959229 -0.4687950015068054 -0.4751119911670685
vn -0.7445909976959229 -0.4687950015068054 -0.4751119911670685
vn -0.6336560249328613 -0.5315409898757935 -0.5620290040969849
vn 0.6336560249328613 -0.5315409898757935 -0.5620290040969849
vn -0.6336560249328613 -0.01016299985349178 -0.7735220193862915
vn 0.6336560249328613 -0.01016299985349178 -0.7735220193862915
vn -0.6907860040664673 0.4165779948234558 -0.5909600257873535
vn 0.6907860040664673 0.4165779948234558 -0.5909600257873535
vn 0.749504029750824 0.3975650072097778 -0.5292829871177673
vn -0.749504029750824 0.3975650072097778 -0.5292829871177673
vn 0.7487409710884094 -0.6551409959793091 -0.1007110029459
vn 0.6907860040664673 -0.710532009601593 -0.133763000369072
vn -0.7487409710884094 -0.6551409959793091 -0.1007110029459
vn -0.6907860040664673 -0.710532009601593 -0.1337929964065552
vn -0.719992995262146 0.09344799816608429 -0.6876429915428162
vn 0.719992995262146 0.09344799816608429 -0.6876429915428162
vn -0.719199001789093 -0.5490580201148987 -0.4256719946861267
vn 0.719199001789093 -0.5490580201148987 -0.4256719946861267
vn 0.5669729709625244 -0.5917230248451233 -0.5730159878730774
vn 0.5253459811210632 -0.8366039991378784 -0.1551260054111481
vn 0.5675529837608337 0.02267500013113022 -0.8229929804801941
vn -0.5253459811210632 -0.8366039991378784 -0.1551260054111481
vn -0.5669729709625244 -0.5917230248451233 -0.5730159878730774
vn -0.5675529837608337 0.02267500013113022 -0.8229929804801941
vn 0.5276650190353394 0.488754004240036 -0.6947230100631714
vn -0.5276650190353394 0.488754004240036 -0.6947230100631714
vn 0.4643999934196472 -0.5356910228729248 0.7051910161972046
vn -0.4643999934196472 -0.5356910228729248 0.7051910161972046
vn -0.4668720066547394 0.8743249773979187 0.1324200034141541
vn 0.4668720066547394 0.8743249773979187 0.1324200034141541
vn 0.7955870032310486 0.07428199797868729 0.6012150049209595
vn 0.7952209711074829 0.3627119958400726 0.4858239889144897
vn -0.7955870032310486 0.07428199797868729 0.6012150049209595
vn -0.7952209711074829 0.3627119958400726 0.4858239889144897

# Mesh '' with 108 faces
usemtl DefaultMaterial
f  1/1/1 2/2/2 3/3/3
f  1/1/1 3/3/3 4/4/4
f  5/5/5 6/6/6 7/7/7
f  5/5/5 7/7/7 8/8/8
f  9/9/9 10/10/10 11/11/11
f  9/9/9 11/11/11 12/12/12
f  13/13/13 14/14/14 15/15/15
f  13/13/13 15/15/15 16/16/16
f  3/3/3 17/17/17 18/18/17
f  3/3/3 18/18/17 4/4/4
f  7/7/7 19/19/18 20/20/19
f  7/7/7 20/20/19 8/8/8
f  17/17/17 21/21/17 22/22/17
f  17/17/17 22/22/17 18/18/17
f  21/21/17 10/10/10 9/9/9
f  21/21/17 9/9/9 22/22/17
f  23/23/20 14/14/14 13/13/13
f  23/23/20 13/13/13 24/24/21
f  23/23/20 24/24/21 25/25/22
f  23/23/20 25/25/22 26/26/23
f  24/27/21 20/28/19 27/29/24
f  24/27/21 27/29/24 25/30/22
f  19/31/18 23/32/20 26/33/23
f  19/31/18 26/33/23 28/34/25
f  20/20/19 19/19/18 28/35/25
f  20/20/19 28/35/25 27/36/24
f  28/35/25 26/26/23 25/25/22
f  28/35/25 25/25/22 27/36/24
f  5/5/5 29/37/26 30/38/27
f  5/5/5 30/38/27 6/6/6
f  29/37/26 2/39/2 1/40/1
f  29/37/26 1/40/1 30/38/27
f  6/41/6 30/42/27 31/43/28
f  6/41/6 31/43/28 7/44/7
f  30/42/27 1/45/1 4/46/4
f  30/42/27 4/46/4 31/43/28
f  2/47/2 29/48/26 32/49/29
f  2/47/2 32/49/29 3/50/3
f  29/48/26 5/51/5 8/52/8
f  29/48/26 8/52/8 32/49/29
f  14/53/14 33/54/30 34/55/31
f  14/53/14 34/55/31 15/56/15
f  33/54/30 9/57/9 12/58/12
f  33/54/30 12/58/12 34/55/31
f  10/59/10 35/60/32 36/61/33
f  10/59/10 36/61/33 11/62/11
f  35/60/32 13/63/13 16/64/16
f  35/60/32 16/64/16 36/61/33
f  11/65/11 36/66/33 34/67/31
f  11/65/11 34/67/31 12/68/12
f  36/66/33 16/16/16 15/15/15
f  36/66/33 15/15/15 34/67/31
f  20/28/19 37/69/34 32/49/29
f  20/28/19 32/49/29 8/52/8
f  38/70/35 19/31/18 7/44/7
f  38/70/35 7/44/7 31/43/28
f  24/27/21 39/71/36 37/69/34
f  24/27/21 37/69/34 20/28/19
f  13/63/13 35/60/32 39/71/36
f  13/63/13 39/71/36 24/27/21
f  40/72/37 23/32/20 19/31/18
f  40/72/37 19/31/18 38/70/35
f  33/54/30 14/53/14 23/32/20
f  33/54/30 23/32/20 40/72/37
f  33/54/30 40/72/37 41/73/38
f  33/54/30 41/73/38 42/74/39
f  40/72/37 38/70/35 43/75/40
f  40/72/37 43/75/40 41/73/38
f  39/71/36 35/60/32 44/76/41
f  39/71/36 44/76/41 45/77/42
f  37/69/34 39/71/36 45/77/42
f  37/69/34 45/77/42 46/78/43
f  38/70/35 31/43/28 47/79/44
f  38/70/35 47/79/44 43/75/40
f  32/49/29 37/69/34 46/78/43
f  32/49/29 46/78/43 48/80/45
f  9/57/9 33/54/30 42/74/39
f  9/57/9 42/74/39 49/81/46
f  35/60/32 10/59/10 50/82/47
f  35/60/32 50/82/47 44/76/41
f  3/50/3 32/49/29 48/80/45
f  3/50/3 48/80/45 51/83/48
f  31/43/28 4/46/4 52/84/49
f  31/43/28 52/84/49 47/79/44
f  22/22/17 9/9/9 49/85/46
f  22/22/17 49/85/46 53/86/50
f  18/18/17 22/22/17 53/86/50
f  18/18/17 53/86/50 54/87/51
f  10/10/10 21/21/17 55/88/52
f  10/10/10 55/88/52 50/89/47
f  21/21/17 17/17/17 56/90/53
f  21/21/17 56/90/53 55/88/52
f  4/4/4 18/18/17 54/87/51
f  4/4/4 54/87/51 52/91/49
f  17/17/17 3/3/3 51/92/48
f  17/17/17 51/92/48 56/90/53
f  49/81/46 42/74/39 41/73/38
f  49/81/46 41/73/38 53/93/50
f  53/93/50 41/73/38 43/75/40
f  53/93/50 43/75/40 54/94/51
f  44/76/41 50/82/47 55/95/52
f  44/76/41 55/95/52 45/77/42
f  45/77/42 55/95/52 56/96/53
f  45/77/42 56/96/53 46/78/43
f  54/94/51 43/75/40 47/79/44
f  54/94/51 47/79/44 52/84/49
f  46/78/43 56/96/53 51/83/48
f  46/78/43 51/83/48 48/80/45

