# Blender v2.90.0 OBJ File: ''
# www.blender.org
mtllib XZ_brake.mtl
o XZ_brake
v -0.075748 0.055455 -0.135363
v -0.075142 0.079850 -0.156875
v -0.058127 -0.006711 -0.174583
v -0.092160 -0.003238 -0.171546
v -0.074516 -0.136096 -0.057669
v -0.092150 -0.119273 -0.128859
v -0.066899 -0.152319 -0.090089
vt 0.473270 0.302328
vt 0.365886 0.308559
vt 0.369319 0.296051
vt 0.182269 0.305013
vt 0.243318 0.296050
vt 0.145322 0.347620
vt 0.196732 0.328661
vt 0.252151 0.397647
vt 0.904150 0.342533
vt 0.796751 0.389606
vt 0.852287 0.316918
vt 0.567647 0.317747
vt 0.625867 0.395473
vt 0.516016 0.338685
vt 0.464898 0.327927
vt 0.468666 0.368264
vn 0.0099 0.9922 -0.1243
vn 0.7142 -0.0059 -0.6999
vn -0.7520 -0.0045 -0.6591
vn 0.3224 -0.9463 0.0247
vn -0.5895 -0.5369 -0.6035
vn -0.0030 0.5746 0.8184
vn -0.0059 -0.3105 0.9506
g XZ_brake_XZ_brake_DefaultMaterial
usemtl DefaultMaterial
s 1
f 2/1/1 3/2/2 4/3/3
f 3/2/2 7/4/4 6/5/5
f 3/2/2 6/5/5 4/3/3
f 2/6/1 1/7/6 3/8/2
f 2/9/1 4/10/3 1/11/6
f 5/12/7 6/13/5 7/14/4
f 5/15/7 7/16/4 3/8/2
f 5/15/7 3/8/2 1/7/6
f 6/13/5 5/12/7 1/11/6
f 6/13/5 1/11/6 4/10/3
