# Blender v2.90.0 OBJ File: ''
# www.blender.org
mtllib XZ_glass.mtl
o XZ_glass
v -0.785677 -0.128603 1.916567
v -0.671688 -0.128469 2.023568
v 0.785673 -0.128603 1.916568
v 0.671684 -0.128469 2.023570
v -0.776118 -0.225010 2.023340
v 0.776115 -0.225010 2.023341
v -0.484498 -0.152177 2.167343
v 0.484492 -0.152177 2.167343
v -0.461430 -0.163560 2.192360
v 0.461428 -0.163559 2.192360
v -0.744835 -0.255443 2.073263
v 0.744832 -0.255443 2.073264
v -0.676850 -0.267824 2.115255
v 0.676846 -0.267824 2.115256
v -0.425439 -0.263855 2.230599
v 0.425436 -0.263855 2.230600
v -0.420221 -0.214890 2.223770
v 0.420217 -0.214890 2.223771
v -0.532631 0.301991 -1.291012
v -0.481633 0.426678 -0.978007
v 0.481634 0.426677 -0.978006
v 0.532632 0.301991 -1.291012
v -0.180746 0.449005 -1.023626
v -0.148360 0.429247 -1.106618
v 0.148360 0.429247 -1.106618
v 0.180747 0.449005 -1.023626
v -0.000000 0.432517 -1.110441
v -0.530816 0.211975 -1.502803
v -0.538996 0.228623 -1.458418
v 0.530817 0.211975 -1.502802
v 0.538997 0.228623 -1.458418
v -0.454971 0.204426 -1.559164
v 0.454973 0.204426 -1.559164
v -0.245054 0.211634 -1.602731
v 0.245054 0.211634 -1.602730
v 0.000001 0.214192 -1.619403
v -0.569264 0.452708 -0.474588
v 0.569264 0.452708 -0.474587
v -0.581425 0.433811 -0.615807
v 0.581426 0.433811 -0.615806
v -0.737800 0.111530 -0.374794
v 0.737799 0.111529 -0.374793
v -0.653486 0.262160 -1.081331
v -0.659558 0.234906 -1.103732
v 0.659558 0.234906 -1.103731
v 0.653487 0.262160 -1.081330
v -0.691671 0.183758 -1.090529
v -0.722558 0.128122 -1.002905
v 0.691671 0.183758 -1.090528
v 0.722560 0.128121 -1.002902
v -0.614394 0.361872 -0.870035
v 0.614395 0.361872 -0.870034
v -0.593574 0.402262 -0.754414
v 0.593574 0.402262 -0.754413
v -0.567660 0.455595 -0.458437
v 0.567659 0.455595 -0.458436
v -0.735736 0.108139 -0.351174
v 0.735735 0.108139 -0.351173
v -0.671792 0.243145 0.569225
v 0.671790 0.243145 0.569226
v -0.633513 0.315883 0.440548
v 0.633512 0.315883 0.440549
v -0.738344 0.073196 0.597761
v 0.738343 0.073196 0.597762
v -0.568871 0.448006 0.063377
v -0.560182 0.464499 -0.169153
v 0.568870 0.448006 0.063378
v 0.560182 0.464499 -0.169153
v -0.596617 0.385925 0.300397
v 0.596615 0.385925 0.300397
v -0.000002 0.138854 1.013565
v -0.391633 0.139472 0.980137
v 0.391632 0.139472 0.980138
v -0.000002 0.397638 0.531907
v -0.324770 0.392672 0.517490
v 0.324768 0.392672 0.517491
v -0.611735 0.144245 0.886571
v 0.611733 0.144245 0.886572
v -0.636310 0.176171 0.822269
v 0.636308 0.176170 0.822270
v -0.557354 0.368393 0.474090
v 0.557353 0.368393 0.474091
vt 0.750001 0.999999
vt 0.999982 -0.000000
vt 0.000067 0.000134
vt 0.999981 0.000002
vt 0.750001 0.999999
vt 0.000067 0.000133
vt 0.005685 0.801770
vt 1.000000 0.500000
vt 1.000000 0.000000
vt 0.000000 0.000000
vt 1.000000 0.000000
vt 1.000000 0.500000
vt 0.005686 0.801766
vt 0.000000 0.000000
vt 1.000000 1.002745
vt 0.500000 0.000000
vt 0.080560 0.059642
vt 0.500000 0.000000
vt 1.000000 1.002746
vt 0.080599 0.059641
vt 0.000000 1.000000
vt 1.000000 0.049788
vt 0.999794 0.472848
vt 0.999795 0.472864
vt 1.000000 0.049782
vt 0.000000 1.000000
vt 0.000000 1.000000
vt 1.000000 1.000000
vt 1.000000 0.000040
vt -0.000000 0.009712
vt 1.000000 0.000024
vt 1.000000 1.000000
vt 0.000000 1.000000
vt -0.000000 0.009689
vt 0.999943 1.000000
vt -0.000146 0.000000
vt 0.750000 0.000000
vt 0.750000 0.000000
vt -0.000147 0.000000
vt 0.999943 1.000000
vt 0.393729 0.997478
vt 0.393729 0.997479
vt 1.002014 1.000000
vt 0.000000 0.000000
vt 1.000000 0.000000
vt 0.000000 0.000000
vt 1.002005 1.000000
vt 1.000000 0.000000
vt 0.000000 0.000000
vt 0.000000 1.000000
vt 0.000000 0.000000
vt 0.000000 1.000000
vt 0.000000 1.000000
vt 1.000000 1.000000
vt 1.000000 0.500000
vt 0.036807 0.435960
vt 1.000000 0.500000
vt 1.000000 1.000000
vt 0.000000 1.000000
vt 0.036798 0.435963
vt 0.000000 1.000000
vt 1.000000 1.000000
vt 1.000000 0.000263
vt 0.000000 -0.000016
vt 1.000000 0.000263
vt 1.000000 1.000000
vt 1.000685 1.000000
vt 1.000000 0.000000
vt 0.000000 0.000000
vt 0.000000 0.000000
vt 1.000000 0.000000
vt 1.000685 1.000000
vt 1.000280 1.000000
vt 1.000000 0.000000
vt 0.000000 0.000000
vt 0.035641 0.964337
vt 0.000000 0.000000
vt 1.000000 0.000000
vt 1.000302 1.000000
vt 0.035641 0.964319
vt 0.000000 0.000000
vt 0.000000 0.000000
vt 1.000000 1.024263
vt 0.000000 0.000000
vt 0.000000 1.000000
vt 0.000000 0.000000
vt 1.000000 1.024246
vt 0.000000 1.000000
vt 1.000000 1.000000
vt 1.000000 0.000000
vt 0.000000 1.000000
vt 1.000000 0.000000
vt 1.000000 1.000000
vt 0.000000 1.000000
vt 1.000214 1.000000
vt 1.000000 0.000000
vt 0.000000 0.000000
vt 0.000000 0.000000
vt 1.000000 0.000000
vt 1.000232 1.000000
vt 1.000000 0.989509
vt 0.000000 0.000000
vt 0.000000 1.000000
vt 0.000000 0.000000
vt 1.000000 0.989513
vt 0.000000 1.000000
vt 1.000000 0.793144
vt 0.000000 0.000000
vt 0.000000 1.000000
vt 0.000000 0.000000
vt 1.000000 0.792883
vt 0.000000 1.000000
vt 1.000000 1.000000
vt 0.999999 0.999737
vt 0.000000 1.000000
vt 1.000000 0.999743
vt 1.000000 1.000000
vt 0.000000 1.000000
vt -0.001836 1.000279
vt 0.000000 0.000000
vt 0.000000 1.000000
vt 0.000000 0.000000
vt -0.001835 1.000279
vt 0.000000 1.000000
vt 1.000000 1.000000
vt 1.000000 0.000021
vt 0.000000 0.000000
vt 0.000000 1.000000
vt 0.000000 0.000000
vt 0.030604 1.000000
vt 0.000000 1.000000
vt 1.000000 1.000000
vt 0.920533 0.000000
vt 0.000000 1.000000
vt 0.920518 0.000000
vt 1.000000 1.000000
vt 0.000000 1.000000
vt 1.000000 1.000000
vt 1.000000 0.000000
vt 0.000000 1.000000
vt 1.000000 0.000000
vt 1.000000 1.000000
vt 0.000000 1.000000
vn -0.4998 0.5306 0.6846
vn -0.5490 0.5895 0.5926
vn -0.5176 0.5829 0.6263
vn 0.5490 0.5894 0.5926
vn 0.5044 0.5312 0.6807
vn 0.5154 0.5797 0.6310
vn -0.4478 0.5419 0.7112
vn -0.4423 0.4755 0.7604
vn 0.4478 0.5419 0.7112
vn 0.4423 0.4755 0.7604
vn -0.5085 0.2769 0.8153
vn 0.5056 0.2762 0.8174
vn -0.5361 0.2222 0.8144
vn 0.5361 0.2222 0.8144
vn -0.4619 0.1676 0.8710
vn -0.7459 -0.0157 0.6659
vn 0.7459 -0.0157 0.6658
vn 0.4619 0.1676 0.8710
vn -0.0725 0.9307 -0.3585
vn -0.1160 0.9553 -0.2719
vn -0.0910 0.9290 -0.3587
vn 0.0900 0.9284 -0.3604
vn 0.1160 0.9553 -0.2719
vn 0.1804 0.9416 -0.2845
vn -0.1311 0.9234 -0.3607
vn 0.1258 0.9202 -0.3706
vn -0.1945 0.9024 -0.3845
vn -0.2059 0.9000 -0.3843
vn 0.1945 0.9024 -0.3845
vn 0.2059 0.9000 -0.3843
vn -0.1404 0.9170 -0.3734
vn 0.1404 0.9170 -0.3734
vn -0.0809 0.9206 -0.3821
vn 0.0786 0.9182 -0.3882
vn 0.0000 0.9185 -0.3955
vn -0.0024 0.9180 -0.3965
vn -0.9005 0.4347 -0.0036
vn -0.8944 0.4469 0.0172
vn -0.8992 0.4376 -0.0006
vn 0.8995 0.4370 -0.0016
vn 0.8944 0.4469 0.0172
vn 0.9005 0.4348 -0.0037
vn -0.8902 0.4471 -0.0876
vn -0.9240 0.3584 -0.1335
vn -0.9043 0.4176 -0.0885
vn -0.8944 0.4463 -0.0280
vn 0.9042 0.4178 -0.0885
vn 0.9242 0.3579 -0.1331
vn 0.8950 0.4369 -0.0898
vn 0.8946 0.4464 -0.0222
vn -0.9091 0.4164 0.0103
vn 0.9093 0.4160 0.0103
vn -0.9003 0.4349 -0.0156
vn 0.9002 0.4351 -0.0163
vn -0.9180 0.3961 -0.0206
vn -0.9274 0.3565 -0.1136
vn -0.9137 0.4063 -0.0035
vn 0.9138 0.4060 -0.0080
vn 0.9436 0.3191 -0.0882
vn 0.9171 0.3982 -0.0176
vn -0.9001 0.4355 0.0089
vn -0.9004 0.4350 0.0043
vn -0.8979 0.4402 -0.0000
vn 0.9003 0.4352 0.0042
vn 0.9001 0.4355 0.0089
vn 0.8980 0.4400 0.0044
vn -0.8928 0.4505 -0.0079
vn 0.8922 0.4516 -0.0080
vn -0.9004 0.4343 0.0241
vn 0.9020 0.4311 0.0225
vn -0.0002 0.8803 0.4745
vn 0.0003 0.8806 0.4738
vn -0.1013 0.8802 0.4637
vn -0.0996 0.8779 0.4683
vn 0.1015 0.8802 0.4637
vn 0.0994 0.8780 0.4682
vn -0.1942 0.8531 0.4842
vn -0.1742 0.8726 0.4564
vn 0.1942 0.8531 0.4842
vn 0.1742 0.8725 0.4564
vn -0.1734 0.8758 0.4505
vn 0.1734 0.8758 0.4505
g XZ_glass_XZ_glass_DefaultMaterial
usemtl DefaultMaterial
s 1
f 2/1/1 1/2/2 5/3/3
f 3/4/4 4/5/5 6/6/6
f 2/7/1 5/8/3 11/9/7
f 2/7/1 11/9/7 13/10/8
f 12/11/9 6/12/6 4/13/5
f 12/11/9 4/13/5 14/14/10
f 13/15/8 7/16/11 2/17/1
f 8/18/12 14/19/10 4/20/5
f 13/21/8 15/22/13 7/23/11
f 8/24/12 16/25/14 14/26/10
f 15/27/13 17/28/15 9/29/16
f 15/27/13 9/29/16 7/30/11
f 10/31/17 18/32/18 16/33/14
f 10/31/17 16/33/14 8/34/12
f 20/35/19 23/36/20 24/37/21
f 25/38/22 26/39/23 21/40/24
f 20/35/19 24/37/21 19/41/25
f 22/42/26 25/38/22 21/40/24
f 19/43/25 28/44/27 29/45/28
f 30/46/29 22/47/26 31/48/30
f 19/41/25 32/49/31 28/50/27
f 33/51/32 22/42/26 30/52/29
f 34/53/33 32/54/31 19/55/25
f 34/53/33 19/55/25 24/56/21
f 22/57/26 33/58/32 35/59/34
f 22/57/26 35/59/34 25/60/22
f 36/61/35 34/62/33 24/63/21
f 36/61/35 24/63/21 27/64/36
f 25/65/22 35/66/34 36/61/35
f 25/65/22 36/61/35 27/64/36
f 41/67/37 37/68/38 39/69/39
f 40/70/40 38/71/41 42/72/42
f 43/73/43 44/74/44 47/75/45
f 43/73/43 47/75/45 48/76/46
f 49/77/47 45/78/48 46/79/49
f 49/77/47 46/79/49 50/80/50
f 48/76/46 51/81/51 43/73/43
f 52/82/52 50/80/50 46/79/49
f 48/83/46 53/84/53 51/85/51
f 54/86/54 50/87/50 52/88/52
f 48/89/46 41/90/37 39/69/39
f 48/89/46 39/69/39 53/91/53
f 40/70/40 42/92/42 50/93/50
f 40/70/40 50/93/50 54/94/54
f 63/95/55 59/96/56 61/97/57
f 62/98/58 60/99/59 64/100/60
f 57/101/61 65/102/62 66/103/63
f 67/104/64 58/105/65 68/106/66
f 57/107/61 69/108/67 65/109/62
f 70/110/68 58/111/65 67/112/64
f 57/113/61 63/114/55 61/97/57
f 57/113/61 61/97/57 69/115/67
f 62/98/58 64/116/60 58/117/65
f 62/98/58 58/117/65 70/118/68
f 57/119/61 66/120/63 55/121/69
f 68/122/66 58/123/65 56/124/70
f 71/125/71 74/126/72 75/127/73
f 71/125/71 75/127/73 72/128/74
f 76/129/75 74/126/72 71/130/71
f 76/129/75 71/130/71 73/131/76
f 77/132/77 72/133/74 79/134/78
f 73/135/76 78/136/79 80/137/80
f 79/138/78 72/139/74 75/127/73
f 79/138/78 75/127/73 81/140/81
f 76/129/75 73/141/76 80/142/80
f 76/129/75 80/142/80 82/143/82
