# Blender 4.4.0
# www.blender.org
mtllib van0.mtl
o van0_misc_d3
v 0.265963 -0.025951 -1.506646
v 0.281069 -0.000711 -1.482118
v 0.277926 -0.060919 -1.511379
v 0.428427 -0.047712 -1.511576
v 0.416827 0.000546 -1.475330
v 0.435730 -0.021441 -1.504289
v 0.419047 -0.062966 -1.462569
v 0.437718 -0.016429 -1.455187
v 0.260113 -0.022630 -1.457443
v -0.266008 -0.025977 -1.506653
v -0.281069 -0.000711 -1.482118
v -0.278058 -0.060752 -1.511380
v -0.428606 -0.047461 -1.511530
v -0.416827 0.000546 -1.475330
v -0.435765 -0.021411 -1.504275
v -0.419047 -0.062966 -1.462569
v -0.437703 -0.015976 -1.455371
v -0.259892 -0.022254 -1.457536
v 0.439651 0.133810 -0.525903
v 0.376042 0.373446 -0.648972
v 0.439283 0.148942 -1.026911
v 0.380451 0.358294 -0.715858
v 0.439939 0.131182 -1.025321
v 0.376431 0.374319 -0.511162
v 0.385959 0.350689 -0.493760
v 0.435259 0.143939 -0.511216
v 0.438196 0.137812 -0.506893
v 0.438798 0.151405 -1.034598
v 0.440580 0.127458 -0.527202
v 0.374176 0.379943 -0.651004
v 0.385251 0.351799 -0.486611
v 0.373073 0.383999 -0.537445
v 0.375524 0.375435 -0.503640
v 0.378387 0.365504 -0.717396
v 0.441478 0.117289 -1.002090
v 0.440152 0.129334 -1.034607
v -0.440026 0.133854 -0.525922
v -0.376042 0.373446 -0.648972
v -0.439282 0.148942 -1.026911
v -0.380454 0.358295 -0.715858
v -0.441381 0.117278 -1.002090
v -0.439939 0.131182 -1.025321
v -0.376270 0.374273 -0.511170
v -0.385959 0.350689 -0.493760
v -0.435789 0.143860 -0.511278
v -0.438300 0.137817 -0.506893
v -0.438795 0.151404 -1.034599
v -0.440664 0.127467 -0.527208
v -0.374176 0.379943 -0.651004
v -0.385251 0.351799 -0.486611
v -0.373073 0.383999 -0.537445
v -0.375524 0.375435 -0.503640
v -0.378389 0.365505 -0.717396
v -0.440152 0.129334 -1.034607
v 0.275030 -0.140676 -1.537266
v 0.268875 -0.183299 -1.541338
v 0.264522 -0.099758 -1.519771
v 0.273955 -0.176295 -1.524053
v -0.271130 -0.182073 -1.521361
v 0.270376 -0.102352 -1.500717
v -0.279815 -0.152677 -1.539594
v -0.265471 -0.100570 -1.520162
v -0.273991 -0.106628 -1.504565
v -0.309032 0.401798 0.878482
v 0.379156 0.137709 0.945656
v 0.360975 0.116748 0.942834
v 0.307812 0.401869 0.876779
v 0.328483 0.391843 0.875184
v 0.358040 0.125712 0.941304
v 0.369972 0.141387 0.947132
v 0.317650 0.392596 0.886800
v -0.379162 0.137691 0.945455
v -0.328447 0.391906 0.875398
v -0.360975 0.116748 0.942834
v -0.357966 0.125646 0.941539
v -0.370665 0.141264 0.936204
v -0.317607 0.392958 0.884555
v -0.374234 0.177543 -1.109984
v 0.384163 0.196369 -1.082587
v 0.374674 0.176637 -1.108970
v 0.000000 0.406273 -0.756080
v 0.334676 0.392502 -0.754212
v 0.320424 0.405950 -0.732077
v 0.000000 0.400314 -0.765440
v 0.000000 0.185367 -1.103073
v 0.320043 0.398449 -0.742743
v 0.374967 0.189090 -1.096578
v -0.384163 0.196369 -1.082587
v -0.334676 0.392502 -0.754212
v -0.320424 0.405950 -0.732077
v -0.320031 0.398544 -0.742795
v -0.374829 0.185715 -1.094517
v -0.142649 -0.231801 -1.545837
v -0.141414 -0.275574 -1.540302
v 0.143211 -0.232238 -1.545603
v 0.141178 -0.275949 -1.540283
v -0.141100 -0.121833 0.956024
v 0.141822 -0.123054 0.956045
v 0.141686 -0.162453 0.955996
v -0.141918 -0.162033 0.956061
vn 0.0072 0.1539 -0.9881
vn 0.6087 0.7824 -0.1315
vn 0.9991 -0.0088 0.0406
vn 0.9905 -0.1345 0.0275
vn 0.4500 0.8771 -0.1681
vn 0.3955 0.8287 0.3961
vn 0.7202 0.6392 0.2696
vn 0.9924 -0.0142 -0.1225
vn 0.0768 0.3813 0.9213
vn 0.0897 0.4087 0.9082
vn -0.0090 0.1924 0.9813
vn 0.6782 -0.7269 0.1077
vn 0.9905 -0.1344 0.0276
vn 0.9991 -0.0087 0.0405
vn -0.5622 -0.3710 -0.7392
vn -0.9957 -0.0836 0.0409
vn -0.6844 0.5449 -0.4844
vn 0.4842 0.8580 -0.1713
vn -0.4913 0.8542 -0.1702
vn 0.9070 0.3216 0.2718
vn 0.4514 -0.8923 -0.0041
vn 0.6557 -0.4768 -0.5854
vn -0.7209 0.6339 0.2799
vn -0.0369 0.7548 0.6550
vn -0.3985 0.8233 0.4042
vn -0.9930 -0.0110 -0.1173
vn -0.4519 0.8764 -0.1666
vn 0.0831 0.9769 -0.1967
vn 0.0823 0.9770 -0.1970
vn -0.9459 -0.3112 -0.0915
vn -0.6844 -0.7220 0.1014
vn -0.9991 -0.0087 0.0413
vn -0.9915 -0.1277 0.0262
vn 0.0368 0.7598 0.6491
vn -0.0068 0.1488 -0.9888
vn -0.0832 0.9770 -0.1962
vn 0.9446 -0.3146 -0.0938
vn 0.9698 0.2438 0.0062
vn 0.9558 0.2939 -0.0048
vn 0.9805 0.1964 0.0026
vn 0.9894 0.1450 -0.0012
vn 0.9975 0.0707 -0.0092
vn 0.9975 0.0706 -0.0092
vn -0.9649 0.2620 0.0165
vn -0.9798 0.1986 0.0221
vn -0.9884 0.1513 0.0112
vn -0.9950 0.0995 -0.0006
vn -0.9976 0.0689 -0.0089
vn -0.9976 0.0690 -0.0089
vn 0.0318 0.8123 -0.5823
vn 0.0475 0.8519 -0.5215
vn 0.0160 0.7683 -0.6399
vn 0.0159 0.7683 -0.6399
vn 0.0476 0.8519 -0.5215
vn 0.0470 0.8508 -0.5234
vn 0.0003 -0.1231 -0.9924
vn 0.9580 0.2844 -0.0371
vn 0.9612 0.2751 -0.0177
vn 0.9580 0.2844 -0.0372
vn 0.9619 0.2729 -0.0131
vn 0.9569 0.2897 -0.0193
vn -0.6400 -0.7502 -0.1658
vn -0.9630 0.2694 -0.0000
vn -0.9600 0.2790 -0.0216
vn -0.9600 0.2791 -0.0215
vn -0.9627 0.2706 -0.0063
vn -0.9622 0.2722 -0.0092
vn -0.9600 0.2790 -0.0215
vn 0.0395 0.3004 0.9530
vn 0.1341 0.5019 0.8545
vn -0.0090 0.1923 0.9813
vn -0.0092 0.1923 0.9813
vn -0.0092 0.1924 0.9813
vn -0.6066 0.7843 -0.1299
vn 0.1741 0.5824 0.7940
vn 0.1740 0.5824 0.7941
vn -0.9849 0.1729 -0.0010
vn -0.9883 0.1523 -0.0026
vn 0.9848 0.1736 -0.0011
vn 0.9882 0.1532 -0.0027
vn 0.9646 0.2636 0.0061
vn 0.1740 0.5825 0.7940
vn -0.9646 0.2637 0.0060
vn 0.0158 0.7683 -0.6399
vn 0.0159 0.7682 -0.6400
vn 0.0163 0.7696 -0.6384
vn 0.0002 0.0009 1.0000
vn -0.0000 -0.0010 1.0000
vn -0.0001 -0.0012 1.0000
vn 0.0002 0.0007 1.0000
vt 0.440286 0.449811
vt 0.439974 0.492190
vt 0.426706 0.489008
vt 0.431186 0.490521
vt 0.437855 0.492646
vt 0.440061 0.492190
vt 0.454077 0.452290
vt 0.440349 0.449764
vt 0.436779 0.446619
vt 0.486501 0.770297
vt 0.489598 0.771158
vt 0.489598 0.771179
vt 0.455216 0.492191
vt 0.412629 0.448043
vt 0.406250 0.450352
vt 0.400646 0.449545
vt 0.399790 0.449282
vt 0.399394 0.449014
vt 0.404436 0.450035
vt 0.413204 0.447115
vt 0.411764 0.448603
vt 0.436787 0.446621
vt 0.428908 0.454017
vt 0.437846 0.492646
vt 0.428916 0.454009
vt 0.493464 0.575642
vt 0.489912 0.578944
vt 0.489839 0.576945
vt 0.484304 0.524590
vt 0.488876 0.519351
vt 0.488260 0.518596
vt 0.493463 0.575641
vt 0.489838 0.576944
vt 0.603699 0.375000
vt 0.601133 0.375000
vt 0.606655 0.483469
vt 0.609818 0.484468
vt 0.510881 0.482130
vt 0.606664 0.483433
vt 0.514212 0.487486
vt 0.510768 0.482081
vt 0.506938 0.482094
vt 0.390046 0.414920
vt 0.389963 0.415124
vt 0.382531 0.415630
vt 0.382365 0.415301
vt 0.593108 0.538765
vt 0.594332 0.518440
vt 0.598549 0.532711
vt 0.597321 0.516872
vt 0.594202 0.539531
vt 0.580058 0.548119
vt 0.494280 0.577760
vt 0.500000 0.575410
vt 0.578430 0.547931
vt 0.413393 0.446881
vt 0.494278 0.577761
vt 0.593108 0.538763
vt 0.583302 0.771386
vt 0.588640 0.772737
vt 0.584377 0.767361
vt 0.495101 0.768727
vt 0.493764 0.766030
vt 0.431109 0.490495
vt 0.495097 0.576282
vt 0.493765 0.766030
vt 0.494795 0.768739
vt 0.494689 0.515902
vt 0.495491 0.514548
vt 0.590969 0.511083
vt 0.587508 0.512814
vt 0.495085 0.576279
vt 0.583387 0.771084
vt 0.588620 0.773135
vt 0.604211 0.488297
vt 0.507077 0.482146
vt 0.508598 0.375000
vt 0.407811 0.838704
vt 0.407911 0.838506
vt 0.416098 0.838193
vt 0.416415 0.838413
s 1
g van0_misc_d3_Plastic
usemtl Plastic
f 9/1/1 8/2/1 7/3/1
f 13/4/2 15/5/3 17/6/4 16/3/5
f 11/7/6 18/8/7 10/9/8
f 66/10/9 69/11/10 75/12/11 74/10/11
f 14/13/12 17/6/13 15/5/14
f 60/14/15 55/15/16 58/16/17
f 59/17/18 56/18/19 61/19/20
f 62/20/21 63/21/22 61/19/20
f 9/1/23 5/13/24 2/7/25
f 2/7/25 1/22/26 9/1/23
f 7/3/27 3/23/28 9/1/29
f 1/22/26 3/23/30 9/1/23
f 5/13/31 6/24/32 8/2/33
f 18/8/7 14/13/34 17/6/34
f 18/8/35 16/3/35 17/6/35
f 16/3/5 12/25/36 13/4/2
f 18/8/7 12/25/37 10/9/8
f 19/26/38 27/27/39 29/28/40
f 19/26/38 29/28/40 35/29/41
f 23/30/42 35/29/43 36/31/43
f 46/27/44 37/32/45 48/33/46
f 48/33/46 37/32/45 41/29/47
f 54/31/48 41/29/48 42/30/49
f 56/18/19 59/17/18 58/16/17
f 55/15/16 56/18/19 58/16/17
f 81/34/50 84/35/50 91/36/51 90/37/51
f 61/19/20 63/21/22 59/17/18
f 87/38/52 86/39/53 79/40/53
f 92/41/54 78/42/55 88/40/54
f 24/47/57 20/48/58 32/49/59
f 20/48/58 30/50/60 32/49/59
f 32/49/59 33/51/57 24/47/57
f 31/52/57 27/53/39 26/54/61
f 31/52/57 26/54/61 25/55/57
f 60/14/15 63/21/22 62/20/21 57/56/62
f 45/54/63 46/57/44 50/52/64
f 52/51/65 51/49/64 43/58/64
f 51/49/64 49/50/66 38/48/67
f 43/58/64 51/49/64 38/48/67
f 44/55/68 45/54/63 50/52/64
f 25/55/57 24/47/57 33/51/57 31/52/57
f 60/14/15 57/56/62 55/15/16
f 9/1/23 8/2/24 5/13/24
f 77/59/69 64/60/70 73/61/71
f 44/55/68 50/52/64 52/51/65 43/58/64
f 77/59/69 73/61/71 76/62/72
f 73/61/71 72/63/73 76/62/72
f 7/3/27 4/64/74 3/23/28
f 18/8/7 11/7/6 14/13/34
f 16/3/5 18/8/36 12/25/36
f 19/26/38 26/65/61 27/27/39
f 58/16/17 59/17/18 63/21/22 60/14/15
f 66/10/9 65/66/75 70/67/76 69/11/10
f 39/68/77 47/69/78 54/31/48 42/30/49
f 21/68/79 28/69/80 34/70/81 22/71/81
f 30/50/60 20/48/58 22/71/81 34/70/81
f 46/27/44 45/72/63 37/32/45
f 6/24/32 4/64/74 7/3/27 8/2/33
f 70/67/76 65/66/75 68/61/75 71/73/75
f 64/60/70 77/59/69 71/73/75 67/74/82
f 68/61/75 67/74/82 71/73/75
f 75/12/11 76/62/72 72/63/73 74/10/11
f 39/68/77 40/71/83 53/70/83 47/69/78
f 21/68/79 23/30/42 36/31/43 28/69/80
f 83/37/53 82/75/84 86/39/53
f 82/75/84 79/40/53 86/39/53
f 80/76/85 78/42/55 85/77/86
f 80/76/85 85/77/86 87/38/52
f 79/40/53 80/76/85 87/38/52
f 88/40/54 89/75/51 91/36/51
f 89/75/51 90/37/51 91/36/51
f 81/34/50 83/37/53 86/39/53 84/35/50
f 92/41/54 85/77/86 78/42/55
f 91/36/51 92/41/54 88/40/54
f 49/50/66 53/70/83 40/71/83 38/48/67
g van0_misc_d3_White
usemtl White
f 93/43/56 95/44/56 96/45/56 94/46/56
f 100/78/87 99/79/88 98/80/89 97/81/90
