# Blender 4.4.0
# www.blender.org
mtllib van0.mtl
o van0_misc
v 0.265345 -0.022636 -1.504784
v 0.281069 -0.000711 -1.482118
v 0.269955 -0.049430 -1.510002
v 0.419047 -0.062966 -1.512569
v 0.416827 0.000546 -1.475330
v 0.434022 -0.022636 -1.504784
v 0.264815 -0.022274 -1.456958
v 0.269955 -0.049430 -1.460002
v 0.419047 -0.062966 -1.462569
v 0.416827 0.000546 -1.425330
v 0.434022 -0.022274 -1.456958
v 0.281069 -0.000711 -1.432118
v 0.434256 -0.036910 -1.509491
v 0.429491 -0.049047 -1.511030
v 0.279743 -0.061103 -1.511525
v 0.269595 -0.010186 -1.495499
v 0.429451 -0.008082 -1.491144
v 0.265239 -0.036098 -1.508683
v 0.265395 -0.035653 -1.458458
v 0.269575 -0.010505 -1.445804
v 0.429529 -0.007785 -1.441941
v 0.434353 -0.036861 -1.458501
v 0.429356 -0.049004 -1.460559
v 0.280484 -0.060622 -1.461311
v -0.265345 -0.022636 -1.504784
v -0.281069 -0.000711 -1.482118
v -0.269955 -0.049430 -1.510002
v -0.419047 -0.062966 -1.512569
v -0.416827 0.000546 -1.475330
v -0.434022 -0.022636 -1.504784
v -0.264815 -0.022274 -1.456958
v -0.269955 -0.049430 -1.460002
v -0.419047 -0.062966 -1.462569
v -0.416827 0.000546 -1.425330
v -0.434022 -0.022274 -1.456958
v -0.281069 -0.000711 -1.432118
v -0.434256 -0.036910 -1.509491
v -0.429491 -0.049047 -1.511030
v -0.279743 -0.061103 -1.511525
v -0.269595 -0.010186 -1.495499
v -0.429451 -0.008082 -1.491144
v -0.265239 -0.036098 -1.508683
v -0.265395 -0.035653 -1.458458
v -0.269575 -0.010505 -1.445804
v -0.429529 -0.007785 -1.441941
v -0.434353 -0.036861 -1.458501
v -0.429356 -0.049004 -1.460559
v -0.280484 -0.060622 -1.461311
v 0.440298 0.128269 -0.619527
v 0.375773 0.374351 -0.617671
v 0.436082 0.165038 -1.003365
v 0.387719 0.333065 -0.757219
v 0.379809 0.360522 -0.708767
v 0.376058 0.373442 -0.649009
v 0.441250 0.119579 -0.999719
v 0.439939 0.131182 -1.025321
v 0.437919 0.148947 -1.026936
v 0.375232 0.376672 -0.537570
v 0.376666 0.371827 -0.508498
v 0.385959 0.350689 -0.493760
v 0.437089 0.155242 -0.508862
v 0.439410 0.135981 -0.522099
v 0.438249 0.141984 -0.513348
v 0.437084 0.155263 -0.502838
v 0.436082 0.165069 -1.014610
v 0.439379 0.135928 -0.509098
v 0.441020 0.122152 -0.619574
v 0.373828 0.381136 -0.617620
v 0.385251 0.351799 -0.486611
v 0.373073 0.383999 -0.537445
v 0.375524 0.375435 -0.503640
v 0.386170 0.338475 -0.760559
v 0.377992 0.366872 -0.712781
v 0.374196 0.379943 -0.651031
v 0.440082 0.129972 -0.520912
v 0.441787 0.114910 -1.003957
v 0.440152 0.129334 -1.034607
v 0.437641 0.151419 -1.034607
v -0.440298 0.128269 -0.619527
v -0.375773 0.374351 -0.617671
v -0.436082 0.165038 -1.003365
v -0.387719 0.333065 -0.757219
v -0.379809 0.360522 -0.708767
v -0.376058 0.373442 -0.649009
v -0.441250 0.119579 -0.999719
v -0.439939 0.131182 -1.025321
v -0.437919 0.148947 -1.026936
v -0.375232 0.376672 -0.537570
v -0.376666 0.371827 -0.508498
v -0.385959 0.350689 -0.493760
v -0.437089 0.155242 -0.508862
v -0.439410 0.135981 -0.522099
v -0.438249 0.141984 -0.513348
v -0.437084 0.155263 -0.502838
v -0.436082 0.165069 -1.014610
v -0.439379 0.135928 -0.509098
v -0.441020 0.122152 -0.619574
v -0.373828 0.381136 -0.617620
v -0.385251 0.351799 -0.486611
v -0.373073 0.383999 -0.537445
v -0.375524 0.375435 -0.503640
v -0.386170 0.338475 -0.760559
v -0.377992 0.366872 -0.712781
v -0.374196 0.379943 -0.651031
v -0.440082 0.129972 -0.520912
v -0.441787 0.114910 -1.003957
v -0.440152 0.129334 -1.034607
v -0.437641 0.151419 -1.034607
v 0.275030 -0.140676 -1.537266
v 0.000000 -0.184241 -1.541459
v 0.000000 -0.101058 -1.519476
v 0.261945 -0.101058 -1.519346
v 0.275030 -0.113208 -1.525022
v 0.275030 -0.167418 -1.539949
v 0.261945 -0.184242 -1.541632
v 0.270291 -0.103978 -1.522184
v 0.271192 -0.178534 -1.540790
v 0.000000 -0.101058 -1.499476
v 0.000000 -0.141867 -1.517266
v 0.275030 -0.140676 -1.517266
v 0.000000 -0.184241 -1.521459
v 0.261945 -0.101058 -1.499346
v 0.270291 -0.103978 -1.502184
v 0.275030 -0.113208 -1.505022
v 0.275030 -0.167418 -1.519949
v 0.271192 -0.178534 -1.520790
v 0.261945 -0.184242 -1.521632
v -0.275030 -0.140676 -1.537266
v -0.261945 -0.101058 -1.519346
v -0.275030 -0.113208 -1.525022
v -0.275030 -0.167418 -1.539949
v -0.261945 -0.184242 -1.541632
v -0.270291 -0.103978 -1.522184
v -0.271192 -0.178534 -1.540790
v -0.275030 -0.140676 -1.517266
v -0.261945 -0.101058 -1.499346
v -0.270291 -0.103978 -1.502184
v -0.275030 -0.113208 -1.505022
v -0.275030 -0.167418 -1.519949
v -0.271192 -0.178534 -1.520790
v -0.261945 -0.184242 -1.521632
v 0.000000 0.401869 0.879709
v 0.378056 0.159730 0.939163
v 0.000000 0.116748 0.942834
v 0.307812 0.401869 0.876779
v 0.325323 0.394906 0.878915
v 0.333048 0.377731 0.885293
v 0.376919 0.132885 0.941204
v 0.360975 0.116748 0.942834
v 0.000000 0.393708 0.881516
v 0.000000 0.125672 0.940858
v 0.357966 0.125646 0.941539
v 0.368351 0.137329 0.940828
v 0.369649 0.159397 0.938515
v 0.324864 0.374885 0.884084
v 0.317075 0.389814 0.880295
v 0.306041 0.393059 0.879545
v -0.378056 0.159730 0.939163
v -0.307812 0.401869 0.876779
v -0.325323 0.394906 0.878915
v -0.333048 0.377731 0.885293
v -0.376919 0.132885 0.941204
v -0.360975 0.116748 0.942834
v -0.357966 0.125646 0.941539
v -0.368351 0.137329 0.940828
v -0.369649 0.159397 0.938515
v -0.324864 0.374885 0.884084
v -0.317075 0.389814 0.880295
v -0.306041 0.393059 0.879545
v 0.000000 0.179963 -1.111560
v 0.384163 0.196369 -1.082587
v 0.363164 0.179102 -1.112914
v 0.377407 0.182347 -1.107458
v 0.000000 0.406273 -0.756080
v 0.334676 0.392502 -0.754212
v 0.323571 0.404325 -0.734602
v 0.307345 0.406922 -0.730245
v 0.000000 0.400314 -0.765440
v 0.000000 0.185367 -1.103073
v 0.307399 0.400639 -0.740754
v 0.320380 0.397934 -0.745206
v 0.325248 0.388739 -0.760559
v 0.376091 0.197266 -1.082147
v 0.373499 0.189153 -1.096019
v 0.359865 0.184543 -1.096931
v -0.384163 0.196369 -1.082587
v -0.363164 0.179102 -1.112914
v -0.377407 0.182347 -1.107458
v -0.334676 0.392502 -0.754212
v -0.323571 0.404325 -0.734602
v -0.307345 0.406922 -0.730245
v -0.307399 0.400639 -0.740754
v -0.320380 0.397934 -0.745206
v -0.325248 0.388739 -0.760559
v -0.376091 0.197266 -1.082147
v -0.373499 0.189153 -1.096019
v -0.359865 0.184543 -1.096931
v 0.000000 -0.232033 -1.546189
v 0.000000 -0.279092 -1.540175
v 0.135258 -0.230403 -1.546124
v 0.134390 -0.277286 -1.540112
v 0.143036 -0.234626 -1.545562
v 0.146041 -0.241527 -1.544439
v 0.145665 -0.268056 -1.541267
v 0.141751 -0.273809 -1.540701
v 0.000000 -0.232033 -1.536189
v 0.000000 -0.279092 -1.530175
v 0.134390 -0.277286 -1.530112
v 0.135258 -0.230403 -1.536124
v 0.143036 -0.234626 -1.535562
v 0.146041 -0.241527 -1.534439
v 0.145665 -0.268056 -1.531267
v 0.141751 -0.273809 -1.530701
v -0.135258 -0.230403 -1.546124
v -0.134390 -0.277286 -1.540112
v -0.143036 -0.234626 -1.545562
v -0.146041 -0.241527 -1.544439
v -0.145665 -0.268056 -1.541267
v -0.141751 -0.273809 -1.540701
v -0.134390 -0.277286 -1.530112
v -0.135258 -0.230403 -1.536124
v -0.143036 -0.234626 -1.535562
v -0.146041 -0.241527 -1.534439
v -0.145665 -0.268056 -1.531267
v -0.141751 -0.273809 -1.530701
v 0.000000 -0.164530 0.956160
v 0.000000 -0.120618 0.956160
v 0.131359 -0.163989 0.956160
v 0.134048 -0.119839 0.956160
v 0.145120 -0.130911 0.956160
v 0.145128 -0.153915 0.956160
v 0.140432 -0.161427 0.956160
v 0.140836 -0.123810 0.956160
v 0.000000 -0.120618 0.946160
v 0.000000 -0.164530 0.946160
v 0.131359 -0.163989 0.946160
v 0.134048 -0.119839 0.946160
v 0.140836 -0.123810 0.946160
v 0.145120 -0.130911 0.946160
v 0.145128 -0.153915 0.946160
v 0.140432 -0.161427 0.946160
v -0.131359 -0.163989 0.956160
v -0.134048 -0.119839 0.956160
v -0.145120 -0.130911 0.956160
v -0.145128 -0.153915 0.956160
v -0.140432 -0.161427 0.956160
v -0.140836 -0.123810 0.956160
v -0.131359 -0.163989 0.946160
v -0.134048 -0.119839 0.946160
v -0.140836 -0.123810 0.946160
v -0.145120 -0.130911 0.946160
v -0.145128 -0.153915 0.946160
v -0.140432 -0.161427 0.946160
vn -0.0052 0.1308 -0.9914
vn -0.0027 0.1354 -0.9908
vn -0.4153 0.9097 0.0015
vn -0.7422 0.6702 0.0002
vn -0.2377 0.9713 0.0008
vn -0.5538 -0.8326 0.0029
vn -0.6809 -0.7323 0.0030
vn -0.5538 -0.8327 0.0029
vn 0.0052 0.1308 -0.9914
vn 0.0027 0.1354 -0.9908
vn 0.0026 0.1356 -0.9908
vn -0.0069 0.8583 -0.5132
vn -0.0040 0.7619 -0.6477
vn -0.0041 0.7667 -0.6420
vn -0.8918 -0.4524 0.0030
vn -0.9806 -0.1958 0.0020
vn 0.9933 0.1153 -0.0000
vn 0.9933 0.1153 -0.0001
vn -0.8772 0.4801 -0.0034
vn -0.9770 0.2131 -0.0049
vn 0.9930 0.1183 -0.0050
vn 0.9824 0.1866 0.0072
vn 0.9784 0.2066 0.0098
vn 0.9930 0.1182 -0.0043
vn 0.0017 0.4051 -0.9143
vn 0.0018 0.4051 -0.9143
vn 0.0003 0.0990 -0.9951
vn -0.0201 0.8807 -0.4732
vn -0.0026 -0.1268 -0.9919
vn -0.0026 -0.1269 -0.9919
vn -0.0000 -0.0000 1.0000
vn -0.0026 0.1356 -0.9908
vn 0.9770 0.2131 -0.0047
vn 0.8772 0.4801 -0.0034
vn 0.4153 0.9097 0.0015
vn 0.7422 0.6702 0.0002
vn -0.9930 0.1183 -0.0050
vn -0.9930 0.1182 -0.0043
vn -0.0000 0.2121 0.9772
vn -0.0350 0.2120 0.9766
vn -0.2453 -0.9694 -0.0000
vn -0.2351 -0.9720 -0.0000
vn -0.7208 -0.6931 -0.0000
vn -0.7521 -0.6590 -0.0000
vn -0.0013 0.4039 -0.9148
vn -0.0014 0.4061 -0.9138
vn 0.9943 -0.1063 0.0016
vn 0.9806 -0.1958 0.0020
vn 0.9866 0.1632 0.0003
vn 0.9777 0.2101 0.0001
vn 0.9812 -0.1931 0.0001
vn 0.9869 -0.1610 -0.0006
vn 0.8696 -0.4938 0.0058
vn 0.8572 -0.5149 0.0061
vn -0.9939 0.1100 -0.0043
vn 0.8775 0.4796 -0.0010
vn 0.8680 0.4966 -0.0010
vn -0.8696 -0.4938 0.0058
vn -0.9869 -0.1610 -0.0006
vn -0.9812 -0.1931 0.0001
vn -0.8572 -0.5149 0.0061
vn 0.0005 0.1211 -0.9926
vn 0.0005 0.1210 -0.9927
vn 0.8918 -0.4524 0.0030
vn 0.5538 -0.8326 0.0029
vn 0.6809 -0.7324 0.0030
vn -0.9943 -0.1065 0.0016
vn 0.0026 -0.1268 -0.9919
vn -0.0000 -0.1270 -0.9919
vn 0.0026 -0.1269 -0.9919
vn 0.2377 0.9713 0.0008
vn -0.7470 -0.6648 0.0087
vn -0.0093 1.0000 -0.0000
vn -0.9619 0.2730 0.0169
vn -0.9619 0.2730 0.0168
vn 0.0201 0.8807 -0.4732
vn -0.9839 -0.1788 -0.0000
vn -0.9767 -0.2147 -0.0000
vn -0.9591 0.2830 -0.0000
vn -0.9476 0.3194 -0.0000
vn 0.9939 0.1100 -0.0043
vn -0.0003 0.0990 -0.9951
vn -0.0000 0.0988 -0.9951
vn -0.0000 0.2548 -0.9670
vn -0.0011 0.2557 -0.9667
vn -0.4569 0.8895 -0.0034
vn -0.8775 0.4796 -0.0010
vn -0.8680 0.4966 -0.0010
vn -0.4298 0.9029 -0.0036
vn 0.5538 -0.8327 0.0029
vn -0.9616 0.2742 0.0091
vn -0.9616 0.2743 0.0086
vn -0.9619 0.2729 0.0169
vn 0.0069 0.8583 -0.5132
vn 0.0041 0.7667 -0.6420
vn 0.0040 0.7619 -0.6477
vn 0.0151 0.9999 -0.0049
vn -0.0000 0.2121 0.9773
vn -0.0350 0.2119 0.9767
vn 0.0093 1.0000 -0.0000
vn 0.9619 0.2729 0.0169
vn 0.9619 0.2730 0.0169
vn 0.9619 0.2730 0.0168
vn 0.9696 0.2446 0.0007
vn 0.9891 0.1471 0.0001
vn 0.9613 0.2756 0.0007
vn -0.0350 0.2120 0.9767
vn 0.0010 0.2557 -0.9668
vn -0.0000 0.4052 -0.9142
vn 0.4569 0.8895 -0.0034
vn -0.0151 0.9999 -0.0049
vn 0.4298 0.9029 -0.0036
vn -0.9932 0.1168 -0.0024
vn -0.9931 0.1169 -0.0026
vn 0.9931 0.1169 -0.0026
vn 0.9932 0.1168 -0.0024
vn 0.9933 0.1154 -0.0001
vn -0.9933 0.1154 -0.0001
vn -0.9933 0.1153 -0.0000
vn -0.9933 0.1153 -0.0001
vn 0.9616 0.2743 0.0086
vn 0.9616 0.2742 0.0091
vn -0.9613 0.2756 0.0007
vn -0.9891 0.1471 0.0001
vn -0.9696 0.2446 0.0007
vn 0.9613 0.2756 0.0008
vn -0.9613 0.2756 0.0008
vn -0.9784 0.2066 0.0098
vn -0.9824 0.1866 0.0072
vn -0.0017 0.4051 -0.9143
vn -0.0018 0.4051 -0.9143
vn 1.0000 -0.0000 -0.0000
vn 0.9826 -0.1858 -0.0000
vn 0.9575 -0.2885 -0.0000
vn 0.6006 -0.7996 -0.0000
vn 0.7109 -0.7033 -0.0000
vn 0.1825 -0.9832 -0.0000
vn 0.1491 -0.9888 -0.0000
vn 0.9877 0.1565 -0.0000
vn 0.9846 0.1746 -0.0000
vn -0.0000 -1.0000 -0.0000
vn 0.7911 0.6117 -0.0000
vn 0.7700 0.6380 -0.0000
vn 0.2795 0.9601 -0.0000
vn 0.2662 0.9639 -0.0000
vn -0.2795 0.9601 -0.0000
vn -0.2662 0.9639 -0.0000
vn -0.0000 1.0000 -0.0000
vn 0.0350 0.2119 0.9767
vn -0.0005 0.1210 -0.9927
vn -0.0005 0.1211 -0.9926
vn -0.6396 0.7687 -0.0000
vn -0.6598 0.7514 -0.0000
vn -0.2301 0.9732 -0.0000
vn -0.2205 0.9754 -0.0000
vn 0.0014 0.4061 -0.9138
vn 0.0013 0.4039 -0.9148
vn 0.0350 0.2120 0.9767
vn 0.0350 0.2120 0.9766
vn -0.6006 -0.7996 -0.0000
vn -0.1491 -0.9888 -0.0000
vn -0.1825 -0.9832 -0.0000
vn -0.7109 -0.7033 -0.0000
vn -0.0200 0.8807 -0.4732
vn -0.0000 0.8809 -0.4733
vn -0.9866 0.1632 0.0003
vn -0.9777 0.2101 0.0001
vn 0.0200 0.8807 -0.4732
vn -0.9575 -0.2885 -0.0000
vn -0.9826 -0.1858 -0.0000
vn -0.9877 0.1565 -0.0000
vn -1.0000 -0.0000 -0.0000
vn -0.9846 0.1746 -0.0000
vn 0.6598 0.7514 -0.0000
vn 0.9591 0.2830 -0.0000
vn 0.9476 0.3194 -0.0000
vn 0.6396 0.7687 -0.0000
vn 0.0025 -0.1268 -0.9919
vn 0.9767 -0.2147 -0.0000
vn 0.7208 -0.6931 -0.0000
vn 0.7521 -0.6590 -0.0000
vn 0.9839 -0.1788 -0.0000
vn 0.2301 0.9732 -0.0000
vn 0.2205 0.9754 -0.0000
vn 0.2351 -0.9720 -0.0000
vn 0.2453 -0.9694 -0.0000
vn -0.0025 -0.1268 -0.9919
vn -0.7911 0.6117 -0.0000
vn -0.7700 0.6380 -0.0000
vn 0.7470 -0.6648 0.0087
vn 0.9613 0.2756 -0.0000
vn 0.6001 0.7999 -0.0000
vn -0.7023 -0.7119 -0.0000
vn -0.2588 -0.9659 -0.0000
vn 0.2588 -0.9659 -0.0000
vn 0.7023 -0.7119 -0.0000
vn -0.9633 -0.2683 -0.0000
vn 0.1392 0.9903 -0.0000
vn -0.1392 0.9903 -0.0000
vn -0.6001 0.7999 -0.0000
vn -0.9613 0.2756 -0.0000
vn 0.9633 -0.2683 -0.0000
vt 0.429067 0.453859
vt 0.430572 0.490314
vt 0.426706 0.489008
vt 0.454077 0.452290
vt 0.444944 0.448569
vt 0.455216 0.492191
vt 0.445912 0.492435
vt 0.431603 0.451357
vt 0.446358 0.492423
vt 0.437500 0.492655
vt 0.483569 0.524753
vt 0.488260 0.518596
vt 0.488876 0.519351
vt 0.445789 0.448913
vt 0.437500 0.445537
vt 0.494863 0.576236
vt 0.500000 0.575410
vt 0.500000 0.576126
vt 0.489912 0.578944
vt 0.411240 0.450237
vt 0.412382 0.448422
vt 0.413523 0.446608
vt 0.398656 0.448074
vt 0.400119 0.449633
vt 0.401581 0.451192
vt 0.514212 0.487486
vt 0.514398 0.484937
vt 0.510608 0.482218
vt 0.381639 0.414042
vt 0.388233 0.416749
vt 0.390750 0.413424
vt 0.406250 0.840811
vt 0.417310 0.839525
vt 0.415156 0.837159
vt 0.490079 0.577575
vt 0.493679 0.576004
vt 0.583529 0.875000
vt 0.580752 0.875000
vt 0.584976 0.774091
vt 0.588620 0.773135
vt 0.389918 0.415719
vt 0.434532 0.491652
vt 0.434240 0.491553
vt 0.434158 0.448835
vt 0.434595 0.448404
vt 0.430473 0.490281
vt 0.381517 0.375000
vt 0.390625 0.375000
vt 0.428654 0.454267
vt 0.578430 0.547931
vt 0.580058 0.548119
vt 0.594202 0.539531
vt 0.592879 0.539302
vt 0.606632 0.484097
vt 0.607798 0.480014
vt 0.610678 0.480467
vt 0.609562 0.485658
vt 0.383414 0.417135
vt 0.398907 0.375000
vt 0.406250 0.375000
vt 0.406250 0.450352
vt 0.602435 0.484925
vt 0.604211 0.488297
vt 0.597225 0.521491
vt 0.594187 0.522761
vt 0.595097 0.534096
vt 0.598549 0.532711
vt 0.486500 0.875000
vt 0.486501 0.770297
vt 0.489598 0.771179
vt 0.489538 0.875000
vt 0.500234 0.768520
vt 0.493790 0.768780
vt 0.492494 0.765907
vt 0.500000 0.766633
vt 0.500000 0.515803
vt 0.500000 0.514447
vt 0.579159 0.510844
vt 0.576559 0.766604
vt 0.576464 0.769199
vt 0.414662 0.375000
vt 0.576679 0.512339
vt 0.494702 0.515902
vt 0.495505 0.514548
vt 0.486403 0.567941
vt 0.488391 0.567089
vt 0.485104 0.524412
vt 0.594332 0.518435
vt 0.597321 0.516868
vt 0.589119 0.512885
vt 0.592041 0.511105
vt 0.585594 0.767479
vt 0.583462 0.770582
vt 0.382546 0.415918
vt 0.496047 0.576467
vt 0.493451 0.577997
vt 0.510349 0.479219
vt 0.505984 0.479896
vt 0.507482 0.482979
vt 0.506271 0.375000
vt 0.508598 0.375000
vt 0.601133 0.375000
vt 0.603699 0.375000
vt 0.417205 0.875000
vt 0.406250 0.875000
vt 0.407746 0.838346
vt 0.409625 0.837085
vt 0.416233 0.838342
s 1
g van0_misc_Plastic
usemtl Plastic
f 24/1/1 23/2/2 9/3/1
f 2/4/3 20/5/4 12/4/5
f 5/6/6 21/7/7 10/6/8
f 48/1/9 47/2/10 32/8/11
f 36/4/12 44/5/13 45/7/14 34/6/12
f 17/9/15 11/10/16 21/7/7 5/6/6
f 76/11/17 77/12/18 56/13/17
f 16/14/19 7/15/20 20/5/4 2/4/3
f 63/16/21 61/17/22 64/18/23 66/19/24
f 138/20/25 137/21/26 136/22/25
f 141/23/27 140/24/27 139/25/27
f 186/26/28 195/27/28 196/28/28
f 24/1/1 8/8/32 23/2/2
f 31/15/33 40/14/34 26/4/35 44/5/36
f 105/35/37 96/19/38 93/16/37 92/36/37
f 142/37/39 150/38/39 157/39/40 145/40/40
f 44/5/13 31/15/45 35/10/46 45/7/14
f 30/10/47 35/10/48 46/42/49 37/43/50
f 42/44/51 43/45/52 32/8/53 27/8/54
f 16/14/19 1/15/55 7/15/20
f 37/43/50 46/42/49 47/2/56 38/46/57
f 8/8/58 19/45/59 18/44/60 3/8/61
f 47/2/10 46/42/62 43/45/63 32/8/11
f 43/45/63 46/42/62 35/10/46 31/15/45
f 35/10/48 41/9/64 29/6/65 45/7/66
f 17/9/15 6/10/67 11/10/16
f 48/1/9 33/3/9 47/2/10
f 26/4/35 36/4/71 44/5/36
f 19/45/59 7/15/20 1/15/55 18/44/60
f 24/1/72 8/8/58 3/8/61 15/49/72
f 12/4/5 10/6/73 5/6/73 2/4/3
f 90/50/74 99/51/74 101/52/75 89/53/74
f 181/54/76 180/55/76 177/56/76 176/57/76
f 31/15/33 25/15/81 40/14/34
f 127/23/82 121/59/83 119/60/84 120/61/85
f 9/3/86 23/2/87 14/46/88 4/3/89
f 183/27/76 182/62/76 175/63/76 171/26/76
f 29/6/65 34/6/90 45/7/66
f 98/64/91 80/65/92 88/66/93 100/67/93
f 12/4/94 10/6/94 21/7/95 20/5/96
f 35/10/48 30/10/47 41/9/64
f 9/3/86 4/3/89 15/49/97 24/1/97
f 144/68/98 149/69/99 152/70/99 151/71/39
f 36/4/71 26/4/35 29/6/100 34/6/100
f 70/67/101 71/52/102 59/53/103
f 58/66/101 70/67/101 59/53/103
f 154/72/99 153/73/99 148/74/99 143/75/99
f 51/76/104 65/77/105 72/78/106
f 147/79/107 155/80/99 154/72/99 143/75/99
f 119/60/84 135/61/108 136/22/25 118/81/109
f 51/76/104 72/78/106 52/82/106
f 33/3/110 48/1/111 39/49/111 28/3/112
f 57/83/18 56/13/17 77/12/18 78/84/18
f 97/85/113 105/35/37 92/36/37 79/86/114
f 49/86/115 67/85/116 55/87/117
f 67/85/116 76/11/17 55/87/117
f 78/84/18 65/77/105 57/83/18
f 65/77/105 51/76/104 57/83/18
f 87/83/118 108/84/119 107/12/119 86/13/120
f 56/13/17 55/87/117 76/11/17
f 69/51/102 64/18/23 61/17/22 60/50/102
f 101/52/75 100/67/93 89/53/74
f 58/66/101 50/65/121 68/64/122 70/67/101
f 100/67/93 88/66/93 89/53/74
f 60/50/102 59/53/103 71/52/102 69/51/102
f 102/78/123 95/77/124 81/76/125
f 102/78/123 81/76/125 82/82/123
f 68/64/122 50/65/121 54/88/126 74/89/126
f 74/89/126 54/88/126 53/90/126 73/91/126
f 52/82/106 72/78/106 73/91/126 53/90/126
f 38/46/57 47/2/56 33/3/110 28/3/112
f 62/36/21 63/16/21 66/19/24 75/35/21
f 106/11/119 97/85/113 85/87/118
f 97/85/113 79/86/114 85/87/118
f 81/76/125 95/77/124 87/83/118
f 95/77/124 108/84/119 87/83/118
f 107/12/119 106/11/119 86/13/120
f 106/11/119 85/87/118 86/13/120
f 146/92/40 156/93/107 155/80/99 147/79/107
f 103/91/127 102/78/123 82/82/123 83/90/127
f 94/18/128 99/51/74 90/50/74 91/17/129
f 122/22/130 123/21/131 124/20/130
f 124/20/130 120/61/85 122/22/130
f 119/60/84 121/59/83 141/23/27 135/61/108
f 120/61/85 125/25/82 127/23/82
f 125/25/82 126/24/82 127/23/82
f 135/61/132 128/61/132 130/20/133 138/20/134
f 137/21/135 133/21/136 129/22/137 136/22/138
f 139/25/139 131/25/140 128/61/132 135/61/132
f 129/22/137 111/81/141 118/81/141 136/22/138
f 140/24/142 134/24/143 131/25/140 139/25/139
f 141/23/144 132/23/145 134/24/143 140/24/142
f 138/20/134 130/20/133 133/21/136 137/21/135
f 127/23/146 115/23/147 110/59/148 121/59/148
f 120/61/85 119/60/84 118/81/109 122/22/130
f 135/61/108 138/20/25 136/22/25
f 139/25/27 135/61/108 141/23/27
f 165/73/149 162/74/149 163/69/149 164/70/149
f 23/2/2 8/8/32 19/45/150 22/42/151
f 67/85/116 49/86/115 62/36/21 75/35/21
f 110/59/148 132/23/145 141/23/144 121/59/148
f 11/10/156 7/15/157 20/5/96 21/7/95
f 144/68/98 151/71/39 164/70/149 163/69/149
f 91/95/129 93/16/37 96/96/38 94/18/128
f 165/73/149 166/72/149 158/75/149 162/74/149
f 166/72/149 167/80/158 161/79/149 158/75/149
f 167/80/158 168/93/158 160/92/159 161/79/149
f 146/92/40 145/40/40 156/93/107
f 169/39/159 150/38/39 142/37/39 159/40/159
f 145/40/40 157/39/40 156/93/107
f 83/90/127 84/88/127 104/89/127 103/91/127
f 123/21/160 122/22/161 112/22/162 116/21/163
f 153/73/99 152/70/99 149/69/99 148/74/99
f 196/28/28 197/97/164 187/98/28 188/99/164
f 170/100/165 179/101/165 185/97/76 172/98/76
f 23/2/87 22/42/166 13/43/167 14/46/88
f 159/40/159 160/92/159 168/93/158
f 169/39/159 159/40/159 168/93/158
f 171/26/76 173/99/168 184/28/76
f 124/20/169 123/21/160 116/21/163 113/20/170
f 170/100/165 187/98/28 197/97/164 179/101/165
f 176/57/76 175/63/76 181/54/76
f 194/62/28 195/27/28 186/26/28 189/63/28
f 125/25/171 120/61/172 109/61/172 114/25/173
f 192/55/28 193/54/28 190/57/28 191/56/28
f 182/62/76 181/54/76 175/63/76
f 171/26/76 184/28/76 183/27/76
f 120/61/172 124/20/169 113/20/170 109/61/172
f 189/63/28 190/57/28 193/54/28
f 194/62/28 189/63/28 193/54/28
f 43/45/52 42/44/51 25/15/81 31/15/33
f 180/55/76 178/102/165 174/103/165 177/56/76
f 184/28/76 173/99/168 172/98/76 185/97/76
f 188/99/164 186/26/28 196/28/28
f 22/42/166 11/10/16 6/10/67 13/43/167
f 118/81/141 111/81/141 112/22/162 122/22/161
f 174/103/165 178/102/165 192/55/28 191/56/28
f 84/88/127 80/65/92 98/64/91 104/89/127
f 127/23/146 126/24/188 117/24/189 115/23/147
f 48/1/190 39/49/190 27/8/54 32/8/53
f 126/24/188 125/25/171 114/25/173 117/24/189
f 19/45/150 7/15/157 11/10/156 22/42/151
g van0_misc_White
usemtl White
f 220/29/29 223/30/29 221/31/30
f 248/32/31 249/33/31 251/34/31
f 209/31/41 200/31/42 202/41/43 210/41/44
f 208/29/68 207/47/69 206/48/69 209/31/70
f 211/30/77 203/30/78 204/58/79 212/58/80
f 210/41/44 202/41/43 203/30/78 211/30/77
f 213/94/152 205/94/153 201/29/154 208/29/155
f 212/58/80 204/58/79 205/94/153 213/94/152
f 219/94/174 218/58/175 224/58/176 225/94/177
f 206/48/69 207/47/69 220/29/29 221/31/30
f 209/31/70 210/41/178 211/30/68
f 208/29/68 209/31/70 211/30/68
f 211/30/68 212/58/178 208/29/68
f 212/58/178 213/94/68 208/29/68
f 217/30/179 216/41/180 222/41/181 223/30/182
f 215/29/183 219/94/174 225/94/177 220/29/184
f 214/31/185 198/48/141 206/48/141 221/31/186
f 218/58/175 217/30/179 223/30/182 224/58/176
f 216/41/180 214/31/185 221/31/186 222/41/181
f 222/41/187 221/31/30 223/30/29
f 237/33/31 234/104/31 235/105/31 236/32/31
f 220/29/29 225/94/187 224/58/187
f 224/58/187 223/30/29 220/29/29
f 207/47/148 208/29/155 201/29/154 199/47/148
f 206/48/141 198/48/141 200/31/42 209/31/41
f 249/33/31 248/32/31 235/105/31 234/104/31
f 236/32/31 241/106/31 240/107/31
f 237/33/31 236/32/31 239/34/31
f 240/107/31 239/34/31 236/32/31
f 239/34/31 238/108/31 237/33/31
f 245/107/191 246/106/192 253/106/192 252/107/191
f 238/108/193 233/108/193 229/33/194 237/33/194
f 243/33/195 247/108/196 250/108/196 249/33/195
f 239/34/197 230/34/197 233/108/193 238/108/193
f 237/33/194 229/33/194 227/104/141 234/104/141
f 246/106/192 242/32/198 248/32/198 253/106/192
f 242/32/198 226/105/148 235/105/148 248/32/198
f 253/106/31 248/32/31 252/107/31
f 249/33/31 250/108/31 251/34/31
f 251/34/31 252/107/31 248/32/31
f 236/32/199 228/32/199 232/106/200 241/106/200
f 235/105/148 226/105/148 228/32/199 236/32/199
f 241/106/200 232/106/200 231/107/201 240/107/201
f 207/47/148 199/47/148 215/29/183 220/29/184
f 247/108/196 244/34/202 251/34/202 250/108/196
f 240/107/201 231/107/201 230/34/197 239/34/197
f 244/34/202 245/107/191 252/107/191 251/34/202
f 227/104/141 243/33/195 249/33/195 234/104/141
