# Blender 4.4.0
# www.blender.org
mtllib van0.mtl
o van0_glass_d3
v 0.438482 0.148962 -1.026929
v 0.380791 0.370564 -0.693681
v 0.455244 0.128127 -1.022223
v 0.365772 0.370988 -0.510478
v 0.385959 0.350689 -0.493760
v 0.449731 0.137893 -0.513897
v -0.438482 0.148962 -1.026929
v -0.381161 0.370680 -0.693607
v -0.455244 0.128127 -1.022223
v -0.380330 0.376084 -0.510904
v -0.385959 0.350689 -0.493760
v -0.449359 0.137842 -0.513932
v 0.262710 -0.035606 -1.504126
v 0.276802 -0.001784 -1.484087
v 0.278074 -0.057605 -1.517971
v 0.422441 -0.052554 -1.525956
v 0.416827 0.000546 -1.475330
v 0.435343 -0.014940 -1.493402
v -0.264583 -0.028776 -1.508171
v -0.272620 -0.003819 -1.481822
v -0.278120 -0.057582 -1.518084
v -0.422441 -0.052554 -1.525956
v -0.416827 0.000546 -1.475330
v -0.435343 -0.014940 -1.493402
v 0.358068 0.125627 0.940701
v 0.370529 0.140838 0.936773
v 0.317631 0.392500 0.883028
v -0.368773 0.130394 0.930510
v -0.318347 0.391062 0.882462
v 0.000000 0.400314 -0.765440
v 0.320053 0.398054 -0.742524
v 0.377173 0.174992 -1.091400
v -0.320041 0.397757 -0.742339
v -0.376944 0.179795 -1.091254
vn -0.9537 0.3006 -0.0086
vn -0.9537 0.3005 -0.0086
vn 0.0066 0.6317 -0.7752
vn 0.0067 0.6317 -0.7752
vn 0.0423 0.2172 0.9752
vn -0.0057 0.1973 0.9803
vn 0.0109 0.2042 0.9789
vn -0.0102 0.8336 -0.5523
vn 0.0042 0.8369 -0.5473
vn 0.0135 0.8389 -0.5442
vn 0.0441 0.8450 -0.5330
vn 0.9479 0.3185 -0.0078
vn 0.9479 0.3185 -0.0079
vn 0.9479 0.3186 -0.0078
vn -0.0217 0.6124 -0.7903
vn -0.0211 0.6128 -0.7900
vn -0.0073 0.1966 0.9805
vn -0.0217 0.6123 -0.7903
vn -0.0102 0.8335 -0.5524
vt 0.494481 0.576075
vt 0.578430 0.547931
vt 0.590068 0.514719
vt 0.451543 0.451258
vt 0.435868 0.447148
vt 0.429245 0.453683
vt 0.494959 0.768733
vt 0.583210 0.771362
vt 0.489598 0.771150
vt 0.510498 0.482046
vt 0.601133 0.375000
vt 0.510412 0.482063
vt 0.606643 0.483479
vt 0.494490 0.576081
vt 0.488234 0.520213
vt 0.494698 0.515902
vt 0.590067 0.514713
vt 0.593055 0.538889
vt 0.593096 0.538792
vt 0.443026 0.492510
vt 0.428173 0.489504
vt 0.455216 0.492191
vt 0.582946 0.770963
vt 0.492424 0.769905
vt 0.429250 0.453679
vt 0.434568 0.448430
vt 0.452308 0.451569
vt 0.606649 0.483458
s 1
g van0_glass_d3_Glass
usemtl Glass
f 12/1/1 11/2/2 8/3/2
f 20/4/3 19/5/4 21/6/3
f 26/7/5 27/8/6 25/9/7
f 34/10/8 30/11/9 32/12/10
f 32/12/10 30/11/9 31/13/11
f 6/14/12 3/15/12 1/16/13 2/17/12
f 9/15/1 12/1/1 8/3/2 7/16/1
f 2/17/12 4/18/13 5/2/14
f 6/14/12 2/17/12 5/2/14
f 11/2/2 10/19/2 8/3/2
f 18/20/15 16/21/15 17/22/16
f 29/23/17 28/24/17 25/9/7 27/8/6
f 15/25/18 13/26/18 14/27/15
f 14/27/15 17/22/16 16/21/15 15/25/18
f 22/21/4 24/20/4 23/22/4
f 34/10/8 33/28/19 30/11/9
f 23/22/4 20/4/3 21/6/3 22/21/4
